<?xml version="1.0" encoding="UTF-8"?><svg id="Calque_1" xmlns="http://www.w3.org/2000/svg" viewBox="0 0 964 964"><g><path id="path5969" d="M458.9,150.7h46.3v41.3h-46.3v-41.3Z" fill="#6f889c"/><path id="path5971" d="M458.9,813.4h46.3v-247.9h-46.3v247.9Z" fill="#6f889c"/><g id="g5981"><path id="path5983" d="M669.4,217.2v321.9c0,14.6-11.8,26.4-26.4,26.4H321.1c-14.6,0-26.4-11.8-26.4-26.4V217.2c0-14.6,11.8-26.4,26.4-26.4h321.9c14.6,0,26.4,11.8,26.4,26.4" fill="#e1f4ff"/></g><g id="g5985"><path id="path5987" d="M669.4,217.2v321.9c0,14.6-11.8,26.4-26.4,26.4h-40c14.6,0,26.4-11.8,26.4-26.4V217.2c0-14.6-11.8-26.4-26.4-26.4h40c14.6,0,26.4,11.8,26.4,26.4" fill="#cae6f0"/></g><path id="path5989" d="M629.4,525.5H334.7V230.8h294.7v294.7Z" fill="#f9f05a"/><path id="path5991" d="M629.4,525.5h-47.9V230.8h47.9v294.7Z" fill="#ffc047"/><g id="g5993"><path id="path5995" d="M458.9,192v-41.3h46.3v41.3" fill="none" stroke="#000" stroke-linejoin="round" stroke-width="20"/></g><g id="g5997"><path id="path5999" d="M458.9,730.7v-165.2" fill="none" stroke="#000" stroke-linecap="round" stroke-linejoin="round" stroke-width="20"/></g><g id="g6001"><path id="path6003" d="M505.2,565.5v247.9h-46.3v-36.6" fill="none" stroke="#000" stroke-linecap="round" stroke-linejoin="round" stroke-width="20"/></g><g id="g6005"><path id="path6007" d="M294.7,478.5V217.2c0-14.6,11.8-26.4,26.4-26.4h321.9c14.6,0,26.4,11.8,26.4,26.4v13.6" fill="none" stroke="#000" stroke-linecap="round" stroke-linejoin="round" stroke-width="20"/></g><g id="g6009"><path id="path6011" d="M669.4,276.6v262.5c0,14.6-11.8,26.4-26.4,26.4H321.1c-14.6,0-26.4-11.8-26.4-26.4v-13.6" fill="none" stroke="#000" stroke-linecap="round" stroke-linejoin="round" stroke-width="20"/></g><path id="path6025" d="M629.4,525.5H334.7V230.8h294.7v294.7Z" fill="none" stroke="#000" stroke-linecap="round" stroke-linejoin="round" stroke-width="20"/><g id="g6039"><path id="path6041" d="M397.2,378.1h-22.1v-44.3h22.1c12.2,0,22.1,9.9,22.1,22.1s-9.9,22.1-22.1,22.1Z" fill="none" stroke="#000" stroke-linecap="round" stroke-linejoin="round" stroke-width="20"/></g><g id="g6043"><path id="path6045" d="M397.2,422.4h-22.1v-44.3h22.1c12.2,0,22.1,9.9,22.1,22.1s-9.9,22.1-22.1,22.1Z" fill="none" stroke="#000" stroke-linecap="round" stroke-linejoin="round" stroke-width="20"/></g><g id="g6047"><path id="path6049" d="M542,422.4h22.1c12.2,0,22.1-9.9,22.1-22.1s-9.9-22.1-22.1-22.1-22.1-9.9-22.1-22.1,9.9-22.1,22.1-22.1h22.1" fill="none" stroke="#000" stroke-linecap="round" stroke-linejoin="round" stroke-width="20"/></g><g id="g6051"><path id="path6053" d="M503.4,333.9v66.4c0,12.2-9.9,22.1-22.1,22.1s-22.1-9.9-22.1-22.1v-66.4" fill="none" stroke="#000" stroke-linecap="round" stroke-linejoin="round" stroke-width="20"/></g></g><rect x="-28.4" y="469.9" width="1020.8" height="24.3" rx="12" ry="12" transform="translate(482 -199.7) rotate(45)" fill="#d40005"/><rect x="-28.4" y="469.9" width="1020.8" height="24.3" rx="12" ry="12" transform="translate(1163.7 482) rotate(135)" fill="#d40005"/></svg>