<?xml version="1.0" encoding="UTF-8"?><svg id="Calque_1" xmlns="http://www.w3.org/2000/svg" viewBox="0 0 2064.5 2064.5"><g><path id="path5969" d="M1750,654.2h46.3v41.3h-46.3v-41.3Z" fill="#6f889c"/><path id="path5971" d="M1750,1316.9h46.3v-247.9h-46.3v247.9Z" fill="#6f889c"/><g id="g5981"><path id="path5983" d="M1960.5,720.7v321.9c0,14.6-11.8,26.4-26.4,26.4h-321.9c-14.6,0-26.4-11.8-26.4-26.4v-321.9c0-14.6,11.8-26.4,26.4-26.4h321.9c14.6,0,26.4,11.8,26.4,26.4" fill="#e1f4ff"/></g><g id="g5985"><path id="path5987" d="M1960.5,720.7v321.9c0,14.6-11.8,26.4-26.4,26.4h-40c14.6,0,26.4-11.8,26.4-26.4v-321.9c0-14.6-11.8-26.4-26.4-26.4h40c14.6,0,26.4,11.8,26.4,26.4" fill="#cae6f0"/></g><path id="path5989" d="M1920.5,1029h-294.7v-294.7h294.7v294.7Z" fill="#f9f05a"/><path id="path5991" d="M1920.5,1029h-47.9v-294.7h47.9v294.7Z" fill="#ffc047"/><g id="g5993"><path id="path5995" d="M1750,695.5v-41.3h46.3v41.3" fill="none" stroke="#000" stroke-linejoin="round" stroke-width="20"/></g><g id="g5997"><path id="path5999" d="M1750,1234.2v-165.2" fill="none" stroke="#000" stroke-linecap="round" stroke-linejoin="round" stroke-width="20"/></g><g id="g6001"><path id="path6003" d="M1796.3,1069v247.9h-46.3v-36.6" fill="none" stroke="#000" stroke-linecap="round" stroke-linejoin="round" stroke-width="20"/></g><g id="g6005"><path id="path6007" d="M1585.8,982v-261.3c0-14.6,11.8-26.4,26.4-26.4h321.9c14.6,0,26.4,11.8,26.4,26.4v13.6" fill="none" stroke="#000" stroke-linecap="round" stroke-linejoin="round" stroke-width="20"/></g><g id="g6009"><path id="path6011" d="M1960.5,780.1v262.5c0,14.6-11.8,26.4-26.4,26.4h-321.9c-14.6,0-26.4-11.8-26.4-26.4v-13.6" fill="none" stroke="#000" stroke-linecap="round" stroke-linejoin="round" stroke-width="20"/></g><path id="path6025" d="M1920.5,1029h-294.7v-294.7h294.7v294.7Z" fill="none" stroke="#000" stroke-linecap="round" stroke-linejoin="round" stroke-width="20"/><g id="g6039"><path id="path6041" d="M1688.4,881.7h-22.1v-44.3h22.1c12.2,0,22.1,9.9,22.1,22.1s-9.9,22.1-22.1,22.1Z" fill="none" stroke="#000" stroke-linecap="round" stroke-linejoin="round" stroke-width="20"/></g><g id="g6043"><path id="path6045" d="M1688.4,925.9h-22.1v-44.3h22.1c12.2,0,22.1,9.9,22.1,22.1s-9.9,22.1-22.1,22.1Z" fill="none" stroke="#000" stroke-linecap="round" stroke-linejoin="round" stroke-width="20"/></g><g id="g6047"><path id="path6049" d="M1833.2,925.9h22.1c12.2,0,22.1-9.9,22.1-22.1s-9.9-22.1-22.1-22.1-22.1-9.9-22.1-22.1,9.9-22.1,22.1-22.1h22.1" fill="none" stroke="#000" stroke-linecap="round" stroke-linejoin="round" stroke-width="20"/></g><g id="g6051"><path id="path6053" d="M1794.5,837.4v66.4c0,12.2-9.9,22.1-22.1,22.1s-22.1-9.9-22.1-22.1v-66.4" fill="none" stroke="#000" stroke-linecap="round" stroke-linejoin="round" stroke-width="20"/></g></g><g><g><path d="M338.2,1228.8h21.4c25,0,45.3,20.3,45.3,45.3s-20.3,45.3-45.3,45.3H136.2c-25,0-45.3-20.3-45.3-45.3s20.3-45.3,45.3-45.3h202Z" fill="#ade194"/><path d="M397.1,1296.3H173.6c-25,0-45.3-20.3-45.3-45.3s2.1-15.6,5.8-22.2c-24.1,1.1-43.3,20.9-43.3,45.3s20.3,45.3,45.3,45.3h223.4c17,0,31.7-9.3,39.5-23.1-.7,0-1.3,0-2,0h0Z" fill="#97da7b"/><g><path d="M308.2,1121.3v145c0,9.1-7.4,16.5-16.5,16.5h-27.2c-6.4,0-12-3.7-14.7-9.1-.7-1.4-2.8-1.4-3.5,0-2.7,5.4-8.3,9.1-14.7,9.1h-27.2c-9.1,0-16.5-7.4-16.5-16.5v-145c0,9.1-7.4,16.5-16.5,16.5h-24.9c-9.1,0-16.5-7.4-16.5-16.5v-126.5c0-28.7,21.6-52.4,49.4-55.7l140.8,.6c26,4.9,45.7,27.7,45.7,55.1v126.5c0,9.1-7.4,16.5-16.5,16.5h-24.9c-9.1,0-16.5-7.4-16.5-16.5Z" fill="#fee45a"/><path d="M162.7,1011.5c0-28.7,21.6-52.4,49.4-55.7l138.6,.6c-8-8.4-18.5-14.4-30.4-16.7l-140.8-.6c-27.8,3.3-49.4,27-49.4,55.7v126.5c0,9.1,7.4,16.5,16.5,16.5h16v-126.3Z" fill="#fedf30"/></g><circle cx="250.2" cy="882.8" r="60.4" fill="#fee45a"/><path d="M227.7,882.8c0-26.7,17.4-49.4,41.5-57.4-6-2-12.3-3-19-3-33.4,0-60.4,27-60.4,60.4s27,60.4,60.4,60.4,13-1.1,19-3.1c-24.1-8-41.4-30.6-41.4-57.3h0Z" fill="#fedf30"/></g><g><path d="M250.2,950.7c37.4,0,67.9-30.5,67.9-67.9s-3.6-25.4-10.5-36.2c-2.2-3.5-6.8-4.5-10.3-2.3-3.5,2.2-4.5,6.8-2.3,10.3,5.3,8.4,8.2,18.2,8.2,28.2,0,29.2-23.7,52.9-52.9,52.9s-52.9-23.7-52.9-52.9,23.7-52.9,52.9-52.9,16.5,1.9,24.1,5.8c3.7,1.9,8.2,.4,10.1-3.3,1.9-3.7,.4-8.2-3.3-10.1-9.6-4.9-20-7.4-30.9-7.4-37.4,0-67.9,30.5-67.9,67.9s30.5,67.9,67.9,67.9h0Z"/><path d="M146.7,1145.3h24.9c3.2,0,6.2-.6,9-1.7v24.3c0,4.1,3.4,7.5,7.5,7.5s7.5-3.4,7.5-7.5v-141.4c0-4.1-3.4-7.5-7.5-7.5s-7.5,3.4-7.5,7.5v94.9c0,4.9-4,9-9,9h-24.9c-4.9,0-9-4-9-9v-126.5c0-24.6,18.4-45.3,42.8-48.3,4.1-.5,7-4.2,6.6-8.3-.5-4.1-4.2-7-8.3-6.6-31.9,3.8-56,31-56,63.1v126.5c0,13.2,10.7,24,24,24h0Z"/><path d="M315.7,1143.5c2.8,1.1,5.8,1.7,9,1.7h24.9c13.2,0,24-10.7,24-24v-126.5c0-30.6-21.8-56.8-51.8-62.5-4.1-.8-8,1.9-8.8,6-.8,4.1,1.9,8,6,8.8,22.9,4.3,39.6,24.4,39.6,47.8v126.5c0,4.9-4,9-9,9h-24.9c-4.9,0-9-4-9-9v-94.9c0-4.1-3.4-7.5-7.5-7.5s-7.5,3.4-7.5,7.5v239.9c0,4.9-4,9-9,9h-27.2c-4.9,0-9-4-9-9v-131.2c0-4.1-3.4-7.5-7.5-7.5s-7.5,3.4-7.5,7.5v131.2c0,4.9-4,9-9,9h-27.2c-4.9,0-9-4-9-9v-66.6c0-4.1-3.4-7.5-7.5-7.5s-7.5,3.4-7.5,7.5v66.6c0,13.2,10.7,24,24,24h27.2c6.4,0,12.2-2.5,16.5-6.6,4.3,4.1,10.1,6.6,16.5,6.6h27.2c13.2,0,24-10.7,24-24v-122.8h0Z"/><path d="M359.6,1221.3h-21.4c-4.1,0-7.5,3.4-7.5,7.5s3.4,7.5,7.5,7.5h21.4c20.9,0,37.8,17,37.8,37.8s-17,37.8-37.8,37.8h-42.1c-4.1,0-7.5,3.4-7.5,7.5s3.4,7.5,7.5,7.5h42.1c29.1,0,52.8-23.7,52.8-52.8s-23.7-52.8-52.8-52.8h0Z"/><path d="M285.6,1311.9H136.2c-20.9,0-37.8-17-37.8-37.8s17-37.8,37.8-37.8h21.9c4.1,0,7.5-3.4,7.5-7.5s-3.4-7.5-7.5-7.5h-21.9c-29.1,0-52.8,23.7-52.8,52.8s23.7,52.8,52.8,52.8h149.4c4.1,0,7.5-3.4,7.5-7.5s-3.4-7.5-7.5-7.5h0Z"/></g></g><g><path d="M530.8,1022.9v81.2l30,30c9.4,9.5,25.6,2.8,25.6-10.6v-45h203.5v45c0,13.4,16.2,20.1,25.6,10.6l30-30v-81.2h-314.8Z" fill="#67d461"/><path d="M932.2,996.1l-116.7-116.7c-9.5-9.4-25.6-2.8-25.6,10.6v45h-203.5v-45c0-13.4-16.2-20.1-25.6-10.6l-116.7,116.7c-5.9,5.9-5.9,15.4,0,21.2l86.7,86.7c9.4,9.4,25.6,2.8,25.6-10.6v-30c0-8.3,6.7-15,15-15h233.5c8.3,0,15,6.7,15,15v30c0,13.4,16.2,20.1,25.6,10.6l86.7-86.7c5.9-5.9,5.9-15.4,0-21.2Z" fill="#94e368"/><path d="M646.4,1078.5h143.5v45c0,13.4,16.2,20.1,25.6,10.6l116.7-116.7c5.9-5.9,5.9-15.4,0-21.2l-116.7-116.7c-9.5-9.4-25.6-2.8-25.6,10.6v45h-30" fill="none" stroke="#000" stroke-linecap="round" stroke-linejoin="round" stroke-width="15"/><path d="M729.9,935h-143.5v-45c0-13.4-16.2-20.1-25.6-10.6l-116.7,116.7c-5.9,5.9-5.9,15.4,0,21.2l116.7,116.7c9.4,9.4,25.6,2.8,25.6-10.6v-45h30" fill="none" stroke="#000" stroke-linecap="round" stroke-linejoin="round" stroke-width="15"/></g><g><path d="M1088.6,1022.9v81.2l30,30c9.4,9.5,25.6,2.8,25.6-10.6v-45h203.5v45c0,13.4,16.2,20.1,25.6,10.6l30-30v-81.2h-314.8Z" fill="#67d461"/><path d="M1490.1,996.1l-116.7-116.7c-9.5-9.4-25.6-2.8-25.6,10.6v45h-203.5v-45c0-13.4-16.2-20.1-25.6-10.6l-116.7,116.7c-5.9,5.9-5.9,15.4,0,21.2l86.7,86.7c9.4,9.4,25.6,2.8,25.6-10.6v-30c0-8.3,6.7-15,15-15h233.5c8.3,0,15,6.7,15,15v30c0,13.4,16.2,20.1,25.6,10.6l86.7-86.7c5.9-5.9,5.9-15.4,0-21.2Z" fill="#94e368"/><path d="M1204.2,1078.5h143.5v45c0,13.4,16.2,20.1,25.6,10.6l116.7-116.7c5.9-5.9,5.9-15.4,0-21.2l-116.7-116.7c-9.5-9.4-25.6-2.8-25.6,10.6v45h-30" fill="none" stroke="#000" stroke-linecap="round" stroke-linejoin="round" stroke-width="15"/><path d="M1287.7,935h-143.5v-45c0-13.4-16.2-20.1-25.6-10.6l-116.7,116.7c-5.9,5.9-5.9,15.4,0,21.2l116.7,116.7c9.4,9.4,25.6,2.8,25.6-10.6v-45h30" fill="none" stroke="#000" stroke-linecap="round" stroke-linejoin="round" stroke-width="15"/></g></svg>