<?xml version="1.0" encoding="utf-8"?>
<!-- Generator: Adobe Illustrator 26.5.0, SVG Export Plug-In . SVG Version: 6.00 Build 0)  -->
<svg version="1.1" id="Calque_1" xmlns="http://www.w3.org/2000/svg" xmlns:xlink="http://www.w3.org/1999/xlink" x="0px" y="0px"
	 viewBox="0 0 2064.5 2064.5" style="enable-background:new 0 0 2064.5 2064.5;" xml:space="preserve">
<style type="text/css">
	.st0{fill:#6F889C;}
	.st1{fill:#E1F4FF;}
	.st2{fill:#CAE6F0;}
	.st3{fill:#F9F05A;}
	.st4{fill:#FFC047;}
	.st5{fill:none;stroke:#000000;stroke-width:20;stroke-linejoin:round;}
	.st6{fill:none;stroke:#000000;stroke-width:20;stroke-linecap:round;stroke-linejoin:round;}
	.st7{fill:#ADE194;}
	.st8{fill:#97DA7B;}
	.st9{fill:#FEE45A;}
	.st10{fill:#FEDF30;}
	.st11{fill:#67D461;}
	.st12{fill:#94E368;}
	.st13{fill:none;stroke:#000000;stroke-width:15;stroke-linecap:round;stroke-linejoin:round;}
	.st14{fill:#FEE903;}
	.st15{fill:#FED402;}
	.st16{fill:#AF66DA;}
</style>
<g>
	<g>
		<path d="M264.1,904.6c-15.6,0-28.3-12.7-28.3-28.3v-22.6c0.9-34.9,53.6-37.8,56.6,0v22.6C292.4,891.9,279.7,904.6,264.1,904.6z"/>
	</g>
	<g>
		<path d="M626,1993.6c-36.8,1.1-40.3-55.7-0.1-56.6c13.8,0,27.5-0.8,41-2.5c34.7-3.3,44,48.7,6.8,56.2
			C658,1992.6,641.9,1993.6,626,1993.6z M454.2,1950.4c-4.5,0-9.1-1.1-13.4-3.4c-14.5-7.8-28.7-16.7-42.2-26.4
			c-12.7-9.1-15.6-26.8-6.5-39.5c9.1-12.7,26.8-15.6,39.5-6.5c11.5,8.3,23.7,15.8,36.1,22.5C489.6,1908.8,486,1948.9,454.2,1950.4z
			 M834,1928c-21.1,1.6-40.8-33.7-16.3-51.4c11.6-8.1,22.8-17.1,33.2-26.7c24-21.8,64.7,12.4,38.1,41.8
			c-12.2,11.2-25.3,21.6-38.8,31.1C845.3,1926.3,839.6,1928,834,1928L834,1928z M301.5,1792.4c-10.4,0-20.4-5.8-25.4-15.7
			c-7.4-14.9-13.8-30.3-19.2-46c-10.5-33.3,38.4-53.2,53.5-18.4c4.6,13.4,10.1,26.6,16.4,39.3C333.6,1766,325.3,1792.3,301.5,1792.4
			z M967.1,1753.1c-14.8,0.4-33.4-16.9-26.7-37.8c4.7-13.3,8.6-27.1,11.6-40.9c8.3-33.9,60.4-25.6,55.3,11.9
			c-3.5,16.2-8.1,32.3-13.6,47.9C989.7,1745.8,978.8,1753.1,967.1,1753.1L967.1,1753.1z M264.1,1574.7c-15.6,0-28.3-12.7-28.3-28.3
			v-46.2c0.9-34.9,53.6-37.8,56.6,0v46.2C292.4,1562.1,279.7,1574.7,264.1,1574.7z M987.9,1532.1c-15.6,0-28.3-12.7-28.3-28.3v-46.2
			c0.9-34.9,53.6-37.8,56.6,0v46.2C1016.1,1519.4,1003.5,1532.1,987.9,1532.1z M264.1,1351.4c-15.6,0-28.3-12.7-28.3-28.3v-46.2
			c0.9-34.9,53.6-37.8,56.6,0v46.2C292.4,1338.7,279.7,1351.4,264.1,1351.4z M987.9,1308.7c-15.6,0-28.3-12.7-28.3-28.3v-46.2
			c0.9-34.9,53.6-37.8,56.6,0v46.2C1016.1,1296,1003.5,1308.7,987.9,1308.7z M264.1,1128c-15.6,0-28.3-12.7-28.3-28.3v-46.2
			c0.9-34.9,53.6-37.8,56.6,0v46.2C292.4,1115.3,279.7,1128,264.1,1128z M987.9,1085.3c-15.6,0-28.3-12.7-28.3-28.3v-46.2
			c0.9-34.9,53.6-37.8,56.6,0v46.2C1016.1,1072.7,1003.5,1085.3,987.9,1085.3z M1716.3,1056.4c-15.6,0-28.3-12.7-28.3-28.3v-46.2
			c0.9-34.9,53.6-37.8,56.6,0v46.2C1744.5,1043.7,1731.9,1056.4,1716.3,1056.4z M987.9,861.9c-15.6,0-28.3-12.7-28.3-28.3v-46.2
			c0.9-34.9,53.6-37.8,56.6,0v46.2C1016.1,849.3,1003.5,861.9,987.9,861.9z M1716.3,833c-15.6,0-28.3-12.7-28.3-28.3v-46.2
			c0.9-34.9,53.6-37.8,56.6,0v46.2C1744.5,820.3,1731.9,833,1716.3,833z M987.9,638.5c-15.6,0-28.3-12.7-28.3-28.3V564
			c0.9-34.9,53.6-37.8,56.6,0v46.2C1016.1,625.9,1003.5,638.5,987.9,638.5z M1716.3,609.6c-15.6,0-28.3-12.7-28.3-28.3v-46.2
			c0.9-34.9,53.6-37.8,56.6,0v46.2C1744.5,597,1731.9,609.6,1716.3,609.6z M998.3,416c-14.4,0.3-31.4-14.8-27.5-35
			c3.9-16.1,9-32.1,14.9-47.5c13.4-32.2,63.6-15.9,52.8,20.4c-5.1,13.2-9.4,26.9-12.8,40.6C1022.6,407.4,1011,416,998.3,416z
			 M1697.9,388.2c-11.9,0-22.9-7.5-26.8-19.4c-4.5-13.4-9.8-26.7-16-39.5c-14.3-31.9,32-57.3,51-24.5c7.2,14.9,13.5,30.4,18.7,46.2
			C1728.3,365.3,1720.7,387.9,1697.9,388.2z M1112.9,228.4c-20.8,1.4-38.9-29.8-18.6-49.6c12.5-10.9,25.8-21,39.5-30.2
			c29.5-18.6,61.2,23.6,31.5,47c-11.8,7.9-23.1,16.6-33.8,25.9C1126.1,226.1,1119.5,228.4,1112.9,228.4L1112.9,228.4z M1568.7,210.3
			c-5.8,0-11.7-1.8-16.8-5.6c-11.4-8.4-23.4-16.2-35.8-23.1c-30-17.9-6.7-65.3,27.6-49.4c14.4,8.1,28.5,17.2,41.8,27
			C1603.3,173.1,1599.6,208.4,1568.7,210.3z M1314.5,140.9c-31.6,0.1-39.4-50.2-2.8-56.4c16.4-1.7,33.2-2.3,49.7-1.9
			c34.8,1.7,36.6,54.6-1.3,56.6c-14.1-0.3-28.5,0.2-42.6,1.7C1316.5,140.9,1315.5,140.9,1314.5,140.9L1314.5,140.9z"/>
	</g>
	<g>
		<path d="M1716.3,1256.9c-15.6,0-28.3-12.7-28.3-28.3V1206c0.9-34.9,53.6-37.8,56.6,0v22.6
			C1744.5,1244.3,1731.9,1256.9,1716.3,1256.9z"/>
	</g>
</g>
<g>
	<path id="path5969" class="st0" d="M1685.5,904.2h80.2v71.5h-80.2V904.2z"/>
	<path id="path5971" class="st0" d="M1685.5,2051.6h80.2v-429.2h-80.2V2051.6z"/>
	<g id="g5981">
		<path id="path5983" class="st1" d="M2049.9,1019.3v557.3c0,25.3-20.4,45.7-45.7,45.7h-557.3c-25.3,0-45.7-20.4-45.7-45.7v-557.3
			c0-25.3,20.4-45.7,45.7-45.7h557.3C2029.5,973.6,2049.9,994.1,2049.9,1019.3"/>
	</g>
	<g id="g5985">
		<path id="path5987" class="st2" d="M2049.9,1019.3v557.3c0,25.3-20.4,45.7-45.7,45.7H1935c25.3,0,45.7-20.4,45.7-45.7v-557.3
			c0-25.3-20.4-45.7-45.7-45.7h69.3C2029.5,973.6,2049.9,994.1,2049.9,1019.3"/>
	</g>
	<path id="path5989" class="st3" d="M1980.7,1553.1h-510.2v-510.2h510.2V1553.1z"/>
	<path id="path5991" class="st4" d="M1980.7,1553.1h-82.9v-510.2h82.9V1553.1z"/>
	<g id="g5993">
		<path id="path5995" class="st5" d="M1685.5,975.7v-71.5h80.2v71.5"/>
	</g>
	<g id="g5997">
		<path id="path5999" class="st6" d="M1685.5,1908.4v-286"/>
	</g>
	<g id="g6001">
		<path id="path6003" class="st6" d="M1765.6,1622.4v429.2h-80.2v-63.4"/>
	</g>
	<g id="g6005">
		<path id="path6007" class="st6" d="M1401.2,1471.8v-452.4c0-25.3,20.4-45.7,45.7-45.7h557.3c25.3,0,45.7,20.4,45.7,45.7v23.5"/>
	</g>
	<g id="g6009">
		<path id="path6011" class="st6" d="M2049.9,1122.2v454.5c0,25.3-20.4,45.7-45.7,45.7h-557.3c-25.3,0-45.7-20.4-45.7-45.7v-23.5"/>
	</g>
	<path id="path6025" class="st6" d="M1980.7,1553.1h-510.2v-510.2h510.2V1553.1z"/>
	<g id="g6039">
		<path id="path6041" class="st6" d="M1578.8,1298.1h-38.3v-76.7h38.3c21.1,0,38.3,17.1,38.3,38.3s-17.1,38.3-38.3,38.3V1298.1z"/>
	</g>
	<g id="g6043">
		<path id="path6045" class="st6" d="M1578.8,1374.6h-38.3v-76.7h38.3c21.1,0,38.3,17.1,38.3,38.3s-17.1,38.3-38.3,38.3V1374.6z"/>
	</g>
	<g id="g6047">
		<path id="path6049" class="st6" d="M1829.5,1374.6h38.3c21.1,0,38.3-17.1,38.3-38.3c0-21.1-17.1-38.3-38.3-38.3
			c-21.1,0-38.3-17.1-38.3-38.3s17.1-38.3,38.3-38.3h38.3"/>
	</g>
	<g id="g6051">
		<path id="path6053" class="st6" d="M1762.5,1221.4v115c0,21.1-17.1,38.3-38.3,38.3c-21.1,0-38.3-17.1-38.3-38.3v-115"/>
	</g>
</g>
<g>
	<g>
		<path class="st7" d="M609.1,993.7H660c59.4,0,107.7,48.3,107.7,107.7s-48.3,107.7-107.7,107.7H128.9
			c-59.4,0-107.7-48.3-107.7-107.7s48.3-107.7,107.7-107.7H609.1z"/>
		<path class="st8" d="M749.2,1154.2H217.8c-59.4,0-107.7-48.3-107.7-107.7c0-59.4,5-37.1,13.8-52.8C66.6,996.3,21,1043.4,21,1101.4
			s48.3,107.7,107.7,107.7h531.1c40.4,0,75.4-22.1,93.9-54.9c-1.7,0-3.1,0-4.8,0l0,0L749.2,1154.2z"/>
		<g>
			<path class="st9" d="M537.8,738.1v344.7c0,21.6-17.6,39.2-39.2,39.2h-64.7c-15.2,0-28.5-8.8-34.9-21.6c-1.7-3.3-6.7-3.3-8.3,0
				c-6.4,12.8-19.7,21.6-34.9,21.6h-64.7c-21.6,0-39.2-17.6-39.2-39.2V738.1c0,21.6-17.6,39.2-39.2,39.2h-59.2
				c-21.6,0-39.2-17.6-39.2-39.2V437.4c0-68.2,51.3-124.6,117.4-132.4l334.7,1.4c61.8,11.6,108.6,65.9,108.6,131v300.7
				c0,21.6-17.6,39.2-39.2,39.2h-59.2c-21.6,0-39.2-17.6-39.2-39.2H537.8z"/>
			<path class="st10" d="M191.9,477.1c0-68.2,51.3-124.6,117.4-132.4l329.5,1.4c-19-20-44-34.2-72.3-39.7L231.9,305
				c-66.1,7.8-117.4,64.2-117.4,132.4v300.7c0,21.6,17.6,39.2,39.2,39.2h38V477.1L191.9,477.1z"/>
		</g>
		<circle class="st9" cx="399.9" cy="171.1" r="143.6"/>
		<path class="st10" d="M346.4,171.1c0-63.5,41.4-117.4,98.7-136.5c-14.3-4.8-29.2-7.1-45.2-7.1c-79.4,0-143.6,64.2-143.6,143.6
			s64.2,143.6,143.6,143.6s30.9-2.6,45.2-7.4c-57.3-19-98.4-72.7-98.4-136.2l0,0L346.4,171.1z"/>
	</g>
	<g>
		<path d="M399.9,332.6c88.9,0,161.4-72.5,161.4-161.4s-8.6-60.4-25-86.1c-5.2-8.3-16.2-10.7-24.5-5.5c-8.3,5.2-10.7,16.2-5.5,24.5
			c12.6,20,19.5,43.3,19.5,67c0,69.4-56.3,125.8-125.8,125.8s-125.8-56.3-125.8-125.8S330.8,45.4,400.2,45.4s39.2,4.5,57.3,13.8
			c8.8,4.5,19.5,1,24-7.8s1-19.5-7.8-24c-22.8-11.6-47.5-17.6-73.5-17.6c-88.9,0-161.4,72.5-161.4,161.4s72.5,161.4,161.4,161.4l0,0
			H399.9z"/>
		<path d="M153.9,795.2h59.2c7.6,0,14.7-1.4,21.4-4v57.8c0,9.7,8.1,17.8,17.8,17.8c9.7,0,17.8-8.1,17.8-17.8V512.8
			c0-9.7-8.1-17.8-17.8-17.8c-9.7,0-17.8,8.1-17.8,17.8v225.6c0,11.6-9.5,21.4-21.4,21.4h-59.2c-11.6,0-21.4-9.5-21.4-21.4V437.6
			c0-58.5,43.7-107.7,101.7-114.8c9.7-1.2,16.6-10,15.7-19.7c-1.2-9.7-10-16.6-19.7-15.7c-75.8,9-133.1,73.7-133.1,150v300.7
			c0,31.4,25.4,57.1,57.1,57.1l0,0L153.9,795.2z"/>
		<path d="M555.6,790.9c6.7,2.6,13.8,4,21.4,4h59.2c31.4,0,57.1-25.4,57.1-57.1V437.2c0-72.7-51.8-135-123.1-148.6
			c-9.7-1.9-19,4.5-20.9,14.3c-1.9,9.7,4.5,19,14.3,20.9c54.4,10.2,94.1,58,94.1,113.6v300.7c0,11.6-9.5,21.4-21.4,21.4H577
			c-11.6,0-21.4-9.5-21.4-21.4V512.5c0-9.7-8.1-17.8-17.8-17.8s-17.8,8.1-17.8,17.8v570.3c0,11.6-9.5,21.4-21.4,21.4h-64.7
			c-11.6,0-21.4-9.5-21.4-21.4V770.9c0-9.7-8.1-17.8-17.8-17.8s-17.8,8.1-17.8,17.8v311.9c0,11.6-9.5,21.4-21.4,21.4h-64.7
			c-11.6,0-21.4-9.5-21.4-21.4V924.5c0-9.7-8.1-17.8-17.8-17.8s-17.8,8.1-17.8,17.8v158.3c0,31.4,25.4,57.1,57.1,57.1h64.7
			c15.2,0,29-5.9,39.2-15.7c10.2,9.7,24,15.7,39.2,15.7h64.7c31.4,0,57.1-25.4,57.1-57.1L555.6,790.9L555.6,790.9L555.6,790.9z"/>
		<path d="M660,975.9h-50.9c-9.7,0-17.8,8.1-17.8,17.8c0,9.7,8.1,17.8,17.8,17.8H660c49.7,0,89.9,40.4,89.9,89.9
			s-40.4,89.9-89.9,89.9H559.9c-9.7,0-17.8,8.1-17.8,17.8s8.1,17.8,17.8,17.8H660c69.2,0,125.5-56.3,125.5-125.5
			S729.2,975.9,660,975.9L660,975.9z"/>
		<path d="M484.1,1191.2H128.9c-49.7,0-89.9-40.4-89.9-89.9c0-49.4,40.4-89.9,89.9-89.9H181c9.7,0,17.8-8.1,17.8-17.8
			s-8.1-17.8-17.8-17.8h-52.1c-69.2,0-125.5,56.3-125.5,125.5c0,69.2,56.3,125.5,125.5,125.5h355.2c9.7,0,17.8-8.1,17.8-17.8
			S493.8,1191.2,484.1,1191.2L484.1,1191.2L484.1,1191.2z"/>
	</g>
</g>
<g>
	<path class="st11" d="M574,2346.2v81.2l30,30c9.4,9.5,25.6,2.8,25.6-10.6v-45h203.5v45c0,13.4,16.2,20.1,25.6,10.6l30-30v-81.2
		H573.9L574,2346.2z"/>
	<path class="st12" d="M975.4,2319.4l-116.7-116.7c-9.5-9.4-25.6-2.8-25.6,10.6v45H629.6v-45c0-13.4-16.2-20.1-25.6-10.6
		l-116.7,116.7c-5.9,5.9-5.9,15.4,0,21.2l86.7,86.7c9.4,9.4,25.6,2.8,25.6-10.6v-30c0-8.3,6.7-15,15-15h233.5c8.3,0,15,6.7,15,15v30
		c0,13.4,16.2,20.1,25.6,10.6l86.7-86.7C981.3,2334.7,981.3,2325.2,975.4,2319.4z"/>
	<path class="st13" d="M689.6,2401.8h143.5v45c0,13.4,16.2,20.1,25.6,10.6l116.7-116.7c5.9-5.9,5.9-15.4,0-21.2l-116.7-116.7
		c-9.5-9.4-25.6-2.8-25.6,10.6v45h-30"/>
	<path class="st13" d="M773.1,2258.3H629.6v-45c0-13.4-16.2-20.1-25.6-10.6l-116.7,116.7c-5.9,5.9-5.9,15.4,0,21.2L604,2457.3
		c9.4,9.4,25.6,2.8,25.6-10.6v-45h30"/>
</g>
<g>
	<path class="st11" d="M1131.8,2346.2v81.2l30,30c9.4,9.5,25.6,2.8,25.6-10.6v-45h203.5v45c0,13.4,16.2,20.1,25.6,10.6l30-30v-81.2
		L1131.8,2346.2L1131.8,2346.2z"/>
	<path class="st12" d="M1533.3,2319.4l-116.7-116.7c-9.5-9.4-25.6-2.8-25.6,10.6v45h-203.5v-45c0-13.4-16.2-20.1-25.6-10.6
		l-116.7,116.7c-5.9,5.9-5.9,15.4,0,21.2l86.7,86.7c9.4,9.4,25.6,2.8,25.6-10.6v-30c0-8.3,6.7-15,15-15H1406c8.3,0,15,6.7,15,15v30
		c0,13.4,16.2,20.1,25.6,10.6l86.7-86.7C1539.2,2334.7,1539.2,2325.2,1533.3,2319.4z"/>
	<path class="st13" d="M1247.4,2401.8h143.5v45c0,13.4,16.2,20.1,25.6,10.6l116.7-116.7c5.9-5.9,5.9-15.4,0-21.2l-116.7-116.7
		c-9.5-9.4-25.6-2.8-25.6,10.6v45h-30"/>
	<path class="st13" d="M1330.9,2258.3h-143.5v-45c0-13.4-16.2-20.1-25.6-10.6l-116.7,116.7c-5.9,5.9-5.9,15.4,0,21.2l116.7,116.7
		c9.4,9.4,25.6,2.8,25.6-10.6v-45h30"/>
</g>
<g>
	<path class="st14" d="M-473.6,848.8c0,49.5-55.7,97.2-55.7,97.2s-55.7-49.1-55.7-97.2c0-30.7,24.9-55.6,55.7-55.6
		C-498.5,793.2-473.6,818.1-473.6,848.8z"/>
	<path class="st15" d="M-529.3,793.2c-7.1,0-13.8,1.3-20,3.7c20.9,8,35.7,28.2,35.7,51.9c0,29.3-19.6,58-35.5,76.6
		c10.8,12.7,19.8,20.6,19.8,20.6s55.7-47.8,55.7-97.2C-473.6,818.1-498.5,793.2-529.3,793.2z"/>
	<ellipse class="st16" cx="-529.3" cy="848.4" rx="24.6" ry="24.6"/>
</g>
<g>
	<path class="st16" d="M-88,1187.7c0,49.5-55.7,97.2-55.7,97.2s-55.7-49.1-55.7-97.2c0-30.7,24.9-55.6,55.7-55.6S-88,1157-88,1187.7
		z"/>
	<path class="st16" d="M-143.6,1132.1c-7.1,0-13.8,1.3-20,3.7c20.9,8,35.7,28.2,35.7,51.9c0,29.3-19.6,58-35.5,76.6
		c10.8,12.7,19.8,20.6,19.8,20.6s55.7-47.8,55.7-97.2C-88,1157-112.9,1132.1-143.6,1132.1z"/>
	<ellipse class="st14" cx="-143.6" cy="1187.4" rx="24.6" ry="24.6"/>
</g>
<g>
	<g>
		<path d="M-529.3,953.5c-1.8,0-3.5-0.6-5-1.9c-2.4-2.1-58.2-51.9-58.2-102.8c0-17.4,7-33.6,19.6-45.7c3-2.9,7.7-2.7,10.6,0.3
			c2.9,3,2.7,7.7-0.3,10.6c-9.6,9.2-14.9,21.5-14.9,34.8c0,22.8,14.3,46.3,26.3,62.1c8.4,11,16.8,19.8,21.9,24.8
			c13.2-12.7,48.1-49.9,48.1-86.9c0-26.5-21.6-48.1-48.2-48.1c-4.1,0-7.5-3.4-7.5-7.5c0-4.1,3.4-7.5,7.5-7.5
			c34.8,0,63.2,28.3,63.2,63.1c0,52.3-55.9,100.9-58.3,102.9C-525.8,952.9-527.5,953.5-529.3,953.5L-529.3,953.5z"/>
	</g>
	<g>
		<path d="M-529.3,880.5c-17.7,0-32.1-14.4-32.1-32.1s14.4-32.1,32.1-32.1c17.7,0,32.1,14.4,32.1,32.1S-511.6,880.5-529.3,880.5z
			 M-529.3,831.4c-9.4,0-17.1,7.7-17.1,17.1s7.7,17.1,17.1,17.1c9.4,0,17.1-7.7,17.1-17.1S-519.9,831.4-529.3,831.4z"/>
	</g>
</g>
<g>
	<g>
		<path d="M-143.6,1292.4c-1.8,0-3.5-0.6-5-1.9c-2.4-2.1-58.2-51.9-58.2-102.8c0-34.8,28.3-63.1,63.2-63.1s63.2,28.3,63.2,63.1
			c0,15.4-4.9,32-14.5,49.2c-4.7,8-17.3,1.8-13.1-7.3c8.3-15,12.6-29.1,12.6-41.9c0-26.5-21.6-48.1-48.2-48.1s-48.2,21.6-48.2,48.1
			c0,22.8,14.3,46.3,26.3,62.1c8.4,11,16.8,19.8,21.9,24.9c3-2.9,7.1-7,11.7-12.1c5.7-6.4,17.4,1.5,11.2,10
			c-9.9,11.1-17.7,17.8-18,18.1C-140.2,1291.8-141.9,1292.4-143.6,1292.4z"/>
	</g>
	<g>
		<path d="M-143.6,1219.4c-17.7,0-32.1-14.4-32.1-32.1s14.4-32.1,32.1-32.1s32.1,14.4,32.1,32.1S-125.9,1219.4-143.6,1219.4z
			 M-143.6,1170.3c-9.4,0-17.1,7.7-17.1,17.1s7.7,17.1,17.1,17.1s17.1-7.7,17.1-17.1S-134.2,1170.3-143.6,1170.3z"/>
	</g>
</g>
</svg>
