<?xml version="1.0" encoding="utf-8"?>
<!-- Generator: Adobe Illustrator 26.5.0, SVG Export Plug-In . SVG Version: 6.00 Build 0)  -->
<svg version="1.1" id="Calque_1" xmlns="http://www.w3.org/2000/svg" xmlns:xlink="http://www.w3.org/1999/xlink" x="0px" y="0px"
	 viewBox="0 0 1449.1 1449.1" style="enable-background:new 0 0 1449.1 1449.1;" xml:space="preserve">
<style type="text/css">
	.st0{fill:#6F889C;}
	.st1{fill:#E1F4FF;}
	.st2{fill:#CAE6F0;}
	.st3{fill:#F9F05A;}
	.st4{fill:#FFC047;}
	.st5{fill:none;stroke:#000000;stroke-width:20;stroke-linejoin:round;}
	.st6{fill:none;stroke:#000000;stroke-width:20;stroke-linecap:round;stroke-linejoin:round;}
	.st7{fill:#ADE194;}
	.st8{fill:#97DA7B;}
	.st9{fill:#FEE45A;}
	.st10{fill:#FEDF30;}
	.st11{fill:#67D461;}
	.st12{fill:#94E368;}
	.st13{fill:none;stroke:#000000;stroke-width:15;stroke-linecap:round;stroke-linejoin:round;}
</style>
<path d="M227.2,811c0-15.6,12.7-28.3,28.3-28.3h46.2c34.9,0.9,37.8,53.6,0,56.6h-46.2C239.9,839.3,227.2,826.7,227.2,811z"/>
<path d="M480.6,811c0-15.6,12.7-28.3,28.3-28.3h46.2c34.9,0.9,37.8,53.6,0,56.6h-46.2C493.3,839.3,480.6,826.7,480.6,811z"/>
<path d="M704,811c0-15.6,12.7-28.3,28.3-28.3h46.2c34.9,0.9,37.8,53.6,0,56.6h-46.2C716.7,839.3,704,826.7,704,811z"/>
<path d="M927.4,811c0-15.6,12.7-28.3,28.3-28.3h46.2c34.9,0.9,37.8,53.6,0,56.6h-46.2C940.1,839.3,927.4,826.7,927.4,811z"/>
<g>
	<path id="path5969" class="st0" d="M1142.5,151.6h61.5v54.9h-61.5V151.6z"/>
	<path id="path5971" class="st0" d="M1142.5,1031.7h61.5V702.5h-61.5V1031.7L1142.5,1031.7z"/>
	<g id="g5981">
		<path id="path5983" class="st1" d="M1422,239.9v427.5c0,19.4-15.7,35.1-35.1,35.1H959.5c-19.4,0-35.1-15.7-35.1-35.1V239.9
			c0-19.4,15.7-35.1,35.1-35.1H1387C1406.4,204.9,1422,220.6,1422,239.9"/>
	</g>
	<g id="g5985">
		<path id="path5987" class="st2" d="M1422,239.9v427.5c0,19.4-15.7,35.1-35.1,35.1h-53.1c19.4,0,35.1-15.7,35.1-35.1V239.9
			c0-19.4-15.7-35.1-35.1-35.1h53.1C1406.4,204.9,1422,220.6,1422,239.9"/>
	</g>
	<path id="path5989" class="st3" d="M1368.9,649.4H977.5V258h391.4V649.4z"/>
	<path id="path5991" class="st4" d="M1368.9,649.4h-63.6V258h63.6V649.4z"/>
	<g id="g5993">
		<path id="path5995" class="st5" d="M1142.5,206.5v-54.9h61.5v54.9"/>
	</g>
	<g id="g5997">
		<path id="path5999" class="st6" d="M1142.5,921.9V702.5"/>
	</g>
	<g id="g6001">
		<path id="path6003" class="st6" d="M1204,702.5v329.2h-61.5v-48.6"/>
	</g>
	<g id="g6005">
		<path id="path6007" class="st6" d="M924.5,587v-347c0-19.4,15.7-35.1,35.1-35.1h427.5c19.4,0,35.1,15.7,35.1,35.1V258"/>
	</g>
	<g id="g6009">
		<path id="path6011" class="st6" d="M1422,318.8v348.6c0,19.4-15.7,35.1-35.1,35.1H959.5c-19.4,0-35.1-15.7-35.1-35.1v-18.1"/>
	</g>
	<path id="path6025" class="st6" d="M1368.9,649.4H977.5V258h391.4V649.4z"/>
	<g id="g6039">
		<path id="path6041" class="st6" d="M1060.7,453.6h-29.4v-58.8h29.4c16.2,0,29.4,13.1,29.4,29.4s-13.1,29.4-29.4,29.4V453.6z"/>
	</g>
	<g id="g6043">
		<path id="path6045" class="st6" d="M1060.7,512.5h-29.4v-58.8h29.4c16.2,0,29.4,13.1,29.4,29.4s-13.1,29.4-29.4,29.4V512.5z"/>
	</g>
	<g id="g6047">
		<path id="path6049" class="st6" d="M1253,512.5h29.4c16.2,0,29.4-13.1,29.4-29.4s-13.1-29.4-29.4-29.4s-29.4-13.1-29.4-29.4
			s13.1-29.4,29.4-29.4h29.4"/>
	</g>
	<g id="g6051">
		<path id="path6053" class="st6" d="M1201.6,394.9v88.2c0,16.2-13.1,29.4-29.4,29.4s-29.4-13.1-29.4-29.4v-88.2"/>
	</g>
</g>
<g>
	<g>
		<path class="st7" d="M396,900.3h32.6c38.1,0,69.1,30.9,69.1,69.1s-30.9,69.1-69.1,69.1H88c-38.1,0-69.1-30.9-69.1-69.1
			s30.9-69.1,69.1-69.1H396z"/>
		<path class="st8" d="M485.8,1003.3H145c-38.1,0-69.1-30.9-69.1-69.1s3.2-23.8,8.8-33.8c-36.7,1.7-66,31.9-66,69.1
			c0,37.2,30.9,69.1,69.1,69.1h340.6c25.9,0,48.3-14.2,60.2-35.2c-1.1,0-2,0-3,0l0,0H485.8z"/>
		<g>
			<path class="st9" d="M350.2,736.6v221c0,13.9-11.3,25.2-25.2,25.2h-41.5c-9.8,0-18.3-5.6-22.4-13.9c-1.1-2.1-4.3-2.1-5.3,0
				c-4.1,8.2-12.7,13.9-22.4,13.9H192c-13.9,0-25.2-11.3-25.2-25.2v-221c0,13.9-11.3,25.2-25.2,25.2h-38
				c-13.9,0-25.2-11.3-25.2-25.2V543.7c0-43.8,32.9-79.9,75.3-84.9l214.6,0.9c39.6,7.5,69.7,42.2,69.7,84v192.8
				c0,13.9-11.3,25.2-25.2,25.2h-38c-13.9,0-25.2-11.3-25.2-25.2L350.2,736.6z"/>
			<path class="st10" d="M128.4,569c0-43.8,32.9-79.9,75.3-84.9L415,485c-12.2-12.8-28.2-22-46.3-25.5L154,458.7
				c-42.4,5-75.3,41.2-75.3,84.9v192.8c0,13.9,11.3,25.2,25.2,25.2h24.4V569H128.4z"/>
		</g>
		<circle class="st9" cx="261.8" cy="373" r="92.1"/>
		<path class="st10" d="M227.5,373c0-40.7,26.5-75.3,63.3-87.5c-9.1-3-18.8-4.6-29-4.6c-50.9,0-92.1,41.2-92.1,92.1
			s41.2,92.1,92.1,92.1s19.8-1.7,29-4.7c-36.7-12.2-63.1-46.6-63.1-87.4l0,0L227.5,373z"/>
	</g>
	<g>
		<path d="M261.8,476.3c57,0,103.5-46.5,103.5-103.5s-5.5-38.7-16-55.2c-3.4-5.3-10.4-6.9-15.7-3.5c-5.3,3.4-6.9,10.4-3.5,15.7
			c8.1,12.8,12.5,27.7,12.5,43c0,44.5-36.1,80.6-80.6,80.6s-80.6-36.1-80.6-80.6s36.1-80.6,80.6-80.6c44.5,0,25.2,2.9,36.7,8.8
			c5.6,2.9,12.5,0.6,15.4-5s0.6-12.5-5-15.4c-14.6-7.5-30.5-11.3-47.1-11.3c-57,0-103.5,46.5-103.5,103.5S205,476.3,262,476.3l0,0
			H261.8z"/>
		<path d="M104,773.1h38c4.9,0,9.5-0.9,13.7-2.6v37c0,6.3,5.2,11.4,11.4,11.4c6.3,0,11.4-5.2,11.4-11.4V592
			c0-6.3-5.2-11.4-11.4-11.4c-6.3,0-11.4,5.2-11.4,11.4v144.7c0,7.5-6.1,13.7-13.7,13.7h-38c-7.5,0-13.7-6.1-13.7-13.7V543.9
			c0-37.5,28-69.1,65.2-73.6c6.3-0.8,10.7-6.4,10.1-12.7c-0.8-6.3-6.4-10.7-12.7-10.1c-48.6,5.8-85.4,47.3-85.4,96.2v192.8
			c0,20.1,16.3,36.6,36.6,36.6l0,0L104,773.1z"/>
		<path d="M361.7,770.4c4.3,1.7,8.8,2.6,13.7,2.6h38c20.1,0,36.6-16.3,36.6-36.6V543.6c0-46.6-33.2-86.6-79-95.3
			c-6.3-1.2-12.2,2.9-13.4,9.1c-1.2,6.3,2.9,12.2,9.1,13.4c34.9,6.6,60.4,37.2,60.4,72.9v192.8c0,7.5-6.1,13.7-13.7,13.7h-38
			c-7.5,0-13.7-6.1-13.7-13.7V591.9c0-6.3-5.2-11.4-11.4-11.4s-11.4,5.2-11.4,11.4v365.7c0,7.5-6.1,13.7-13.7,13.7h-41.5
			c-7.5,0-13.7-6.1-13.7-13.7v-200c0-6.3-5.2-11.4-11.4-11.4s-11.4,5.2-11.4,11.4v200c0,7.5-6.1,13.7-13.7,13.7h-41.5
			c-7.5,0-13.7-6.1-13.7-13.7V856.1c0-6.3-5.2-11.4-11.4-11.4c-6.3,0-11.4,5.2-11.4,11.4v101.5c0,20.1,16.3,36.6,36.6,36.6h41.5
			c9.8,0,18.6-3.8,25.2-10.1c6.6,6.3,15.4,10.1,25.2,10.1h41.5c20.1,0,36.6-16.3,36.6-36.6L361.7,770.4L361.7,770.4L361.7,770.4z"/>
		<path d="M428.6,888.8H396c-6.3,0-11.4,5.2-11.4,11.4s5.2,11.4,11.4,11.4h32.6c31.9,0,57.6,25.9,57.6,57.6s-25.9,57.6-57.6,57.6
			h-64.2c-6.3,0-11.4,5.2-11.4,11.4c0,6.3,5.2,11.4,11.4,11.4h64.2c44.4,0,80.5-36.1,80.5-80.5S473,888.8,428.6,888.8L428.6,888.8z"
			/>
		<path d="M315.8,1027.1H88c-31.9,0-57.6-25.9-57.6-57.6s25.9-57.6,57.6-57.6h33.4c6.3,0,11.4-5.2,11.4-11.4
			c0-6.3-5.2-11.4-11.4-11.4H88c-44.4,0-80.5,36.1-80.5,80.5S43.7,1050,88,1050h227.8c6.3,0,11.4-5.2,11.4-11.4
			C327.2,1032.3,322,1027.1,315.8,1027.1L315.8,1027.1L315.8,1027.1z"/>
	</g>
</g>
<g>
	<path class="st11" d="M2105.4,939.6v81.2l30,30c9.4,9.5,25.6,2.8,25.6-10.6v-45h203.5v45c0,13.4,16.2,20.1,25.6,10.6l30-30v-81.2
		H2105.4z"/>
	<path class="st12" d="M2506.8,912.8l-116.7-116.7c-9.5-9.4-25.6-2.8-25.6,10.6v45H2161v-45c0-13.4-16.2-20.1-25.6-10.6
		l-116.7,116.7c-5.9,5.9-5.9,15.4,0,21.2l86.7,86.7c9.4,9.4,25.6,2.8,25.6-10.6v-30c0-8.3,6.7-15,15-15h233.5c8.3,0,15,6.7,15,15v30
		c0,13.4,16.2,20.1,25.6,10.6l86.7-86.7C2512.7,928.1,2512.7,918.6,2506.8,912.8z"/>
	<path class="st13" d="M2221,995.2h143.5v45c0,13.4,16.2,20.1,25.6,10.6l116.7-116.7c5.9-5.9,5.9-15.4,0-21.2l-116.7-116.7
		c-9.5-9.4-25.6-2.8-25.6,10.6v45h-30"/>
	<path class="st13" d="M2304.5,851.7H2161v-45c0-13.4-16.2-20.1-25.6-10.6l-116.7,116.7c-5.9,5.9-5.9,15.4,0,21.2l116.7,116.7
		c9.4,9.4,25.6,2.8,25.6-10.6v-45h30"/>
</g>
<g>
	<path d="M1270.1,1521.2c0-15.6,12.7-28.3,28.3-28.3h22.6c34.9,0.9,37.8,53.6,0,56.6h-22.6
		C1282.7,1549.5,1270.1,1536.8,1270.1,1521.2z"/>
</g>
<path d="M181.1,1883.1c-1.1-36.8,55.7-40.3,56.6-0.1c0,13.8,0.8,27.5,2.5,41c3.3,34.7-48.7,44-56.2,6.8
	C182,1915.1,181.1,1899.1,181.1,1883.1z"/>
<path d="M224.2,1711.4c0-4.5,1.1-9.1,3.4-13.4c7.8-14.5,16.7-28.7,26.4-42.2c9.1-12.7,26.8-15.6,39.5-6.5
	c12.7,9.1,15.6,26.8,6.5,39.5c-8.3,11.5-15.8,23.7-22.5,36.1C265.8,1746.8,225.7,1743.2,224.2,1711.4z"/>
<path d="M246.7,2091.1c-1.6-21.1,33.7-40.8,51.4-16.3c8.1,11.6,17.1,22.8,26.7,33.2c21.8,24-12.4,64.7-41.8,38.1
	c-11.2-12.2-21.6-25.3-31.1-38.8C248.3,2102.4,246.7,2096.7,246.7,2091.1L246.7,2091.1z"/>
<path d="M382.3,1558.6c0-10.4,5.8-20.4,15.7-25.4c14.9-7.4,30.3-13.8,46-19.2c33.3-10.5,53.2,38.4,18.4,53.5
	c-13.4,4.6-26.6,10.1-39.3,16.4C408.6,1590.8,382.3,1582.4,382.3,1558.6z"/>
<path d="M421.6,2224.3c-0.4-14.8,16.9-33.4,37.8-26.7c13.3,4.7,27.1,8.6,40.9,11.6c33.9,8.3,25.6,60.4-11.9,55.3
	c-16.2-3.5-32.3-8.1-47.9-13.6C428.8,2246.8,421.6,2235.9,421.6,2224.3L421.6,2224.3z"/>
<path d="M599.9,1521.2c0-15.6,12.7-28.3,28.3-28.3h46.2c34.9,0.9,37.8,53.6,0,56.6h-46.2C612.6,1549.5,599.9,1536.8,599.9,1521.2z"
	/>
<path d="M823.3,1521.2c0-15.6,12.7-28.3,28.3-28.3h46.2c34.9,0.9,37.8,53.6,0,56.6h-46.2C836,1549.5,823.3,1536.8,823.3,1521.2z"/>
<path d="M1046.7,1521.2c0-15.6,12.7-28.3,28.3-28.3h46.2c34.9,0.9,37.8,53.6,0,56.6H1075C1059.3,1549.5,1046.7,1536.8,1046.7,1521.2
	z"/>
<path d="M1118.3,2973.4c0-15.6,12.7-28.3,28.3-28.3h46.2c34.9,0.9,37.8,53.6,0,56.6h-46.2C1130.9,3001.7,1118.3,2989,1118.3,2973.4z
	"/>
<path d="M1341.6,2973.4c0-15.6,12.7-28.3,28.3-28.3h46.2c34.9,0.9,37.8,53.6,0,56.6h-46.2C1354.3,3001.7,1341.6,2989,1341.6,2973.4z
	"/>
<path d="M1565,2973.4c0-15.6,12.7-28.3,28.3-28.3h46.2c34.9,0.9,37.8,53.6,0,56.6h-46.2C1577.7,3001.7,1565,2989,1565,2973.4z"/>
<path d="M1758.6,2255.4c-0.3-14.4,14.8-31.4,35-27.5c16.1,3.9,32.1,9,47.5,14.9c32.2,13.4,15.9,63.6-20.4,52.8
	c-13.2-5.1-26.9-9.4-40.6-12.8C1767.3,2279.7,1758.6,2268.1,1758.6,2255.4z"/>
<path d="M1786.4,2955c0-11.9,7.5-22.9,19.4-26.8c13.4-4.5,26.7-9.8,39.5-16c31.9-14.3,57.3,32,24.5,51
	c-14.9,7.2-30.4,13.5-46.2,18.7C1809.4,2985.4,1786.7,2977.8,1786.4,2955z"/>
<path d="M1946.2,2370.1c-1.4-20.8,29.8-38.9,49.6-18.6c10.9,12.5,21,25.8,30.2,39.5c18.6,29.5-23.6,61.2-47,31.5
	c-7.9-11.8-16.6-23.1-25.9-33.8C1948.5,2383.2,1946.2,2376.6,1946.2,2370.1L1946.2,2370.1z"/>
<path d="M1964.3,2825.8c0-5.8,1.8-11.7,5.6-16.8c8.4-11.4,16.2-23.4,23.1-35.8c17.9-30,65.3-6.7,49.4,27.6
	c-8.1,14.4-17.2,28.5-27,41.8C2001.5,2860.4,1966.3,2856.7,1964.3,2825.8z"/>
<path d="M2033.7,2571.7c-0.1-31.6,50.2-39.4,56.4-2.8c1.7,16.4,2.3,33.2,1.9,49.7c-1.7,34.8-54.6,36.6-56.6-1.3
	c0.3-14.1-0.2-28.5-1.7-42.6C2033.8,2573.6,2033.7,2572.6,2033.7,2571.7L2033.7,2571.7z"/>
<g>
	<path d="M917.7,2973.4c0-15.6,12.7-28.3,28.3-28.3h22.6c34.9,0.9,37.8,53.6,0,56.6H946C930.4,3001.7,917.7,2989,917.7,2973.4z"/>
</g>
</svg>
