<?xml version="1.0" encoding="utf-8"?>
<!-- Generator: Adobe Illustrator 26.5.0, SVG Export Plug-In . SVG Version: 6.00 Build 0)  -->
<svg version="1.1" id="Calque_1" xmlns="http://www.w3.org/2000/svg" xmlns:xlink="http://www.w3.org/1999/xlink" x="0px" y="0px"
	 viewBox="0 0 1153.6 1153.6" style="enable-background:new 0 0 1153.6 1153.6;" xml:space="preserve">
<style type="text/css">
	.st0{fill:#6F889C;}
	.st1{fill:#E1F4FF;}
	.st2{fill:#CAE6F0;}
	.st3{fill:#F9F05A;}
	.st4{fill:#FFC047;}
	.st5{fill:none;stroke:#000000;stroke-width:20;stroke-linejoin:round;}
	.st6{fill:none;stroke:#000000;stroke-width:20;stroke-linecap:round;stroke-linejoin:round;}
	.st7{fill:#ADE194;}
	.st8{fill:#97DA7B;}
	.st9{fill:#FEE45A;}
	.st10{fill:#FEDF30;}
</style>
<g>
	<path id="path5969" class="st0" d="M838.9,118.8h64.4v57.5h-64.4V118.8L838.9,118.8z"/>
	<path id="path5971" class="st0" d="M838.9,1041.1h64.4V696.1h-64.4V1041.1z"/>
	<g id="g5981">
		<path id="path5983" class="st1" d="M1131.9,211.4v448.1c0,20.3-16.4,36.7-36.7,36.7H647c-20.3,0-36.7-16.4-36.7-36.7V211.4
			c0-20.3,16.4-36.7,36.7-36.7h448.1C1115.4,174.6,1131.9,191.1,1131.9,211.4"/>
	</g>
	<g id="g5985">
		<path id="path5987" class="st2" d="M1131.9,211.4v448.1c0,20.3-16.4,36.7-36.7,36.7h-55.7c20.3,0,36.7-16.4,36.7-36.7V211.4
			c0-20.3-16.4-36.7-36.7-36.7h55.7C1115.4,174.6,1131.9,191.1,1131.9,211.4"/>
	</g>
	<path id="path5989" class="st3" d="M1076.2,640.4H666V230.3h410.2v410.2V640.4z"/>
	<path id="path5991" class="st4" d="M1076.2,640.4h-66.7V230.3h66.7v410.2V640.4z"/>
	<g id="g5993">
		<path id="path5995" class="st5" d="M838.9,176.2v-57.5h64.4v57.5"/>
	</g>
	<g id="g5997">
		<path id="path5999" class="st6" d="M838.9,926v-230"/>
	</g>
	<g id="g6001">
		<path id="path6003" class="st6" d="M903.3,696.1v345.1h-64.4v-50.9"/>
	</g>
	<g id="g6005">
		<path id="path6007" class="st6" d="M610.3,575.1V211.4c0-20.3,16.4-36.7,36.7-36.7h448.1c20.3,0,36.7,16.4,36.7,36.7v18.9"/>
	</g>
	<g id="g6009">
		<path id="path6011" class="st6" d="M1131.9,293.9v365.4c0,20.3-16.4,36.7-36.7,36.7H647c-20.3,0-36.7-16.4-36.7-36.7v-18.9"/>
	</g>
	<path id="path6025" class="st6" d="M1076.2,640.4H666V230.3h410.2v410.2V640.4z"/>
	<g id="g6039">
		<path id="path6041" class="st6" d="M753,435.4h-30.8v-61.7H753c17,0,30.8,13.8,30.8,30.8c0,17-13.8,30.8-30.8,30.8V435.4z"/>
	</g>
	<g id="g6043">
		<path id="path6045" class="st6" d="M753,497h-30.8v-61.7H753c17,0,30.8,13.8,30.8,30.8c0,17-13.8,30.8-30.8,30.8V497z"/>
	</g>
	<g id="g6047">
		<path id="path6049" class="st6" d="M954.5,497h30.8c17,0,30.8-13.8,30.8-30.8s-13.8-30.8-30.8-30.8s-30.8-13.8-30.8-30.8
			s13.8-30.8,30.8-30.8h30.8"/>
	</g>
	<g id="g6051">
		<path id="path6053" class="st6" d="M900.8,373.7v92.4c0,17-13.8,30.8-30.8,30.8s-30.8-13.8-30.8-30.8v-92.4"/>
	</g>
</g>
<g>
	<g>
		<path class="st7" d="M476.3,864.1H515c45.2,0,81.9,36.7,81.9,81.9S560.2,1028,515,1028H111c-45.2,0-81.9-36.7-81.9-81.9
			s36.7-81.9,81.9-81.9H476.3z"/>
		<path class="st8" d="M582.8,986.4h-404c-45.2,0-81.9-36.7-81.9-81.9s3.8-28.2,10.5-40.2c-43.6,2-78.3,37.8-78.3,81.9
			c0,44.1,36.7,81.9,81.9,81.9h404c30.7,0,57.3-16.8,71.4-41.8C585.2,986.4,584.1,986.4,582.8,986.4L582.8,986.4z"/>
		<g>
			<path class="st9" d="M422.2,669.9v262.2c0,16.5-13.4,29.8-29.8,29.8h-49.2c-11.6,0-21.7-6.7-26.6-16.5c-1.3-2.5-5.1-2.5-6.3,0
				c-4.9,9.8-15,16.5-26.6,16.5h-49.2c-16.5,0-29.8-13.4-29.8-29.8V669.9c0,16.5-13.4,29.8-29.8,29.8h-45
				c-16.5,0-29.8-13.4-29.8-29.8V441.1c0-51.9,39.1-94.8,89.3-100.7l254.7,1.1c47,8.9,82.7,50.1,82.7,99.7v228.8
				c0,16.5-13.4,29.8-29.8,29.8h-45c-16.5,0-29.8-13.4-29.8-29.8L422.2,669.9z"/>
			<path class="st10" d="M159.1,471.1c0-51.9,39.1-94.8,89.3-100.7l250.7,1.1c-14.5-15.2-33.5-26-55-30.2l-254.7-1.1
				c-50.3,6-89.3,48.8-89.3,100.7v228.8c0,16.5,13.4,29.8,29.8,29.8h28.9V471.1H159.1z"/>
		</g>
		<circle class="st9" cx="317.3" cy="238.4" r="109.2"/>
		<path class="st10" d="M276.6,238.4c0-48.3,31.5-89.3,75.1-103.8c-10.9-3.6-22.2-5.4-34.4-5.4c-60.4,0-109.2,48.8-109.2,109.2
			s48.8,109.2,109.2,109.2s23.5-2,34.4-5.6c-43.6-14.5-74.9-55.3-74.9-103.6l0,0L276.6,238.4z"/>
	</g>
	<g>
		<path d="M317.3,361.2c67.6,0,122.8-55.2,122.8-122.8s-6.5-45.9-19-65.5c-4-6.3-12.3-8.1-18.6-4.2c-6.3,4-8.1,12.3-4.2,18.6
			c9.6,15.2,14.8,32.9,14.8,51c0,52.8-42.9,95.7-95.7,95.7s-95.7-42.9-95.7-95.7s42.9-95.7,95.7-95.7s29.8,3.4,43.6,10.5
			c6.7,3.4,14.8,0.7,18.3-6c3.4-6.7,0.7-14.8-6-18.3c-17.4-8.9-36.2-13.4-55.9-13.4c-67.6,0-122.8,55.2-122.8,122.8
			s55.2,122.8,122.8,122.8l0,0H317.3z"/>
		<path d="M130,713.1h45c5.8,0,11.2-1.1,16.3-3.1V754c0,7.4,6.1,13.6,13.6,13.6c7.4,0,13.6-6.1,13.6-13.6V498.2
			c0-7.4-6.1-13.6-13.6-13.6c-7.4,0-13.6,6.1-13.6,13.6v171.6c0,8.9-7.2,16.3-16.3,16.3h-45c-8.9,0-16.3-7.2-16.3-16.3V441.1
			c0-44.5,33.3-81.9,77.4-87.4c7.4-0.9,12.7-7.6,11.9-15c-0.9-7.4-7.6-12.7-15-11.9c-57.7,6.9-101.3,56.1-101.3,114.1v228.8
			c0,23.9,19.4,43.4,43.4,43.4l0,0H130z"/>
		<path d="M435.8,710c5.1,2,10.5,3.1,16.3,3.1h45c23.9,0,43.4-19.4,43.4-43.4V440.9c0-55.3-39.4-102.7-93.7-113
			c-7.4-1.4-14.5,3.4-15.9,10.9c-1.4,7.4,3.4,14.5,10.9,15.9c41.4,7.8,71.6,44.1,71.6,86.5v228.8c0,8.9-7.2,16.3-16.3,16.3h-45
			c-8.9,0-16.3-7.2-16.3-16.3V498.2c0-7.4-6.1-13.6-13.6-13.6s-13.6,6.1-13.6,13.6v433.9c0,8.9-7.2,16.3-16.3,16.3h-49.2
			c-8.9,0-16.3-7.2-16.3-16.3V694.8c0-7.4-6.1-13.6-13.6-13.6s-13.6,6.1-13.6,13.6v237.3c0,8.9-7.2,16.3-16.3,16.3h-49.2
			c-8.9,0-16.3-7.2-16.3-16.3V811.7c0-7.4-6.1-13.6-13.6-13.6s-13.6,6.1-13.6,13.6v120.5c0,23.9,19.4,43.4,43.4,43.4h49.2
			c11.6,0,22.1-4.5,29.8-11.9c7.8,7.4,18.3,11.9,29.8,11.9h49.2c23.9,0,43.4-19.4,43.4-43.4L435.8,710L435.8,710L435.8,710z"/>
		<path d="M515,850.6h-38.7c-7.4,0-13.6,6.1-13.6,13.6c0,7.4,6.1,13.6,13.6,13.6H515c37.8,0,68.4,30.7,68.4,68.4
			s-30.7,68.4-68.4,68.4h-76.1c-7.4,0-13.6,6.1-13.6,13.6c0,7.4,6.1,13.6,13.6,13.6H515c52.6,0,95.5-42.9,95.5-95.5
			C610.5,893.4,567.6,850.6,515,850.6L515,850.6z"/>
		<path d="M381.2,1014.4H111c-37.8,0-68.4-30.7-68.4-68.4s30.7-68.4,68.4-68.4h39.6c7.4,0,13.6-6.1,13.6-13.6
			c0-7.4-6.1-13.6-13.6-13.6H111c-52.6,0-95.5,42.9-95.5,95.5c0,52.6,42.9,95.5,95.5,95.5h270.2c7.4,0,13.6-6.1,13.6-13.6
			C394.7,1020.6,388.6,1014.4,381.2,1014.4L381.2,1014.4z"/>
	</g>
</g>
</svg>
