<?xml version="1.0" encoding="UTF-8"?><svg id="Calque_1" xmlns="http://www.w3.org/2000/svg" viewBox="0 0 693.5 693.5"><path d="M105,315.8l-9-89.3,80-7.1c10.8-1.1,20.4,6.8,21.5,17.5l5.1,50.4c1.1,10.8-6.8,20.4-17.5,21.5l-80,7.1Z" fill="#64caff"/><path d="M240.8,283.7l-5.2-51.1c-1.1-10.6-10.5-18.2-21-17.2h0c-10.6,1.1-18.2,10.5-17.2,21l5.2,51.1c1.1,10.6,10.5,18.2,21,17.2h0c10.6-1.1,18.2-10.5,17.2-21Z" fill="#a2dbff"/><path d="M279,279.8l-5.2-51.1c-1.1-10.6-10.5-18.2-21-17.2h0c-10.6,1.1-18.2,10.5-17.2,21l5.2,51.1c1.1,10.6,10.5,18.2,21,17.2h0c10.6-1.1,18.2-10.5,17.2-21Z" fill="#64caff"/><path d="M105,315.8l-9-89.3,80-7.1c10.8-1.1,20.4,6.8,21.5,17.5l5.1,50.4c1.1,10.8-6.8,20.4-17.5,21.5l-80,7.1Z" fill="none" stroke="#000" stroke-linecap="round" stroke-linejoin="round" stroke-width="15"/><path d="M240.8,283.7l-5.2-51.1c-1.1-10.6-10.5-18.2-21-17.2h0c-10.6,1.1-18.2,10.5-17.2,21l5.2,51.1c1.1,10.6,10.5,18.2,21,17.2h0c10.6-1.1,18.2-10.5,17.2-21Z" fill="none" stroke="#000" stroke-linecap="round" stroke-linejoin="round" stroke-width="15"/><path d="M279,279.8l-5.2-51.1c-1.1-10.6-10.5-18.2-21-17.2h0c-10.6,1.1-18.2,10.5-17.2,21l5.2,51.1c1.1,10.6,10.5,18.2,21,17.2h0c10.6-1.1,18.2-10.5,17.2-21Z" fill="none" stroke="#000" stroke-linecap="round" stroke-linejoin="round" stroke-width="15"/><path d="M138.2,306.3l-88.3,16.3-11.9-64.5c-2-10.6,5.1-20.9,15.7-22.8l49.8-9.2c10.6-2,20.9,5.1,22.8,15.7l11.9,64.5Z" fill="#a2dbff"/><path d="M96.9,188.3l-50.5,9.3c-10.4,1.9-17.3,11.9-15.4,22.4h0c1.9,10.4,11.9,17.3,22.4,15.4l50.5-9.3c10.4-1.9,17.3-11.9,15.4-22.4h0c-1.9-10.4-11.9-17.3-22.4-15.4Z" fill="#64caff"/><path d="M89.9,150.5l-50.5,9.3c-10.4,1.9-17.3,11.9-15.4,22.4h0c1.9,10.4,11.9,17.3,22.4,15.4l50.5-9.3c10.4-1.9,17.3-11.9,15.4-22.4h0c-1.9-10.4-11.9-17.3-22.4-15.4Z" fill="#a2dbff"/><path d="M138.2,306.3l-88.3,16.3-11.9-64.5c-2-10.6,5.1-20.9,15.7-22.8l49.8-9.2c10.6-2,20.9,5.1,22.8,15.7l11.9,64.5Z" fill="none" stroke="#000" stroke-linecap="round" stroke-linejoin="round" stroke-width="15"/><path d="M96.9,188.3l-50.5,9.3c-10.4,1.9-17.3,11.9-15.4,22.4h0c1.9,10.4,11.9,17.3,22.4,15.4l50.5-9.3c10.4-1.9,17.3-11.9,15.4-22.4h0c-1.9-10.4-11.9-17.3-22.4-15.4Z" fill="none" stroke="#000" stroke-linecap="round" stroke-linejoin="round" stroke-width="15"/><path d="M89.9,150.5l-50.5,9.3c-10.4,1.9-17.3,11.9-15.4,22.4h0c1.9,10.4,11.9,17.3,22.4,15.4l50.5-9.3c10.4-1.9,17.3-11.9,15.4-22.4h0c-1.9-10.4-11.9-17.3-22.4-15.4Z" fill="none" stroke="#000" stroke-linecap="round" stroke-linejoin="round" stroke-width="15"/><path d="M84.5,151.5l-39.7,7.3-4.2-23c-1.4-7.6,3.6-14.9,11.2-16.3l12.1-2.2c7.6-1.4,14.9,3.6,16.3,11.2l4.2,23Z" fill="#ff7383"/><path d="M84.5,151.5l-39.7,7.3-4.2-23c-1.4-7.6,3.6-14.9,11.2-16.3l12.1-2.2c7.6-1.4,14.9,3.6,16.3,11.2l4.2,23Z" fill="none" stroke="#000" stroke-linecap="round" stroke-linejoin="round" stroke-width="15"/><path d="M329.1,339.9l-84.2-31,22.7-61.5c3.7-10.1,15-15.3,25.1-11.6l47.5,17.5c10.1,3.7,15.3,15,11.6,25.1l-22.7,61.5Z" fill="#a2dbff"/><path d="M353.8,217.3l-48.2-17.8c-10-3.7-21,1.4-24.7,11.4h0c-3.7,10,1.4,21,11.4,24.7l48.2,17.8c10,3.7,21-1.4,24.7-11.4h0c3.7-10-1.4-21-11.4-24.7Z" fill="#64caff"/><path d="M367.1,181.3l-48.2-17.8c-10-3.7-21,1.4-24.7,11.4h0c-3.7,10,1.4,21,11.4,24.7l48.2,17.8c10,3.7,21-1.4,24.7-11.4h0c3.7-10-1.4-21-11.4-24.7Z" fill="#a2dbff"/><path d="M329.1,339.9l-84.2-31,22.7-61.5c3.7-10.1,15-15.3,25.1-11.6l47.5,17.5c10.1,3.7,15.3,15,11.6,25.1l-22.7,61.5Z" fill="none" stroke="#000" stroke-linecap="round" stroke-linejoin="round" stroke-width="15"/><path d="M353.8,217.3l-48.2-17.8c-10-3.7-21,1.4-24.7,11.4h0c-3.7,10,1.4,21,11.4,24.7l48.2,17.8c10,3.7,21-1.4,24.7-11.4h0c3.7-10-1.4-21-11.4-24.7Z" fill="none" stroke="#000" stroke-linecap="round" stroke-linejoin="round" stroke-width="15"/><path d="M367.1,181.3l-48.2-17.8c-10-3.7-21,1.4-24.7,11.4h0c-3.7,10,1.4,21,11.4,24.7l48.2,17.8c10,3.7,21-1.4,24.7-11.4h0c3.7-10-1.4-21-11.4-24.7Z" fill="none" stroke="#000" stroke-linecap="round" stroke-linejoin="round" stroke-width="15"/><path d="M361.9,179.4l-37.9-14,8.1-21.9c2.7-7.3,10.7-11,18-8.3l11.6,4.3c7.3,2.7,11,10.7,8.3,18l-8.1,21.9Z" fill="#ff7383"/><path d="M361.9,179.4l-37.9-14,8.1-21.9c2.7-7.3,10.7-11,18-8.3l11.6,4.3c7.3,2.7,11,10.7,8.3,18l-8.1,21.9Z" fill="none" stroke="#000" stroke-linecap="round" stroke-linejoin="round" stroke-width="15"/><path d="M601.5,377.6l-16.3-49.3c-3.7-11.1-11.9-20.1-22.7-24.6l-30.2-12.7c-6.9-2.9-10.1-11.1-6.7-17.8,1.9-3.9,4.4-7.7,7.2-11.2,3.3-4.2-1.5-10-6.3-7.6l-2.5,1.3c-3.3,1.7-7.3-.4-7.9-4.1l-1-6.7c-.8-4.9-7.5-5.9-9.6-1.4l-3.7,8c-1.1,2.4-3.8,3.6-6.3,3l-11.8-3c-4.8-1.2-8.4,4.6-5,8.3,5,5.5,9.2,11.5,11.9,17.5,2.8,6.3,.3,13.6-5.7,16.9l-35.9,19.6c-7.3,4-13.2,10.2-16.9,17.7l-18.8,38.3c-5,10.2-5.5,22-1.4,32.5l13.4,34.5c4.3,11.1,13.3,19.8,24.6,23.6l35,12c9.1,3.1,18.7,3.9,28.2,2.4,10.8-1.7,25.7-4.2,37.8-6.1,12.9-2.1,24-10.3,29.8-22l18.9-38.3c4.7-9.5,5.5-20.5,2.1-30.6Z" fill="#988393"/><path d="M568.1,306.6c-1.8-1.1-3.7-2.1-5.7-2.9l-30.2-12.7c-6.9-2.9-10.1-11.1-6.7-17.8,1.9-3.9,4.4-7.7,7.2-11.2,3.3-4.2-1.5-10-6.3-7.6l-2.5,1.3c-3.3,1.7-7.3-.4-7.9-4.1l-1-6.7c-.8-4.9-7.5-5.9-9.6-1.4l-3.7,8c-1.1,2.4-3.8,3.6-6.3,3l-11.8-3c-4.8-1.2-8.4,4.6-5,8.3,5,5.5,9.2,11.5,11.9,17.5,2.8,6.3,.3,13.6-5.7,16.9l-35.9,19.6c-7.3,4-13.2,10.2-16.9,17.7l-18.8,38.3c-5,10.2-5.5,22-1.4,32.5l13.4,34.5c4.3,11.1,13.3,19.8,24.6,23.6l35,12c9.1,3.1,18.7,3.9,28.2,2.4,10.8-1.7,25.7-4.2,37.8-6.1,12.9-2.1,24-10.3,29.8-22l18.9-38.3c4.7-9.5,5.5-20.5,2.1-30.6l-12.3-37.3" fill="none" stroke="#000" stroke-linecap="round" stroke-linejoin="round" stroke-width="15"/><line x1="480.5" y1="284.7" x2="536.3" y2="282" fill="none" stroke="#000" stroke-linecap="round" stroke-linejoin="round" stroke-width="15"/><path d="M686.3,572.6l-8.9-67.2c-2-15.1-10.4-28.6-23.1-37l-35.7-23.7c-8.2-5.4-10.2-16.6-4.3-24.5,3.4-4.6,7.5-8.8,11.9-12.7,5.3-4.6,.5-13.2-6.3-11.3l-3.5,1c-4.7,1.3-9.3-2.3-9.1-7.1l.3-8.9c.2-6.5-8.2-9.4-12-4.1l-6.7,9.3c-2,2.8-5.7,3.8-8.8,2.3l-14.3-6.7c-5.9-2.8-11.8,3.8-8.5,9.4,5.1,8.3,9,17,11,25.4,2,8.7-2.9,17.5-11.4,20.3l-50.8,16.4c-10.4,3.4-19.5,9.8-26,18.6l-33.4,44.5c-8.9,11.8-12.4,26.8-9.7,41.3l8.8,47.4c2.8,15.3,12.3,28.6,25.8,36.3l42,23.9c10.9,6.2,23.1,9.6,35.6,9.9,14.3,.4,34,.9,49.9,1.3,17.1,.5,33.3-7.4,43.6-21l33.5-44.5c8.3-11.1,12-25,10.2-38.7Z" fill="#6c5e69"/><path d="M571.3,536.9l-23.7-63.5c-3.9-10.4-10-19.8-17.6-27.5l-24,7.8c-10.4,3.4-19.5,9.8-26,18.6l-33.4,44.5c-8.9,11.8-12.4,26.8-9.7,41.3l8.8,47.4c2.8,15.3,12.3,28.6,25.8,36.3l42,23.9c4.7,2.7,9.6,4.8,14.7,6.4,7.7-7.1,14.1-15.7,18.5-25.5l22.7-50.8c8.4-18.7,9-39.5,1.8-58.7Z" fill="#574d56"/><path d="M669.1,620.6l7-9.3c8.3-11.1,12-25,10.2-38.7l-8.9-67.2c-2-15.1-10.4-28.6-23.1-37l-35.7-23.7c-8.2-5.4-10.2-16.6-4.3-24.5,3.4-4.6,7.5-8.8,11.9-12.7,5.3-4.6,.5-13.2-6.3-11.3l-3.5,1c-4.7,1.3-9.3-2.3-9.1-7.1l.3-8.9c.2-6.5-8.2-9.4-12-4.1l-6.7,9.3c-2,2.8-5.7,3.8-8.8,2.3l-14.3-6.7c-5.9-2.8-11.8,3.8-8.5,9.4,5.1,8.3,9,17,11,25.4,2,8.7-2.9,17.5-11.4,20.3l-50.8,16.4c-10.4,3.4-19.5,9.8-26,18.6l-33.4,44.5c-8.9,11.8-12.4,26.8-9.7,41.3l8.8,47.4c2.8,15.3,12.3,28.6,25.8,36.3l42,23.9c10.9,6.2,23.1,9.6,35.6,9.9,14.3,.4,34,.9,49.9,1.3,17.1,.5,33.3-7.4,43.6-21l2.6-3.4" fill="none" stroke="#000" stroke-linecap="round" stroke-linejoin="round" stroke-width="15"/><line x1="553.7" y1="424.3" x2="625.9" y2="434.3" fill="none" stroke="#000" stroke-linecap="round" stroke-linejoin="round" stroke-width="15"/><path d="M548.3,545.5l-23.7-63.5c-5.3-14.3-16.6-25.5-30.8-30.9l-40.1-15.1c-9.2-3.5-13.7-13.9-9.7-22.9,2.3-5.2,5.4-10.3,8.8-15,4.1-5.7-2.5-13-8.6-9.6l-3.2,1.8c-4.3,2.3-9.6-.1-10.5-4.9l-1.7-8.7c-1.2-6.4-10-7.3-12.6-1.3l-4.4,10.6c-1.3,3.2-4.7,4.9-8.1,4.2l-15.5-3.3c-6.4-1.4-10.7,6.4-6.1,11,6.8,7,12.6,14.5,16.4,22.3,3.9,8,1.1,17.7-6.6,22.3l-45.9,27.4c-9.4,5.6-16.8,13.9-21.2,23.9l-22.6,50.9c-6,13.5-6.1,28.9-.2,42.5l19.2,44.2c6.2,14.3,18.4,25.1,33.3,29.6l46.3,13.9c12,3.6,24.6,4.2,36.9,1.7,14-2.8,33.3-6.7,48.9-9.9,16.7-3.4,30.8-14.6,37.8-30.2l22.7-50.8c5.7-12.7,6.1-27,1.3-40Z" fill="#6c5e69"/><path d="M327.9,642.8l32.7-181.7-14.7,8.8c-9.4,5.6-16.8,13.9-21.2,23.9l-22.6,50.9c-6,13.5-6.1,28.9-.2,42.5l19.2,44.2c1.8,4.1,4.1,8,6.8,11.5Z" fill="#574d56"/><path d="M548.3,545.5l-23.7-63.5c-5.3-14.3-16.6-25.5-30.8-30.9l-40.1-15.1c-9.2-3.5-13.7-13.9-9.7-22.9,2.3-5.2,5.4-10.3,8.8-15,4.1-5.7-2.5-13-8.6-9.6l-3.2,1.8c-4.3,2.3-9.6-.1-10.5-4.9l-1.7-8.7c-1.2-6.4-10-7.3-12.6-1.3l-4.4,10.6c-1.3,3.2-4.7,4.9-8.1,4.2l-15.5-3.3c-6.4-1.4-10.7,6.4-6.1,11,6.8,7,12.6,14.5,16.4,22.3,3.9,8,1.1,17.7-6.6,22.3l-45.9,27.4c-9.4,5.6-16.8,13.9-21.2,23.9l-22.6,50.9c-6,13.5-6.1,28.9-.2,42.5l19.2,44.2c6.2,14.3,18.4,25.1,33.3,29.6l46.3,13.9c12,3.6,24.6,4.2,36.9,1.7,14-2.8,33.3-6.7,48.9-9.9,16.7-3.4,30.8-14.6,37.8-30.2l22.7-50.8c5.7-12.7,6.1-27,1.3-40Z" fill="none" stroke="#000" stroke-linecap="round" stroke-linejoin="round" stroke-width="15"/><line x1="385.9" y1="430.6" x2="458.5" y2="424.2" fill="none" stroke="#000" stroke-linecap="round" stroke-linejoin="round" stroke-width="15"/><path d="M377,344.2H15.4c-4.8,0-8.7-3.9-8.7-8.7v-30.9c0-4.8,3.9-8.7,8.7-8.7H377c4.8,0,8.7,3.9,8.7,8.7v30.9c0,4.8-3.9,8.7-8.7,8.7Z" fill="#988393"/><path d="M377,296h-27.5c4.8,0,8.7,3.9,8.7,8.7v30.9c0,4.8-3.9,8.7-8.7,8.7h27.5c4.8,0,8.7-3.9,8.7-8.7v-30.9c0-4.8-3.9-8.7-8.7-8.7Z" fill="#806d7a"/><path d="M377,344.2H15.4c-4.8,0-8.7-3.9-8.7-8.7v-30.9c0-4.8,3.9-8.7,8.7-8.7H377c4.8,0,8.7,3.9,8.7,8.7v30.9c0,4.8-3.9,8.7-8.7,8.7Z" fill="none" stroke="#000" stroke-linecap="round" stroke-linejoin="round" stroke-width="15"/><path d="M357.1,344.2H35.4l55.7,309.4c2.5,14.1,14.8,24.3,29.1,24.3h152.1c14.3,0,26.6-10.2,29.1-24.3l55.7-309.4Z" fill="#6ce79a"/><path d="M35.4,344.2l4.3,24.1H296.7c14.3,0,25.1,12.9,22.5,27l-46.5,258.3c-2.5,14.1-14.8,24.3-29.1,24.3h28.6c14.3,0,26.6-10.2,29.1-24.3l55.7-309.4H35.4Z" fill="#00d8a2"/><path d="M220.7,567.3h-49c-7.4,0-13.5-6-13.5-13.5v-85.6c0-7.4,6-13.5,13.5-13.5h49c7.4,0,13.5,6,13.5,13.5v85.6c0,7.4-6,13.5-13.5,13.5Z" fill="#9eb0e9"/><path d="M220.7,454.8h-27.1c7.4,0,13.5,6,13.5,13.5v85.6c0,7.4-6,13.5-13.5,13.5h27.1c7.4,0,13.5-6,13.5-13.5v-85.6c0-7.4-6-13.5-13.5-13.5Z" fill="#8296e1"/><path d="M220.7,567.3h-49c-7.4,0-13.5-6-13.5-13.5v-85.6c0-7.4,6-13.5,13.5-13.5h49c7.4,0,13.5,6,13.5,13.5v85.6c0,7.4-6,13.5-13.5,13.5Z" fill="none" stroke="#000" stroke-linecap="round" stroke-linejoin="round" stroke-width="15"/><g><path d="M625.2,77.7h0c-8.8,.8-16.8-5.2-18.4-13.9l-2.9-15.8c-1.8-9.9,5.2-19.2,15.2-20.2l2.8-.3c10-1,18.7,6.9,18.7,16.9v16c.2,8.9-6.5,16.3-15.4,17.1Z" fill="#e7e2e6"/><path d="M631.1,83.4h0c-.5,8.8,5.8,16.6,14.6,17.9l15.9,2.4c9.9,1.5,19-5.9,19.6-15.9l.2-2.8c.6-10-7.6-18.4-17.6-18.1l-16,.5c-8.8,.3-16,7.3-16.5,16.1Z" fill="#e7e2e6"/><path d="M625.2,77.7h0c-8.8,.8-16.8-5.2-18.4-13.9l-2.9-15.8c-1.8-9.9,5.2-19.2,15.2-20.2l2.8-.3c10-1,18.7,6.9,18.7,16.9v16c.2,8.9-6.5,16.3-15.4,17.1Z" fill="none" stroke="#000" stroke-linecap="round" stroke-linejoin="round" stroke-width="15"/><path d="M631.1,83.4h0c-.5,8.8,5.8,16.6,14.6,17.9l15.9,2.4c9.9,1.5,19-5.9,19.6-15.9l.2-2.8c.6-10-7.6-18.4-17.6-18.1l-16,.5c-8.8,.3-16,7.3-16.5,16.1Z" fill="none" stroke="#000" stroke-linecap="round" stroke-linejoin="round" stroke-width="15"/><line x1="655.7" y1="52" x2="617.4" y2="91.7" fill="none" stroke="#000" stroke-linecap="round" stroke-linejoin="round" stroke-width="15"/></g><g><path d="M422.6,72.2h0c1.7,8.7-3.5,17.2-12,19.7l-15.4,4.5c-9.6,2.8-19.6-3.2-21.6-13.1l-.6-2.8c-2-9.8,5-19.3,14.9-20.3l15.9-1.7c8.8-.9,16.9,5,18.6,13.7Z" fill="#e7e2e6"/><path d="M427.7,65.7h0c8.8-.4,15.9-7.4,16.4-16.3l.7-16c.5-10-7.8-18.3-17.8-17.9h-2.8c-10,.5-17.5,9.5-16.2,19.4l2.1,15.9c1.2,8.8,8.8,15.2,17.7,14.8Z" fill="#e7e2e6"/><path d="M422.6,72.2h0c1.7,8.7-3.5,17.2-12,19.7l-15.4,4.5c-9.6,2.8-19.6-3.2-21.6-13.1l-.6-2.8c-2-9.8,5-19.3,14.9-20.3l15.9-1.7c8.8-.9,16.9,5,18.6,13.7Z" fill="none" stroke="#000" stroke-linecap="round" stroke-linejoin="round" stroke-width="15"/><path d="M427.7,65.7h0c8.8-.4,15.9-7.4,16.4-16.3l.7-16c.5-10-7.8-18.3-17.8-17.9h-2.8c-10,.5-17.5,9.5-16.2,19.4l2.1,15.9c1.2,8.8,8.8,15.2,17.7,14.8Z" fill="none" stroke="#000" stroke-linecap="round" stroke-linejoin="round" stroke-width="15"/><line x1="393.9" y1="44.4" x2="437.3" y2="78.5" fill="none" stroke="#000" stroke-linecap="round" stroke-linejoin="round" stroke-width="15"/></g><path d="M629.6,171.8s-17.3,17-3,36c14.2,19.1,17.9,38,11.5,57.3" fill="none" stroke="#000" stroke-linecap="round" stroke-linejoin="round" stroke-width="15"/><path d="M534.8,108.2s-17.3,17-3,36c14.2,19.1,17.9,38,11.5,57.3" fill="none" stroke="#000" stroke-linecap="round" stroke-linejoin="round" stroke-width="15"/><path d="M424.8,163.2s-17.3,17-3,36c14.2,19.1,17.9,38,11.5,57.3" fill="none" stroke="#000" stroke-linecap="round" stroke-linejoin="round" stroke-width="15"/><path d="M79.1,587.2l12,66.4c2.5,14.1,14.8,24.3,29.1,24.3h152.1c14.3,0,26.6-10.2,29.1-24.3l55.7-309.4H35.4l36.6,203.3" fill="none" stroke="#000" stroke-linecap="round" stroke-linejoin="round" stroke-width="15"/></svg>