<?xml version="1.0" encoding="UTF-8"?><svg id="Calque_1" xmlns="http://www.w3.org/2000/svg" viewBox="0 0 693.5 693.5"><path d="M236.1,247.6l-10.9-108.3,97-8.7c13-1.3,24.7,8.2,26,21.2l6.2,61.1c1.3,13-8.2,24.7-21.2,26l-97,8.7Z" fill="#64caff"/><path d="M400.8,208.7l-6.3-62c-1.3-12.8-12.7-22.1-25.5-20.8h0c-12.8,1.3-22.1,12.7-20.8,25.5l6.3,62c1.3,12.8,12.7,22.1,25.5,20.8h0c12.8-1.3,22.1-12.7,20.8-25.5Z" fill="#a2dbff"/><path d="M447.1,204l-6.3-62c-1.3-12.8-12.7-22.1-25.5-20.8h0c-12.8,1.3-22.1,12.7-20.8,25.5l6.3,62c1.3,12.8,12.7,22.1,25.5,20.8h0c12.8-1.3,22.1-12.7,20.8-25.5Z" fill="#64caff"/><path d="M236.1,247.6l-10.9-108.3,97-8.7c13-1.3,24.7,8.2,26,21.2l6.2,61.1c1.3,13-8.2,24.7-21.2,26l-97,8.7Z" fill="none" stroke="#000" stroke-linecap="round" stroke-linejoin="round" stroke-width="15"/><path d="M400.8,208.7l-6.3-62c-1.3-12.8-12.7-22.1-25.5-20.8h0c-12.8,1.3-22.1,12.7-20.8,25.5l6.3,62c1.3,12.8,12.7,22.1,25.5,20.8h0c12.8-1.3,22.1-12.7,20.8-25.5Z" fill="none" stroke="#000" stroke-linecap="round" stroke-linejoin="round" stroke-width="15"/><path d="M447.1,204l-6.3-62c-1.3-12.8-12.7-22.1-25.5-20.8h0c-12.8,1.3-22.1,12.7-20.8,25.5l6.3,62c1.3,12.8,12.7,22.1,25.5,20.8h0c12.8-1.3,22.1-12.7,20.8-25.5Z" fill="none" stroke="#000" stroke-linecap="round" stroke-linejoin="round" stroke-width="15"/><path d="M276.4,236.2l-107,19.8-14.4-78.2c-2.4-12.9,6.1-25.3,19-27.7l60.3-11.1c12.9-2.4,25.3,6.1,27.7,19l14.4,78.2Z" fill="#a2dbff"/><path d="M226.3,93.1l-61.2,11.3c-12.6,2.3-21,14.5-18.7,27.1h0c2.3,12.6,14.5,21,27.1,18.7l61.2-11.3c12.6-2.3,21-14.5,18.7-27.1h0c-2.3-12.6-14.5-21-27.1-18.7Z" fill="#64caff"/><path d="M217.9,47.3l-61.2,11.3c-12.6,2.3-21,14.5-18.7,27.1h0c2.3,12.6,14.5,21,27.1,18.7l61.2-11.3c12.6-2.3,21-14.5,18.7-27.1h0c-2.3-12.6-14.5-21-27.1-18.7Z" fill="#a2dbff"/><path d="M276.4,236.2l-107,19.8-14.4-78.2c-2.4-12.9,6.1-25.3,19-27.7l60.3-11.1c12.9-2.4,25.3,6.1,27.7,19l14.4,78.2Z" fill="none" stroke="#000" stroke-linecap="round" stroke-linejoin="round" stroke-width="15"/><path d="M226.3,93.1l-61.2,11.3c-12.6,2.3-21,14.5-18.7,27.1h0c2.3,12.6,14.5,21,27.1,18.7l61.2-11.3c12.6-2.3,21-14.5,18.7-27.1h0c-2.3-12.6-14.5-21-27.1-18.7Z" fill="none" stroke="#000" stroke-linecap="round" stroke-linejoin="round" stroke-width="15"/><path d="M217.9,47.3l-61.2,11.3c-12.6,2.3-21,14.5-18.7,27.1h0c2.3,12.6,14.5,21,27.1,18.7l61.2-11.3c12.6-2.3,21-14.5,18.7-27.1h0c-2.3-12.6-14.5-21-27.1-18.7Z" fill="none" stroke="#000" stroke-linecap="round" stroke-linejoin="round" stroke-width="15"/><path d="M211.3,48.5l-48.1,8.9-5.1-27.8c-1.7-9.2,4.4-18.1,13.6-19.8l14.7-2.7c9.2-1.7,18.1,4.4,19.8,13.6l5.1,27.8Z" fill="#ff7383"/><path d="M211.3,48.5l-48.1,8.9-5.1-27.8c-1.7-9.2,4.4-18.1,13.6-19.8l14.7-2.7c9.2-1.7,18.1,4.4,19.8,13.6l5.1,27.8Z" fill="none" stroke="#000" stroke-linecap="round" stroke-linejoin="round" stroke-width="15"/><path d="M507.9,276.9l-102.1-37.6,27.5-74.6c4.5-12.3,18.2-18.6,30.5-14.1l57.6,21.2c12.3,4.5,18.6,18.2,14.1,30.5l-27.5,74.6Z" fill="#a2dbff"/><path d="M537.8,128.3l-58.4-21.5c-12.1-4.4-25.5,1.7-29.9,13.8h0c-4.4,12.1,1.7,25.5,13.8,29.9l58.4,21.5c12.1,4.4,25.5-1.7,29.9-13.8h0c4.4-12.1-1.7-25.5-13.8-29.9Z" fill="#64caff"/><path d="M553.9,84.6l-58.4-21.5c-12.1-4.4-25.5,1.7-29.9,13.8h0c-4.4,12.1,1.7,25.5,13.8,29.9l58.4,21.5c12.1,4.4,25.5-1.7,29.9-13.8h0c4.4-12.1-1.7-25.5-13.8-29.9Z" fill="#a2dbff"/><path d="M507.9,276.9l-102.1-37.6,27.5-74.6c4.5-12.3,18.2-18.6,30.5-14.1l57.6,21.2c12.3,4.5,18.6,18.2,14.1,30.5l-27.5,74.6Z" fill="none" stroke="#000" stroke-linecap="round" stroke-linejoin="round" stroke-width="15"/><path d="M537.8,128.3l-58.4-21.5c-12.1-4.4-25.5,1.7-29.9,13.8h0c-4.4,12.1,1.7,25.5,13.8,29.9l58.4,21.5c12.1,4.4,25.5-1.7,29.9-13.8h0c4.4-12.1-1.7-25.5-13.8-29.9Z" fill="none" stroke="#000" stroke-linecap="round" stroke-linejoin="round" stroke-width="15"/><path d="M553.9,84.6l-58.4-21.5c-12.1-4.4-25.5,1.7-29.9,13.8h0c-4.4,12.1,1.7,25.5,13.8,29.9l58.4,21.5c12.1,4.4,25.5-1.7,29.9-13.8h0c4.4-12.1-1.7-25.5-13.8-29.9Z" fill="none" stroke="#000" stroke-linecap="round" stroke-linejoin="round" stroke-width="15"/><path d="M547.6,82.3l-45.9-16.9,9.8-26.6c3.2-8.8,13-13.3,21.8-10.1l14,5.2c8.8,3.2,13.3,13,10.1,21.8l-9.8,26.6Z" fill="#ff7383"/><path d="M547.6,82.3l-45.9-16.9,9.8-26.6c3.2-8.8,13-13.3,21.8-10.1l14,5.2c8.8,3.2,13.3,13,10.1,21.8l-9.8,26.6Z" fill="none" stroke="#000" stroke-linecap="round" stroke-linejoin="round" stroke-width="15"/><path d="M565.9,282.1H127.5c-5.8,0-10.5-4.7-10.5-10.5v-37.4c0-5.8,4.7-10.5,10.5-10.5h438.4c5.8,0,10.5,4.7,10.5,10.5v37.4c0,5.8-4.7,10.5-10.5,10.5Z" fill="#988393"/><path d="M565.9,223.7h-33.4c5.8,0,10.5,4.7,10.5,10.5v37.4c0,5.8-4.7,10.5-10.5,10.5h33.4c5.8,0,10.5-4.7,10.5-10.5v-37.4c0-5.8-4.7-10.5-10.5-10.5Z" fill="#806d7a"/><path d="M565.9,282.1H127.5c-5.8,0-10.5-4.7-10.5-10.5v-37.4c0-5.8,4.7-10.5,10.5-10.5h438.4c5.8,0,10.5,4.7,10.5,10.5v37.4c0,5.8-4.7,10.5-10.5,10.5Z" fill="none" stroke="#000" stroke-linecap="round" stroke-linejoin="round" stroke-width="15"/><path d="M541.8,282.1H151.7l67.5,375.1c3.1,17.1,17.9,29.5,35.3,29.5h184.4c17.4,0,32.2-12.4,35.3-29.5l67.5-375.1Z" fill="#6ce79a"/><path d="M151.7,282.1l5.3,29.2H468.6c17.3,0,30.4,15.7,27.3,32.7l-56.4,313.2c-3.1,17.1-17.9,29.5-35.3,29.5h34.7c17.4,0,32.2-12.4,35.3-29.5l67.5-375.1H151.7Z" fill="#00d8a2"/><path d="M376.4,552.6h-59.4c-9,0-16.3-7.3-16.3-16.3v-103.7c0-9,7.3-16.3,16.3-16.3h59.4c9,0,16.3,7.3,16.3,16.3v103.7c0,9-7.3,16.3-16.3,16.3Z" fill="#9eb0e9"/><path d="M376.4,416.2h-32.9c9,0,16.3,7.3,16.3,16.3v103.7c0,9-7.3,16.3-16.3,16.3h32.9c9,0,16.3-7.3,16.3-16.3v-103.7c0-9-7.3-16.3-16.3-16.3Z" fill="#8296e1"/><path d="M376.4,552.6h-59.4c-9,0-16.3-7.3-16.3-16.3v-103.7c0-9,7.3-16.3,16.3-16.3h59.4c9,0,16.3,7.3,16.3,16.3v103.7c0,9-7.3,16.3-16.3,16.3Z" fill="none" stroke="#000" stroke-linecap="round" stroke-linejoin="round" stroke-width="15"/><path d="M204.7,576.7l14.5,80.5c3.1,17.1,17.9,29.5,35.3,29.5h184.4c17.4,0,32.2-12.4,35.3-29.5l67.5-375.1H151.7l44.4,246.5" fill="none" stroke="#000" stroke-linecap="round" stroke-linejoin="round" stroke-width="15"/></svg>