<?xml version="1.0" encoding="UTF-8"?><svg id="Calque_1" xmlns="http://www.w3.org/2000/svg" viewBox="0 0 693.5 693.5"><path d="M290.9,261.4l-105.1-28.3,20.6-76.8c3.4-12.7,16.4-20.2,29.1-16.8l59.3,15.9c12.7,3.4,20.2,16.4,16.8,29.1l-20.6,76.8Z" fill="#a2dbff"/><path d="M307.3,110.7l-60.1-16.2c-12.4-3.3-25.2,4-28.5,16.4h0c-3.3,12.4,4,25.2,16.4,28.5l60.1,16.2c12.4,3.3,25.2-4,28.5-16.4h0c3.3-12.4-4-25.2-16.4-28.5Z" fill="#64caff"/><path d="M319.4,65.7l-60.1-16.2c-12.4-3.3-25.2,4-28.5,16.4h0c-3.3,12.4,4,25.2,16.4,28.5l60.1,16.2c12.4,3.3,25.2-4,28.5-16.4h0c3.3-12.4-4-25.2-16.4-28.5Z" fill="#a2dbff"/><path d="M290.9,261.4l-105.1-28.3,20.6-76.8c3.4-12.7,16.4-20.2,29.1-16.8l59.3,15.9c12.7,3.4,20.2,16.4,16.8,29.1l-20.6,76.8Z" fill="none" stroke="#000" stroke-linecap="round" stroke-linejoin="round" stroke-width="15"/><path d="M307.3,110.7l-60.1-16.2c-12.4-3.3-25.2,4-28.5,16.4h0c-3.3,12.4,4,25.2,16.4,28.5l60.1,16.2c12.4,3.3,25.2-4,28.5-16.4h0c3.3-12.4-4-25.2-16.4-28.5Z" fill="none" stroke="#000" stroke-linecap="round" stroke-linejoin="round" stroke-width="15"/><path d="M319.4,65.7l-60.1-16.2c-12.4-3.3-25.2,4-28.5,16.4h0c-3.3,12.4,4,25.2,16.4,28.5l60.1,16.2c12.4,3.3,25.2-4,28.5-16.4h0c3.3-12.4-4-25.2-16.4-28.5Z" fill="none" stroke="#000" stroke-linecap="round" stroke-linejoin="round" stroke-width="15"/><path d="M312.9,64l-47.3-12.7,7.3-27.3c2.4-9.1,11.8-14.4,20.8-12l14.5,3.9c9.1,2.4,14.4,11.8,12,20.8l-7.3,27.3Z" fill="#ff7383"/><path d="M312.9,64l-47.3-12.7,7.3-27.3c2.4-9.1,11.8-14.4,20.8-12l14.5,3.9c9.1,2.4,14.4,11.8,12,20.8l-7.3,27.3Z" fill="none" stroke="#000" stroke-linecap="round" stroke-linejoin="round" stroke-width="15"/><path d="M423.3,294.8l-100.6-41.7,30.4-73.4c5-12.1,18.9-17.9,31-12.8l56.7,23.5c12.1,5,17.9,18.9,12.8,31l-30.4,73.4Z" fill="#a2dbff"/><path d="M459.1,147.4l-57.5-23.8c-11.9-4.9-25.5,.7-30.4,12.6h0c-4.9,11.9,.7,25.5,12.6,30.4l57.5,23.8c11.9,4.9,25.5-.7,30.4-12.6h0c4.9-11.9-.7-25.5-12.6-30.4Z" fill="#64caff"/><path d="M476.9,104.4l-57.5-23.8c-11.9-4.9-25.5,.7-30.4,12.6h0c-4.9,11.9,.7,25.5,12.6,30.4l57.5,23.8c11.9,4.9,25.5-.7,30.4-12.6h0c4.9-11.9-.7-25.5-12.6-30.4Z" fill="#a2dbff"/><path d="M423.3,294.8l-100.6-41.7,30.4-73.4c5-12.1,18.9-17.9,31-12.8l56.7,23.5c12.1,5,17.9,18.9,12.8,31l-30.4,73.4Z" fill="none" stroke="#000" stroke-linecap="round" stroke-linejoin="round" stroke-width="15"/><path d="M459.1,147.4l-57.5-23.8c-11.9-4.9-25.5,.7-30.4,12.6h0c-4.9,11.9,.7,25.5,12.6,30.4l57.5,23.8c11.9,4.9,25.5-.7,30.4-12.6h0c4.9-11.9-.7-25.5-12.6-30.4Z" fill="none" stroke="#000" stroke-linecap="round" stroke-linejoin="round" stroke-width="15"/><path d="M476.9,104.4l-57.5-23.8c-11.9-4.9-25.5,.7-30.4,12.6h0c-4.9,11.9,.7,25.5,12.6,30.4l57.5,23.8c11.9,4.9,25.5-.7,30.4-12.6h0c4.9-11.9-.7-25.5-12.6-30.4Z" fill="none" stroke="#000" stroke-linecap="round" stroke-linejoin="round" stroke-width="15"/><path d="M470.8,101.9l-45.2-18.7,10.8-26.2c3.6-8.7,13.5-12.8,22.2-9.2l13.8,5.7c8.7,3.6,12.8,13.5,9.2,22.2l-10.8,26.2Z" fill="#ff7383"/><path d="M470.8,101.9l-45.2-18.7,10.8-26.2c3.6-8.7,13.5-12.8,22.2-9.2l13.8,5.7c8.7,3.6,12.8,13.5,9.2,22.2l-10.8,26.2Z" fill="none" stroke="#000" stroke-linecap="round" stroke-linejoin="round" stroke-width="15"/><path d="M167.2,247.6l-10.9-108.3,97-8.7c13-1.3,24.7,8.2,26,21.2l6.2,61.1c1.3,13-8.2,24.7-21.2,26l-97,8.7Z" fill="#64caff"/><path d="M331.8,208.7l-6.3-62c-1.3-12.8-12.7-22.1-25.5-20.8h0c-12.8,1.3-22.1,12.7-20.8,25.5l6.3,62c1.3,12.8,12.7,22.1,25.5,20.8h0c12.8-1.3,22.1-12.7,20.8-25.5Z" fill="#a2dbff"/><path d="M378.1,204l-6.3-62c-1.3-12.8-12.7-22.1-25.5-20.8h0c-12.8,1.3-22.1,12.7-20.8,25.5l6.3,62c1.3,12.8,12.7,22.1,25.5,20.8h0c12.8-1.3,22.1-12.7,20.8-25.5Z" fill="#64caff"/><path d="M167.2,247.6l-10.9-108.3,97-8.7c13-1.3,24.7,8.2,26,21.2l6.2,61.1c1.3,13-8.2,24.7-21.2,26l-97,8.7Z" fill="none" stroke="#000" stroke-linecap="round" stroke-linejoin="round" stroke-width="15"/><path d="M331.8,208.7l-6.3-62c-1.3-12.8-12.7-22.1-25.5-20.8h0c-12.8,1.3-22.1,12.7-20.8,25.5l6.3,62c1.3,12.8,12.7,22.1,25.5,20.8h0c12.8-1.3,22.1-12.7,20.8-25.5Z" fill="none" stroke="#000" stroke-linecap="round" stroke-linejoin="round" stroke-width="15"/><path d="M378.1,204l-6.3-62c-1.3-12.8-12.7-22.1-25.5-20.8h0c-12.8,1.3-22.1,12.7-20.8,25.5l6.3,62c1.3,12.8,12.7,22.1,25.5,20.8h0c12.8-1.3,22.1-12.7,20.8-25.5Z" fill="none" stroke="#000" stroke-linecap="round" stroke-linejoin="round" stroke-width="15"/><path d="M207.5,236.2l-107,19.8-14.4-78.2c-2.4-12.9,6.1-25.3,19-27.7l60.3-11.1c12.9-2.4,25.3,6.1,27.7,19l14.4,78.2Z" fill="#a2dbff"/><path d="M157.4,93.1l-61.2,11.3c-12.6,2.3-21,14.5-18.7,27.1h0c2.3,12.6,14.5,21,27.1,18.7l61.2-11.3c12.6-2.3,21-14.5,18.7-27.1h0c-2.3-12.6-14.5-21-27.1-18.7Z" fill="#64caff"/><path d="M148.9,47.3l-61.2,11.3c-12.6,2.3-21,14.5-18.7,27.1h0c2.3,12.6,14.5,21,27.1,18.7l61.2-11.3c12.6-2.3,21-14.5,18.7-27.1h0c-2.3-12.6-14.5-21-27.1-18.7Z" fill="#a2dbff"/><path d="M207.5,236.2l-107,19.8-14.4-78.2c-2.4-12.9,6.1-25.3,19-27.7l60.3-11.1c12.9-2.4,25.3,6.1,27.7,19l14.4,78.2Z" fill="none" stroke="#000" stroke-linecap="round" stroke-linejoin="round" stroke-width="15"/><path d="M157.4,93.1l-61.2,11.3c-12.6,2.3-21,14.5-18.7,27.1h0c2.3,12.6,14.5,21,27.1,18.7l61.2-11.3c12.6-2.3,21-14.5,18.7-27.1h0c-2.3-12.6-14.5-21-27.1-18.7Z" fill="none" stroke="#000" stroke-linecap="round" stroke-linejoin="round" stroke-width="15"/><path d="M148.9,47.3l-61.2,11.3c-12.6,2.3-21,14.5-18.7,27.1h0c2.3,12.6,14.5,21,27.1,18.7l61.2-11.3c12.6-2.3,21-14.5,18.7-27.1h0c-2.3-12.6-14.5-21-27.1-18.7Z" fill="none" stroke="#000" stroke-linecap="round" stroke-linejoin="round" stroke-width="15"/><path d="M142.4,48.5l-48.1,8.9-5.1-27.8c-1.7-9.2,4.4-18.1,13.6-19.8l14.7-2.7c9.2-1.7,18.1,4.4,19.8,13.6l5.1,27.8Z" fill="#ff7383"/><path d="M142.4,48.5l-48.1,8.9-5.1-27.8c-1.7-9.2,4.4-18.1,13.6-19.8l14.7-2.7c9.2-1.7,18.1,4.4,19.8,13.6l5.1,27.8Z" fill="none" stroke="#000" stroke-linecap="round" stroke-linejoin="round" stroke-width="15"/><path d="M385.3,686.4l-.2-108.9h79.5c13.1-.2,23.8,10.4,23.8,23.6v61.4c.1,13.1-10.5,23.8-23.6,23.8h-79.5Z" fill="#a2dbff"/><path d="M535.1,662.8v-62.3c-.1-12.9-10.6-23.3-23.4-23.2h0c-12.9,0-23.3,10.5-23.2,23.3v62.3c.1,12.9,10.6,23.3,23.4,23.2h0c12.9,0,23.3-10.5,23.2-23.3Z" fill="#64caff"/><path d="M581.7,662.7v-62.3c-.1-12.9-10.6-23.3-23.4-23.2h0c-12.9,0-23.3,10.5-23.2,23.3v62.3c.1,12.9,10.6,23.3,23.4,23.2h0c12.9,0,23.3-10.5,23.2-23.3Z" fill="#a2dbff"/><path d="M385.3,686.4l-.2-108.9h79.5c13.1-.2,23.8,10.4,23.8,23.6v61.4c.1,13.1-10.5,23.8-23.6,23.8h-79.5Z" fill="none" stroke="#000" stroke-linecap="round" stroke-linejoin="round" stroke-width="15"/><path d="M535.1,662.8v-62.3c-.1-12.9-10.6-23.3-23.4-23.2h0c-12.9,0-23.3,10.5-23.2,23.3v62.3c.1,12.9,10.6,23.3,23.4,23.2h0c12.9,0,23.3-10.5,23.2-23.3Z" fill="none" stroke="#000" stroke-linecap="round" stroke-linejoin="round" stroke-width="15"/><path d="M581.7,662.7v-62.3c-.1-12.9-10.6-23.3-23.4-23.2h0c-12.9,0-23.3,10.5-23.2,23.3v62.3c.1,12.9,10.6,23.3,23.4,23.2h0c12.9,0,23.3-10.5,23.2-23.3Z" fill="none" stroke="#000" stroke-linecap="round" stroke-linejoin="round" stroke-width="15"/><path d="M581.7,656.1v-48.9c0,0,28.2,0,28.2,0,9.4,0,17,7.6,17,17v15c0,9.4-7.5,17-16.9,17h-28.3Z" fill="#ff7383"/><path d="M581.7,656.1v-48.9c0,0,28.2,0,28.2,0,9.4,0,17,7.6,17,17v15c0,9.4-7.5,17-16.9,17h-28.3Z" fill="none" stroke="#000" stroke-linecap="round" stroke-linejoin="round" stroke-width="15"/><path d="M497,282.1H58.6c-5.8,0-10.5-4.7-10.5-10.5v-37.4c0-5.8,4.7-10.5,10.5-10.5H497c5.8,0,10.5,4.7,10.5,10.5v37.4c0,5.8-4.7,10.5-10.5,10.5Z" fill="#988393"/><path d="M497,223.7h-33.4c5.8,0,10.5,4.7,10.5,10.5v37.4c0,5.8-4.7,10.5-10.5,10.5h33.4c5.8,0,10.5-4.7,10.5-10.5v-37.4c0-5.8-4.7-10.5-10.5-10.5Z" fill="#806d7a"/><path d="M497,282.1H58.6c-5.8,0-10.5-4.7-10.5-10.5v-37.4c0-5.8,4.7-10.5,10.5-10.5H497c5.8,0,10.5,4.7,10.5,10.5v37.4c0,5.8-4.7,10.5-10.5,10.5Z" fill="none" stroke="#000" stroke-linecap="round" stroke-linejoin="round" stroke-width="15"/><path d="M472.8,282.1H82.7l67.5,375.1c3.1,17.1,17.9,29.5,35.3,29.5h184.4c17.4,0,32.2-12.4,35.3-29.5l67.5-375.1Z" fill="#6ce79a"/><path d="M82.7,282.1l5.3,29.2H399.6c17.3,0,30.4,15.7,27.3,32.7l-56.4,313.2c-3.1,17.1-17.9,29.5-35.3,29.5h34.7c17.4,0,32.2-12.4,35.3-29.5l67.5-375.1H82.7Z" fill="#00d8a2"/><path d="M307.4,552.6h-59.4c-9,0-16.3-7.3-16.3-16.3v-103.7c0-9,7.3-16.3,16.3-16.3h59.4c9,0,16.3,7.3,16.3,16.3v103.7c0,9-7.3,16.3-16.3,16.3Z" fill="#9eb0e9"/><path d="M307.4,416.2h-32.9c9,0,16.3,7.3,16.3,16.3v103.7c0,9-7.3,16.3-16.3,16.3h32.9c9,0,16.3-7.3,16.3-16.3v-103.7c0-9-7.3-16.3-16.3-16.3Z" fill="#8296e1"/><path d="M307.4,552.6h-59.4c-9,0-16.3-7.3-16.3-16.3v-103.7c0-9,7.3-16.3,16.3-16.3h59.4c9,0,16.3,7.3,16.3,16.3v103.7c0,9-7.3,16.3-16.3,16.3Z" fill="none" stroke="#000" stroke-linecap="round" stroke-linejoin="round" stroke-width="15"/><path d="M135.8,576.7l14.5,80.5c3.1,17.1,17.9,29.5,35.3,29.5h184.4c17.4,0,32.2-12.4,35.3-29.5l67.5-375.1H82.7l44.4,246.5" fill="none" stroke="#000" stroke-linecap="round" stroke-linejoin="round" stroke-width="15"/></svg>