<?xml version="1.0" encoding="utf-8"?>
<!-- Generator: Adobe Illustrator 26.5.0, SVG Export Plug-In . SVG Version: 6.00 Build 0)  -->
<svg version="1.1" id="Calque_1" xmlns="http://www.w3.org/2000/svg" xmlns:xlink="http://www.w3.org/1999/xlink" x="0px" y="0px"
	 viewBox="0 0 693.5 693.5" style="enable-background:new 0 0 693.5 693.5;" xml:space="preserve">
<style type="text/css">
	.st0{fill:#A2DBFF;}
	.st1{fill:#64CAFF;}
	.st2{fill:none;stroke:#000000;stroke-width:15;stroke-linecap:round;stroke-linejoin:round;}
	.st3{fill:#FF7383;}
	.st4{fill:#988393;}
	.st5{fill:#806D7A;}
	.st6{fill:#6CE79A;}
	.st7{fill:#00D8A2;}
	.st8{fill:#9EB0E9;}
	.st9{fill:#8296E1;}
</style>
<path class="st0" d="M423.3,294.8l-100.6-41.7l30.4-73.4c5-12.1,18.9-17.9,31-12.8l56.7,23.5c12.1,5,17.9,18.9,12.8,31l-30.4,73.4
	H423.3z"/>
<path class="st1" d="M459.1,147.4l-57.5-23.8c-11.9-4.9-25.5,0.7-30.4,12.6l0,0c-4.9,11.9,0.7,25.5,12.6,30.4l57.5,23.8
	c11.9,4.9,25.5-0.7,30.4-12.6l0,0C476.6,165.9,471,152.3,459.1,147.4z"/>
<path class="st0" d="M476.9,104.4l-57.5-23.8c-11.9-4.9-25.5,0.7-30.4,12.6l0,0c-4.9,11.9,0.7,25.5,12.6,30.4l57.5,23.8
	c11.9,4.9,25.5-0.7,30.4-12.6l0,0C494.4,122.9,488.8,109.3,476.9,104.4z"/>
<path class="st2" d="M423.3,294.8l-100.6-41.7l30.4-73.4c5-12.1,18.9-17.9,31-12.8l56.7,23.5c12.1,5,17.9,18.9,12.8,31l-30.4,73.4
	H423.3z"/>
<path class="st2" d="M459.1,147.4l-57.5-23.8c-11.9-4.9-25.5,0.7-30.4,12.6l0,0c-4.9,11.9,0.7,25.5,12.6,30.4l57.5,23.8
	c11.9,4.9,25.5-0.7,30.4-12.6l0,0C476.6,165.9,471,152.3,459.1,147.4z"/>
<path class="st2" d="M476.9,104.4l-57.5-23.8c-11.9-4.9-25.5,0.7-30.4,12.6l0,0c-4.9,11.9,0.7,25.5,12.6,30.4l57.5,23.8
	c11.9,4.9,25.5-0.7,30.4-12.6l0,0C494.4,122.9,488.8,109.3,476.9,104.4z"/>
<path class="st3" d="M470.8,101.9l-45.2-18.7L436.4,57c3.6-8.7,13.5-12.8,22.2-9.2l13.8,5.7c8.7,3.6,12.8,13.5,9.2,22.2
	C481.6,75.7,470.8,101.9,470.8,101.9z"/>
<path class="st2" d="M470.8,101.9l-45.2-18.7L436.4,57c3.6-8.7,13.5-12.8,22.2-9.2l13.8,5.7c8.7,3.6,12.8,13.5,9.2,22.2
	C481.6,75.7,470.8,101.9,470.8,101.9z"/>
<path class="st0" d="M217.5,316.2l-107,19.8l-14.4-78.2c-2.4-12.9,6.1-25.3,19-27.7l60.3-11.1c12.9-2.4,25.3,6.1,27.7,19
	L217.5,316.2L217.5,316.2z"/>
<path class="st1" d="M167.4,173.1l-61.2,11.3c-12.6,2.3-21,14.5-18.7,27.1l0,0c2.3,12.6,14.5,21,27.1,18.7l61.2-11.3
	c12.6-2.3,21-14.5,18.7-27.1l0,0C192.2,179.2,180,170.8,167.4,173.1z"/>
<path class="st0" d="M158.9,127.3l-61.2,11.3c-12.6,2.3-21,14.5-18.7,27.1l0,0c2.3,12.6,14.5,21,27.1,18.7l61.2-11.3
	c12.6-2.3,21-14.5,18.7-27.1l0,0C183.7,133.4,171.5,125,158.9,127.3z"/>
<path class="st2" d="M217.5,316.2l-107,19.8l-14.4-78.2c-2.4-12.9,6.1-25.3,19-27.7l60.3-11.1c12.9-2.4,25.3,6.1,27.7,19
	L217.5,316.2L217.5,316.2z"/>
<path class="st2" d="M167.4,173.1l-61.2,11.3c-12.6,2.3-21,14.5-18.7,27.1l0,0c2.3,12.6,14.5,21,27.1,18.7l61.2-11.3
	c12.6-2.3,21-14.5,18.7-27.1l0,0C192.2,179.2,180,170.8,167.4,173.1z"/>
<path class="st2" d="M158.9,127.3l-61.2,11.3c-12.6,2.3-21,14.5-18.7,27.1l0,0c2.3,12.6,14.5,21,27.1,18.7l61.2-11.3
	c12.6-2.3,21-14.5,18.7-27.1l0,0C183.7,133.4,171.5,125,158.9,127.3z"/>
<path class="st3" d="M152.4,128.5l-48.1,8.9l-5.1-27.8c-1.7-9.2,4.4-18.1,13.6-19.8l14.7-2.7c9.2-1.7,18.1,4.4,19.8,13.6
	C147.3,100.7,152.4,128.5,152.4,128.5z"/>
<path class="st2" d="M152.4,128.5l-48.1,8.9l-5.1-27.8c-1.7-9.2,4.4-18.1,13.6-19.8l14.7-2.7c9.2-1.7,18.1,4.4,19.8,13.6
	C147.3,100.7,152.4,128.5,152.4,128.5z"/>
<path class="st0" d="M385.3,686.4l-0.2-108.9h79.5c13.1-0.2,23.8,10.4,23.8,23.6v61.4c0.1,13.1-10.5,23.8-23.6,23.8h-79.5
	L385.3,686.4z"/>
<path class="st1" d="M535.1,662.8v-62.3c-0.1-12.9-10.6-23.3-23.4-23.2l0,0c-12.9,0-23.3,10.5-23.2,23.3v62.3
	c0.1,12.9,10.6,23.3,23.4,23.2l0,0C524.8,686.1,535.2,675.6,535.1,662.8z"/>
<path class="st0" d="M581.7,662.7v-62.3c-0.1-12.9-10.6-23.3-23.4-23.2l0,0c-12.9,0-23.3,10.5-23.2,23.3v62.3
	c0.1,12.9,10.6,23.3,23.4,23.2l0,0C571.4,686,581.8,675.5,581.7,662.7z"/>
<path class="st2" d="M385.3,686.4l-0.2-108.9h79.5c13.1-0.2,23.8,10.4,23.8,23.6v61.4c0.1,13.1-10.5,23.8-23.6,23.8h-79.5
	L385.3,686.4z"/>
<path class="st2" d="M535.1,662.8v-62.3c-0.1-12.9-10.6-23.3-23.4-23.2l0,0c-12.9,0-23.3,10.5-23.2,23.3v62.3
	c0.1,12.9,10.6,23.3,23.4,23.2l0,0C524.8,686.1,535.2,675.6,535.1,662.8z"/>
<path class="st2" d="M581.7,662.7v-62.3c-0.1-12.9-10.6-23.3-23.4-23.2l0,0c-12.9,0-23.3,10.5-23.2,23.3v62.3
	c0.1,12.9,10.6,23.3,23.4,23.2l0,0C571.4,686,581.8,675.5,581.7,662.7z"/>
<path class="st3" d="M581.7,656.1v-48.9h28.2c9.4,0,17,7.6,17,17v15c0,9.4-7.5,17-16.9,17L581.7,656.1L581.7,656.1z"/>
<path class="st2" d="M581.7,656.1v-48.9h28.2c9.4,0,17,7.6,17,17v15c0,9.4-7.5,17-16.9,17L581.7,656.1L581.7,656.1z"/>
<path class="st4" d="M497,282.1H58.6c-5.8,0-10.5-4.7-10.5-10.5v-37.4c0-5.8,4.7-10.5,10.5-10.5H497c5.8,0,10.5,4.7,10.5,10.5v37.4
	C507.5,277.4,502.8,282.1,497,282.1z"/>
<path class="st5" d="M497,223.7h-33.4c5.8,0,10.5,4.7,10.5,10.5v37.4c0,5.8-4.7,10.5-10.5,10.5H497c5.8,0,10.5-4.7,10.5-10.5v-37.4
	C507.5,228.4,502.8,223.7,497,223.7L497,223.7z"/>
<path class="st2" d="M497,282.1H58.6c-5.8,0-10.5-4.7-10.5-10.5v-37.4c0-5.8,4.7-10.5,10.5-10.5H497c5.8,0,10.5,4.7,10.5,10.5v37.4
	C507.5,277.4,502.8,282.1,497,282.1z"/>
<path class="st6" d="M472.8,282.1H82.7l67.5,375.1c3.1,17.1,17.9,29.5,35.3,29.5h184.4c17.4,0,32.2-12.4,35.3-29.5l67.5-375.1H472.8
	z"/>
<path class="st7" d="M82.7,282.1l5.3,29.2h311.6c17.3,0,30.4,15.7,27.3,32.7l-56.4,313.2c-3.1,17.1-17.9,29.5-35.3,29.5h34.7
	c17.4,0,32.2-12.4,35.3-29.5l67.5-375.1L82.7,282.1L82.7,282.1z"/>
<path class="st8" d="M307.4,552.6H248c-9,0-16.3-7.3-16.3-16.3V432.6c0-9,7.3-16.3,16.3-16.3h59.4c9,0,16.3,7.3,16.3,16.3v103.7
	C323.7,545.3,316.4,552.6,307.4,552.6z"/>
<path class="st9" d="M307.4,416.2h-32.9c9,0,16.3,7.3,16.3,16.3v103.7c0,9-7.3,16.3-16.3,16.3h32.9c9,0,16.3-7.3,16.3-16.3V432.5
	C323.7,423.5,316.4,416.2,307.4,416.2z"/>
<path class="st2" d="M307.4,552.6H248c-9,0-16.3-7.3-16.3-16.3V432.6c0-9,7.3-16.3,16.3-16.3h59.4c9,0,16.3,7.3,16.3,16.3v103.7
	C323.7,545.3,316.4,552.6,307.4,552.6z"/>
<path class="st2" d="M135.8,576.7l14.5,80.5c3.1,17.1,17.9,29.5,35.3,29.5H370c17.4,0,32.2-12.4,35.3-29.5l67.5-375.1H82.7
	l44.4,246.5"/>
</svg>
