<?xml version="1.0" encoding="utf-8"?>
<!-- Generator: Adobe Illustrator 26.5.0, SVG Export Plug-In . SVG Version: 6.00 Build 0)  -->
<svg version="1.1" id="Calque_1" xmlns="http://www.w3.org/2000/svg" xmlns:xlink="http://www.w3.org/1999/xlink" x="0px" y="0px"
	 viewBox="0 0 693.5 693.5" style="enable-background:new 0 0 693.5 693.5;" xml:space="preserve">
<style type="text/css">
	.st0{fill:#A2DBFF;}
	.st1{fill:#64CAFF;}
	.st2{fill:none;stroke:#000000;stroke-width:15;stroke-linecap:round;stroke-linejoin:round;}
	.st3{fill:#FF7383;}
	.st4{fill:#988393;}
	.st5{fill:#806D7A;}
	.st6{fill:#6CE79A;}
	.st7{fill:#00D8A2;}
	.st8{fill:#9EB0E9;}
	.st9{fill:#8296E1;}
</style>
<path class="st0" d="M447.9,406.9l-102.1-37.6l27.5-74.6c4.5-12.3,18.2-18.6,30.5-14.1l57.6,21.2c12.3,4.5,18.6,18.2,14.1,30.5
	L447.9,406.9L447.9,406.9z"/>
<path class="st1" d="M477.8,258.3l-58.4-21.5c-12.1-4.4-25.5,1.7-29.9,13.8l0,0c-4.4,12.1,1.7,25.5,13.8,29.9l58.4,21.5
	c12.1,4.4,25.5-1.7,29.9-13.8l0,0C496,276.1,489.9,262.7,477.8,258.3L477.8,258.3z"/>
<path class="st0" d="M493.9,214.6l-58.4-21.5c-12.1-4.4-25.5,1.7-29.9,13.8l0,0c-4.4,12.1,1.7,25.5,13.8,29.9l58.4,21.5
	c12.1,4.4,25.5-1.7,29.9-13.8l0,0C512.1,232.4,506,219,493.9,214.6L493.9,214.6z"/>
<path class="st2" d="M447.9,406.9l-102.1-37.6l27.5-74.6c4.5-12.3,18.2-18.6,30.5-14.1l57.6,21.2c12.3,4.5,18.6,18.2,14.1,30.5
	L447.9,406.9L447.9,406.9z"/>
<path class="st2" d="M477.8,258.3l-58.4-21.5c-12.1-4.4-25.5,1.7-29.9,13.8l0,0c-4.4,12.1,1.7,25.5,13.8,29.9l58.4,21.5
	c12.1,4.4,25.5-1.7,29.9-13.8l0,0C496,276.1,489.9,262.7,477.8,258.3L477.8,258.3z"/>
<path class="st2" d="M493.9,214.6l-58.4-21.5c-12.1-4.4-25.5,1.7-29.9,13.8l0,0c-4.4,12.1,1.7,25.5,13.8,29.9l58.4,21.5
	c12.1,4.4,25.5-1.7,29.9-13.8l0,0C512.1,232.4,506,219,493.9,214.6L493.9,214.6z"/>
<path class="st3" d="M487.6,212.3l-45.9-16.9l9.8-26.6c3.2-8.8,13-13.3,21.8-10.1l14,5.2c8.8,3.2,13.3,13,10.1,21.8L487.6,212.3z"/>
<path class="st2" d="M487.6,212.3l-45.9-16.9l9.8-26.6c3.2-8.8,13-13.3,21.8-10.1l14,5.2c8.8,3.2,13.3,13,10.1,21.8L487.6,212.3z"/>
<path class="st4" d="M565.9,282.1H127.5c-5.8,0-10.5-4.7-10.5-10.5v-37.4c0-5.8,4.7-10.5,10.5-10.5h438.4c5.8,0,10.5,4.7,10.5,10.5
	v37.4C576.4,277.4,571.7,282.1,565.9,282.1z"/>
<path class="st5" d="M565.9,223.7h-33.4c5.8,0,10.5,4.7,10.5,10.5v37.4c0,5.8-4.7,10.5-10.5,10.5h33.4c5.8,0,10.5-4.7,10.5-10.5
	v-37.4C576.4,228.4,571.7,223.7,565.9,223.7L565.9,223.7z"/>
<path class="st2" d="M565.9,282.1H127.5c-5.8,0-10.5-4.7-10.5-10.5v-37.4c0-5.8,4.7-10.5,10.5-10.5h438.4c5.8,0,10.5,4.7,10.5,10.5
	v37.4C576.4,277.4,571.7,282.1,565.9,282.1z"/>
<path class="st6" d="M541.8,282.1H151.7l67.5,375.1c3.1,17.1,17.9,29.5,35.3,29.5h184.4c17.4,0,32.2-12.4,35.3-29.5l67.5-375.1
	H541.8z"/>
<path class="st7" d="M151.7,282.1l5.3,29.2h311.6c17.3,0,30.4,15.7,27.3,32.7l-56.4,313.2c-3.1,17.1-17.9,29.5-35.3,29.5h34.7
	c17.4,0,32.2-12.4,35.3-29.5l67.5-375.1L151.7,282.1L151.7,282.1z"/>
<path class="st8" d="M376.4,552.6H317c-9,0-16.3-7.3-16.3-16.3V432.6c0-9,7.3-16.3,16.3-16.3h59.4c9,0,16.3,7.3,16.3,16.3v103.7
	C392.7,545.3,385.4,552.6,376.4,552.6z"/>
<path class="st9" d="M376.4,416.2h-32.9c9,0,16.3,7.3,16.3,16.3v103.7c0,9-7.3,16.3-16.3,16.3h32.9c9,0,16.3-7.3,16.3-16.3V432.5
	C392.7,423.5,385.4,416.2,376.4,416.2z"/>
<path class="st2" d="M376.4,552.6H317c-9,0-16.3-7.3-16.3-16.3V432.6c0-9,7.3-16.3,16.3-16.3h59.4c9,0,16.3,7.3,16.3,16.3v103.7
	C392.7,545.3,385.4,552.6,376.4,552.6z"/>
<path class="st2" d="M204.7,576.7l14.5,80.5c3.1,17.1,17.9,29.5,35.3,29.5h184.4c17.4,0,32.2-12.4,35.3-29.5l67.5-375.1h-390
	l44.4,246.5"/>
</svg>
