<?xml version="1.0" encoding="UTF-8"?><svg id="Calque_1" xmlns="http://www.w3.org/2000/svg" viewBox="0 0 693.5 693.5"><g><path d="M361.5,407.3l-100.6-41.7,30.4-73.4c5-12.1,18.9-17.9,31-12.8l56.7,23.5c12.1,5,17.9,18.9,12.8,31l-30.4,73.4Z" fill="#a2dbff"/><path d="M397.3,260l-57.5-23.8c-11.9-4.9-25.5,.7-30.4,12.6h0c-4.9,11.9,.7,25.5,12.6,30.4l57.5,23.8c11.9,4.9,25.5-.7,30.4-12.6h0c4.9-11.9-.7-25.5-12.6-30.4Z" fill="#64caff"/><path d="M361.5,407.3l-100.6-41.7,30.4-73.4c5-12.1,18.9-17.9,31-12.8l56.7,23.5c12.1,5,17.9,18.9,12.8,31l-30.4,73.4Z" fill="none" stroke="#000" stroke-linecap="round" stroke-linejoin="round" stroke-width="15"/><path d="M397.3,260l-57.5-23.8c-11.9-4.9-25.5,.7-30.4,12.6h0c-4.9,11.9,.7,25.5,12.6,30.4l57.5,23.8c11.9,4.9,25.5-.7,30.4-12.6h0c4.9-11.9-.7-25.5-12.6-30.4Z" fill="none" stroke="#000" stroke-linecap="round" stroke-linejoin="round" stroke-width="15"/><path d="M460.8,282.1H22.4c-5.8,0-10.5-4.7-10.5-10.5v-37.4c0-5.8,4.7-10.5,10.5-10.5H460.8c5.8,0,10.5,4.7,10.5,10.5v37.4c0,5.8-4.7,10.5-10.5,10.5Z" fill="#988393"/><path d="M460.8,223.7h-33.4c5.8,0,10.5,4.7,10.5,10.5v37.4c0,5.8-4.7,10.5-10.5,10.5h33.4c5.8,0,10.5-4.7,10.5-10.5v-37.4c0-5.8-4.7-10.5-10.5-10.5Z" fill="#806d7a"/><path d="M460.8,282.1H22.4c-5.8,0-10.5-4.7-10.5-10.5v-37.4c0-5.8,4.7-10.5,10.5-10.5H460.8c5.8,0,10.5,4.7,10.5,10.5v37.4c0,5.8-4.7,10.5-10.5,10.5Z" fill="none" stroke="#000" stroke-linecap="round" stroke-linejoin="round" stroke-width="15"/><path d="M436.7,282.1H46.6l67.5,375.1c3.1,17.1,17.9,29.5,35.3,29.5h184.4c17.4,0,32.2-12.4,35.3-29.5l67.5-375.1Z" fill="#6ce79a"/><path d="M46.6,282.1l5.3,29.2H363.5c17.3,0,30.4,15.7,27.3,32.7l-56.4,313.2c-3.1,17.1-17.9,29.5-35.3,29.5h34.7c17.4,0,32.2-12.4,35.3-29.5l67.5-375.1H46.6Z" fill="#00d8a2"/><path d="M271.3,552.6h-59.4c-9,0-16.3-7.3-16.3-16.3v-103.7c0-9,7.3-16.3,16.3-16.3h59.4c9,0,16.3,7.3,16.3,16.3v103.7c0,9-7.3,16.3-16.3,16.3Z" fill="#9eb0e9"/><path d="M271.3,416.2h-32.9c9,0,16.3,7.3,16.3,16.3v103.7c0,9-7.3,16.3-16.3,16.3h32.9c9,0,16.3-7.3,16.3-16.3v-103.7c0-9-7.3-16.3-16.3-16.3Z" fill="#8296e1"/><path d="M271.3,552.6h-59.4c-9,0-16.3-7.3-16.3-16.3v-103.7c0-9,7.3-16.3,16.3-16.3h59.4c9,0,16.3,7.3,16.3,16.3v103.7c0,9-7.3,16.3-16.3,16.3Z" fill="none" stroke="#000" stroke-linecap="round" stroke-linejoin="round" stroke-width="15"/><path d="M99.6,576.7l14.5,80.5c3.1,17.1,17.9,29.5,35.3,29.5h184.4c17.4,0,32.2-12.4,35.3-29.5l67.5-375.1H46.6l44.4,246.5" fill="none" stroke="#000" stroke-linecap="round" stroke-linejoin="round" stroke-width="15"/></g><path d="M557.4,564.7c0,6.6-5.4,11.9-11.9,11.8s-11.9-5.4-11.8-11.9v-32.3c-29.2,5.4-51.5,31.1-51.6,62v19.1c0,.4,.3,.8,.7,.8l125.1,.5c.4,0,.8-.3,.8-.8v-19.1c.2-30.9-21.8-56.8-51.1-62.4v32.3Z" fill="#90d8f9"/><path d="M483,614.2v3.2c0,17.5-6.2,34.5-17.4,47.9l-7.2,8.7c-.7,.8,.5,1.8,1.2,1.1,18.6,5.4,37.5,9,56.6,10.9,.4,0,.7-.1,.9-.4,5.2-6.9,9.5-14.3,13-22.1,.4-.8,1.5-.8,1.9,0,3.7,8.3,8.3,16.2,13.9,23.5,.2,.3,.5,.4,.8,.4,28.2,0,56.3-3.9,83.7-11.6,.8,0,1.3-1,.8-1.6l-6.7-8.2c-11.1-13.6-17.1-30.6-17-48.1v-3.2s-124.6-.5-124.6-.5Z" fill="#407093"/><path d="M483,614.2v3.2c0,2.5-.2,5.1-.4,7.5l63.9,.3c14.8,0,27.8,9.9,31.7,24.1,2.3,8.3,6.6,17.9,14.1,27.2l5.4,6.6c11-1.8,22-4.3,32.8-7.3,.8,0,1.3-1,.8-1.6l-6.7-8.2c-11.1-13.6-17.1-30.6-17-48.1v-3.2s-124.6-.5-124.6-.5Z" fill="#365e7d"/><path d="M545.4,576.5c-6.6,0-11.9-5.4-11.8-11.9l.2-50.8c0-.7,.6-1.3,1.3-1.3h21.3c.7,0,1.3,.7,1.3,1.4l-.2,50.8c0,6.6-5.4,11.9-11.9,11.8h0Z" fill="#b1e4f9"/><path d="M555.2,245.8h-16.7c-1.9,0-3.5,1.5-3.5,3.4v27.2c-.1,.7,.4,1.3,1.1,1.3h21.3c.7,0,1.3-.5,1.3-1.2v-27.2c.1-2-1.5-3.5-3.4-3.5h0Z" fill="#90d8f9"/><path d="M536,277.8h21.3c0,0-1,234.8-1,234.8h-21.3c0,0,1-234.8,1-234.8Z" fill="#78c2a4"/><path d="M557.4,564.7c0,6.6-5.4,11.9-11.9,11.8s-11.9-5.4-11.8-11.9v-12.9c-18.7,5.1-32.6,22.3-32.6,42.7,0,.5,.4,.9,.9,.9l86.9,.4c.5,0,.9-.4,.9-.9,0-20.4-13.6-37.6-32.3-42.9v12.9Z" fill="#75cef9"/><path d="M597.7,372.1l-5-17.2c-.5-1.9,1.2-3.6,3.1-3.1l17.2,5c.5,.1,.9,.1,1.4,0l17.2-5c1.9-.5,3.6,1.2,3.1,3.1l-5,17.2c-.1,.5-.1,.9,0,1.4l5,17.2c.5,1.9-1.2,3.6-3.1,3.1l-17.2-5c-.5-.1-.9-.1-1.4,0l-17.2,5c-1.9,.5-3.6-1.2-3.1-3.1l5-17.2c.1-.5,.1-.9,0-1.4h0Z" fill="#ffd064"/><path d="M541.2,228.4v11.7s-2.7,0-2.7,0c-5.1,0-9.2,4.1-9.3,9.2v27.2c-.1,1.4,.3,2.8,1.1,4l-.6,152c0,3.1,2.5,5.7,5.7,5.7,3.1,0,5.7-2.5,5.7-5.7l.6-149h9.9s-.9,223.4-.9,223.4h-9.9s.2-47.5,.2-47.5c0-3.1-2.5-5.7-5.7-5.7-3.1,0-5.7,2.5-5.7,5.7l-.2,50.5c-.8,1.2-1.3,2.5-1.3,4v13.9c-30.2,7.8-51.7,35-51.8,66.6v19.1c0,1.3,.3,2.5,1,3.5,0,17.3-6.2,32.8-16.1,44.7l-7.2,8.7c-2.2,2.7-1.9,6.6,.6,8.9,1.4,1.3,3.2,1.8,4.9,1.7,7.1,2,14.2,3.8,21.4,5.3,.1,0,.3,0,.4,0,11.3,2.4,22.8,4.1,34.3,5.3,2.3,.2,4.6-.8,6.1-2.7,3.5-4.6,6.6-9.5,9.4-14.6,3,5.6,6.5,11,10.3,16.1,1.3,1.7,3.3,2.7,5.4,2.7,20.8,0,41.5-2.1,61.9-6.2,0,0,.2,0,.3,0,7.6-1.5,15.1-3.4,22.6-5.5,1.4-.2,2.6-.9,3.6-1.8,2.5-2.5,2.6-6.3,.5-8.9l-6.7-8.2c-9.8-12.1-15.8-27.6-15.7-44.9,.7-1,1.1-2.3,1.1-3.5v-19.1c.2-31.5-21-59-51.1-67v-13.9c0-1.4-.4-2.8-1.2-4l1-229.3c.8-1.1,1.3-2.5,1.3-4v-27.2c.1-5.1-4-9.2-9.1-9.3h-2.7s0-11.7,0-11.7c0-3.1-2.5-5.7-5.7-5.7-3.1,0-5.7,2.5-5.7,5.7h0Zm-1.7,289.8h12.4c0,3.8-.2,37-.2,46.5,0,3.4-2.8,6.2-6.2,6.2-3.4,0-6.2-2.8-6.2-6.2,.2-46.3-.2,48.4,.2-46.4Zm63.5,76.6v14.2c0,0-69.6-.3-69.6-.3-3.1,0-5.7,2.5-5.7,5.7,0,3.1,2.5,5.7,5.7,5.7l68.5,.3c.5,17.9,6.9,35.3,18.2,49.2l2.1,2.6c-4.1,1-8.2,2-12.3,2.9-6.8-8.8-11.9-18.6-15.3-29.3-.9-3-4.1-4.7-7.1-3.7-3,.9-4.7,4.1-3.7,7.1,3.2,10.2,7.8,19.7,13.8,28.3-16,2.7-32.2,4.2-48.5,4.3-4.6-6.4-8.6-13.3-11.8-20.5-1.1-2.4-3.5-4-6.1-4-2.6,0-5.1,1.5-6.1,4-3,6.7-6.7,13-10.9,18.9-7.3-.8-14.5-1.8-21.7-3.1,4.2-5.9,7.7-12.3,10.6-19,1.2-2.9-.1-6.2-3-7.5-2.9-1.2-6.2,.1-7.5,3-3.2,7.6-7.4,14.6-12.5,21-4.1-.9-8.2-1.9-12.3-3l2.1-2.6c11.4-13.8,18-31.1,18.6-49h17.8c3.1,0,5.7-2.4,5.7-5.6,0-3.1-2.5-5.7-5.7-5.7h-18.8c0,0,0-14.3,0-14.3,.1-25.3,16.7-47.4,40.3-54.8v8c-19.4,7.2-32.7,25.8-32.7,46.8,0,3.7,2.9,6.6,6.6,6.7l86.9,.4c3.7,0,6.6-2.9,6.7-6.6,0-4.7-.6-9.3-1.9-13.7-.8-3-4-4.8-7-3.9-3,.8-4.8,4-3.9,7,.5,1.9,.9,3.9,1.2,5.9l-76.9-.3c1.6-12.8,9.6-23.9,21-29.7v4.6c0,4.7,1.8,9.1,5.1,12.4,6.8,6.9,18,6.9,24.8,.1,3.3-3.3,5.2-7.7,5.2-12.4v-4.6c2.3,1.2,4.5,2.6,6.6,4.3,2.3,1.8,5.5,1.6,7.6-.4s2.2-6.3-.4-8.5c-4.1-3.3-8.7-6-13.6-7.8v-8c23.6,7.6,40,29.8,39.9,55.1h0Zm-50.1-322.6h-12.4c0,0,0-20.7,0-20.7h12.4c0,0,0,20.7,0,20.7Z"/><path d="M613.6,393.8l16.4,4.8c2.7,.8,5.5,0,7.5-1.9s2.7-4.8,1.9-7.5l-4.8-16.4,4.8-16.4c.8-2.7,0-5.5-1.9-7.5s-4.8-2.7-7.5-1.9l-16.4,4.8-16.4-4.8c-2.7-.8-5.5,0-7.5,1.9s-2.7,4.8-1.9,7.5l4.8,16.4-4.8,16.4c-.8,2.7,0,5.5,1.9,7.5s4.8,2.7,7.5,1.9l16.4-4.8Zm-11-18.9c.4-1.4,.4-2.9,0-4.3l-3.7-12.5,12.5,3.7c1.4,.4,2.9,.4,4.3,0l12.5-3.7-3.7,12.5c-.4,1.4-.4,2.9,0,4.3l3.7,12.5-12.5-3.7c-1.4-.4-2.9-.4-4.3,0l-12.5,3.7,3.7-12.5Z"/><path d="M299.6,149.7l-5-17.2c-.5-1.9,1.2-3.6,3.1-3.1l17.2,5c.5,.1,.9,.1,1.4,0l17.2-5c1.9-.5,3.6,1.2,3.1,3.1l-5,17.2c-.1,.5-.1,.9,0,1.4l5,17.2c.5,1.9-1.2,3.6-3.1,3.1l-17.2-5c-.5-.1-.9-.1-1.4,0l-17.2,5c-1.9,.5-3.6-1.2-3.1-3.1l5-17.2c.1-.5,.1-.9,0-1.4h0Z" fill="#ffd064"/><path d="M315.5,171.4l16.4,4.8c2.7,.8,5.5,0,7.5-1.9s2.7-4.8,1.9-7.5l-4.8-16.4,4.8-16.4c.8-2.7,0-5.5-1.9-7.5s-4.8-2.7-7.5-1.9l-16.4,4.8-16.4-4.8c-2.7-.8-5.5,0-7.5,1.9s-2.7,4.8-1.9,7.5l4.8,16.4-4.8,16.4c-.8,2.7,0,5.5,1.9,7.5s4.8,2.7,7.5,1.9l16.4-4.8Zm-11-18.9c.4-1.4,.4-2.9,0-4.3l-3.7-12.5,12.5,3.7c1.4,.4,2.9,.4,4.3,0l12.5-3.7-3.7,12.5c-.4,1.4-.4,2.9,0,4.3l3.7,12.5-12.5-3.7c-1.4-.4-2.9-.4-4.3,0l-12.5,3.7,3.7-12.5Z"/><path d="M300.2,81.7l-3.8-13c-.4-1.4,.9-2.8,2.3-2.3l13,3.8c.3,.1,.7,.1,1.1,0l13-3.8c1.4-.4,2.8,.9,2.3,2.3l-3.8,13c-.1,.3-.1,.7,0,1.1l3.8,13c.4,1.4-.9,2.8-2.3,2.3l-13-3.8c-.3-.1-.7-.1-1.1,0l-13,3.8c-1.4,.4-2.8-.9-2.3-2.3l3.8-13c.1-.3,.1-.7,0-1.1Z" fill="#ffd064"/><path d="M248.5,104.1l-3.4-11.5c-.4-1.3,.8-2.4,2-2l11.5,3.4c.3,0,.6,0,.9,0l11.5-3.4c1.3-.4,2.4,.8,2,2l-3.4,11.5c0,.3,0,.6,0,.9l3.4,11.5c.4,1.3-.8,2.4-2,2l-11.5-3.4c-.3,0-.6,0-.9,0l-11.5,3.4c-1.3,.4-2.4-.8-2-2l3.4-11.5c0-.3,0-.6,0-.9Z" fill="#ffd064"/><path d="M312.3,65l-12.1-3.6c-2.5-.7-5.1,0-6.9,1.8s-2.5,4.5-1.8,6.9l3.6,12.1-3.6,12.1c-.7,2.5,0,5.1,1.8,6.9,1.8,1.8,4.5,2.5,6.9,1.8l12.1-3.6,12.1,3.6c2.5,.7,5.1,0,6.9-1.8s2.5-4.5,1.8-6.9l-3.6-12.1,3.6-12.1c.7-2.5,0-5.1-1.8-6.9s-4.5-2.5-6.9-1.8l-12.1,3.6Zm7.2,15.3c-.4,1.3-.4,2.6,0,3.9l2.2,7.4-7.4-2.2c-1.3-.4-2.6-.4-3.9,0l-7.4,2.2,2.2-7.4c.7-2.3,0-4,0-3.9l-2.2-7.4,7.4,2.2c1.3,.4,2.6,.4,3.9,0l7.4-2.2-2.2,7.4Z"/><path d="M259.1,88.7l-10.5-3.1c-2.4-.7-4.9,0-6.7,1.7s-2.4,4.3-1.7,6.7l3.1,10.5-3.1,10.5c-.7,2.4,0,4.9,1.7,6.7s4.3,2.4,6.7,1.7l10.5-3.1,10.5,3.1c2.4,.7,4.9,0,6.7-1.7s2.4-4.3,1.7-6.7l-3.1-10.5,3.1-10.5c.7-2.4,0-4.9-1.7-6.7s-4.3-2.4-6.7-1.7l-10.5,3.1Zm5.7,13.9c-.4,1.2-.4,2.6,0,3.8l1.6,5.4-5.4-1.6c-1.2-.4-2.6-.4-3.8,0l-5.4,1.6,1.6-5.4c.4-1.2,.4-2.6,0-3.8-.1-.4,.5,1.8-1.6-5.4l5.4,1.6c1.2,.4,2.6,.4,3.8,0l5.4-1.6-1.6,5.4Z"/><path d="M643.1,447.2l-3.8-13c-.4-1.4,.9-2.8,2.3-2.3l13,3.8c.3,.1,.7,.1,1.1,0l13-3.8c1.4-.4,2.8,.9,2.3,2.3l-3.8,13c-.1,.3-.1,.7,0,1.1l3.8,13c.4,1.4-.9,2.8-2.3,2.3l-13-3.8c-.3-.1-.7-.1-1.1,0l-13,3.8c-1.4,.4-2.8-.9-2.3-2.3l3.8-13c.1-.3,.1-.7,0-1.1Z" fill="#ffd064"/><path d="M591.3,469.6l-3.4-11.5c-.4-1.3,.8-2.4,2-2l11.5,3.4c.3,0,.6,0,.9,0l11.5-3.4c1.3-.4,2.4,.8,2,2l-3.4,11.5c0,.3,0,.6,0,.9l3.4,11.5c.4,1.3-.8,2.4-2,2l-11.5-3.4c-.3,0-.6,0-.9,0l-11.5,3.4c-1.3,.4-2.4-.8-2-2l3.4-11.5c0-.3,0-.6,0-.9Z" fill="#ffd064"/><path d="M655.2,430.5l-12.1-3.6c-2.5-.7-5.1,0-6.9,1.8s-2.5,4.5-1.8,6.9l3.6,12.1-3.6,12.1c-.7,2.5,0,5.1,1.8,6.9,1.8,1.8,4.5,2.5,6.9,1.8l12.1-3.6,12.1,3.6c2.5,.7,5.1,0,6.9-1.8s2.5-4.5,1.8-6.9l-3.6-12.1,3.6-12.1c.7-2.5,0-5.1-1.8-6.9s-4.5-2.5-6.9-1.8l-12.1,3.6Zm7.2,15.3c-.4,1.3-.4,2.6,0,3.9l2.2,7.4-7.4-2.2c-1.3-.4-2.6-.4-3.9,0l-7.4,2.2,2.2-7.4c.7-2.3,0-4,0-3.9l-2.2-7.4,7.4,2.2c1.3,.4,2.6,.4,3.9,0l7.4-2.2-2.2,7.4Z"/><path d="M602,454.3l-10.5-3.1c-2.4-.7-4.9,0-6.7,1.7s-2.4,4.3-1.7,6.7l3.1,10.5-3.1,10.5c-.7,2.4,0,4.9,1.7,6.7s4.3,2.4,6.7,1.7l10.5-3.1,10.5,3.1c2.4,.7,4.9,0,6.7-1.7s2.4-4.3,1.7-6.7l-3.1-10.5,3.1-10.5c.7-2.4,0-4.9-1.7-6.7s-4.3-2.4-6.7-1.7l-10.5,3.1Zm5.7,13.9c-.4,1.2-.4,2.6,0,3.8l1.6,5.4-5.4-1.6c-1.2-.4-2.6-.4-3.8,0l-5.4,1.6,1.6-5.4c.4-1.2,.4-2.6,0-3.8-.1-.4,.5,1.8-1.6-5.4l5.4,1.6c1.2,.4,2.6,.4,3.8,0l5.4-1.6-1.6,5.4Z"/></svg>