<?xml version="1.0" encoding="UTF-8"?>
<svg id="dog1" xmlns="http://www.w3.org/2000/svg" viewBox="0 0 344.1 438.8">
  <!-- Plusieurs chiens errants (négatif) -->
  <g fill="#50758d">
    <!-- Chien 1 -->
    <path d="M80,200 Q70,180 60,200 L60,250 L65,255 L65,280 L70,280 L70,255 L80,255 L80,280 L85,280 L85,255 L90,250 L90,200 Q80,180 80,200 Z M65,195 C65,192 67,190 70,190 C73,190 75,192 75,195 C75,198 73,200 70,200 C67,200 65,198 65,195 Z"/>
    <!-- Chien 2 -->
    <path d="M140,220 Q130,200 120,220 L120,270 L125,275 L125,300 L130,300 L130,275 L140,275 L140,300 L145,300 L145,275 L150,270 L150,220 Q140,200 140,220 Z M125,215 C125,212 127,210 130,210 C133,210 135,212 135,215 C135,218 133,220 130,220 C127,220 125,218 125,215 Z"/>
    <!-- Chien 3 -->
    <path d="M200,240 Q190,220 180,240 L180,290 L185,295 L185,320 L190,320 L190,295 L200,295 L200,320 L205,320 L205,295 L210,290 L210,240 Q200,220 200,240 Z M185,235 C185,232 187,230 190,230 C193,230 195,232 195,235 C195,238 193,240 190,240 C187,240 185,238 185,235 Z"/>
  </g>
  <!-- Symbole d'alerte -->
  <circle cx="250" cy="100" r="40" fill="#ff6b6b" stroke="#000" stroke-width="3"/>
  <text x="250" y="115" text-anchor="middle" font-size="48" font-weight="bold" fill="#fff">!</text>
</svg>