<?xml version="1.0" encoding="UTF-8"?>
<svg id="dog2" xmlns="http://www.w3.org/2000/svg" viewBox="0 0 344.1 438.8">
  <!-- Quelques chiens (attention) -->
  <g fill="#ff9f43">
    <!-- Chien 1 -->
    <path d="M120,200 Q110,180 100,200 L100,250 L105,255 L105,280 L110,280 L110,255 L120,255 L120,280 L125,280 L125,255 L130,250 L130,200 Q120,180 120,200 Z M105,195 C105,192 107,190 110,190 C113,190 115,192 115,195 C115,198 113,200 110,200 C107,200 105,198 105,195 Z"/>
    <!-- Chien 2 -->
    <path d="M200,220 Q190,200 180,220 L180,270 L185,275 L185,300 L190,300 L190,275 L200,275 L200,300 L205,300 L205,275 L210,270 L210,220 Q200,200 200,220 Z M185,215 C185,212 187,210 190,210 C193,210 195,212 195,215 C195,218 193,220 190,220 C187,220 185,218 185,215 Z"/>
  </g>
  <!-- Symbole d'attention -->
  <path d="M172,100 L222,180 L122,180 Z" fill="#feca57" stroke="#000" stroke-width="3"/>
  <text x="172" y="165" text-anchor="middle" font-size="36" font-weight="bold" fill="#000">!</text>
</svg>