<?xml version="1.0" encoding="UTF-8"?><svg id="Calque_1" xmlns="http://www.w3.org/2000/svg" viewBox="0 0 1080 1080"><g id="Layer_2"><g><path d="M455.3,178.3c-2.1-9.1-7.4-18.8-14.7-28.3-29.5-38.6,26.9-84.7,58.1-47.5,7.9,9.4,14.5,21.5,19.3,36.8,15.8,50.7-24.1,116.4-75.8,128.4-16.7,3.9-40.9,4.6-44.8-14.5,38.5-12,66.1-39.9,58-74.9h0Z" fill="#d88a55"/><path d="M401.9,311.9h-6.3v-6.5h-10.1v-5.1c-23.7,14.1-65.6,67.3-65.6,67.3,0,0,27,46.1,88.8,65.2v74.2s-24.5,2.4-28.1,23.1h50.1l28.7-107.1s-51.1-70.4-57.5-111.2h0Z" fill="#ba703e"/><path d="M207.4,506.5l17.8-168.6-49-23.1v191.7h-.1v.5s-24.5,2.4-28.1,23.1h61.7l-2.3-23.6Z" fill="#ba703e"/><path d="M469.9,322.4c-4.6-34-22-86.8-69.1-86.8-160,0-200-37.2-200-37.2l-44.5,60.1c1.9,46.5,23.8,89.8,60,119l33.1,22.8v106.3h-.1v.5s-24.5,2.4-28.1,23.1h61.7l-2.3-23.6,11.2-106.3h122.9c14.2,12,33.9,24.6,59.6,32.5v74.2s-24.5,2.4-28.1,23.1h50.1l28.7-107.1s-43.1-59.4-55.1-100.7Z" fill="#d88a55"/><g><path d="M249.3,385l-10.9-7.5c-36.3-29.1-58.1-72.5-60-119l37.8-50.9c-11.1-5.3-15.3-9.2-15.3-9.2l-44.5,60.1c1.9,46.5,23.8,89.8,60,119l33,22.8v-15.2h0Z" fill="#ba703e"/><path d="M496.3,507v-74.2c-25.7-7.9-45.3-20.5-59.6-32.5h-22.1c14.2,12,33.9,24.6,59.6,32.5v74.2s-24.5,2.4-28.1,23.1h22.1c3.6-20.7,28.1-23.1,28.1-23.1Z" fill="#ba703e"/></g><path d="M156.3,258.5c.5,12.7,2.5,25.2,6,37.3h44.3c33.4,0,71.9-41.6,71.9-50.7l-7.4-20.5c-53.8-11-70.2-26.2-70.2-26.2l-44.5,60.1Z" fill="#ba703e"/><g><path d="M96.6,142.4s-14.8-68.9,0-83.7c32.7,0,59.3,51,59.3,83.7h-59.3Z" fill="#d88a55"/><path d="M115.3,64.2c-5.9-3.5-12.2-5.5-18.7-5.5-14.8,14.8,0,83.7,0,83.7h22.1s-12.1-56.5-3.4-78.2Z" fill="#ba703e"/><path d="M225.2,142.4s14.8-68.9,0-83.7c-32.7,0-59.3,51-59.3,83.7h59.3Z" fill="#d88a55"/><path d="M187.5,142.4c0-26.4,17.2-64.6,41.1-78.5-.9-2.1-2-3.9-3.3-5.3-32.7,0-59.3,51-59.3,83.7h21.5Z" fill="#ba703e"/><path d="M191.6,105.1h-61.3c-33.1,0-45.9,55-45.9,88.1l-18.8,51.9c0,9,38.5,50.7,71.9,50.7h46.9c33.4,0,71.9-41.6,71.9-50.7l-18.8-51.9c0-33.1-12.8-88.1-45.9-88.1Z" fill="#d88a55"/><path d="M87.6,245.1l18.8-51.9c0-33.1,12.8-88.1,45.9-88.1h-22.1c-33.1,0-45.9,55-45.9,88.1l-18.8,51.9c0,9,38.5,50.7,71.9,50.7h22.1c-33.4,0-71.9-41.6-71.9-50.7Z" fill="#ba703e"/><path d="M155.2,241.1l-10.5-13.7c-3.6-4.7-.3-11.5,5.7-11.5h21.1c5.9,0,9.3,6.8,5.7,11.5l-10.5,13.7c-2.9,3.7-8.5,3.7-11.3,0h0Z" fill="#494a47"/></g><circle cx="164.1" cy="314.9" r="19.3" transform="translate(-30.2 17.7) rotate(-5.7)" fill="#f8d250"/><g><path d="M528.8,420.3c-.4-.6-42.5-58.9-54.3-98.9-1.7-12.1-6-34.3-17-53.8,20.9-9,40.1-26.5,53-49,15.3-26.6,19.6-56,12-80.7-4.7-15.1-11.5-28-20.2-38.4-17.9-21.4-42.7-17.9-58-5.6-16.2,13-24,37.4-7.4,59,7.3,9.6,12,18.5,13.8,26.5,4,17.2-1.6,39.7-26.3,56.2-7.3-3.2-15.2-4.8-23.6-4.8-42.7,0-102.6-2.8-150.4-16l-8.1-22.4c-.1-15.6-3.1-38.3-10.8-57.3,1.2-6.9,2.9-17.4,4-28.6,2.6-27.2,.4-43.9-6.9-51.2-.9-.9-2.1-1.4-3.4-1.4-16.6,0-32.9,11.3-45.9,31.8-3,4.6-5.6,9.6-7.9,14.6h-20.9c-2.3-5.1-5-10-7.9-14.6-13.1-20.5-29.4-31.8-45.9-31.8s-2.5,.5-3.4,1.4c-7.3,7.3-9.6,24-6.9,51.2,1.1,11.2,2.8,21.7,4,28.6-7.7,19-10.7,41.6-10.8,57.3l-18.5,51.1c-.2,.5-.3,1.1-.3,1.6,0,7.4,12.6,21.9,25.1,32.4,10.3,8.6,30.7,23.1,51.5,23.1h7.4c-3,4-4.8,9-4.8,14.4,0,13.3,10.8,24.1,24.1,24.1s5-.4,7.3-1.1v165.1c-10.2,2.2-25.3,9.6-28.2,26.3-.2,1.4,.1,2.8,1,3.9s2.2,1.7,3.6,1.7h61.7c1.3,0,2.6-.6,3.5-1.6s1.3-2.3,1.2-3.6l-2.2-23.1,12.4-117.6,20.1,13.8v100.2c-2.7,.6-6.4,1.7-10.2,3.5-10,4.9-16.2,12.7-18,22.8-.2,1.4,.1,2.8,1,3.9s2.2,1.7,3.6,1.7h61.7c1.3,0,2.6-.6,3.5-1.6s1.3-2.3,1.2-3.6l-2.2-23.1,10.7-101.5h51.2c13.9,11.5,32.5,23.3,56.6,31.3v66.7c-10.2,2.3-25.1,9.7-28,26.3-.2,1.4,.1,2.8,1,3.9s2.2,1.7,3.6,1.7h50.1c2.1,0,4-1.4,4.6-3.5l26.2-97.9c2.6,1,5.3,2,8,2.8v66.8c-2.7,.6-6.3,1.7-10,3.5-10,4.9-16.3,12.7-18,22.8-.2,1.4,.1,2.8,1,3.9s2.2,1.7,3.6,1.7h50.1c2.1,0,4-1.4,4.6-3.5l28.7-107.1c.4-1.4,0-2.9-.7-4h0Zm-81.3-192.8c12.4-14.8,16.7-32.2,12.5-50.2-2.2-9.3-7.4-19.4-15.5-30.1-13.4-17.6-6.4-36.1,5.8-45.9,12.3-9.8,30.9-12.3,44.8,4.3,7.9,9.4,14,21.2,18.4,35.1,6.9,22.1,2.8,48.8-11.2,73.1-12.2,21.2-30.3,37.6-49.8,45.6-5.5-7.9-11.9-14.3-19-18.9,5.4-4,10.1-8.4,14-13.1h0Zm-354.7,43.3c-13.2-10.9-21.1-21.6-22.3-25.2l18.4-50.8c.2-.5,.3-1.1,.3-1.6,0-17.5,3.8-44.7,14.6-63.9,1.3-2.3,.5-5.2-1.8-6.5-1.2-.7-2.6-.8-3.9-.3-.8-5.1-1.5-11-2.1-17-2.7-27.7,.6-38.2,3-42.1,16.6,1.3,31.5,17.6,41.1,36.8h-9.7c-2.6,0-4.7,2.1-4.7,4.7s2.1,4.7,4.7,4.7h61.3c2.6,0,4.7-2.1,4.7-4.7s-2.1-4.7-4.7-4.7h-9.7c9.6-19.2,24.5-35.5,41.1-36.8,2.4,3.9,5.7,14.4,3,42-.6,6-1.4,11.9-2.1,17-1.2-.4-2.6-.4-3.9,.3-2.3,1.3-3.1,4.2-1.8,6.5,10.7,19.2,14.6,46.4,14.6,63.9s0,1.1,.3,1.6l18.4,50.8c-1.2,3.6-9.1,14.3-22.3,25.2-9.2,7.6-27.2,20.2-44.7,20.2h-46.9c-17.5,0-35.5-12.7-44.7-20.2h0Zm56.8,44.1c0-7.2,5.2-13.2,12.1-14.4h5.1c6.8,1.2,12.1,7.2,12.1,14.4s-4.1,11.8-9.9,13.8v-8.3c0-2.6-2.1-4.7-4.7-4.7s-4.7,2.1-4.7,4.7v8.3c-5.7-2-9.9-7.4-9.9-13.8Zm53.2,191.2c0,.3,0,.6,0,1l1.8,18.4h-50.1c5.8-11.8,21.4-13.6,22.1-13.6,2-.2,3.6-1.6,4.1-3.5,.2-.5,.3-1.1,.3-1.7v-160.2c9,13,19.8,24.7,32.4,34.8,0,0,.2,.1,.3,.2l2.1,1.4-13,123.2Zm224.4,19.3h-40c5.8-11.8,21.4-13.6,22.1-13.6,2.4-.2,4.3-2.3,4.3-4.7v-74.2c0-2.1-1.4-3.9-3.3-4.5-18.9-5.9-34.5-14.4-47-23.3h49.9c12.1,10,25.4,18.3,39.7,24.7l-25.6,95.6Zm65.6,0h-40.1c2.1-4.3,5.7-7.7,10.8-10.2,5.8-2.8,11.3-3.5,11.3-3.5,2.4-.2,4.3-2.3,4.3-4.7v-74.2c0-2.1-1.4-3.9-3.3-4.5-21.4-6.6-40.8-17.2-57.8-31.6-2.4-2.2-4.3-4.2-5.7-5.9-5.1-5.9-6.5-9.8-6.5-10-.8-2.5-3.4-3.9-5.9-3.1-2.5,.8-3.9,3.4-3.1,5.9,.1,.4,1.6,5,7.2,11.9h-106.3l4.9-30.5c.4-2.6-1.3-5-3.9-5.4-2.6-.4-5,1.3-5.4,3.9l-5.8,36c0,.1,0,.2,0,.3,0,0,0,0,0,0l-11.2,106.2c0,.3,0,.6,0,1l1.8,18.4h-50.1c2.1-4.3,5.7-7.7,10.8-10.2,5.8-2.8,11.3-3.5,11.3-3.5,2-.2,3.6-1.6,4.1-3.5,.2-.5,.3-1.1,.3-1.7v-106.2s0,0,0,0c0-.2,0-.5,0-.7l-5.8-40.2c-.4-2.6-2.8-4.4-5.4-4-2.6,.4-4.4,2.8-4,5.4l4.2,29.5-24-16.5c-15-12.1-27.4-26.7-36.9-42.9,3.7-4.2,6-9.8,6-15.9s-1.8-10.4-4.8-14.4h.9c20.8,0,41.2-14.4,51.5-23.1,12.5-10.4,25.1-24.9,25.1-32.4s0-1.1-.3-1.6l-6.4-17.8c31.2,7.8,78,14.6,146.5,14.6s61.8,63.3,64.4,82.7c0,.2,0,.5,.1,.7,11,38,47,89.7,54.5,100.3l-27.1,101.4Z"/><path d="M133.4,187.8c3.5,0,6.4-2.8,6.4-6.4s-2.8-6.4-6.4-6.4-6.4,2.8-6.4,6.4,2.8,6.4,6.4,6.4Z"/><path d="M188.4,187.8c3.5,0,6.4-2.8,6.4-6.4s-2.8-6.4-6.4-6.4-6.4,2.8-6.4,6.4,2.8,6.4,6.4,6.4Z"/><path d="M202.2,260.7c0-2.6-2.1-4.7-4.7-4.7s-4.7,2.1-4.7,4.7c0,7.5-6.1,13.6-13.6,13.6s-12.4-5-13.4-11.6v-15.1c1.8-.8,3.4-2,4.7-3.7l10.5-13.7c2.8-3.6,3.2-8.4,1.2-12.5-2-4.1-6.1-6.6-10.7-6.6h-21.1c-4.6,0-8.6,2.5-10.7,6.6s-1.5,8.9,1.2,12.5l10.5,13.7c1.3,1.6,2.9,2.9,4.7,3.7v15.1c-1,6.6-6.7,11.6-13.4,11.6s-13.6-6.1-13.6-13.6-2.1-4.7-4.7-4.7-4.7,2.1-4.7,4.7c0,12.7,10.4,23.1,23.1,23.1s13.9-3.4,18.2-8.9c4.3,5.4,10.9,8.9,18.2,8.9,12.7,0,23.1-10.4,23.1-23.1h0Zm-53.7-36.2c-.8-1.1-.4-2.1-.2-2.5,.2-.4,.8-1.3,2.2-1.3h21.1c1.4,0,2,.9,2.2,1.3,.2,.4,.6,1.5-.2,2.5l-10.5,13.7c-.6,.8-1.5,.9-1.9,.9s-1.3-.1-1.9-.9l-10.5-13.7Z"/></g></g></g><g id="Layer_2-2"><g><path d="M951.8,667.2c-2.1-9.1-7.4-18.8-14.7-28.3-29.5-38.6,26.9-84.7,58.1-47.5,7.9,9.4,14.5,21.5,19.3,36.8,15.8,50.7-24.1,116.4-75.8,128.4-16.7,3.9-40.9,4.6-44.8-14.5,38.5-12,66.1-39.9,58-74.9h0Z" fill="#d88a55"/><path d="M898.3,800.8h-6.3v-6.5h-10.1v-5.1c-23.7,14.1-65.6,67.3-65.6,67.3,0,0,27,46.1,88.8,65.2v74.2s-24.5,2.4-28.1,23.1h50.1l28.7-107.1s-51.1-70.4-57.5-111.2h0Z" fill="#ba703e"/><path d="M703.8,995.4l17.8-168.6-49-23.1v191.7h-.1v.5s-24.5,2.4-28.1,23.1h61.7l-2.3-23.6Z" fill="#ba703e"/><path d="M966.3,811.2c-4.6-34-22-86.8-69.1-86.8-160,0-200-37.2-200-37.2l-44.5,60.1c1.9,46.5,23.8,89.8,60,119l33.1,22.8v106.3h-.1v.5s-24.5,2.4-28.1,23.1h61.7l-2.3-23.6,11.2-106.3h122.9c14.2,12,33.9,24.6,59.6,32.5v74.2s-24.5,2.4-28.1,23.1h50.1l28.7-107.1s-43.1-59.4-55.1-100.7Z" fill="#d88a55"/><g><path d="M745.7,873.9l-10.9-7.5c-36.3-29.1-58.1-72.5-60-119l37.8-50.9c-11.1-5.3-15.3-9.2-15.3-9.2l-44.5,60.1c1.9,46.5,23.8,89.8,60,119l33,22.8v-15.2h0Z" fill="#ba703e"/><path d="M992.8,995.9v-74.2c-25.7-7.9-45.3-20.5-59.6-32.5h-22.1c14.2,12,33.9,24.6,59.6,32.5v74.2s-24.5,2.4-28.1,23.1h22.1c3.6-20.7,28.1-23.1,28.1-23.1Z" fill="#ba703e"/></g><path d="M652.7,747.4c.5,12.7,2.5,25.2,6,37.3h44.3c33.4,0,71.9-41.6,71.9-50.7l-7.4-20.5c-53.8-11-70.2-26.2-70.2-26.2l-44.5,60.1Z" fill="#ba703e"/><g><path d="M593.1,631.2s-14.8-68.9,0-83.7c32.7,0,59.3,51,59.3,83.7h-59.3Z" fill="#d88a55"/><path d="M611.7,553c-5.9-3.5-12.2-5.5-18.7-5.5-14.8,14.8,0,83.7,0,83.7h22.1s-12.1-56.5-3.4-78.2Z" fill="#ba703e"/><path d="M721.6,631.2s14.8-68.9,0-83.7c-32.7,0-59.3,51-59.3,83.7h59.3Z" fill="#d88a55"/><path d="M683.9,631.2c0-26.4,17.2-64.6,41.1-78.5-.9-2.1-2-3.9-3.3-5.3-32.7,0-59.3,51-59.3,83.7h21.5Z" fill="#ba703e"/><path d="M688,593.9h-61.3c-33.1,0-45.9,55-45.9,88.1l-18.8,51.9c0,9,38.5,50.7,71.9,50.7h46.9c33.4,0,71.9-41.6,71.9-50.7l-18.8-51.9c0-33.1-12.8-88.1-45.9-88.1Z" fill="#d88a55"/><path d="M584.1,734l18.8-51.9c0-33.1,12.8-88.1,45.9-88.1h-22.1c-33.1,0-45.9,55-45.9,88.1l-18.8,51.9c0,9,38.5,50.7,71.9,50.7h22.1c-33.4,0-71.9-41.6-71.9-50.7Z" fill="#ba703e"/><path d="M651.7,730l-10.5-13.7c-3.6-4.7-.3-11.5,5.7-11.5h21.1c5.9,0,9.3,6.8,5.7,11.5l-10.5,13.7c-2.9,3.7-8.5,3.7-11.3,0h0Z" fill="#494a47"/></g><circle cx="660.6" cy="803.7" r="19.3" transform="translate(-76 69) rotate(-5.7)" fill="#f8d250"/><g><path d="M1025.2,909.1c-.4-.6-42.5-58.9-54.3-98.9-1.7-12.1-6-34.3-17-53.8,20.9-9,40.1-26.5,53-49,15.3-26.6,19.6-56,12-80.7-4.7-15.1-11.5-28-20.2-38.4-17.9-21.4-42.7-17.9-58-5.6-16.2,13-24,37.4-7.4,59,7.3,9.6,12,18.5,13.8,26.5,4,17.2-1.6,39.7-26.3,56.2-7.3-3.2-15.2-4.8-23.6-4.8-42.7,0-102.6-2.8-150.4-16l-8.1-22.4c-.1-15.6-3.1-38.3-10.8-57.3,1.2-6.9,2.9-17.4,4-28.6,2.6-27.2,.4-43.9-6.9-51.2-.9-.9-2.1-1.4-3.4-1.4-16.6,0-32.9,11.3-45.9,31.8-3,4.6-5.6,9.6-7.9,14.6h-20.9c-2.3-5.1-5-10-7.9-14.6-13.1-20.5-29.4-31.8-45.9-31.8s-2.5,.5-3.4,1.4c-7.3,7.3-9.6,24-6.9,51.2,1.1,11.2,2.8,21.7,4,28.6-7.7,19-10.7,41.6-10.8,57.3l-18.5,51.1c-.2,.5-.3,1.1-.3,1.6,0,7.4,12.6,21.9,25.1,32.4,10.3,8.6,30.7,23.1,51.5,23.1h7.4c-3,4-4.8,9-4.8,14.4,0,13.3,10.8,24.1,24.1,24.1s5-.4,7.3-1.1v165.1c-10.2,2.2-25.3,9.6-28.2,26.3-.2,1.4,.1,2.8,1,3.9s2.2,1.7,3.6,1.7h61.7c1.3,0,2.6-.6,3.5-1.6s1.3-2.3,1.2-3.6l-2.2-23.1,12.4-117.6,20.1,13.8v100.2c-2.7,.6-6.4,1.7-10.2,3.5-10,4.9-16.2,12.7-18,22.8-.2,1.4,.1,2.8,1,3.9s2.2,1.7,3.6,1.7h61.7c1.3,0,2.6-.6,3.5-1.6s1.3-2.3,1.2-3.6l-2.2-23.1,10.7-101.5h51.2c13.9,11.5,32.5,23.3,56.6,31.3v66.7c-10.2,2.3-25.1,9.7-28,26.3-.2,1.4,.1,2.8,1,3.9s2.2,1.7,3.6,1.7h50.1c2.1,0,4-1.4,4.6-3.5l26.2-97.9c2.6,1,5.3,2,8,2.8v66.8c-2.7,.6-6.3,1.7-10,3.5-10,4.9-16.3,12.7-18,22.8-.2,1.4,.1,2.8,1,3.9s2.2,1.7,3.6,1.7h50.1c2.1,0,4-1.4,4.6-3.5l28.7-107.1c.4-1.4,0-2.9-.7-4h0Zm-81.3-192.8c12.4-14.8,16.7-32.2,12.5-50.2-2.2-9.3-7.4-19.4-15.5-30.1-13.4-17.6-6.4-36.1,5.8-45.9,12.3-9.8,30.9-12.3,44.8,4.3,7.9,9.4,14,21.2,18.4,35.1,6.9,22.1,2.8,48.8-11.2,73.1-12.2,21.2-30.3,37.6-49.8,45.6-5.5-7.9-11.9-14.3-19-18.9,5.4-4,10.1-8.4,14-13.1h0Zm-354.7,43.3c-13.2-10.9-21.1-21.6-22.3-25.2l18.4-50.8c.2-.5,.3-1.1,.3-1.6,0-17.5,3.8-44.7,14.6-63.9,1.3-2.3,.5-5.2-1.8-6.5-1.2-.7-2.6-.8-3.9-.3-.8-5.1-1.5-11-2.1-17-2.7-27.7,.6-38.2,3-42.1,16.6,1.3,31.5,17.6,41.1,36.8h-9.7c-2.6,0-4.7,2.1-4.7,4.7s2.1,4.7,4.7,4.7h61.3c2.6,0,4.7-2.1,4.7-4.7s-2.1-4.7-4.7-4.7h-9.7c9.6-19.2,24.5-35.5,41.1-36.8,2.4,3.9,5.7,14.4,3,42-.6,6-1.4,11.9-2.1,17-1.2-.4-2.6-.4-3.9,.3-2.3,1.3-3.1,4.2-1.8,6.5,10.7,19.2,14.6,46.4,14.6,63.9s0,1.1,.3,1.6l18.4,50.8c-1.2,3.6-9.1,14.3-22.3,25.2-9.2,7.6-27.2,20.2-44.7,20.2h-46.9c-17.5,0-35.5-12.7-44.7-20.2h0Zm56.8,44.1c0-7.2,5.2-13.2,12.1-14.4h5.1c6.8,1.2,12.1,7.2,12.1,14.4s-4.1,11.8-9.9,13.8v-8.3c0-2.6-2.1-4.7-4.7-4.7s-4.7,2.1-4.7,4.7v8.3c-5.7-2-9.9-7.4-9.9-13.8Zm53.2,191.2c0,.3,0,.6,0,1l1.8,18.4h-50.1c5.8-11.8,21.4-13.6,22.1-13.6,2-.2,3.6-1.6,4.1-3.5,.2-.5,.3-1.1,.3-1.7v-160.2c9,13,19.8,24.7,32.4,34.8,0,0,.2,.1,.3,.2l2.1,1.4-13,123.2Zm224.4,19.3h-40c5.8-11.8,21.4-13.6,22.1-13.6,2.4-.2,4.3-2.3,4.3-4.7v-74.2c0-2.1-1.4-3.9-3.3-4.5-18.9-5.9-34.5-14.4-47-23.3h49.9c12.1,10,25.4,18.3,39.7,24.7l-25.6,95.6Zm65.6,0h-40.1c2.1-4.3,5.7-7.7,10.8-10.2,5.8-2.8,11.3-3.5,11.3-3.5,2.4-.2,4.3-2.3,4.3-4.7v-74.2c0-2.1-1.4-3.9-3.3-4.5-21.4-6.6-40.8-17.2-57.8-31.6-2.4-2.2-4.3-4.2-5.7-5.9-5.1-5.9-6.5-9.8-6.5-10-.8-2.5-3.4-3.9-5.9-3.1-2.5,.8-3.9,3.4-3.1,5.9,.1,.4,1.6,5,7.2,11.9h-106.3l4.9-30.5c.4-2.6-1.3-5-3.9-5.4-2.6-.4-5,1.3-5.4,3.9l-5.8,36c0,.1,0,.2,0,.3,0,0,0,0,0,0l-11.2,106.2c0,.3,0,.6,0,1l1.8,18.4h-50.1c2.1-4.3,5.7-7.7,10.8-10.2,5.8-2.8,11.3-3.5,11.3-3.5,2-.2,3.6-1.6,4.1-3.5,.2-.5,.3-1.1,.3-1.7v-106.2s0,0,0,0c0-.2,0-.5,0-.7l-5.8-40.2c-.4-2.6-2.8-4.4-5.4-4-2.6,.4-4.4,2.8-4,5.4l4.2,29.5-24-16.5c-15-12.1-27.4-26.7-36.9-42.9,3.7-4.2,6-9.8,6-15.9s-1.8-10.4-4.8-14.4h.9c20.8,0,41.2-14.4,51.5-23.1,12.5-10.4,25.1-24.9,25.1-32.4s0-1.1-.3-1.6l-6.4-17.8c31.2,7.8,78,14.6,146.5,14.6s61.8,63.3,64.4,82.7c0,.2,0,.5,.1,.7,11,38,47,89.7,54.5,100.3l-27.1,101.4Z"/><path d="M629.8,676.7c3.5,0,6.4-2.8,6.4-6.4s-2.8-6.4-6.4-6.4-6.4,2.8-6.4,6.4,2.8,6.4,6.4,6.4Z"/><path d="M684.8,676.7c3.5,0,6.4-2.8,6.4-6.4s-2.8-6.4-6.4-6.4-6.4,2.8-6.4,6.4,2.8,6.4,6.4,6.4Z"/><path d="M698.6,749.5c0-2.6-2.1-4.7-4.7-4.7s-4.7,2.1-4.7,4.7c0,7.5-6.1,13.6-13.6,13.6s-12.4-5-13.4-11.6v-15.1c1.8-.8,3.4-2,4.7-3.7l10.5-13.7c2.8-3.6,3.2-8.4,1.2-12.5-2-4.1-6.1-6.6-10.7-6.6h-21.1c-4.6,0-8.6,2.5-10.7,6.6s-1.5,8.9,1.2,12.5l10.5,13.7c1.3,1.6,2.9,2.9,4.7,3.7v15.1c-1,6.6-6.7,11.6-13.4,11.6s-13.6-6.1-13.6-13.6-2.1-4.7-4.7-4.7-4.7,2.1-4.7,4.7c0,12.7,10.4,23.1,23.1,23.1s13.9-3.4,18.2-8.9c4.3,5.4,10.9,8.9,18.2,8.9,12.7,0,23.1-10.4,23.1-23.1h0Zm-53.7-36.2c-.8-1.1-.4-2.1-.2-2.5,.2-.4,.8-1.3,2.2-1.3h21.1c1.4,0,2,.9,2.2,1.3,.2,.4,.6,1.5-.2,2.5l-10.5,13.7c-.6,.8-1.5,.9-1.9,.9s-1.3-.1-1.9-.9l-10.5-13.7Z"/></g></g></g></svg>