<?xml version="1.0" encoding="UTF-8"?><svg id="Calque_1" xmlns="http://www.w3.org/2000/svg" viewBox="0 0 1080 1080"><g id="Layer_2"><g><path d="M809.5,295.3c-3.9-16.9-13.8-34.9-27.3-52.6-54.9-71.8,50-157.6,108-88.3,14.6,17.5,27,39.9,35.8,68.4,29.3,94.3-44.9,216.5-141.1,238.8-31.1,7.2-76.1,8.6-83.4-26.9,71.6-22.3,123-74.3,107.9-139.4h0Z" fill="#d88a55"/><path d="M710.1,543.8h-11.8v-12h-18.7v-9.5c-44.1,26.2-122.1,125.1-122.1,125.1,0,0,50.2,85.7,165.2,121.3v138s-45.6,4.5-52.2,43h93.3l53.3-199.1s-95-131-106.9-206.7h0Z" fill="#ba703e"/><path d="M348.4,905.8l33.1-313.5-91.1-42.9v356.5h-.3v.9s-45.6,4.5-52.2,43h114.8l-4.3-43.9Z" fill="#ba703e"/><path d="M836.5,563.3c-8.5-63.3-41-161.5-128.5-161.5-297.5,0-371.9-69.1-371.9-69.1l-82.8,111.8c3.5,86.4,44.2,167.1,111.7,221.3l61.5,42.4v197.6h-.3v.9s-45.6,4.5-52.2,43h114.8l-4.3-43.9,20.8-197.6h228.5c26.4,22.3,63,45.7,110.8,60.5v138s-45.6,4.5-52.2,43h93.3l53.3-199.1s-80.1-110.5-102.4-187.2Z" fill="#d88a55"/><g><path d="M426.3,679.7l-20.3-14c-67.4-54.2-108.1-134.9-111.7-221.3l70.2-94.8c-20.7-9.8-28.5-17.1-28.5-17.1l-82.9,111.8c3.5,86.4,44.2,167.1,111.7,221.3l61.4,42.3v-28.3h0Z" fill="#ba703e"/><path d="M885.7,906.6v-138c-47.8-14.8-84.3-38.2-110.8-60.5h-41.1c26.4,22.3,63,45.7,110.8,60.5v138s-45.6,4.5-52.2,43h41.1c6.7-38.5,52.2-43,52.2-43Z" fill="#ba703e"/></g><path d="M253.3,444.5c1,23.7,4.7,46.9,11.1,69.3h82.4c62.1,0,133.7-77.4,133.7-94.2l-13.8-38.2c-100-20.4-130.5-48.7-130.5-48.7l-82.9,111.8Z" fill="#ba703e"/><g><path d="M142.4,228.4s-27.5-128.2,0-155.7c60.9,0,110.2,94.8,110.2,155.7h-110.2Z" fill="#d88a55"/><path d="M177.1,83c-10.9-6.5-22.6-10.3-34.7-10.3-27.5,27.5,0,155.7,0,155.7h41.1s-22.6-105.1-6.4-145.4Z" fill="#ba703e"/><path d="M381.5,228.4s27.5-128.2,0-155.7c-60.9,0-110.2,94.8-110.2,155.7h110.2Z" fill="#d88a55"/><path d="M311.3,228.4c0-49.1,32.1-120.2,76.4-145.9-1.6-4-3.7-7.3-6.2-9.8-60.9,0-110.2,94.8-110.2,155.7h40Z" fill="#ba703e"/><path d="M319,159.1h-114.1c-61.6,0-85.4,102.3-85.4,163.9l-34.9,96.5c0,16.8,71.6,94.2,133.7,94.2h87.3c62.1,0,133.7-77.4,133.7-94.2l-34.9-96.5c0-61.6-23.8-163.9-85.4-163.9Z" fill="#d88a55"/><path d="M125.6,419.5l34.9-96.5c0-61.6,23.8-163.9,85.4-163.9h-41.1c-61.6,0-85.4,102.3-85.4,163.9l-34.9,96.5c0,16.8,71.6,94.2,133.7,94.2h41.1c-62.1,0-133.7-77.4-133.7-94.2Z" fill="#ba703e"/><path d="M251.4,412.1l-19.6-25.6c-6.7-8.7-.5-21.4,10.5-21.4h39.2c11,0,17.3,12.6,10.5,21.4l-19.6,25.6c-5.3,6.9-15.8,6.9-21.1,0h0Z" fill="#494a47"/></g><circle cx="267.9" cy="549.3" r="36" transform="translate(-52.8 29.1) rotate(-5.7)" fill="#f8d250"/><g><path d="M946.1,745.3c-.8-1.1-79-109.6-100.9-183.9-3.1-22.6-11.2-63.8-31.5-100.1,38.9-16.8,74.5-49.3,98.5-91.2,28.4-49.5,36.5-104.2,22.3-150-8.7-28.1-21.4-52.1-37.5-71.4-33.4-39.9-79.3-33.4-107.9-10.5-30.1,24.1-44.6,69.6-13.8,109.8,13.6,17.8,22.3,34.4,25.7,49.2,7.4,32-3,73.9-48.9,104.5-13.6-5.9-28.3-8.9-43.9-8.9-79.4,0-190.7-5.3-279.8-29.8l-15.1-41.7c-.2-29.1-5.7-71.2-20.1-106.5,2.3-12.8,5.5-32.3,7.5-53.1,4.9-50.5,.7-81.7-12.9-95.3-1.7-1.7-3.9-2.6-6.2-2.6-30.8,0-61.1,21-85.4,59.1-5.5,8.6-10.4,17.8-14.7,27.2h-38.9c-4.3-9.4-9.2-18.6-14.7-27.2-24.3-38.1-54.6-59.1-85.4-59.1s-4.6,.9-6.2,2.6c-13.6,13.6-17.8,44.7-12.9,95.3,2,20.8,5.2,40.3,7.5,53.1-14.4,35.3-19.9,77.4-20.1,106.5l-34.4,95.1c-.3,1-.5,2-.5,3,0,13.9,23.5,40.8,46.7,60.2,19.2,16,57.1,42.9,95.8,42.9h13.7c-5.6,7.5-8.9,16.7-8.9,26.7,0,24.7,20.1,44.8,44.8,44.8s9.3-.7,13.6-2.1v307.1c-19,4.2-47,17.9-52.4,49-.4,2.6,.3,5.2,1.9,7.2s4.1,3.1,6.7,3.1h114.8c2.5,0,4.9-1.1,6.5-2.9s2.5-4.3,2.2-6.8l-4.2-43,23.1-218.7,37.3,25.7v186.4c-5,1.1-11.8,3.1-18.9,6.6-18.7,9.1-30.2,23.7-33.5,42.4-.4,2.6,.3,5.2,1.9,7.2s4.1,3.1,6.7,3.1h114.8c2.5,0,4.9-1.1,6.5-2.9s2.5-4.3,2.2-6.8l-4.2-43,19.9-188.8h95.3c25.8,21.3,60.5,43.3,105.3,58.1v124.1c-19,4.2-46.7,18-52.1,48.9-.4,2.6,.3,5.2,1.9,7.2s4.1,3.1,6.7,3.1h93.3c4,0,7.5-2.7,8.5-6.5l48.7-182.1c4.9,1.9,9.8,3.6,14.8,5.3v124.2c-4.9,1.1-11.7,3.1-18.6,6.5-18.7,9.1-30.2,23.7-33.5,42.4-.4,2.6,.3,5.2,1.9,7.2s4.1,3.1,6.7,3.1h93.3c4,0,7.5-2.7,8.5-6.5l53.3-199.1c.7-2.6,.2-5.3-1.4-7.5h0Zm-151.3-358.6c23-27.6,31-59.9,23.3-93.4-4-17.3-13.7-36.1-28.9-56-25-32.7-11.9-67.1,10.8-85.3,22.9-18.3,57.5-22.9,83.4,8,14.6,17.5,26.1,39.4,34.2,65.3,12.8,41.1,5.2,90.7-20.7,136-22.6,39.5-56.3,69.9-92.7,84.8-10.3-14.7-22.2-26.5-35.3-35.2,10-7.4,18.7-15.5,26-24.3h0ZM135.1,467.3c-24.6-20.3-39.3-40.2-41.5-46.9l34.1-94.4c.3-1,.5-2,.5-3,0-32.5,7.1-83.1,27.1-118.8,2.4-4.3,.9-9.6-3.4-12-2.3-1.3-4.9-1.4-7.2-.6-1.4-9.6-2.9-20.4-4-31.5-5-51.5,1.1-71.1,5.6-78.3,30.8,2.5,58.5,32.8,76.4,68.5h-18c-4.9,0-8.8,4-8.8,8.8s4,8.8,8.8,8.8h114.1c4.9,0,8.8-4,8.8-8.8s-4-8.8-8.8-8.8h-18c17.9-35.8,45.6-66,76.4-68.5,4.5,7.3,10.6,26.8,5.7,78.2-1.1,11.2-2.5,22.1-4,31.7-2.3-.8-4.9-.7-7.2,.6-4.3,2.4-5.8,7.8-3.4,12,20,35.7,27.1,86.3,27.1,118.8s.2,2,.5,3l34.1,94.4c-2.2,6.7-16.9,26.6-41.5,46.9-17.1,14.1-50.6,37.7-83.1,37.7h-87.3c-32.6,0-66.1-23.6-83.1-37.7h0Zm105.6,82c0-13.4,9.7-24.5,22.4-26.7h9.4c12.7,2.2,22.4,13.4,22.4,26.7s-7.7,22-18.3,25.7v-15.4c0-4.9-4-8.8-8.8-8.8s-8.8,4-8.8,8.8v15.4c-10.7-3.7-18.3-13.8-18.3-25.7Zm98.9,355.5c0,.6,0,1.2,0,1.8l3.3,34.2h-93.1c10.7-21.9,39.7-25.2,41.1-25.4,3.8-.4,6.8-3.1,7.7-6.6,.4-1,.6-2,.6-3.1v-297.9c16.7,24.1,36.9,46,60.3,64.8,.2,.1,.3,.3,.5,.4l3.8,2.6-24.2,229.2Zm417.4,36h-74.5c10.7-21.9,39.7-25.2,41.1-25.4,4.5-.4,8-4.2,8-8.8v-138c0-3.9-2.5-7.3-6.2-8.4-35.2-10.9-64.2-26.7-87.4-43.3h92.8c22.6,18.7,47.3,34.1,73.9,46l-47.6,177.8Zm121.9,0h-74.5c3.9-7.9,10.6-14.3,20-18.9,10.7-5.3,21-6.4,21.1-6.4,4.5-.4,8-4.2,8-8.8v-138c0-3.9-2.5-7.3-6.2-8.4-39.7-12.3-75.9-32-107.5-58.7-4.4-4.1-7.9-7.8-10.7-10.9-9.4-10.9-12-18.3-12.1-18.6-1.5-4.6-6.4-7.2-11-5.8-4.7,1.4-7.3,6.4-5.8,11,.2,.7,3,9.3,13.4,22h-197.7l9.1-56.7c.8-4.8-2.5-9.3-7.3-10.1-4.8-.8-9.3,2.5-10.1,7.3l-10.7,66.9c0,.2,0,.4,0,.6,0,0,0,0,0,0l-20.8,197.5c0,.6,0,1.2,0,1.8l3.3,34.2h-93.1c3.9-7.9,10.6-14.3,20-18.9,10.7-5.3,21-6.4,21.1-6.4,3.8-.4,6.8-3.1,7.7-6.6,.4-1,.6-2,.6-3.1v-197.5s0,0,0,0c0-.4,0-.9,0-1.4l-10.7-74.9c-.7-4.8-5.2-8.2-10-7.5-4.8,.7-8.2,5.2-7.5,10l7.9,54.9-44.6-30.8c-27.9-22.5-51-49.6-68.6-79.9,6.9-7.9,11.1-18.2,11.1-29.5s-3.3-19.3-8.9-26.7h1.7c38.7,0,76.6-26.9,95.8-42.9,23.2-19.4,46.7-46.3,46.7-60.2s-.2-2-.5-3l-12-33.1c58.1,14.6,145.1,27.2,272.5,27.2s114.9,117.8,119.7,153.9c0,.4,.1,.9,.3,1.3,20.5,70.6,87.4,166.9,101.3,186.5l-50.5,188.5Z"/><path d="M210.8,313c6.5,0,11.8-5.3,11.8-11.8s-5.3-11.8-11.8-11.8-11.8,5.3-11.8,11.8,5.3,11.8,11.8,11.8Z"/><path d="M313,313c6.5,0,11.8-5.3,11.8-11.8s-5.3-11.8-11.8-11.8-11.8,5.3-11.8,11.8,5.3,11.8,11.8,11.8Z"/><path d="M338.6,448.5c0-4.9-4-8.8-8.8-8.8s-8.8,4-8.8,8.8c0,13.9-11.3,25.3-25.3,25.3s-23.1-9.2-25-21.5v-28c3.4-1.5,6.4-3.8,8.7-6.8l19.6-25.6c5.2-6.7,6-15.6,2.3-23.2-3.8-7.6-11.4-12.3-19.8-12.3h-39.2c-8.5,0-16.1,4.7-19.8,12.3-3.8,7.6-2.9,16.5,2.3,23.2l19.6,25.6c2.3,3,5.3,5.3,8.7,6.8v28c-1.9,12.3-12.5,21.5-25,21.5s-25.3-11.3-25.3-25.3-4-8.8-8.8-8.8-8.8,4-8.8,8.8c0,23.7,19.3,42.9,42.9,42.9s25.9-6.4,33.8-16.5c7.9,10.1,20.2,16.5,33.8,16.5,23.7,0,42.9-19.3,42.9-42.9h0Zm-99.9-67.3c-1.5-2-.8-4-.5-4.7,.4-.7,1.5-2.5,4-2.5h39.2c2.5,0,3.6,1.7,4,2.5,.4,.7,1.1,2.7-.5,4.7l-19.6,25.6c-1.2,1.5-2.7,1.8-3.6,1.8s-2.4-.2-3.6-1.8l-19.6-25.6Z"/></g></g></g></svg>