<?xml version="1.0" encoding="UTF-8"?><svg id="Calque_1" xmlns="http://www.w3.org/2000/svg" viewBox="0 0 693.5 693.5"><circle cx="346.1" cy="346.7" r="330" fill="#fee565"/><path d="M118.6,346.7c0-164.8,120.9-301.4,278.8-326-16.7-2.6-33.9-4-51.3-4C163.8,16.7,16.1,164.5,16.1,346.7s147.7,330,330,330,34.6-1.4,51.3-4c-157.9-24.6-278.8-161.2-278.8-326Z" fill="#fdd62f"/><g><path d="M632.8,511.6c-4.7-2.9-10.9-1.5-13.8,3.2-28.2,45.6-67.7,83.6-114.2,110.1-47.9,27.3-102.6,41.8-158.1,41.8-117.6,0-225.5-64.3-281.6-167.9-2.6-4.9-8.7-6.7-13.6-4-4.9,2.6-6.7,8.7-4,13.6,59.6,110,174.2,178.4,299.2,178.4s117.1-15.3,168-44.4c49.4-28.1,91.3-68.6,121.3-117,2.9-4.7,1.5-10.9-3.2-13.8h0Z"/><path d="M47.9,461.3c-14-36.6-21.1-75.1-21.1-114.5,0-72.8,25.1-144.1,70.8-200.7,3.5-4.3,2.8-10.6-1.5-14.1-4.3-3.5-10.6-2.8-14.1,1.5-23.9,29.6-42.4,62.6-55.2,98.2-13.3,36.8-20,75.5-20,115s7.6,82.8,22.5,121.7c1.5,4,5.3,6.4,9.3,6.4s2.4-.2,3.6-.7c5.2-2,7.7-7.8,5.8-12.9h0Z"/><path d="M587.2,106.3C522.9,42.1,437.6,6.7,346.7,6.7S175.2,40.2,111.7,101.1c-4,3.8-4.1,10.1-.3,14.1,3.8,4,10.1,4.1,14.1,.3C185.3,58.3,263.9,26.7,346.7,26.7s165.8,33.3,226.3,93.7c60.4,60.4,93.7,140.8,93.7,226.3s-9.5,90.2-28.2,131.6c-2.3,5,0,11,5,13.2,1.3,.6,2.7,.9,4.1,.9,3.8,0,7.4-2.2,9.1-5.9,19.9-44.1,30-91.1,30-139.9,0-90.8-35.4-176.2-99.6-240.4h0Z"/><circle cx="215.5" cy="274.4" r="31.9"/><path d="M215.7,156.2c-27.9,0-50.7,22.7-50.7,50.7s4.5,10,10,10,10-4.5,10-10c0-16.9,13.8-30.7,30.7-30.7s30.7,13.8,30.7,30.7,4.5,10,10,10,10-4.5,10-10c0-27.9-22.7-50.7-50.7-50.7h0Z"/><circle cx="477.9" cy="274.2" r="31.9"/><path d="M518.4,216.9c5.5,0,10-4.5,10-10,0-27.9-22.7-50.7-50.7-50.7s-50.7,22.7-50.7,50.7,4.5,10,10,10,10-4.5,10-10c0-16.9,13.8-30.7,30.7-30.7s30.7,13.8,30.7,30.7,4.5,10,10,10Z"/><path d="M267.1,520.6c-4.7,3-6,9.1-3.1,13.8,1.9,3,5.1,4.6,8.4,4.6s3.7-.5,5.4-1.6l15.9-10.1c53.1-33.7,114.5-51.6,177.4-51.6s10-4.5,10-10-4.5-10-10-10c-66.8,0-131.8,18.9-188.2,54.7l-15.9,10.1Z"/><path d="M91,338.6c-5.2-1.8-10.9,1-12.7,6.2l-14.7,42.6c-1.8,5.2,1,10.9,6.2,12.7,1.1,.4,2.2,.6,3.3,.6,4.1,0,8-2.6,9.4-6.7l14.7-42.6c1.8-5.2-1-10.9-6.2-12.7h0Z"/><path d="M119.3,400.7c4.1,0,8-2.6,9.4-6.7l14.7-42.6c1.8-5.2-1-10.9-6.2-12.7-5.2-1.8-10.9,1-12.7,6.2l-14.7,42.6c-1.8,5.2,1,10.9,6.2,12.7,1.1,.4,2.2,.6,3.3,.6h0Z"/><path d="M559.5,400.7c4.1,0,8-2.6,9.4-6.7l14.7-42.6c1.8-5.2-1-10.9-6.2-12.7s-10.9,1-12.7,6.2l-14.7,42.6c-1.8,5.2,1,10.9,6.2,12.7,1.1,.4,2.2,.6,3.3,.6h0Z"/><path d="M605.8,400.7c4.1,0,8-2.6,9.4-6.7l14.7-42.6c1.8-5.2-1-10.9-6.2-12.7s-10.9,1-12.7,6.2l-14.7,42.6c-1.8,5.2,1,10.9,6.2,12.7,1.1,.4,2.2,.6,3.3,.6h0Z"/></g></svg>