<?xml version="1.0" encoding="UTF-8"?><svg id="Calque_1" xmlns="http://www.w3.org/2000/svg" viewBox="0 0 693.5 693.5"><circle cx="346.7" cy="345.4" r="330" fill="#fee565"/><path d="M119.3,345.4c0-164.8,120.8-301.4,278.7-326-16.7-2.6-33.8-4-51.3-4C164.5,15.4,16.7,163.1,16.7,345.4s147.7,330,330,330,34.6-1.4,51.3-4c-157.9-24.6-278.7-161.2-278.7-326h0Z" fill="#fdd62f"/><g><path d="M633.4,510.6c-4.7-2.9-10.9-1.4-13.8,3.3-28.1,45.8-67.6,84.1-114.3,110.8-48.1,27.5-102.9,42-158.6,42-118.1,0-226.3-64.7-282.2-169-2.6-4.9-8.7-6.7-13.5-4.1-4.9,2.6-6.7,8.7-4.1,13.5,59.4,110.7,174.3,179.5,299.8,179.5s117.5-15.4,168.6-44.7c49.5-28.3,91.5-69,121.4-117.7,2.9-4.7,1.4-10.9-3.3-13.8Z"/><path d="M47.4,460.2c-13.7-36.2-20.7-74.4-20.7-113.4,0-73.2,25.3-144.7,71.4-201.4,3.5-4.3,2.8-10.6-1.5-14.1-4.3-3.5-10.6-2.8-14.1,1.5C33.7,193,6.7,269,6.7,346.7s7.4,82,22,120.5c1.5,4,5.3,6.5,9.4,6.5s2.4-.2,3.5-.7c5.2-2,7.8-7.7,5.8-12.9Z"/><path d="M587.2,106.3C522.9,42.1,437.6,6.7,346.7,6.7S175.8,40,112.4,100.4c-4,3.8-4.2,10.1-.3,14.1,3.8,4,10.1,4.2,14.1,.3C185.9,58,264.2,26.7,346.7,26.7s165.8,33.3,226.3,93.7c60.4,60.4,93.7,140.8,93.7,226.3s-9.4,89.4-27.8,130.6c-2.3,5,0,11,5,13.2,1.3,.6,2.7,.9,4.1,.9,3.8,0,7.5-2.2,9.1-5.9,19.6-43.8,29.5-90.5,29.5-138.8,0-90.8-35.4-176.2-99.6-240.4h0Z"/><circle cx="215.8" cy="252.4" r="31.9"/><circle cx="477.7" cy="252.3" r="31.9"/><path d="M346.1,505.9c-49.2,0-94-31-111.3-77.1-1.9-5.2-7.7-7.8-12.9-5.8-5.2,1.9-7.8,7.7-5.8,12.9,9.8,26.2,27.1,48.6,50.1,64.7,23.5,16.6,51.1,25.3,79.9,25.3s56.4-8.7,79.9-25.3c22.9-16.2,40.2-38.6,50.1-64.7,1.9-5.2-.7-10.9-5.8-12.9-5.2-1.9-10.9,.7-12.9,5.8-17.3,46.1-62,77.1-111.3,77.1h0Z"/></g></svg>