<?xml version="1.0" encoding="UTF-8"?><svg id="Calque_1" xmlns="http://www.w3.org/2000/svg" viewBox="0 0 693.5 693.5"><g><circle cx="346.7" cy="346.7" r="339.3" fill="#ffe077"/><path d="M346.7,436.7c-60.9,0-117.9-9.8-166.8-26.9-9-3.2-17.4,5.9-13.7,14.7,29.9,70.1,99.4,119.3,180.5,119.3s150.6-49.2,180.5-119.3c3.8-8.8-4.6-17.9-13.7-14.7-49,17.1-105.9,26.9-166.8,26.9Z" fill="#c6805d"/><path d="M513.6,409.8c-6,2.1-12.2,4.1-18.5,6-26.3,57-84.2,95.1-148.4,95.1s-122-38.1-148.4-95.1c-6.3-1.9-12.4-3.9-18.5-6-9-3.2-17.4,5.9-13.7,14.7,29.9,70.1,99.4,119.3,180.5,119.3s150.6-49.2,180.5-119.3c3.8-8.8-4.6-17.9-13.7-14.7Z" fill="#af6e4d"/><path d="M385,647.7c-187.4,0-339.3-151.9-339.3-339.3s30.5-160.7,81.1-220C53.8,150.7,7.4,243.3,7.4,346.7c0,187.4,151.9,339.3,339.3,339.3s196-46.4,258.3-119.4c-59.2,50.5-136,81.1-220,81.1Z" fill="#ffd05b"/><path d="M513.6,409.8c-49,17.1-105.9,26.9-166.8,26.9s-117.9-9.8-166.8-26.9c-9-3.2-17.4,5.9-13.7,14.7,5,11.7,11.2,22.8,18.3,33.2,49.5,13.1,104.4,20.4,162.2,20.4s112.7-7.3,162.2-20.4c7.1-10.4,13.3-21.5,18.3-33.2,3.8-8.8-4.6-17.9-13.7-14.7Z" fill="#fff"/></g><g><circle cx="346.7" cy="346.7" r="340" fill="none" stroke="#000" stroke-linecap="round" stroke-linejoin="round" stroke-width="15"/><path d="M346.7,436.9c-70.3,0-135.4-13.1-189-35.3,23.5,82.3,99.2,142.6,189,142.6s165.6-60.3,189-142.6c-53.6,22.2-118.7,35.3-189,35.3Z" fill="none" stroke="#000" stroke-linecap="round" stroke-linejoin="round" stroke-width="15"/><path d="M248,472.5c-21.4-3.7-42.2-8.5-62.2-14.5" fill="none" stroke="#000" stroke-linecap="round" stroke-linejoin="round" stroke-width="15"/><path d="M507.1,458.2c-49.7,14.8-104.3,22.6-160.4,22.6s-36.2-.8-54-2.4" fill="none" stroke="#000" stroke-linecap="round" stroke-linejoin="round" stroke-width="15"/><path d="M280.9,291.9c-9.3-19.4-30.3-32.9-54.8-32.9s-45.6,13.6-54.8,32.9" fill="none" stroke="#000" stroke-linecap="round" stroke-linejoin="round" stroke-width="15"/><path d="M522.2,291.9c-9.3-19.4-30.3-32.9-54.8-32.9s-45.6,13.6-54.8,32.9" fill="none" stroke="#000" stroke-linecap="round" stroke-linejoin="round" stroke-width="15"/></g></svg>