<?xml version="1.0" encoding="UTF-8"?><svg id="Calque_1" xmlns="http://www.w3.org/2000/svg" viewBox="0 0 693.5 693.5"><g><circle cx="516.1" cy="158.6" r="108.8" fill="#91dc5a"/><path d="M646.7,552.8H376.6c-16.5,0-29.9-13.4-29.9-29.9v-167.4c0-57.6,46.7-104.3,104.3-104.3h121.3c57.6,0,104.3,46.7,104.3,104.3v167.4c0,16.5-13.4,29.9-29.9,29.9Z" fill="#91dc5a"/></g><g><path d="M549.1,262.3c-10.4,3.3-21.5,5.1-33.1,5.1-60.1,0-108.8-48.7-108.8-108.8s48.7-108.8,108.8-108.8,22.6,1.8,33.1,5.1c-43.9,14-75.7,55.1-75.7,103.7,0,48.6,31.8,89.7,75.7,103.7Z" fill="#7ed63e"/><path d="M412.9,355.5v167.4c0,16.5,13.4,29.9,29.9,29.9h-66.1c-16.5,0-29.9-13.4-29.9-29.9v-167.4c0-57.6,46.7-104.3,104.3-104.3h66.1c-57.6,0-104.3,46.7-104.3,104.3Z" fill="#7ed63e"/></g><g><circle cx="186.2" cy="158.6" r="108.8" fill="#ffda44"/><path d="M316.9,552.8H46.7c-16.5,0-29.9-13.4-29.9-29.9v-167.4c0-57.6,46.7-104.3,104.3-104.3h121.3c57.6,0,104.3,46.7,104.3,104.3v167.4c0,16.5-13.4,29.9-29.9,29.9Z" fill="#ffda44"/></g><g><circle cx="351.1" cy="249.6" r="108.8" fill="#ff7956"/><path d="M481.8,643.7H211.7c-16.5,0-29.9-13.4-29.9-29.9v-167.4c0-57.6,46.7-104.3,104.3-104.3h121.3c57.6,0,104.3,46.7,104.3,104.3v167.4c0,16.5-13.4,29.9-29.9,29.9Z" fill="#ff7956"/></g><g><path d="M219.3,262.3c-10.4,3.3-21.5,5.1-33.1,5.1-60.1,0-108.8-48.7-108.8-108.8S126.1,49.8,186.2,49.8s22.6,1.8,33.1,5.1c-43.9,14-75.7,55.1-75.7,103.7,0,48.6,31.8,89.7,75.7,103.7Z" fill="#ffd422"/><path d="M83,355.5v167.4c0,16.5,13.4,29.9,29.9,29.9H46.7c-16.5,0-29.9-13.4-29.9-29.9v-167.4c0-57.6,46.7-104.3,104.3-104.3h66.1c-57.6,0-104.3,46.7-104.3,104.3Z" fill="#ffd422"/></g><g><path d="M384.2,353.2c-10.4,3.3-21.5,5.1-33.1,5.1-60.1,0-108.8-48.7-108.8-108.8s48.7-108.8,108.8-108.8,22.6,1.8,33.1,5.1c-43.9,14-75.7,55.1-75.7,103.7,0,48.5,31.8,89.7,75.7,103.7Z" fill="#ff6243"/><path d="M247.9,446.5v167.4c0,16.5,13.4,29.9,29.9,29.9h-66.1c-16.5,0-29.9-13.4-29.9-29.9v-167.4c0-57.6,46.7-104.3,104.3-104.3h66.1c-57.6,0-104.3,46.7-104.3,104.3Z" fill="#ff6243"/></g><path d="M598.6,244.1c22.4-21.6,36.4-52,36.4-85.5s-14-65-38.4-87.5c-4.1-3.8-10.5-3.5-14.3,.6-3.8,4.1-3.5,10.5,.6,14.3,20.2,18.6,31.8,45.1,31.8,72.6,0,72.7-76.1,119.8-140.5,89.3-2.5-1.2-4.2-3.7-4.3-6.4-.8-13.7-6.8-57.4-48.6-87.9-2.2-1.6-3.4-4.4-3.1-7.1,7.7-63.1,73.5-103.4,133.8-79.8,5.2,2,11.1-.5,13.1-5.7,2-5.2-.5-11.1-5.7-13.1-70.4-27.5-147.2,17-160.3,89.6-.3,1.6-2,2.4-3.5,1.8-28.7-11.6-60.7-11.4-88.9,0-1.5,.6-3.2-.3-3.4-1.8-10-55.5-58.7-97.8-117-97.8h0c-50.8,0-96,32.3-112.5,80.3-1.8,5.3,1,11,6.3,12.9,5.3,1.8,11-1,12.9-6.3,13.7-39.8,51.2-66.6,93.3-66.6s91.9,37.8,97.9,86.5c.3,2.7-.8,5.5-3.1,7.1-28.5,20.8-46.4,53.3-48.6,87.9-.2,2.8-1.8,5.2-4.3,6.4-62.1,29.4-137.6-13.1-140.5-85.2-.2-5.6-4.9-9.9-10.5-9.7-5.6,.2-9.9,4.9-9.7,10.5,1.2,30,13.5,58,34.7,79.2-54.1,9.1-95.4,56.2-95.4,112.8v167.4c0,22.1,17.9,40,40,40h124.9v51c0,22.1,17.9,40,40,40H482.7c21.5-.5,39.1-18.4,39.1-40v-51h124.9c22.1,0,40-17.9,40-40v-167.4c0-54-37.7-99.4-88.1-111.4Zm-293.6-81.8c61.8-32.8,138.5,8.2,144.4,78.8,0,0,0,0,0,0h0c.6,7.3,.4,14.7-.4,20.2,0,0-.2,0-.3,0h.3c-2.6,26.1-18.2,53.8-43.9,70.7h0c-21,13.8-45.4,18.5-68.2,15.2h0s0,0,0,0c-11.7-1.4-26.9-6.6-39.9-15.2-63.1-41.5-58.1-134.7,8-169.7Zm196.5,451.5c0,11-9.1,19.8-19.5,19.8H211.7c-10.9,0-19.8-8.8-19.8-19.8v-167.4c0-21.1,6.8-41.1,19.8-57.8,3.4-4.4,2.6-10.8-1.8-14.2-4.4-3.4-10.8-2.6-14.2,1.8-15.7,20.2-24,44.5-24,70.2v96.2H46.7c-10.9,0-19.7-8.8-19.7-19.7v-167.4c0-52,42.2-94.2,94.2-94.2h5.1c30.3,17.7,66.7,20.9,99.1,9.6,4.3-1.5,8.9,1.1,10,5.5,4.1,17.8,12.3,34.1,23.4,47.9,3.4,4.2,1.3,10.6-4,12.1-9,2.6-17.7,6.2-25.8,10.9-4.8,2.8-6.5,9-3.7,13.8,2.8,4.8,9,6.5,13.8,3.7,22.9-13.2,43.7-12.6,50.3-12.5,1.3,0,2.5,.4,3.6,1,36.6,20.6,81,19.8,115.8,.2,1.3-.7,2.7-1.1,4.2-1,49.1,2.9,88.5,43.9,88.5,94,0,33.8,0,133.6,0,167.4Zm164.9-91c0,10.9-8.9,19.7-19.8,19.7h-124.9v-96.2c0-54.1-37.7-99.5-88.1-111.4,19.5-18.8,31.2-42.7,35-67.4,33.8,14.8,73.9,13.1,107.1-6.2,50.3,1.8,90.7,43.3,90.7,94.1v167.4h0Z"/></svg>