<?xml version="1.0" encoding="UTF-8"?><svg id="Calque_1" xmlns="http://www.w3.org/2000/svg" viewBox="0 0 693.5 693.5"><g><path d="M551.7,592.4l-24.3-122.2c-5.4-26.9-24.9-37.9-36.1-42.1-.5-.2-70.5-20.8-71-21l-22-14.8v-13.9c32.9-17.3,56.6-50.6,59.1-92.2,.3-4.1,2.9-7.8,6.8-9.1,22.9-7.9,32.9-32.6,18.9-51.5,0-.7,0-27,0-27.7,0-75.1-61.1-136.2-136.2-136.2s-136.2,61.1-136.2,136.2,0,27,0,27.7c-13.3,18-4.8,41.3,15.9,50.3,5.7,2.5,9.5,7.9,10.1,14.1,3.7,39.4,26.5,71.3,58.5,88.2v14.3l-21.4,14.5c-.5,.2-71,20.9-71.5,21.1-11.2,4.2-30.7,15.2-36.1,42.1l-24.3,122.2c-2.6,13.3,1.3,39.4,33.8,39.4h342.3c11.9,0,21-3.5,27.1-10.4,6.7-7.7,8.6-19.8,6.7-29Z" fill="#768fa8"/><g><path d="M199.2,592.4l24.3-142.9c3.3-16.7,12.2-27.3,21.1-33.9-19.6,5.8-42,12.4-42.3,12.5-11.2,4.2-30.7,15.2-36.1,42.1l-24.3,122.2c-2.6,13.3,1.3,39.4,33.8,39.4h57.4c-32.5,0-36.4-26.1-33.8-39.4Z" fill="#6a859b"/><path d="M270.3,266.2c-10-11.2-12-27.3-2.2-40.6,0-.7,0-27,0-27.7,0-65.3,46.1-120,107.5-133.2-9.2-2-18.8-3-28.7-3-75.1,0-136.2,61.1-136.2,136.2s0,27,0,27.7c-13.3,18-4.8,41.3,15.9,50.3,5.7,2.5,9.5,7.9,10.1,14.1,3.7,39.4,26.5,71.3,58.5,88.2-16.1-33.4-17-63.3-15.1-82,1.1-10.9-2.4-21.9-9.8-30Z" fill="#6a859b"/></g><path d="M346.9,53.1c-41.7,0-81.4,18-108.9,49.5-3.1,3.6-2.8,9,.8,12.1,3.6,3.1,9,2.8,12.1-.8,24.3-27.7,59.3-43.6,96-43.6,70.4,0,127.6,57.2,127.6,127.6v.6c0,29.6-.6,29.1,1.7,32.2,10.6,14.3,2.4,32.3-14.8,38.2-7.2,2.5-12.1,9-12.6,16.8-2.2,36.5-22.6,68.3-54.5,85.1-2.8,1.5-4.6,4.4-4.6,7.6v13.9c0,2.9,1.4,5.5,3.8,7.1,23,15.4,22.1,15.3,24.3,16,.2,0,66,19.5,70.6,20.9,32.5,12.3,30.7,43.4,32.8,47.2,.8,4.1,4.4,6.9,8.4,6.9s9.5-5,8.4-10.3c-1.9-3.4-1.1-44.1-43.9-60.1-.4-.1-.7-.3-70.2-20.8l-17.1-11.5v-4.3c34.6-20.2,56.6-56,59.1-96.7,0-.7,.5-1.3,1-1.5,27.1-9.4,39.7-38.7,24.7-62.2,0-6,0-20.5,0-25,0-79.8-65-144.8-144.8-144.8Z"/><path d="M545.9,519.5c-.9-4.7-5.5-7.7-10.1-6.8-4.7,.9-7.7,5.5-6.8,10.1l14.2,71.2c1.3,6.5,0,16.1-4.8,21.7-4.3,5-11.2,7.5-20.6,7.5H250.6c-4.8,0-8.6,3.9-8.6,8.6s3.9,8.6,8.6,8.6h267.3c14.5,0,25.8-4.5,33.5-13.4,9.6-11,10.6-26.4,8.7-36.3l-14.2-71.2Z"/><path d="M210.4,623.2h-34.8c-9.6,0-16.6-2.6-20.8-7.8-4.9-5.9-5.8-15-4.5-21.4l24.3-122.2c4.5-22.6,20.9-32,30.5-35.6,52.3-15.8,71-20.4,73.5-22.1l21.4-14.5c2.4-1.6,3.8-4.3,3.8-7.1v-14.3c0-3.2-1.8-6.1-4.6-7.6-30.6-16.2-50.8-46.7-54-81.4-.9-9.4-6.7-17.5-15.3-21.2-15.5-6.7-22.4-23.7-12.4-37.3,6.3-8.5-6.5-42.1,12.8-84.9,1.9-4.3,0-9.4-4.3-11.4-4.3-2-9.4,0-11.4,4.3-14.1,31.3-12.8,53.7-12.6,84.2-14.2,22.3-3.7,50.1,21.1,60.8,2.7,1.2,4.7,3.9,5,7,3.6,38.8,25.3,73,58.5,92.5v4.7l-16.5,11.2c-29.3,8.6-69.8,20.6-70.8,20.9-12.9,4.8-35.4,17.5-41.5,48.4l-24.3,122.2c-2,10-.9,24.7,8.1,35.6,5.3,6.4,15.5,14.1,34.1,14.1h34.8c4.8,0,8.6-3.9,8.6-8.6s-3.9-8.6-8.6-8.6Z"/></g><rect x="-82.6" y="336.3" width="858.6" height="20.9" rx="9.1" ry="9.1" transform="translate(346.7 -143.6) rotate(45)" fill="#e90006"/><rect x="-82.6" y="336.3" width="858.6" height="20.9" rx="9.1" ry="9.1" transform="translate(837.1 346.7) rotate(135)" fill="#e90006"/></svg>