<?xml version="1.0" encoding="UTF-8"?><svg id="Calque_1" xmlns="http://www.w3.org/2000/svg" viewBox="0 0 693.5 693.5"><path d="M579.8,452.2v-13.1c30.8-16.2,53-47.4,55.4-86.4,.2-3.9,2.9-7.3,6.6-8.7,21.3-7.5,30.5-30.5,17.5-48.2,0-.6,0-25.3,0-26,0-70.4-57.3-127.7-127.7-127.7s-127.7,57.3-127.7,127.7,0,25.3,0,26c-12.5,16.9-4.5,38.8,14.9,47.1,5.4,2.3,8.9,7.5,9.5,13.4,3.5,36.8,24.9,66.7,54.9,82.5v13.4l-20.1,13.6c-.3,0-33.7,8.8-53.5,14.6,2.8,8.2,.8,2.3,30.6,150.5,2.1,10.7,0,24.7-7.8,33.6-7,8-17.5,12.1-31.3,12.1,9.6,0,250,0,242.7,0,18.2,0,33-14.8,33-33v-143.8c0-6.3-3.8-12-9.7-14.2-.4-.2-44-13-60.5-17.9-9.6-2.8-13.7-7.4-26.8-15.7Z" fill="#91dc5a"/><path d="M502.9,664.7c7.7-8.9,9.9-22.9,7.8-33.6l-28.2-141.5c-2.4-11.8-7.1-21-12.8-28.1-15.9,8.9-5.5,3-60,19,2.8,8.2,.8,2.3,30.6,150.5,2.1,10.7,0,24.7-7.8,33.6-7,8-17.5,12.1-31.3,12.1h70.4c13.8,0,24.4-4.1,31.3-12.1Z" fill="#7ed63e"/><path d="M436.4,664.7c7.7-8.9,9.9-22.9,7.8-33.6l-28.2-141.5c-6.2-31.1-28.9-43.9-41.8-48.7-.5-.2-81.6-24.1-82.2-24.3l-25.4-17.2v-16.1c38.1-20,65.5-58.6,68.4-106.7,.3-4.8,3.3-9,7.8-10.6,26.5-9.1,38.1-37.7,21.9-59.6,0-.8,0-31.3,0-32,0-87-70.7-157.7-157.7-157.7S49.5,87.4,49.5,174.4s0,31.3,0,32c-15.4,20.8-5.6,47.9,18.4,58.2,6.6,2.8,11,9.2,11.7,16.3,4.2,45.6,30.7,82.5,67.8,102.2v16.6l-24.8,16.8c-87.9,26-81.6,23.9-84.7,25.2-12.8,5.2-21.2,17.7-21.2,31.5v170.8c0,18.1,14.7,32.8,32.8,32.8H405.1c13.8,0,24.4-4.1,31.3-12.1Z" fill="#ffda44"/><g><path d="M84.7,644v-192.1c0-12,6.3-23,16.4-29.1-65.4,19.3-60.4,17.7-63.2,18.8-12.8,5.2-21.2,17.7-21.2,31.5v170.8c0,18.1,14.7,32.8,32.8,32.8H117.5c-18.1,0-32.8-14.7-32.8-32.8Z" fill="#ffd422"/><path d="M118.5,253.4c-11.6-12.9-13.9-31.6-2.6-47,0-.8,0-31.3,0-32,0-75.6,53.4-138.9,124.5-154.2-10.7-2.3-21.8-3.5-33.2-3.5-87,0-157.7,70.7-157.7,157.7s0,31.3,0,32c-15.4,20.8-5.6,47.9,18.4,58.2,6.6,2.8,11,9.2,11.7,16.3,4.2,45.6,30.7,82.5,67.8,102.2-18.6-38.7-19.7-73.2-17.5-94.9,1.3-12.7-2.8-25.3-11.3-34.8Z" fill="#ffd422"/></g><path d="M670.4,476.4c-.9-.3-55.9-16.5-65.7-19.4l-14.9-10.1v-1.9c32.5-19.3,53-53.1,55.4-91.5,26-9.2,38.4-37.5,24.1-60.6,0-28.5,1.5-51.7-13.9-83.2-2.4-4.9-8.4-7-13.3-4.6-4.9,2.4-7,8.4-4.6,13.3,19.6,40.2,7.6,75,13.8,83.4,9.2,12.4,1.8,27.7-12.8,32.8-7.5,2.7-12.7,9.5-13.2,17.4-2,33.5-20.8,62.8-50.1,78.2-3.3,1.7-5.3,5.1-5.3,8.8,.8,9.1-2.3,16.8,4.4,21.3,21.3,14.2,20.8,14.5,23.4,15.2,.6,.2,61.2,18,66.1,19.5,1.9,.8,3.1,2.7,3.1,4.8v143.8c0,12.7-10.3,23-23,23h-106.4c-5.5,0-10,4.5-10,10s4.5,10,10,10h106.4c23.7,0,42.9-19.3,42.9-42.9v-143.8c0-10.3-6.3-19.8-16.3-23.6Z"/><path d="M490.9,666.8h-43.6c7.1-10.8,9.1-25.6,6.7-37.7-17.7-89.1-28.2-141.6-28.2-141.8,5.7-1.7,17.8-5.2,40.2-11.8,2.6-.8,2-1,22.8-14.9,6.7-4.6,3.6-12.2,4.4-21.7,0-3.7-2-7.1-5.3-8.8-28.5-15.1-46.5-42.3-49.6-74.7-.9-9.6-6.8-17.9-15.5-21.6-13.5-5.8-19.5-20.3-10.8-32.1,2.6-3.5,1.9-3.8,1.9-31.9,0-102.8,123.2-155.9,198-86,4,3.8,10.3,3.5,14.1-.5,3.8-4,3.5-10.3-.5-14.1-25.6-23.9-59-37.1-93.9-37.1-75.9,0-137.7,61.8-137.7,137.7s0,17.4,0,22.9c-13.5,21.8-3.2,48.9,20.9,59.3,1.9,.8,3.3,2.9,3.5,5.2,3.5,36.6,23.8,68.8,54.8,87.4v2.3l-14.4,9.8c-12.7,3.7-26.9,7.9-39.4,11.6-10.8-22.2-29.8-32.5-41.7-36.9-1-.4-51.6-15.3-81.3-24l-19.8-13.4v-5c40.1-23.4,65.5-64.8,68.4-112,0-.8,.5-1.6,1.2-1.8,31.4-10.8,46-44.8,28.6-72.1,0-7,0-23.9,0-29,0-92.4-75.2-167.7-167.7-167.7S39.5,81.9,39.5,174.4v.7c0,16.7,0,24.5,0,28.3-16.4,25.7-4.3,58,24.4,70.4,3.2,1.4,5.4,4.5,5.7,8.1,4.2,45,29.3,84.6,67.7,107.1v5.4l-19.1,12.9c-88.6,26.1-81.5,24-84.1,25.1-16.6,6.7-27.4,22.8-27.4,40.8v170.8c0,23.6,19.2,42.7,42.7,42.7h42.9c5.5,0,10-4.5,10-10s-4.5-10-10-10H49.5c-12.6,0-22.8-10.2-22.8-22.8v-170.8c0-9.7,5.5-18.8,16.3-22.8,79.9-24.1,82-23.5,85.1-25.6l24.8-16.8c2.7-1.9,4.4-4.9,4.4-8.3v-16.6c0-3.7-2-7.1-5.3-8.8-35.4-18.8-58.8-54-62.5-94.3-1-10.9-7.8-20.2-17.7-24.5-17.9-7.8-26-27.4-14.3-43.1,1.4-1.8,2-4.1,1.9-6.3,0-2.4,0-31.1,0-31.7C59.4,92.9,125.7,26.7,207.2,26.7s147.7,66.3,147.7,147.7c0,33.9-.8,34.4,1.9,38,12.3,16.6,2.7,37.4-17.1,44.2-8.3,2.9-14,10.5-14.5,19.4-2.6,42.2-26.2,79-63.1,98.5-3.3,1.7-5.3,5.1-5.3,8.8v16.1c0,3.3,1.6,6.4,4.4,8.3,33,22.1,23.8,16.8,31,19.3,63.5,18.7,77,22.7,78.9,23.3,18.6,7,31.3,21.5,35.3,41.2l28.2,141.5c1.5,7.6,0,18.6-5.5,25.1-5,5.7-13,8.7-23.8,8.7H138.8c-5.5,0-10,4.5-10,10s4.5,10,10,10H490.9c5.5,0,10-4.5,10-10s-4.5-10-10-10Z"/></svg>