<?xml version="1.0" encoding="UTF-8"?><svg id="Calque_1" xmlns="http://www.w3.org/2000/svg" viewBox="0 0 693.5 693.5"><g><g><circle cx="279" cy="165" r="58.2" fill="#91dc5a"/><path d="M348.9,375.7H204.5c-8.8,0-16-7.1-16-16v-89.5c0-30.8,25-55.8,55.8-55.8h64.8c30.8,0,55.8,25,55.8,55.8v89.5c0,8.8-7.2,16-16,16Z" fill="#91dc5a"/></g><g><path d="M296.7,220.4c-5.6,1.8-11.5,2.7-17.7,2.7-32.1,0-58.2-26-58.2-58.2s26-58.2,58.2-58.2,12.1,1,17.7,2.7c-23.5,7.5-40.5,29.5-40.5,55.4,0,26,17,47.9,40.5,55.4Z" fill="#7ed63e"/><path d="M223.8,270.3v89.5c0,8.8,7.1,16,16,16h-35.4c-8.8,0-16-7.1-16-16v-89.5c0-30.8,25-55.8,55.8-55.8h35.4c-30.8,0-55.8,25-55.8,55.8Z" fill="#7ed63e"/></g><g><circle cx="102.7" cy="165" r="58.2" fill="#ffda44"/><path d="M172.5,375.7H28.1c-8.8,0-16-7.1-16-16v-89.5c0-30.8,25-55.8,55.8-55.8h64.8c30.8,0,55.8,25,55.8,55.8v89.5c0,8.8-7.2,16-16,16Z" fill="#ffda44"/></g><g><circle cx="190.8" cy="213.6" r="58.2" fill="#ff7956"/><path d="M260.7,424.4H116.3c-8.8,0-16-7.1-16-16v-89.5c0-30.8,25-55.8,55.8-55.8h64.8c30.8,0,55.8,25,55.8,55.8v89.5c0,8.8-7.2,16-16,16Z" fill="#ff7956"/></g><g><path d="M120.4,220.4c-5.6,1.8-11.5,2.7-17.7,2.7-32.1,0-58.2-26-58.2-58.2s26-58.2,58.2-58.2,12.1,1,17.7,2.7c-23.5,7.5-40.5,29.5-40.5,55.4,0,26,17,47.9,40.5,55.4Z" fill="#ffd422"/><path d="M47.5,270.3v89.5c0,8.8,7.2,16,16,16H28.1c-8.8,0-16-7.1-16-16v-89.5c0-30.8,25-55.8,55.8-55.8h35.4c-30.8,0-55.8,25-55.8,55.8Z" fill="#ffd422"/></g><g><path d="M208.5,269.1c-5.6,1.8-11.5,2.7-17.7,2.7-32.1,0-58.2-26-58.2-58.2s26-58.2,58.2-58.2,12.1,1,17.7,2.7c-23.5,7.5-40.5,29.5-40.5,55.4,0,26,17,47.9,40.5,55.4Z" fill="#ff6243"/><path d="M135.7,318.9v89.5c0,8.8,7.1,16,16,16h-35.4c-8.8,0-16-7.1-16-16v-89.5c0-30.8,25-55.8,55.8-55.8h35.4c-30.8,0-55.8,25-55.8,55.8Z" fill="#ff6243"/></g><path d="M323.1,210.7c12-11.6,19.5-27.8,19.5-45.7s-7.5-34.8-20.5-46.8c-2.2-2-5.6-1.9-7.6,.3-2,2.2-1.9,5.6,.3,7.6,10.8,10,17,24.1,17,38.8,0,38.8-40.7,64-75.1,47.8-1.3-.6-2.2-2-2.3-3.4-.4-7.3-3.6-30.7-26-47-1.2-.9-1.8-2.3-1.7-3.8,4.1-33.7,39.3-55.3,71.5-42.7,2.8,1.1,5.9-.3,7-3.1,1.1-2.8-.3-5.9-3.1-7-37.6-14.7-78.7,9.1-85.7,47.9-.2,.8-1.1,1.3-1.8,1-15.3-6.2-32.4-6.1-47.5,0-.8,.3-1.7-.1-1.8-1-5.3-29.7-31.4-52.3-62.6-52.3h0c-27.1,0-51.3,17.3-60.1,42.9-1,2.8,.5,5.9,3.4,6.9,2.8,1,5.9-.5,6.9-3.4,7.3-21.3,27.4-35.6,49.9-35.6s49.1,20.2,52.3,46.2c.2,1.5-.4,2.9-1.6,3.8-15.2,11.1-24.8,28.5-26,47,0,1.5-1,2.8-2.3,3.4-33.2,15.7-73.6-7-75.1-45.6-.1-3-2.6-5.3-5.6-5.2-3,.1-5.3,2.6-5.2,5.6,.7,16,7.2,31,18.6,42.3-28.9,4.9-51,30-51,60.3v89.5c0,11.8,9.6,21.4,21.4,21.4H94.9v27.2c0,11.8,9.6,21.4,21.4,21.4h144.9c11.5-.3,20.9-9.9,20.9-21.4v-27.2h66.8c11.8,0,21.4-9.6,21.4-21.4v-89.5c0-28.9-20.1-53.2-47.1-59.5Zm-156.9-43.7c33-17.5,74,4.4,77.2,42.1,0,0,0,0,0,0h0c.3,3.9,.2,7.9-.2,10.8,0,0-.1,0-.2,0h.2c-1.4,14-9.8,28.8-23.5,37.8h0c-11.2,7.4-24.3,9.9-36.5,8.1h0s0,0,0,0c-6.3-.7-14.4-3.5-21.3-8.1-33.7-22.2-31.1-72,4.3-90.7Zm105,241.4c0,5.9-4.9,10.6-10.4,10.6H116.3c-5.8,0-10.6-4.7-10.6-10.6v-89.5c0-11.3,3.7-22,10.6-30.9,1.8-2.4,1.4-5.8-1-7.6-2.4-1.8-5.8-1.4-7.6,1-8.4,10.8-12.8,23.8-12.8,37.5v51.4H28.1c-5.8,0-10.6-4.7-10.6-10.6v-89.5c0-27.8,22.5-50.3,50.3-50.3h2.7c16.2,9.5,35.7,11.1,53,5.1,2.3-.8,4.8,.6,5.3,3,2.2,9.5,6.6,18.2,12.5,25.6,1.8,2.3,.7,5.7-2.1,6.5-4.8,1.4-9.4,3.3-13.8,5.8-2.6,1.5-3.5,4.8-2,7.4,1.5,2.6,4.8,3.5,7.4,2,12.2-7.1,23.4-6.7,26.9-6.7,.7,0,1.3,.2,1.9,.5,19.6,11,43.3,10.6,61.9,0,.7-.4,1.5-.6,2.2-.5,26.3,1.6,47.3,23.4,47.3,50.3,0,18.1,0,71.4,0,89.5Zm88.2-48.6c0,5.8-4.7,10.6-10.6,10.6h-66.8v-51.4c0-28.9-20.1-53.2-47.1-59.5,10.4-10,16.7-22.8,18.7-36.1,18.1,7.9,39.5,7,57.3-3.3,26.9,1,48.5,23.2,48.5,50.3v89.5h0Z"/></g><g><g><circle cx="595.5" cy="165" r="58.2" fill="#91dc5a"/><path d="M665.4,375.7h-144.4c-8.8,0-16-7.1-16-16v-89.5c0-30.8,25-55.8,55.8-55.8h64.8c30.8,0,55.8,25,55.8,55.8v89.5c0,8.8-7.2,16-16,16Z" fill="#91dc5a"/></g><g><path d="M613.2,220.4c-5.6,1.8-11.5,2.7-17.7,2.7-32.1,0-58.2-26-58.2-58.2s26-58.2,58.2-58.2,12.1,1,17.7,2.7c-23.5,7.5-40.5,29.5-40.5,55.4,0,26,17,47.9,40.5,55.4Z" fill="#7ed63e"/><path d="M540.3,270.3v89.5c0,8.8,7.1,16,16,16h-35.4c-8.8,0-16-7.1-16-16v-89.5c0-30.8,25-55.8,55.8-55.8h35.4c-30.8,0-55.8,25-55.8,55.8Z" fill="#7ed63e"/></g><g><circle cx="419.2" cy="165" r="58.2" fill="#ffda44"/><path d="M489,375.7h-144.4c-8.8,0-16-7.1-16-16v-89.5c0-30.8,25-55.8,55.8-55.8h64.8c30.8,0,55.8,25,55.8,55.8v89.5c0,8.8-7.2,16-16,16Z" fill="#ffda44"/></g><g><circle cx="507.3" cy="213.6" r="58.2" fill="#ff7956"/><path d="M577.2,424.4h-144.4c-8.8,0-16-7.1-16-16v-89.5c0-30.8,25-55.8,55.8-55.8h64.8c30.8,0,55.8,25,55.8,55.8v89.5c0,8.8-7.2,16-16,16Z" fill="#ff7956"/></g><g><path d="M436.8,220.4c-5.6,1.8-11.5,2.7-17.7,2.7-32.1,0-58.2-26-58.2-58.2s26-58.2,58.2-58.2,12.1,1,17.7,2.7c-23.5,7.5-40.5,29.5-40.5,55.4,0,26,17,47.9,40.5,55.4Z" fill="#ffd422"/><path d="M364,270.3v89.5c0,8.8,7.2,16,16,16h-35.4c-8.8,0-16-7.1-16-16v-89.5c0-30.8,25-55.8,55.8-55.8h35.4c-30.8,0-55.8,25-55.8,55.8Z" fill="#ffd422"/></g><g><path d="M525,269.1c-5.6,1.8-11.5,2.7-17.7,2.7-32.1,0-58.2-26-58.2-58.2s26-58.2,58.2-58.2,12.1,1,17.7,2.7c-23.5,7.5-40.5,29.5-40.5,55.4,0,26,17,47.9,40.5,55.4Z" fill="#ff6243"/><path d="M452.2,318.9v89.5c0,8.8,7.1,16,16,16h-35.4c-8.8,0-16-7.1-16-16v-89.5c0-30.8,25-55.8,55.8-55.8h35.4c-30.8,0-55.8,25-55.8,55.8Z" fill="#ff6243"/></g><path d="M639.6,210.7c12-11.6,19.5-27.8,19.5-45.7s-7.5-34.8-20.5-46.8c-2.2-2-5.6-1.9-7.6,.3-2,2.2-1.9,5.6,.3,7.6,10.8,10,17,24.1,17,38.8,0,38.8-40.7,64-75.1,47.8-1.3-.6-2.2-2-2.3-3.4-.4-7.3-3.6-30.7-26-47-1.2-.9-1.8-2.3-1.7-3.8,4.1-33.7,39.3-55.3,71.5-42.7,2.8,1.1,5.9-.3,7-3.1,1.1-2.8-.3-5.9-3.1-7-37.6-14.7-78.7,9.1-85.7,47.9-.2,.8-1.1,1.3-1.8,1-15.3-6.2-32.4-6.1-47.5,0-.8,.3-1.7-.1-1.8-1-5.3-29.7-31.4-52.3-62.6-52.3h0c-27.1,0-51.3,17.3-60.1,42.9-1,2.8,.5,5.9,3.4,6.9,2.8,1,5.9-.5,6.9-3.4,7.3-21.3,27.4-35.6,49.9-35.6s49.1,20.2,52.3,46.2c.2,1.5-.4,2.9-1.6,3.8-15.2,11.1-24.8,28.5-26,47,0,1.5-1,2.8-2.3,3.4-33.2,15.7-73.6-7-75.1-45.6-.1-3-2.6-5.3-5.6-5.2-3,.1-5.3,2.6-5.2,5.6,.7,16,7.2,31,18.6,42.3-28.9,4.9-51,30-51,60.3v89.5c0,11.8,9.6,21.4,21.4,21.4h66.8v27.2c0,11.8,9.6,21.4,21.4,21.4h144.9c11.5-.3,20.9-9.9,20.9-21.4v-27.2h66.8c11.8,0,21.4-9.6,21.4-21.4v-89.5c0-28.9-20.1-53.2-47.1-59.5Zm-156.9-43.7c33-17.5,74,4.4,77.2,42.1,0,0,0,0,0,0h0c.3,3.9,.2,7.9-.2,10.8,0,0-.1,0-.2,0h.2c-1.4,14-9.8,28.8-23.5,37.8h0c-11.2,7.4-24.3,9.9-36.5,8.1h0s0,0,0,0c-6.3-.7-14.4-3.5-21.3-8.1-33.7-22.2-31.1-72,4.3-90.7Zm105,241.4c0,5.9-4.9,10.6-10.4,10.6h-144.5c-5.8,0-10.6-4.7-10.6-10.6v-89.5c0-11.3,3.7-22,10.6-30.9,1.8-2.4,1.4-5.8-1-7.6-2.4-1.8-5.8-1.4-7.6,1-8.4,10.8-12.8,23.8-12.8,37.5v51.4h-66.8c-5.8,0-10.6-4.7-10.6-10.6v-89.5c0-27.8,22.5-50.3,50.3-50.3h2.7c16.2,9.5,35.7,11.1,53,5.1,2.3-.8,4.8,.6,5.3,3,2.2,9.5,6.6,18.2,12.5,25.6,1.8,2.3,.7,5.7-2.1,6.5-4.8,1.4-9.4,3.3-13.8,5.8-2.6,1.5-3.5,4.8-2,7.4,1.5,2.6,4.8,3.5,7.4,2,12.2-7.1,23.4-6.7,26.9-6.7,.7,0,1.3,.2,1.9,.5,19.6,11,43.3,10.6,61.9,0,.7-.4,1.5-.6,2.2-.5,26.3,1.6,47.3,23.4,47.3,50.3,0,18.1,0,71.4,0,89.5Zm88.2-48.6c0,5.8-4.7,10.6-10.6,10.6h-66.8v-51.4c0-28.9-20.1-53.2-47.1-59.5,10.4-10,16.7-22.8,18.7-36.1,18.1,7.9,39.5,7,57.3-3.3,26.9,1,48.5,23.2,48.5,50.3v89.5h0Z"/></g><g><g><circle cx="279" cy="327.3" r="58.2" fill="#ffda44"/><path d="M348.9,538H204.5c-8.8,0-16-7.1-16-16v-89.5c0-30.8,25-55.8,55.8-55.8h64.8c30.8,0,55.8,25,55.8,55.8v89.5c0,8.8-7.2,16-16,16Z" fill="#ffda44"/></g><g><path d="M296.7,382.7c-5.6,1.8-11.5,2.7-17.7,2.7-32.1,0-58.2-26-58.2-58.2s26-58.2,58.2-58.2,12.1,1,17.7,2.7c-23.5,7.5-40.5,29.5-40.5,55.4,0,26,17,47.9,40.5,55.4Z" fill="#ffd422"/><path d="M223.8,432.6v89.5c0,8.8,7.1,16,16,16h-35.4c-8.8,0-16-7.1-16-16v-89.5c0-30.8,25-55.8,55.8-55.8h35.4c-30.8,0-55.8,25-55.8,55.8Z" fill="#ffd422"/></g><g><circle cx="102.7" cy="327.3" r="58.2" fill="#91dc5a"/><path d="M172.5,538H28.1c-8.8,0-16-7.1-16-16v-89.5c0-30.8,25-55.8,55.8-55.8h64.8c30.8,0,55.8,25,55.8,55.8v89.5c0,8.8-7.2,16-16,16Z" fill="#91dc5a"/></g><g><circle cx="190.8" cy="375.9" r="58.2" fill="#ff7956"/><path d="M260.7,586.7H116.3c-8.8,0-16-7.1-16-16v-89.5c0-30.8,25-55.8,55.8-55.8h64.8c30.8,0,55.8,25,55.8,55.8v89.5c0,8.8-7.2,16-16,16Z" fill="#ff7956"/></g><g><path d="M120.4,382.7c-5.6,1.8-11.5,2.7-17.7,2.7-32.1,0-58.2-26-58.2-58.2s26-58.2,58.2-58.2,12.1,1,17.7,2.7c-23.5,7.5-40.5,29.5-40.5,55.4,0,26,17,47.9,40.5,55.4Z" fill="#7ed63e"/><path d="M47.5,432.6v89.5c0,8.8,7.2,16,16,16H28.1c-8.8,0-16-7.1-16-16v-89.5c0-30.8,25-55.8,55.8-55.8h35.4c-30.8,0-55.8,25-55.8,55.8Z" fill="#7ed63e"/></g><g><path d="M208.5,431.4c-5.6,1.8-11.5,2.7-17.7,2.7-32.1,0-58.2-26-58.2-58.2s26-58.2,58.2-58.2,12.1,1,17.7,2.7c-23.5,7.5-40.5,29.5-40.5,55.4,0,26,17,47.9,40.5,55.4Z" fill="#ff6243"/><path d="M135.7,481.2v89.5c0,8.8,7.1,16,16,16h-35.4c-8.8,0-16-7.1-16-16v-89.5c0-30.8,25-55.8,55.8-55.8h35.4c-30.8,0-55.8,25-55.8,55.8Z" fill="#ff6243"/></g><path d="M323.1,373c12-11.6,19.5-27.8,19.5-45.7s-7.5-34.8-20.5-46.8c-2.2-2-5.6-1.9-7.6,.3-2,2.2-1.9,5.6,.3,7.6,10.8,10,17,24.1,17,38.8,0,38.8-40.7,64-75.1,47.8-1.3-.6-2.2-2-2.3-3.4-.4-7.3-3.6-30.7-26-47-1.2-.9-1.8-2.3-1.7-3.8,4.1-33.7,39.3-55.3,71.5-42.7,2.8,1.1,5.9-.3,7-3.1,1.1-2.8-.3-5.9-3.1-7-37.6-14.7-78.7,9.1-85.7,47.9-.2,.8-1.1,1.3-1.8,1-15.3-6.2-32.4-6.1-47.5,0-.8,.3-1.7-.1-1.8-1-5.3-29.7-31.4-52.3-62.6-52.3h0c-27.1,0-51.3,17.3-60.1,42.9-1,2.8,.5,5.9,3.4,6.9,2.8,1,5.9-.5,6.9-3.4,7.3-21.3,27.4-35.6,49.9-35.6s49.1,20.2,52.3,46.2c.2,1.5-.4,2.9-1.6,3.8-15.2,11.1-24.8,28.5-26,47,0,1.5-1,2.8-2.3,3.4-33.2,15.7-73.6-7-75.1-45.6-.1-3-2.6-5.3-5.6-5.2-3,.1-5.3,2.6-5.2,5.6,.7,16,7.2,31,18.6,42.3-28.9,4.9-51,30-51,60.3v89.5c0,11.8,9.6,21.4,21.4,21.4H94.9v27.2c0,11.8,9.6,21.4,21.4,21.4h144.9c11.5-.3,20.9-9.9,20.9-21.4v-27.2h66.8c11.8,0,21.4-9.6,21.4-21.4v-89.5c0-28.9-20.1-53.2-47.1-59.5Zm-156.9-43.7c33-17.5,74,4.4,77.2,42.1,0,0,0,0,0,0h0c.3,3.9,.2,7.9-.2,10.8,0,0-.1,0-.2,0h.2c-1.4,14-9.8,28.8-23.5,37.8h0c-11.2,7.4-24.3,9.9-36.5,8.1h0s0,0,0,0c-6.3-.7-14.4-3.5-21.3-8.1-33.7-22.2-31.1-72,4.3-90.7Zm105,241.4c0,5.9-4.9,10.6-10.4,10.6H116.3c-5.8,0-10.6-4.7-10.6-10.6v-89.5c0-11.3,3.7-22,10.6-30.9,1.8-2.4,1.4-5.8-1-7.6-2.4-1.8-5.8-1.4-7.6,1-8.4,10.8-12.8,23.8-12.8,37.5v51.4H28.1c-5.8,0-10.6-4.7-10.6-10.6v-89.5c0-27.8,22.5-50.3,50.3-50.3h2.7c16.2,9.5,35.7,11.1,53,5.1,2.3-.8,4.8,.6,5.3,3,2.2,9.5,6.6,18.2,12.5,25.6,1.8,2.3,.7,5.7-2.1,6.5-4.8,1.4-9.4,3.3-13.8,5.8-2.6,1.5-3.5,4.8-2,7.4,1.5,2.6,4.8,3.5,7.4,2,12.2-7.1,23.4-6.7,26.9-6.7,.7,0,1.3,.2,1.9,.5,19.6,11,43.3,10.6,61.9,0,.7-.4,1.5-.6,2.2-.5,26.3,1.6,47.3,23.4,47.3,50.3,0,18.1,0,71.4,0,89.5Zm88.2-48.6c0,5.8-4.7,10.6-10.6,10.6h-66.8v-51.4c0-28.9-20.1-53.2-47.1-59.5,10.4-10,16.7-22.8,18.7-36.1,18.1,7.9,39.5,7,57.3-3.3,26.9,1,48.5,23.2,48.5,50.3v89.5h0Z"/></g><g><g><circle cx="595.5" cy="327.3" r="58.2" fill="#ffda44"/><path d="M665.4,538h-144.4c-8.8,0-16-7.1-16-16v-89.5c0-30.8,25-55.8,55.8-55.8h64.8c30.8,0,55.8,25,55.8,55.8v89.5c0,8.8-7.2,16-16,16Z" fill="#ffda44"/></g><g><path d="M613.2,382.7c-5.6,1.8-11.5,2.7-17.7,2.7-32.1,0-58.2-26-58.2-58.2s26-58.2,58.2-58.2,12.1,1,17.7,2.7c-23.5,7.5-40.5,29.5-40.5,55.4,0,26,17,47.9,40.5,55.4Z" fill="#ffd422"/><path d="M540.3,432.6v89.5c0,8.8,7.1,16,16,16h-35.4c-8.8,0-16-7.1-16-16v-89.5c0-30.8,25-55.8,55.8-55.8h35.4c-30.8,0-55.8,25-55.8,55.8Z" fill="#ffd422"/></g><g><circle cx="419.2" cy="327.3" r="58.2" fill="#91dc5a"/><path d="M489,538h-144.4c-8.8,0-16-7.1-16-16v-89.5c0-30.8,25-55.8,55.8-55.8h64.8c30.8,0,55.8,25,55.8,55.8v89.5c0,8.8-7.2,16-16,16Z" fill="#91dc5a"/></g><g><circle cx="507.3" cy="375.9" r="58.2" fill="#ff7956"/><path d="M577.2,586.7h-144.4c-8.8,0-16-7.1-16-16v-89.5c0-30.8,25-55.8,55.8-55.8h64.8c30.8,0,55.8,25,55.8,55.8v89.5c0,8.8-7.2,16-16,16Z" fill="#ff7956"/></g><g><path d="M436.8,382.7c-5.6,1.8-11.5,2.7-17.7,2.7-32.1,0-58.2-26-58.2-58.2s26-58.2,58.2-58.2,12.1,1,17.7,2.7c-23.5,7.5-40.5,29.5-40.5,55.4,0,26,17,47.9,40.5,55.4Z" fill="#7ed63e"/><path d="M364,432.6v89.5c0,8.8,7.2,16,16,16h-35.4c-8.8,0-16-7.1-16-16v-89.5c0-30.8,25-55.8,55.8-55.8h35.4c-30.8,0-55.8,25-55.8,55.8Z" fill="#7ed63e"/></g><g><path d="M525,431.4c-5.6,1.8-11.5,2.7-17.7,2.7-32.1,0-58.2-26-58.2-58.2s26-58.2,58.2-58.2,12.1,1,17.7,2.7c-23.5,7.5-40.5,29.5-40.5,55.4,0,26,17,47.9,40.5,55.4Z" fill="#ff6243"/><path d="M452.2,481.2v89.5c0,8.8,7.1,16,16,16h-35.4c-8.8,0-16-7.1-16-16v-89.5c0-30.8,25-55.8,55.8-55.8h35.4c-30.8,0-55.8,25-55.8,55.8Z" fill="#ff6243"/></g><path d="M639.6,373c12-11.6,19.5-27.8,19.5-45.7s-7.5-34.8-20.5-46.8c-2.2-2-5.6-1.9-7.6,.3-2,2.2-1.9,5.6,.3,7.6,10.8,10,17,24.1,17,38.8,0,38.8-40.7,64-75.1,47.8-1.3-.6-2.2-2-2.3-3.4-.4-7.3-3.6-30.7-26-47-1.2-.9-1.8-2.3-1.7-3.8,4.1-33.7,39.3-55.3,71.5-42.7,2.8,1.1,5.9-.3,7-3.1,1.1-2.8-.3-5.9-3.1-7-37.6-14.7-78.7,9.1-85.7,47.9-.2,.8-1.1,1.3-1.8,1-15.3-6.2-32.4-6.1-47.5,0-.8,.3-1.7-.1-1.8-1-5.3-29.7-31.4-52.3-62.6-52.3h0c-27.1,0-51.3,17.3-60.1,42.9-1,2.8,.5,5.9,3.4,6.9,2.8,1,5.9-.5,6.9-3.4,7.3-21.3,27.4-35.6,49.9-35.6s49.1,20.2,52.3,46.2c.2,1.5-.4,2.9-1.6,3.8-15.2,11.1-24.8,28.5-26,47,0,1.5-1,2.8-2.3,3.4-33.2,15.7-73.6-7-75.1-45.6-.1-3-2.6-5.3-5.6-5.2-3,.1-5.3,2.6-5.2,5.6,.7,16,7.2,31,18.6,42.3-28.9,4.9-51,30-51,60.3v89.5c0,11.8,9.6,21.4,21.4,21.4h66.8v27.2c0,11.8,9.6,21.4,21.4,21.4h144.9c11.5-.3,20.9-9.9,20.9-21.4v-27.2h66.8c11.8,0,21.4-9.6,21.4-21.4v-89.5c0-28.9-20.1-53.2-47.1-59.5Zm-156.9-43.7c33-17.5,74,4.4,77.2,42.1,0,0,0,0,0,0h0c.3,3.9,.2,7.9-.2,10.8,0,0-.1,0-.2,0h.2c-1.4,14-9.8,28.8-23.5,37.8h0c-11.2,7.4-24.3,9.9-36.5,8.1h0s0,0,0,0c-6.3-.7-14.4-3.5-21.3-8.1-33.7-22.2-31.1-72,4.3-90.7Zm105,241.4c0,5.9-4.9,10.6-10.4,10.6h-144.5c-5.8,0-10.6-4.7-10.6-10.6v-89.5c0-11.3,3.7-22,10.6-30.9,1.8-2.4,1.4-5.8-1-7.6-2.4-1.8-5.8-1.4-7.6,1-8.4,10.8-12.8,23.8-12.8,37.5v51.4h-66.8c-5.8,0-10.6-4.7-10.6-10.6v-89.5c0-27.8,22.5-50.3,50.3-50.3h2.7c16.2,9.5,35.7,11.1,53,5.1,2.3-.8,4.8,.6,5.3,3,2.2,9.5,6.6,18.2,12.5,25.6,1.8,2.3,.7,5.7-2.1,6.5-4.8,1.4-9.4,3.3-13.8,5.8-2.6,1.5-3.5,4.8-2,7.4,1.5,2.6,4.8,3.5,7.4,2,12.2-7.1,23.4-6.7,26.9-6.7,.7,0,1.3,.2,1.9,.5,19.6,11,43.3,10.6,61.9,0,.7-.4,1.5-.6,2.2-.5,26.3,1.6,47.3,23.4,47.3,50.3,0,18.1,0,71.4,0,89.5Zm88.2-48.6c0,5.8-4.7,10.6-10.6,10.6h-66.8v-51.4c0-28.9-20.1-53.2-47.1-59.5,10.4-10,16.7-22.8,18.7-36.1,18.1,7.9,39.5,7,57.3-3.3,26.9,1,48.5,23.2,48.5,50.3v89.5h0Z"/></g></svg>