<?xml version="1.0" encoding="UTF-8"?><svg id="Calque_1" xmlns="http://www.w3.org/2000/svg" viewBox="0 0 366.5 518.6"><path d="M239.4,474.6v13.1c0,1.2,0,2.3-.2,3.4-1.7,15.5-14.8,27.5-30.7,27.5h-47.4c-15.9,0-29-12-30.7-27.5-.1-1.1-.2-2.3-.2-3.4v-13.1c4.1,1.8,8.6,2.8,13.4,2.8h82.4c4.8,0,9.3-1,13.4-2.8Z" fill="#50758d"/><g><path d="M183.3,67.6c-4.3,0-7.7-3.5-7.7-7.7V7.7c0-4.3,3.5-7.7,7.7-7.7s7.7,3.5,7.7,7.7V59.8c0,4.3-3.5,7.7-7.7,7.7h0Z" fill="#ffe7c9"/><path d="M44.6,125c-2,0-4-.8-5.5-2.3L2.3,85.9c-3-3-3-7.9,0-10.9,3-3,7.9-3,10.9,0l36.8,36.8c3,3,3,7.9,0,10.9-1.5,1.5-3.5,2.3-5.5,2.3Z" fill="#ffe7c9"/><path d="M322,125c-2,0-4-.8-5.5-2.3-3-3-3-7.9,0-10.9l36.8-36.8c3-3,7.9-3,10.9,0,3,3,3,7.9,0,10.9l-36.8,36.8c-1.5,1.5-3.5,2.3-5.5,2.3Z" fill="#ffe7c9"/></g><path d="M184.8,467.1s-50.5,9.3-54.6,7.5v13.1c0,1.2,0,2.3,.2,3.4,1.7,15.5,14.8,27.5,30.7,27.5h13.4c-13.4,0-24.9-8.6-29.1-20.6-.7-2,.8-4.2,2.9-4.2h77.7c4.7,0,9.2-1,13.2-2.8,.1-1.1,.2-2.3,.2-3.4v-13.1c-4.1,1.8-54.6-7.5-54.6-7.5Z" fill="#2b597f"/><path d="M259,444.4c0,13.4-8,25-19.6,30.1-4.1,1.8-8.6,2.8-13.4,2.8h-82.4c-4.8,0-9.3-1-13.4-2.8-11.5-5.1-19.6-16.7-19.6-30.1,0,0-.5-48.2-.6-49.4h0s74.8-10.3,74.8-10.3l73.9,10.3,.3,49.5Z" fill="#50758d"/><path d="M169.4,477.4h-25.8c-4.8,0-9.3-1-13.4-2.8-11.5-5.1-19.6-16.7-19.6-30.1,0,0-.5-48.2-.6-49.4h0s25.8,0,25.8,0h0c0,1.3,.6,49.5,.6,49.5,0,13.4,8,25,19.6,30.1,4.1,1.8,8.6,2.8,13.4,2.8Z" fill="#2b597f"/><path d="M259,443.9h-26.3c-4.3,0-7.7-3.5-7.7-7.7s3.5-7.7,7.7-7.7h26.2v7.7s0,7.7,0,7.7Z" fill="#2b597f"/><path d="M204.4,436.2c0,4.3-3.5,7.7-7.7,7.7H110.6l-.2-15.5h86.2c4.3,0,7.7,3.5,7.7,7.7Z" fill="#2b597f"/><path d="M183.4,93.2h0c-79.6-1.2-146.5,68.1-145.1,147.1,0,40.3,16,76.8,41.8,103.4,15.2,15.7,28.4,30.2,29.9,51.2l148.7,.2c.8-21.7,13.1-36.3,28.5-52.3,25.4-26.5,41-62.7,41-102.5,0-81.2-64.8-147-144.8-147.1h0Z" fill="#ffe885"/><path d="M258.7,395.2h0s-148.7-.2-148.7-.2c-1.5-21-14.7-35.5-29.9-51.2-25.9-26.6-41.8-63.1-41.8-103.4-1.4-79,65.5-148.3,145.1-147.1,4,0,8,.2,11.9,.5-73.3,6.4-132.6,72.3-131.2,146.6,0,40.3,16,76.8,41.8,103.4,15.2,15.7,28.4,30.2,29.9,51.2l122.9,.2Z" fill="#ffce88"/></svg>