<?xml version="1.0" encoding="UTF-8"?><svg id="Calque_1" xmlns="http://www.w3.org/2000/svg" viewBox="0 0 1153.6 1153.6"><g><circle cx="447.2" cy="123" r="63" fill="#c8effe"/><path d="M475.2,66.6c4.2,8.4,6.6,18,6.6,28,0,34.8-28.2,63-63,63s-19.6-2.4-28-6.6c10.3,20.7,31.7,35,56.4,35s63-28.2,63-63c0-24.7-14.2-46.1-35-56.4Z" fill="#99e6fc"/><path d="M549.9,410.8l-15.8-190.1c-1.6-19.6-18-34.7-37.7-34.7h-98.5c-19.7,0-36.1,15.1-37.7,34.7l-15.8,190.1c-1.2,14.7,10.4,27.3,25.1,27.3h14.6v81.9c0,13.9,11.3,25.2,25.2,25.2h75.6c13.9,0,25.2-11.3,25.2-25.2v-81.9h14.6c14.8,0,26.3-12.6,25.1-27.3Z" fill="#c8effe"/><path d="M549.9,410.8l-15.8-190.1c-1.6-19.6-18-34.7-37.7-34.7h-63c19.7,0,36.1,15.1,37.7,34.7l15.8,190.1c1.2,14.7-10.4,27.3-25.1,27.3h0c-8.1,0-14.6,6.5-14.6,14.6v67.3c0,13.9-11.3,25.2-25.2,25.2h63c13.9,0,25.2-11.3,25.2-25.2v-81.9h14.6c14.8,0,26.3-12.6,25.1-27.3Z" fill="#99e6fc"/></g><g><g><circle cx="171.2" cy="123" r="63" fill="#c8effe"/><path d="M199.2,66.6c4.2,8.4,6.6,18,6.6,28,0,34.8-28.2,63-63,63s-19.6-2.4-28-6.6c10.3,20.7,31.7,35,56.4,35s63-28.2,63-63-14.2-46.1-35-56.4Z" fill="#99e6fc"/><path d="M273.9,410.8l-15.8-190.1c-1.6-19.6-18-34.7-37.7-34.7H121.9c-19.7,0-36.1,15.1-37.7,34.7l-15.8,190.1c-1.2,14.7,10.4,27.3,25.1,27.3h14.6v81.9c0,13.9,11.3,25.2,25.2,25.2h75.6c13.9,0,25.2-11.3,25.2-25.2v-81.9h14.6c14.7,0,26.3-12.6,25.1-27.3Z" fill="#c8effe"/><path d="M273.9,410.8l-15.8-190.1c-1.6-19.6-18-34.7-37.7-34.7h-63c19.7,0,36.1,15.1,37.7,34.7l15.8,190.1c1.2,14.7-10.4,27.3-25.1,27.3h0c-8.1,0-14.6,6.5-14.6,14.6v67.3c0,13.9-11.3,25.2-25.2,25.2h63c13.9,0,25.2-11.3,25.2-25.2v-81.9h14.6c14.7,0,26.3-12.6,25.1-27.3Z" fill="#99e6fc"/></g><circle cx="171.2" cy="123" r="63" fill="none" stroke="#000" stroke-linecap="round" stroke-linejoin="round" stroke-width="15"/><path d="M81.3,255.6l2.9-34.9c1.6-19.6,18-34.7,37.7-34.7h98.5c19.7,0,36.1,15.1,37.7,34.7l15.8,190.1c1.2,14.7-10.4,27.3-25.1,27.3h-14.6v81.9c0,13.9-11.3,25.2-25.2,25.2h-75.6c-13.9,0-25.2-11.3-25.2-25.2v-81.9h-14.6c-14.7,0-26.4-12.6-25.1-27.3l6.9-82.7" fill="none" stroke="#000" stroke-linecap="round" stroke-linejoin="round" stroke-width="15"/></g><circle cx="447.2" cy="123" r="63" fill="none" stroke="#000" stroke-linecap="round" stroke-linejoin="round" stroke-width="15"/><path d="M549.9,410.8l-15.8-190.1c-1.6-19.6-18-34.7-37.7-34.7h-98.5c-19.7,0-36.1,15.1-37.7,34.7l-15.8,190.1c-1.2,14.7,10.4,27.3,25.1,27.3h14.6v81.9c0,13.9,11.3,25.2,25.2,25.2h75.6c13.9,0,25.2-11.3,25.2-25.2v-81.9h14.6c14.8,0,26.3-12.6,25.1-27.3Z" fill="none" stroke="#000" stroke-linecap="round" stroke-linejoin="round" stroke-width="15"/><g><g><circle cx="723.1" cy="123" r="63" fill="#c8effe"/><path d="M751.2,66.6c4.2,8.4,6.6,18,6.6,28,0,34.8-28.2,63-63,63s-19.6-2.4-28-6.6c10.3,20.7,31.7,35,56.4,35s63-28.2,63-63-14.2-46.1-35-56.4Z" fill="#99e6fc"/><path d="M825.9,410.8l-15.8-190.1c-1.6-19.6-18-34.7-37.7-34.7h-98.5c-19.7,0-36.1,15.1-37.7,34.7l-15.8,190.1c-1.2,14.7,10.4,27.3,25.1,27.3h14.6v81.9c0,13.9,11.3,25.2,25.2,25.2h75.6c13.9,0,25.2-11.3,25.2-25.2v-81.9h14.6c14.7,0,26.3-12.6,25.1-27.3Z" fill="#c8effe"/><path d="M825.9,410.8l-15.8-190.1c-1.6-19.6-18-34.7-37.7-34.7h-63c19.7,0,36.1,15.1,37.7,34.7l15.8,190.1c1.2,14.7-10.4,27.3-25.1,27.3h0c-8.1,0-14.6,6.5-14.6,14.6v67.3c0,13.9-11.3,25.2-25.2,25.2h63c13.9,0,25.2-11.3,25.2-25.2v-81.9h14.6c14.7,0,26.3-12.6,25.1-27.3Z" fill="#99e6fc"/></g><circle cx="723.1" cy="123" r="63" fill="none" stroke="#000" stroke-linecap="round" stroke-linejoin="round" stroke-width="15"/><path d="M825.9,410.8l-15.8-190.1c-1.6-19.6-18-34.7-37.7-34.7h-98.5c-19.7,0-36.1,15.1-37.7,34.7l-15.8,190.1c-1.2,14.7,10.4,27.3,25.1,27.3h14.6v81.9c0,13.9,11.3,25.2,25.2,25.2h75.6c13.9,0,25.2-11.3,25.2-25.2v-81.9h14.6c14.7,0,26.3-12.6,25.1-27.3Z" fill="none" stroke="#000" stroke-linecap="round" stroke-linejoin="round" stroke-width="15"/></g><g><g><circle cx="999.1" cy="123" r="63" fill="#c8effe"/><path d="M1027.2,66.6c4.2,8.4,6.6,18,6.6,28,0,34.8-28.2,63-63,63s-19.6-2.4-28-6.6c10.3,20.7,31.7,35,56.4,35s63-28.2,63-63c0-24.7-14.2-46.1-35-56.4Z" fill="#99e6fc"/><path d="M1101.9,410.8l-15.8-190.1c-1.6-19.6-18-34.7-37.7-34.7h-98.5c-19.7,0-36.1,15.1-37.7,34.7l-15.8,190.1c-1.2,14.7,10.4,27.3,25.1,27.3h14.6v81.9c0,13.9,11.3,25.2,25.2,25.2h75.6c13.9,0,25.2-11.3,25.2-25.2v-81.9h14.6c14.8,0,26.3-12.6,25.1-27.3Z" fill="#c8effe"/><path d="M1101.9,410.8l-15.8-190.1c-1.6-19.6-18-34.7-37.7-34.7h-63c19.7,0,36.1,15.1,37.7,34.7l15.8,190.1c1.2,14.7-10.4,27.3-25.1,27.3h0c-8.1,0-14.6,6.5-14.6,14.6v67.3c0,13.9-11.3,25.2-25.2,25.2h63c13.9,0,25.2-11.3,25.2-25.2v-81.9h14.6c14.8,0,26.3-12.6,25.1-27.3Z" fill="#99e6fc"/></g><circle cx="999.1" cy="123" r="63" fill="none" stroke="#000" stroke-linecap="round" stroke-linejoin="round" stroke-width="15"/><path d="M907.8,273.6l4.4-52.9c1.6-19.6,18-34.7,37.7-34.7h98.5c19.7,0,36,15.1,37.7,34.7l15.8,190.1c1.2,14.7-10.4,27.3-25.1,27.3h-14.6v81.9c0,13.9-11.3,25.2-25.2,25.2h-75.6c-13.9,0-25.2-11.3-25.2-25.2v-81.9h-14.6c-14.7,0-26.4-12.6-25.1-27.3l5.4-64.7" fill="none" stroke="#000" stroke-linecap="round" stroke-linejoin="round" stroke-width="15"/></g><g><g><circle cx="171.2" cy="671.3" r="63" fill="#c8effe"/><path d="M199.2,614.9c4.2,8.4,6.6,18,6.6,28,0,34.8-28.2,63-63,63s-19.6-2.4-28-6.6c10.3,20.7,31.7,35,56.4,35s63-28.2,63-63-14.2-46.1-35-56.4Z" fill="#99e6fc"/><path d="M273.9,959.2l-15.8-190.1c-1.6-19.6-18-34.7-37.7-34.7H121.9c-19.7,0-36.1,15.1-37.7,34.7l-15.8,190.1c-1.2,14.7,10.4,27.3,25.1,27.3h14.6v81.9c0,13.9,11.3,25.2,25.2,25.2h75.6c13.9,0,25.2-11.3,25.2-25.2v-81.9h14.6c14.7,0,26.3-12.6,25.1-27.3Z" fill="#c8effe"/><path d="M273.9,959.2l-15.8-190.1c-1.6-19.6-18-34.7-37.7-34.7h-63c19.7,0,36.1,15.1,37.7,34.7l15.8,190.1c1.2,14.7-10.4,27.3-25.1,27.3h0c-8.1,0-14.6,6.5-14.6,14.6v67.3c0,13.9-11.3,25.2-25.2,25.2h63c13.9,0,25.2-11.3,25.2-25.2v-81.9h14.6c14.7,0,26.3-12.6,25.1-27.3Z" fill="#99e6fc"/></g><circle cx="171.2" cy="671.3" r="63" fill="none" stroke="#000" stroke-linecap="round" stroke-linejoin="round" stroke-width="15"/><path d="M273.9,959.2l-15.8-190.1c-1.6-19.6-18-34.7-37.7-34.7H121.9c-19.7,0-36.1,15.1-37.7,34.7l-15.8,190.1c-1.2,14.7,10.4,27.3,25.1,27.3h14.6v81.9c0,13.9,11.3,25.2,25.2,25.2h75.6c13.9,0,25.2-11.3,25.2-25.2v-81.9h14.6c14.7,0,26.3-12.6,25.1-27.3Z" fill="none" stroke="#000" stroke-linecap="round" stroke-linejoin="round" stroke-width="15"/></g><g><g><circle cx="447.2" cy="671.3" r="63" fill="#c8effe"/><path d="M475.2,614.9c4.2,8.4,6.6,18,6.6,28,0,34.8-28.2,63-63,63s-19.6-2.4-28-6.6c10.3,20.7,31.7,35,56.4,35s63-28.2,63-63c0-24.7-14.2-46.1-35-56.4Z" fill="#99e6fc"/><path d="M549.9,959.2l-15.8-190.1c-1.6-19.6-18-34.7-37.7-34.7h-98.5c-19.7,0-36.1,15.1-37.7,34.7l-15.8,190.1c-1.2,14.7,10.4,27.3,25.1,27.3h14.6v81.9c0,13.9,11.3,25.2,25.2,25.2h75.6c13.9,0,25.2-11.3,25.2-25.2v-81.9h14.6c14.8,0,26.3-12.6,25.1-27.3Z" fill="#c8effe"/><path d="M549.9,959.2l-15.8-190.1c-1.6-19.6-18-34.7-37.7-34.7h-63c19.7,0,36.1,15.1,37.7,34.7l15.8,190.1c1.2,14.7-10.4,27.3-25.1,27.3h0c-8.1,0-14.6,6.5-14.6,14.6v67.3c0,13.9-11.3,25.2-25.2,25.2h63c13.9,0,25.2-11.3,25.2-25.2v-81.9h14.6c14.8,0,26.3-12.6,25.1-27.3Z" fill="#99e6fc"/></g><circle cx="447.2" cy="671.3" r="63" fill="none" stroke="#000" stroke-linecap="round" stroke-linejoin="round" stroke-width="15"/><path d="M357,807.7l3.2-38.7c1.6-19.6,18-34.7,37.7-34.7h98.5c19.7,0,36,15.1,37.7,34.7l15.8,190.1c1.2,14.7-10.4,27.3-25.1,27.3h-14.6v81.9c0,13.9-11.3,25.2-25.2,25.2h-75.6c-13.9,0-25.2-11.3-25.2-25.2v-81.9h-14.6c-14.7,0-26.4-12.6-25.1-27.3l6.6-78.9" fill="none" stroke="#000" stroke-linecap="round" stroke-linejoin="round" stroke-width="15"/></g><g><g><circle cx="723.1" cy="671.3" r="63" fill="#c8effe"/><path d="M751.2,614.9c4.2,8.4,6.6,18,6.6,28,0,34.8-28.2,63-63,63s-19.6-2.4-28-6.6c10.3,20.7,31.7,35,56.4,35s63-28.2,63-63-14.2-46.1-35-56.4Z" fill="#99e6fc"/><path d="M825.9,959.2l-15.8-190.1c-1.6-19.6-18-34.7-37.7-34.7h-98.5c-19.7,0-36.1,15.1-37.7,34.7l-15.8,190.1c-1.2,14.7,10.4,27.3,25.1,27.3h14.6v81.9c0,13.9,11.3,25.2,25.2,25.2h75.6c13.9,0,25.2-11.3,25.2-25.2v-81.9h14.6c14.7,0,26.3-12.6,25.1-27.3Z" fill="#c8effe"/><path d="M825.9,959.2l-15.8-190.1c-1.6-19.6-18-34.7-37.7-34.7h-63c19.7,0,36.1,15.1,37.7,34.7l15.8,190.1c1.2,14.7-10.4,27.3-25.1,27.3h0c-8.1,0-14.6,6.5-14.6,14.6v67.3c0,13.9-11.3,25.2-25.2,25.2h63c13.9,0,25.2-11.3,25.2-25.2v-81.9h14.6c14.7,0,26.3-12.6,25.1-27.3Z" fill="#99e6fc"/></g><circle cx="723.1" cy="671.3" r="63" fill="none" stroke="#000" stroke-linecap="round" stroke-linejoin="round" stroke-width="15"/><path d="M825.9,959.2l-15.8-190.1c-1.6-19.6-18-34.7-37.7-34.7h-98.5c-19.7,0-36.1,15.1-37.7,34.7l-15.8,190.1c-1.2,14.7,10.4,27.3,25.1,27.3h14.6v81.9c0,13.9,11.3,25.2,25.2,25.2h75.6c13.9,0,25.2-11.3,25.2-25.2v-81.9h14.6c14.7,0,26.3-12.6,25.1-27.3Z" fill="none" stroke="#000" stroke-linecap="round" stroke-linejoin="round" stroke-width="15"/></g><g><g><circle cx="999.1" cy="671.3" r="63" fill="#c8effe"/><path d="M1027.2,614.9c4.2,8.4,6.6,18,6.6,28,0,34.8-28.2,63-63,63s-19.6-2.4-28-6.6c10.3,20.7,31.7,35,56.4,35s63-28.2,63-63c0-24.7-14.2-46.1-35-56.4Z" fill="#99e6fc"/><path d="M1101.9,959.2l-15.8-190.1c-1.6-19.6-18-34.7-37.7-34.7h-98.5c-19.7,0-36.1,15.1-37.7,34.7l-15.8,190.1c-1.2,14.7,10.4,27.3,25.1,27.3h14.6v81.9c0,13.9,11.3,25.2,25.2,25.2h75.6c13.9,0,25.2-11.3,25.2-25.2v-81.9h14.6c14.8,0,26.3-12.6,25.1-27.3Z" fill="#c8effe"/><path d="M1101.9,959.2l-15.8-190.1c-1.6-19.6-18-34.7-37.7-34.7h-63c19.7,0,36.1,15.1,37.7,34.7l15.8,190.1c1.2,14.7-10.4,27.3-25.1,27.3h0c-8.1,0-14.6,6.5-14.6,14.6v67.3c0,13.9-11.3,25.2-25.2,25.2h63c13.9,0,25.2-11.3,25.2-25.2v-81.9h14.6c14.8,0,26.3-12.6,25.1-27.3Z" fill="#99e6fc"/></g><circle cx="999.1" cy="671.3" r="63" fill="none" stroke="#000" stroke-linecap="round" stroke-linejoin="round" stroke-width="15"/><path d="M1101.9,959.2l-15.8-190.1c-1.6-19.6-18-34.7-37.7-34.7h-98.5c-19.7,0-36.1,15.1-37.7,34.7l-15.8,190.1c-1.2,14.7,10.4,27.3,25.1,27.3h14.6v81.9c0,13.9,11.3,25.2,25.2,25.2h75.6c13.9,0,25.2-11.3,25.2-25.2v-81.9h14.6c14.8,0,26.3-12.6,25.1-27.3Z" fill="none" stroke="#000" stroke-linecap="round" stroke-linejoin="round" stroke-width="15"/></g></svg>