<?xml version="1.0" encoding="UTF-8"?><svg id="Calque_1" xmlns="http://www.w3.org/2000/svg" viewBox="0 0 1153.6 1153.6"><g><circle cx="458.8" cy="316.1" r="34.2" fill="#a3f975"/><path d="M474,285.5c2.3,4.6,3.6,9.8,3.6,15.2,0,18.9-15.3,34.2-34.2,34.2s-10.6-1.3-15.2-3.6c5.6,11.2,17.2,19,30.6,19s34.2-15.3,34.2-34.2c0-13.4-7.7-25-19-30.6Z" fill="#90fc51"/><path d="M514.6,472.3l-8.6-103.2c-.9-10.6-9.8-18.8-20.4-18.8h-53.4c-10.7,0-19.6,8.2-20.4,18.8l-8.6,103.2c-.7,8,5.6,14.8,13.6,14.8h7.9v44.5c0,7.6,6.1,13.7,13.7,13.7h41c7.6,0,13.7-6.1,13.7-13.7v-44.5h7.9c8,0,14.3-6.8,13.6-14.8Z" fill="#a3f975"/><path d="M514.6,472.3l-8.6-103.2c-.9-10.6-9.8-18.8-20.4-18.8h-34.2c10.7,0,19.6,8.2,20.4,18.8l8.6,103.2c.7,8-5.6,14.8-13.6,14.8h0c-4.4,0-7.9,3.6-7.9,7.9v36.5c0,7.6-6.1,13.7-13.7,13.7h34.2c7.6,0,13.7-6.1,13.7-13.7v-44.5h7.9c8,0,14.3-6.8,13.6-14.8Z" fill="#90fc51"/></g><g><g><circle cx="222.8" cy="123" r="63" fill="#c8effe"/><path d="M250.9,66.6c4.2,8.4,6.6,18,6.6,28,0,34.8-28.2,63-63,63s-19.6-2.4-28-6.6c10.3,20.7,31.7,35,56.4,35s63-28.2,63-63-14.2-46.1-35-56.4Z" fill="#99e6fc"/><path d="M325.6,410.8l-15.8-190.1c-1.6-19.6-18-34.7-37.7-34.7h-98.5c-19.7,0-36.1,15.1-37.7,34.7l-15.8,190.1c-1.2,14.7,10.4,27.3,25.1,27.3h14.6v81.9c0,13.9,11.3,25.2,25.2,25.2h75.6c13.9,0,25.2-11.3,25.2-25.2v-81.9h14.6c14.7,0,26.3-12.6,25.1-27.3Z" fill="#c8effe"/><path d="M325.6,410.8l-15.8-190.1c-1.6-19.6-18-34.7-37.7-34.7h-63c19.7,0,36.1,15.1,37.7,34.7l15.8,190.1c1.2,14.7-10.4,27.3-25.1,27.3h0c-8.1,0-14.6,6.5-14.6,14.6v67.3c0,13.9-11.3,25.2-25.2,25.2h63c13.9,0,25.2-11.3,25.2-25.2v-81.9h14.6c14.7,0,26.3-12.6,25.1-27.3Z" fill="#99e6fc"/></g><circle cx="222.8" cy="123" r="63" fill="none" stroke="#000" stroke-linecap="round" stroke-linejoin="round" stroke-width="15"/><path d="M133,255.6l2.9-34.9c1.6-19.6,18-34.7,37.7-34.7h98.5c19.7,0,36.1,15.1,37.7,34.7l15.8,190.1c1.2,14.7-10.4,27.3-25.1,27.3h-14.6v81.9c0,13.9-11.3,25.2-25.2,25.2h-75.6c-13.9,0-25.2-11.3-25.2-25.2v-81.9h-14.6c-14.7,0-26.4-12.6-25.1-27.3l6.9-82.7" fill="none" stroke="#000" stroke-linecap="round" stroke-linejoin="round" stroke-width="15"/></g><circle cx="458.8" cy="316.1" r="34.2" fill="none" stroke="#000" stroke-linecap="round" stroke-linejoin="round" stroke-width="15"/><path d="M514.6,472.3l-8.6-103.2c-.9-10.6-9.8-18.8-20.4-18.8h-53.4c-10.7,0-19.6,8.2-20.4,18.8l-8.6,103.2c-.7,8,5.6,14.8,13.6,14.8h7.9v44.5c0,7.6,6.1,13.7,13.7,13.7h41c7.6,0,13.7-6.1,13.7-13.7v-44.5h7.9c8,0,14.3-6.8,13.6-14.8Z" fill="none" stroke="#000" stroke-linecap="round" stroke-linejoin="round" stroke-width="15"/><g><g><circle cx="694.8" cy="123" r="63" fill="#fe73c5"/><path d="M722.8,66.6c4.2,8.4,6.6,18,6.6,28,0,34.8-28.2,63-63,63s-19.6-2.4-28-6.6c10.3,20.7,31.7,35,56.4,35s63-28.2,63-63-14.2-46.1-35-56.4Z" fill="#fe4fb7"/><path d="M797.6,410.8l-15.8-190.1c-1.6-19.6-18-34.7-37.7-34.7h-98.5c-19.7,0-36.1,15.1-37.7,34.7l-15.8,190.1c-1.2,14.7,10.4,27.3,25.1,27.3h14.6v81.9c0,13.9,11.3,25.2,25.2,25.2h75.6c13.9,0,25.2-11.3,25.2-25.2v-81.9h14.6c14.7,0,26.3-12.6,25.1-27.3Z" fill="#fe73c5"/><path d="M797.6,410.8l-15.8-190.1c-1.6-19.6-18-34.7-37.7-34.7h-63c19.7,0,36.1,15.1,37.7,34.7l15.8,190.1c1.2,14.7-10.4,27.3-25.1,27.3h0c-8.1,0-14.6,6.5-14.6,14.6v67.3c0,13.9-11.3,25.2-25.2,25.2h63c13.9,0,25.2-11.3,25.2-25.2v-81.9h14.6c14.7,0,26.3-12.6,25.1-27.3Z" fill="#fe4fb7"/></g><circle cx="694.8" cy="123" r="63" fill="none" stroke="#000" stroke-linecap="round" stroke-linejoin="round" stroke-width="15"/><path d="M797.6,410.8l-15.8-190.1c-1.6-19.6-18-34.7-37.7-34.7h-98.5c-19.7,0-36.1,15.1-37.7,34.7l-15.8,190.1c-1.2,14.7,10.4,27.3,25.1,27.3h14.6v81.9c0,13.9,11.3,25.2,25.2,25.2h75.6c13.9,0,25.2-11.3,25.2-25.2v-81.9h14.6c14.7,0,26.3-12.6,25.1-27.3Z" fill="none" stroke="#000" stroke-linecap="round" stroke-linejoin="round" stroke-width="15"/></g><g><g><circle cx="930.8" cy="313.5" r="34.6" fill="#a3f975"/><path d="M946.2,282.5c2.3,4.6,3.6,9.9,3.6,15.4,0,19.1-15.5,34.6-34.6,34.6s-10.8-1.3-15.4-3.6c5.7,11.4,17.4,19.2,31,19.2s34.6-15.5,34.6-34.6c0-13.6-7.8-25.3-19.2-31Z" fill="#90fc51"/><path d="M987.2,471.5l-8.7-104.4c-.9-10.8-9.9-19-20.7-19h-54.1c-10.8,0-19.8,8.3-20.7,19l-8.7,104.4c-.7,8.1,5.7,15,13.8,15h8v45c0,7.6,6.2,13.8,13.8,13.8h41.5c7.6,0,13.8-6.2,13.8-13.8v-45h8c8.1,0,14.5-6.9,13.8-15Z" fill="#a3f975"/><path d="M987.2,471.5l-8.7-104.4c-.9-10.8-9.9-19-20.7-19h-34.6c10.8,0,19.8,8.3,20.7,19l8.7,104.4c.7,8.1-5.7,15-13.8,15h0c-4.4,0-8,3.6-8,8v36.9c0,7.6-6.2,13.8-13.8,13.8h34.6c7.6,0,13.8-6.2,13.8-13.8v-45h8c8.1,0,14.5-6.9,13.8-15Z" fill="#90fc51"/></g><circle cx="930.8" cy="313.5" r="34.6" fill="none" stroke="#000" stroke-linecap="round" stroke-linejoin="round" stroke-width="15"/><path d="M880.6,396.2l2.4-29c.9-10.8,9.9-19,20.7-19h54.1c10.8,0,19.8,8.3,20.7,19l8.7,104.4c.7,8.1-5.7,15-13.8,15h-8v45c0,7.6-6.2,13.8-13.8,13.8h-41.5c-7.6,0-13.8-6.2-13.8-13.8v-45h-8c-8.1,0-14.5-6.9-13.8-15l3-35.5" fill="none" stroke="#000" stroke-linecap="round" stroke-linejoin="round" stroke-width="15"/></g><g><g><circle cx="222.8" cy="867.4" r="33.8" fill="#a3f975"/><path d="M237.8,837.2c2.3,4.5,3.5,9.6,3.5,15,0,18.6-15.1,33.8-33.8,33.8s-10.5-1.3-15-3.5c5.5,11.1,17,18.7,30.2,18.7s33.8-15.1,33.8-33.8-7.6-24.7-18.7-30.2Z" fill="#90fc51"/><path d="M277.9,1021.6l-8.5-101.8c-.9-10.5-9.7-18.6-20.2-18.6h-52.8c-10.5,0-19.3,8.1-20.2,18.6l-8.5,101.8c-.7,7.9,5.6,14.6,13.5,14.6h7.8v43.9c0,7.5,6,13.5,13.5,13.5h40.5c7.5,0,13.5-6,13.5-13.5v-43.9h7.8c7.9,0,14.1-6.8,13.5-14.6Z" fill="#a3f975"/><path d="M277.9,1021.6l-8.5-101.8c-.9-10.5-9.7-18.6-20.2-18.6h-33.8c10.5,0,19.3,8.1,20.2,18.6l8.5,101.8c.7,7.9-5.6,14.6-13.5,14.6h0c-4.3,0-7.8,3.5-7.8,7.8v36.1c0,7.5-6,13.5-13.5,13.5h33.8c7.5,0,13.5-6,13.5-13.5v-43.9h7.8c7.9,0,14.1-6.8,13.5-14.6Z" fill="#90fc51"/></g><circle cx="222.8" cy="867.4" r="33.8" fill="none" stroke="#000" stroke-linecap="round" stroke-linejoin="round" stroke-width="15"/><path d="M277.9,1021.6l-8.5-101.8c-.9-10.5-9.7-18.6-20.2-18.6h-52.8c-10.5,0-19.3,8.1-20.2,18.6l-8.5,101.8c-.7,7.9,5.6,14.6,13.5,14.6h7.8v43.9c0,7.5,6,13.5,13.5,13.5h40.5c7.5,0,13.5-6,13.5-13.5v-43.9h7.8c7.9,0,14.1-6.8,13.5-14.6Z" fill="none" stroke="#000" stroke-linecap="round" stroke-linejoin="round" stroke-width="15"/></g><g><g><circle cx="458.8" cy="671.3" r="63" fill="#c8effe"/><path d="M486.8,614.9c4.2,8.4,6.6,18,6.6,28,0,34.8-28.2,63-63,63s-19.6-2.4-28-6.6c10.3,20.7,31.7,35,56.4,35s63-28.2,63-63c0-24.7-14.2-46.1-35-56.4Z" fill="#99e6fc"/><path d="M561.6,959.2l-15.8-190.1c-1.6-19.6-18-34.7-37.7-34.7h-98.5c-19.7,0-36.1,15.1-37.7,34.7l-15.8,190.1c-1.2,14.7,10.4,27.3,25.1,27.3h14.6v81.9c0,13.9,11.3,25.2,25.2,25.2h75.6c13.9,0,25.2-11.3,25.2-25.2v-81.9h14.6c14.8,0,26.3-12.6,25.1-27.3Z" fill="#c8effe"/><path d="M561.6,959.2l-15.8-190.1c-1.6-19.6-18-34.7-37.7-34.7h-63c19.7,0,36.1,15.1,37.7,34.7l15.8,190.1c1.2,14.7-10.4,27.3-25.1,27.3h0c-8.1,0-14.6,6.5-14.6,14.6v67.3c0,13.9-11.3,25.2-25.2,25.2h63c13.9,0,25.2-11.3,25.2-25.2v-81.9h14.6c14.8,0,26.3-12.6,25.1-27.3Z" fill="#99e6fc"/></g><circle cx="458.8" cy="671.3" r="63" fill="none" stroke="#000" stroke-linecap="round" stroke-linejoin="round" stroke-width="15"/><path d="M368.7,807.7l3.2-38.7c1.6-19.6,18-34.7,37.7-34.7h98.5c19.7,0,36,15.1,37.7,34.7l15.8,190.1c1.2,14.7-10.4,27.3-25.1,27.3h-14.6v81.9c0,13.9-11.3,25.2-25.2,25.2h-75.6c-13.9,0-25.2-11.3-25.2-25.2v-81.9h-14.6c-14.7,0-26.4-12.6-25.1-27.3l6.6-78.9" fill="none" stroke="#000" stroke-linecap="round" stroke-linejoin="round" stroke-width="15"/></g><g><g><circle cx="694.8" cy="866.1" r="34" fill="#a3f975"/><path d="M709.9,835.7c2.3,4.6,3.5,9.7,3.5,15.1,0,18.8-15.2,34-34,34s-10.6-1.3-15.1-3.5c5.6,11.2,17.1,18.8,30.4,18.8s34-15.2,34-34-7.7-24.8-18.8-30.4Z" fill="#90fc51"/><path d="M750.2,1021.2l-8.5-102.4c-.9-10.6-9.7-18.7-20.3-18.7h-53.1c-10.6,0-19.4,8.1-20.3,18.7l-8.5,102.4c-.7,7.9,5.6,14.7,13.5,14.7h7.9v44.1c0,7.5,6.1,13.6,13.6,13.6h40.7c7.5,0,13.6-6.1,13.6-13.6v-44.1h7.9c7.9,0,14.2-6.8,13.5-14.7Z" fill="#a3f975"/><path d="M750.2,1021.2l-8.5-102.4c-.9-10.6-9.7-18.7-20.3-18.7h-34c10.6,0,19.4,8.1,20.3,18.7l8.5,102.4c.7,7.9-5.6,14.7-13.5,14.7h0c-4.3,0-7.9,3.5-7.9,7.9v36.3c0,7.5-6.1,13.6-13.6,13.6h34c7.5,0,13.6-6.1,13.6-13.6v-44.1h7.9c7.9,0,14.2-6.8,13.5-14.7Z" fill="#90fc51"/></g><circle cx="694.8" cy="866.1" r="34" fill="none" stroke="#000" stroke-linecap="round" stroke-linejoin="round" stroke-width="15"/><path d="M750.2,1021.2l-8.5-102.4c-.9-10.6-9.7-18.7-20.3-18.7h-53.1c-10.6,0-19.4,8.1-20.3,18.7l-8.5,102.4c-.7,7.9,5.6,14.7,13.5,14.7h7.9v44.1c0,7.5,6.1,13.6,13.6,13.6h40.7c7.5,0,13.6-6.1,13.6-13.6v-44.1h7.9c7.9,0,14.2-6.8,13.5-14.7Z" fill="none" stroke="#000" stroke-linecap="round" stroke-linejoin="round" stroke-width="15"/></g><g><g><circle cx="930.8" cy="671.3" r="63" fill="#fe73c5"/><path d="M958.8,614.9c4.2,8.4,6.6,18,6.6,28,0,34.8-28.2,63-63,63s-19.6-2.4-28-6.6c10.3,20.7,31.7,35,56.4,35s63-28.2,63-63c0-24.7-14.2-46.1-35-56.4Z" fill="#fe4fb7"/><path d="M1033.5,959.2l-15.8-190.1c-1.6-19.6-18-34.7-37.7-34.7h-98.5c-19.7,0-36.1,15.1-37.7,34.7l-15.8,190.1c-1.2,14.7,10.4,27.3,25.1,27.3h14.6v81.9c0,13.9,11.3,25.2,25.2,25.2h75.6c13.9,0,25.2-11.3,25.2-25.2v-81.9h14.6c14.8,0,26.3-12.6,25.1-27.3Z" fill="#fe73c5"/><path d="M1033.5,959.2l-15.8-190.1c-1.6-19.6-18-34.7-37.7-34.7h-63c19.7,0,36.1,15.1,37.7,34.7l15.8,190.1c1.2,14.7-10.4,27.3-25.1,27.3h0c-8.1,0-14.6,6.5-14.6,14.6v67.3c0,13.9-11.3,25.2-25.2,25.2h63c13.9,0,25.2-11.3,25.2-25.2v-81.9h14.6c14.8,0,26.3-12.6,25.1-27.3Z" fill="#fe4fb7"/></g><circle cx="930.8" cy="671.3" r="63" fill="none" stroke="#000" stroke-linecap="round" stroke-linejoin="round" stroke-width="15"/><path d="M1033.5,959.2l-15.8-190.1c-1.6-19.6-18-34.7-37.7-34.7h-98.5c-19.7,0-36.1,15.1-37.7,34.7l-15.8,190.1c-1.2,14.7,10.4,27.3,25.1,27.3h14.6v81.9c0,13.9,11.3,25.2,25.2,25.2h75.6c13.9,0,25.2-11.3,25.2-25.2v-81.9h14.6c14.8,0,26.3-12.6,25.1-27.3Z" fill="none" stroke="#000" stroke-linecap="round" stroke-linejoin="round" stroke-width="15"/></g></svg>