<?xml version="1.0" encoding="utf-8"?>
<!-- Generator: Adobe Illustrator 26.5.0, SVG Export Plug-In . SVG Version: 6.00 Build 0)  -->
<svg version="1.1" id="Calque_1" xmlns="http://www.w3.org/2000/svg" xmlns:xlink="http://www.w3.org/1999/xlink" x="0px" y="0px"
	 viewBox="0 0 700 700" style="enable-background:new 0 0 700 700;" xml:space="preserve">
<style type="text/css">
	.st0{fill:#FFE7CF;}
	.st1{fill:#F4D3A6;}
	.st2{fill:#2D5872;}
	.st3{fill:#1D4559;}
	.st4{fill:#FF6D3A;}
	.st5{fill:#282C3A;}
	.st6{fill:#FFBF14;}
	.st7{fill:#EAA200;}
	.st8{fill:#7A8C98;}
	.st9{fill:#596C76;}
	.st10{fill:#8D9CA8;}
	.st11{fill:#465A61;}
	.st12{fill:#FFF4F1;}
	.st13{fill:#C5D3DD;}
	.st14{fill:#B3DAFE;}
	.st15{fill:#8AC9FE;}
	.st16{fill:#60B7FF;}
	.st17{fill:#26A6FE;}
	.st18{fill:#FD4755;}
	.st19{fill:#FB2B3A;}
	.st20{fill:#D8ECFE;}
</style>
<g>
	<path class="st0" d="M543.4,236.1l29.1-27.7l-11.6-2.2c-5.6-1.2-9.6-7.7-9.6-13.4v-25.7h-54.1v25.7c0,5.8-4.1,12.4-9.6,13.4
		l-11.6,2.2l29.1,27.7c10.7,10.2,27.4,10.2,38.1,0l0,0H543.4z"/>
	<path class="st1" d="M526.6,167.2v36.5c0,5.8,4.1,12.4,9.6,13.4l22.8,4.3l13.6-12.9l-11.6-2.2c-5.6-1.2-9.6-7.7-9.6-13.4v-25.7
		h-24.8L526.6,167.2z"/>
	<path class="st2" d="M604.4,210.8l-41.1-7.7c-1.5-0.3-3,0-4.3,1.1l-34.7,26.3l-34.7-26.3c-1.3-1-2.8-1.3-4.3-1.1l-41.1,7.7
		c-20.6,6.1-34.9,25.3-34.9,47.2v50c0,5.7,4.6,10.3,10.2,10.3h209.5c5.6,0,10.2-4.6,10.2-10.3v-50
		C639.4,236.1,625.2,216.9,604.4,210.8L604.4,210.8z"/>
	<g>
		<path class="st3" d="M604.4,210.8l-41.1-7.7c-1.5-0.3-3,0-4.3,1.1L540.9,218l39.1,7.4c20.6,6.1,34.9,11.9,34.9,33.8v59.2h14.3
			c5.6,0,10.2-4.6,10.2-10.3v-50c0-21.9-14.2-41.1-34.9-47.2l0,0V210.8z"/>
		<path class="st3" d="M473.5,205.3l22.5,31.9c1.7,2.4,4.8,3.3,7.5,2.1l20.8-9L489.7,204c-1.3-1-2.8-1.3-4.3-1.1l-11.8,2.2l0,0
			L473.5,205.3z"/>
		<path class="st3" d="M575.2,205.3l-22.5,31.9c-1.7,2.4-4.8,3.3-7.5,2.1l-20.8-9L559,204c1.3-1,2.8-1.3,4.3-1.1l11.8,2.2l0,0
			L575.2,205.3z"/>
	</g>
	<path class="st2" d="M524.3,13c-43.6,0-79,30.5-79,47.8s35.3,29.6,79,29.6c43.7,0,79-12.4,79-29.6S568,13,524.3,13L524.3,13z"/>
	<path class="st3" d="M524.3,13c-4.3,0-8.4,0.3-12.4,0.8c37.7,5,66.5,31.4,66.5,47S549.6,88,511.9,90.1c4.1,0.2,8.2,0.3,12.4,0.3
		c43.6,0,79-12.4,79-29.6S568,13,524.3,13L524.3,13z"/>
	<path class="st0" d="M580.8,109.1h-3.6V94.5c0-14.5-5.8-28.5-16.7-37.9c-8.4-7.4-63.9-7.4-72.3,0c-10.8,9.4-16.7,23.4-16.7,37.9
		v14.6h-3.6c-5.3,0-9.6,4.3-9.6,9.7v10.8c0,5.4,4.3,9.7,9.6,9.7h3.6c0.3,14,6.1,27.6,16.7,36.8c8.4,7.4,20.4,13.8,36.2,14
		c15.7-0.2,27.7-6.7,36.2-14c10.5-9.2,16.4-22.7,16.7-36.8h3.6c5.3,0,9.6-4.3,9.6-9.7v-10.8C590.4,113.4,586.1,109.1,580.8,109.1
		L580.8,109.1z"/>
	<path class="st1" d="M580.8,109.1h-3.6V94.5c0-14.5-5.8-28.5-16.7-37.9c-5.3-4.6-29.3-6.3-48.4-5.2c11.3,0.7,20.8,2.4,24,5.2
		c10.8,9.4,16.7,23.4,16.7,37.9v44.7c-0.3,14-6.1,27.6-16.7,36.8c-6.1,5.4-14.1,10.2-24,12.6c3.8,1,7.8,1.5,12.2,1.5
		c15.7-0.2,27.7-6.7,36.2-14c10.5-9.2,16.4-22.7,16.7-36.8h3.6c5.3,0,9.6-4.3,9.6-9.7v-10.8c0-5.4-4.3-9.7-9.6-9.7l0,0L580.8,109.1z
		"/>
	<path class="st4" d="M463.4,76.9v33.4c0,0,8.1-0.2,13.2,5.1c1,1.1,2.9,0.3,2.9-1.3V89.3h89.3v24.7c0,1.6,1.9,2.3,2.9,1.3
		c5.2-5.2,13.2-5.1,13.2-5.1V76.9c0-20.7-121.7-20.7-121.7,0H463.4L463.4,76.9z"/>
	<path class="st2" d="M524.3,104c-33.7,0-60.9-10.6-60.9-23.7h121.7C585.2,93.4,558,104,524.3,104z"/>
	<path class="st3" d="M463.4,64v16.4h121.7V64.1c0-4.4-2.9-8.2-7.2-9.3c-11.3-3-34.2-8-56.6-8c-22.4,0-40.9,5-51.1,7.9
		C466.2,55.9,463.4,59.7,463.4,64L463.4,64z"/>
	<g>
		<polygon class="st5" points="524.3,230.3 508,237.4 517.5,248.8 531.2,248.8 540.7,237.4 		"/>
		<polygon class="st5" points="531.2,248.8 524.3,248.8 517.5,248.8 508,318.3 540.7,318.3 		"/>
	</g>
	<g>
		<path class="st3" d="M586.4,295.1h-24c-1.6,0-2.9-1.3-2.9-3v-12.9c0-1.6,1.3-3,2.9-3h24c1.6,0,2.9,1.3,2.9,3v12.9
			C589.3,293.7,588.1,295.1,586.4,295.1z"/>
		<path class="st3" d="M486.2,295.1h-24c-1.6,0-2.9-1.3-2.9-3v-12.9c0-1.6,1.3-3,2.9-3h24c1.6,0,2.9,1.3,2.9,3v12.9
			C489.2,293.7,487.9,295.1,486.2,295.1z"/>
	</g>
	<path class="st6" d="M418.6,241.4c4.5,3.7,11,3,14.7-1.6l4.9-6.2c3.6-4.5,2.9-11.2-1.6-14.9l-3.5-2.9c-8.4,5.1-15.2,12.7-19.3,21.6
		L418.6,241.4L418.6,241.4L418.6,241.4z"/>
	<path class="st7" d="M634.9,237.4c-4.1-9-10.8-16.6-19.3-21.6l-3.5,2.9c-4.5,3.7-5.2,10.3-1.6,14.9l4.9,6.2
		c3.6,4.5,10.2,5.3,14.7,1.6L634.9,237.4L634.9,237.4L634.9,237.4z"/>
	<path d="M636.2,230.3c0,0,0-0.1,0-0.2c-0.3-0.4-0.5-0.8-0.8-1.3c0-0.2-0.3-0.4-0.4-0.7c-0.2-0.3-0.4-0.5-0.5-0.8
		c-0.2-0.3-0.5-0.7-0.7-1.1c0-0.1,0-0.2-0.2-0.3c0,0,0-0.1-0.2-0.2c-0.3-0.4-0.6-0.8-0.9-1.3c0-0.1-0.2-0.3-0.3-0.4
		c-0.3-0.4-0.6-0.7-0.9-1.2c0-0.2-0.3-0.3-0.4-0.5c-0.3-0.3-0.5-0.6-0.8-1c-0.2-0.2-0.4-0.4-0.6-0.7c-0.2-0.2-0.3-0.3-0.5-0.5
		c-6.3-6.4-14-11.1-22.7-13.7c0,0-0.3,0-0.4-0.1l-41.1-7.7h-0.2c-1.9-0.3-3.9,0-5.6,0.7c-1.5-1.8-2.4-4.2-2.4-6.4v-7.5
		c2.6-1.7,5.1-3.6,7.5-5.7c10.2-8.9,16.6-21.8,18-35.7c7.5-0.3,13.4-6.7,13.4-14.3v-10.8c0-4.3-1.9-8.3-5.1-11.1V83.1
		c14.9-7.4,18.1-16.1,18.1-22.2c0-10.5-9.6-23.5-25.1-34.2c-9.9-6.8-30.7-18.3-58.4-18.3s-48.5,11.4-58.4,18.3
		c-15.5,10.7-25.1,23.8-25.1,34.2s3.2,14.8,18.1,22.2v24.7c-3.2,2.6-5.1,6.7-5.1,11.1v10.8c0,7.7,5.9,13.9,13.4,14.3
		c1.4,13.9,7.8,26.8,18,35.7c2.4,2.1,5,4,7.5,5.7v7.5c0,2.2-0.9,4.8-2.4,6.4c-1.9-0.8-3.9-1.1-5.8-0.7l0,0l-41.1,7.7
		c0,0-0.3,0-0.4,0.1c-8.8,2.6-16.5,7.3-22.7,13.7c-0.2,0.2-0.3,0.3-0.5,0.5c-0.2,0.2-0.4,0.4-0.6,0.6c-0.3,0.3-0.5,0.6-0.8,1
		c0,0.1-0.3,0.3-0.4,0.5c-0.3,0.4-0.6,0.7-0.9,1.2c0,0.1-0.2,0.3-0.3,0.4c-0.3,0.4-0.6,0.8-0.9,1.3c0,0,0,0.1-0.2,0.2
		c0,0,0,0.2-0.2,0.3c-0.2,0.3-0.5,0.7-0.7,1.1s-0.4,0.5-0.5,0.8c0,0.2-0.3,0.4-0.4,0.7c-0.3,0.4-0.5,0.8-0.8,1.3c0,0,0,0.1,0,0.2
		c-5,8.3-7.7,18-7.7,27.9v5.6c0,2.5,2.1,4.6,4.6,4.6s4.6-2.1,4.6-4.6v-5.6c0-4.5,0.6-8.9,1.9-13.1c2.7,2.1,5.9,3.3,9.3,3.3
		s1,0,1.7,0c4-0.4,7.6-2.4,10.1-5.6l4.9-6.2c2.5-3.2,3.6-7.1,3.2-11.2c-0.3-3.2-1.7-6.1-3.8-8.6c1.4-0.5,2.6-1.1,4-1.5l26.3-5
		l20.8,29.5c2.1,3,5.3,4.5,8.8,4.5c3.4,0,2.8-0.3,4.3-0.8l1.4-0.6l6,7.2l-8.8,63.6h-57.1v-37.4c0-2.5-2.1-4.6-4.6-4.6
		s-4.6,2.1-4.6,4.6v37.4h-18.2c-3.1,0-5.6-2.5-5.6-5.7V285c0-2.5-2.1-4.6-4.6-4.6c-2.5,0-4.6,2.1-4.6,4.6v22.8c0,8.2,6.7,15,14.8,15
		h209.5c8.1,0,14.8-6.8,14.8-15v-50c0-9.9-2.6-19.4-7.7-27.9l-0.5,0.3L636.2,230.3z M434.8,230.8l-4.9,6.2c-0.9,1.3-2.4,2-4,2.2
		c-1.6,0.2-3.1-0.3-4.4-1.3l-1.9-1.6c0.4-0.7,0.8-1.5,1.3-2.2l0,0c0.4-0.6,0.8-1.2,1.1-1.8c0.3-0.6,0.2-0.3,0.4-0.5
		c0.4-0.5,0.7-1,1.1-1.5c0-0.1,0.2-0.2,0.3-0.4c0.4-0.5,0.8-1.1,1.4-1.6c0-0.1,0.3-0.3,0.4-0.4c0.4-0.5,0.9-1,1.4-1.5l0,0
		c1.8-1.9,3.6-3.5,5.7-4.9l1,0.8c1.3,1,2,2.4,2.2,4c0.2,1.6-0.3,3.2-1.3,4.4h-0.1L434.8,230.8z M614.9,222.2l1-0.8
		c2.1,1.5,4,3.1,5.7,4.8l0,0c0.5,0.6,0.9,1.1,1.4,1.6c0,0.1,0.3,0.3,0.4,0.4c0.4,0.5,0.9,1.1,1.4,1.6c0,0.1,0.2,0.2,0.3,0.4
		c0.4,0.5,0.7,1,1.1,1.5c0,0.2,0.2,0.3,0.4,0.5c0.4,0.6,0.8,1.2,1.1,1.8l0,0c0.4,0.7,0.8,1.5,1.3,2.2l-1.9,1.6
		c-1.3,1-2.8,1.5-4.4,1.3c-1.6-0.2-3-1-4-2.2l-4.9-6.2c-2.1-2.5-1.7-6.3,0.9-8.4h-0.1L614.9,222.2z M561.8,207.8L561.8,207.8
		c0.2-0.2,0.5-0.2,0.7-0.2l4.8,1l-18.3,26c-0.4,0.6-1.3,0.8-2,0.5l-13.6-5.8l0,0L561.8,207.8L561.8,207.8z M524.4,224.6l-26.5-20.1
		c2.5-3.4,4.1-7.6,4.1-11.8V190c7,3,14.5,4.5,22.4,4.6l0,0c7.9,0,15.4-1.7,22.4-4.6v2.7c0,4.2,1.5,8.4,4.1,11.8L524.4,224.6z
		 M533.3,239.2l-4.2,4.9h-9.4l-4.2-4.9l8.9-3.8L533.3,239.2z M458.9,72.6c-5.8-3.7-9-7.7-9-11.7c0-8.3,10.9-19.6,21.2-26.6
		c9.1-6.2,28-16.7,53.3-16.7c25.2,0,44.2,10.5,53.3,16.7c10.2,7,21.2,18.3,21.2,26.6s-3.1,8-9,11.7v-8.3c0-6.5-4.4-12.1-10.5-13.8
		c-11.8-3.1-34.9-8.1-57.7-8.1l0,0c-19.7,0-39.3,4.4-52.2,8.1c-6,1.7-10.2,7.4-10.2,13.7v8.6h-0.2V72.6z M568.5,84.9h10.1
		c0,0,0,0.2-0.2,0.2c-0.2,0.2-0.3,0.3-0.5,0.5c-0.2,0.2-0.2,0.2-0.3,0.3c-0.2,0-0.3,0.3-0.5,0.4c-0.2,0.1-0.3,0.3-0.5,0.4
		c0,0-0.3,0.2-0.4,0.3c-0.2,0.2-0.4,0.3-0.6,0.5c0,0-0.2,0-0.3,0.2c-0.3,0.2-0.5,0.4-0.8,0.5c0,0,0,0-0.2,0
		c-1.9,1.2-4.2,2.3-6.7,3.5l0,0c-9.7,4.1-24.4,7.2-42.7,7.2c-18.3,0-33-3.1-42.7-7.2l0,0c-2.6-1.1-4.8-2.2-6.7-3.5c0,0,0,0-0.2,0
		c-0.3-0.2-0.6-0.4-0.8-0.5c0,0-0.2,0-0.3-0.2c-0.2-0.2-0.4-0.3-0.6-0.5c-0.2-0.2-0.3-0.2-0.4-0.3c-0.2,0-0.3-0.3-0.5-0.4
		c-0.2-0.1-0.3-0.3-0.5-0.4c0,0-0.2-0.2-0.3-0.3c-0.2-0.2-0.3-0.3-0.5-0.5l-0.2-0.2h76.4c2.5,0,4.6-2.1,4.6-4.6
		c0-2.5-2.1-4.6-4.6-4.6h-78.5V63.8c0-2.2,1.5-4.2,3.6-4.9c12.4-3.5,31.2-7.7,49.8-7.7l0,0c21.8,0,44.1,5,55.5,7.9
		c2.2,0.5,3.8,2.5,3.8,4.9v11.6h-12.2c-2.5,0-4.6,2.1-4.6,4.6c0,2.5,2.1,4.6,4.6,4.6h-0.5H568.5z M580.7,95.3v10.7
		c-2.1,0.4-4.6,1.1-7.1,2.4v-9C576.4,98,578.7,96.6,580.7,95.3z M475.1,99.4v9c-2.5-1.3-5-2-7.1-2.4V95.3
		C470,96.6,472.3,98,475.1,99.4z M491.1,172.5c-9.3-8.1-14.8-20.3-15.1-33.4c0-2.5-2.1-4.5-4.6-4.5h-3.6c-2.8,0-5-2.3-5-5.1v-10.8
		c0-1.6,0.7-3,1.9-3.9c1.6,0.1,4.6,0.6,7.1,2.2l0,0c0.3,0.2,0.7,0.5,1,0.7l0,0c0.2,0.1,0.3,0.3,0.5,0.4c0,0.1,0.3,0.2,0.4,0.4l0,0
		c0,0,0.2,0.2,0.3,0.2l0,0c0,0,0.3,0.2,0.5,0.3l0,0c0.2,0,0.3,0.2,0.5,0.2l0,0c0,0,0.2,0,0.4,0.1l0,0c0.2,0,0.3,0,0.5,0.1h2.8
		c0.2,0,0.3-0.1,0.5-0.2c2.3-1,3.9-3.3,3.9-5.9v-11c11.7,3.7,26.2,5.7,40.1,5.7c14,0,28.5-1.9,40.1-5.7v11c0,2.5,1.6,4.9,3.9,5.9
		c0.2,0,0.3,0.1,0.5,0.2l0,0c0,0,0.3,0,0.4,0.1l0,0c0.4,0,0.7,0.1,1.1,0.1h0.5c0.3,0,0.7-0.1,1-0.2l0,0c0,0,0.3,0,0.4-0.1l0,0
		c0.2,0,0.3-0.1,0.5-0.2l0,0c0.2,0,0.3-0.2,0.5-0.3l0,0c0,0,0.2-0.2,0.3-0.2l0,0c0-0.1,0.3-0.2,0.4-0.4c0-0.1,0.3-0.3,0.5-0.4l0,0
		c0-0.2,0.3-0.3,0.4-0.4l0,0c0.2-0.1,0.3-0.2,0.5-0.3l0,0c0,0,0.3-0.2,0.4-0.3l0,0c0.2,0,0.3-0.2,0.5-0.3l0,0c0.2,0,0.3-0.1,0.5-0.2
		l0,0c0.2,0,0.4-0.1,0.5-0.2l0,0c0.2,0,0.3-0.1,0.5-0.2l0,0c0.2,0,0.4-0.1,0.6-0.2l0,0c1.4-0.4,2.6-0.5,3.5-0.6
		c1.1,1,1.9,2.4,1.9,3.9v10.8c0,2.9-2.3,5.1-5,5.1h-3.6c-2.5,0-4.5,2-4.6,4.5c-0.3,13.1-5.7,25.2-15.1,33.4
		c-9.7,8.4-20.8,12.8-33.3,12.9c-12.4-0.1-23.6-4.5-33.3-12.9l1.4-0.2L491.1,172.5z M515.3,229.2L515.3,229.2l-13.6,5.8
		c-0.7,0.3-1.6,0-2-0.5l-18.3-26l4.8-1c0.2,0,0.5,0,0.7,0.2l0,0L515.3,229.2L515.3,229.2L515.3,229.2z M513.2,313.7l8.3-60.4h5.6
		l8.3,60.4H513.2z M634.8,307.9c0,3.2-2.5,5.7-5.6,5.7h-18.2v-37.4c0-2.5-2.1-4.6-4.6-4.6c-2.5,0-4.6,2.1-4.6,4.6v37.4h-57.1
		l-8.8-63.6l6-7.2l1.4,0.6c1.4,0.6,2.8,0.8,4.3,0.8c3.3,0,6.7-1.6,8.8-4.5l20.8-29.5l26.3,5c1.4,0.4,2.7,1,4,1.5
		c-4.8,5.5-5.2,13.8-0.5,19.6l4.9,6.2c2.5,3.2,6,5.2,10.1,5.6h1.7c3.3,0,6.7-1.2,9.3-3.3c1.3,4.2,1.9,8.6,1.9,13.1v50h0.1
		L634.8,307.9z"/>
	<path d="M586.4,271.7h-24c-4.1,0-7.4,3.4-7.4,7.5v12.9c0,4.1,3.3,7.5,7.4,7.5h24c4.1,0,7.4-3.4,7.4-7.5v-12.9
		C593.8,275.1,590.5,271.7,586.4,271.7z M584.7,290.5h-20.6V281h20.6V290.5L584.7,290.5z"/>
	<path d="M486.2,299.7c4.1,0,7.4-3.4,7.4-7.5v-12.9c0-4.1-3.3-7.5-7.4-7.5h-24c-4.1,0-7.4,3.4-7.4,7.5v12.9c0,4.1,3.3,7.5,7.4,7.5
		H486.2z M463.9,280.9h20.6v9.5h-20.6V280.9z"/>
</g>
<g>
	<path class="st0" d="M194.9,606l29.9-28.1l-11.9-2.3c-5.8-1.2-9.9-7.8-9.9-13.6V536h-55.7V562c0,5.9-4.2,12.6-9.9,13.6l-11.9,2.3
		l29.9,28.1c11,10.4,28.2,10.4,39.3,0l0,0H194.9z"/>
	<path class="st1" d="M177.6,535.8V573c0,5.9,4.2,12.6,9.9,13.6L211,591l13.9-13.1l-11.9-2.3c-5.8-1.2-9.9-7.8-9.9-13.6V536h-25.5
		L177.6,535.8z"/>
	<path class="st2" d="M257.8,580.3l-42.3-7.8c-1.5-0.3-3.1,0-4.4,1.1l-35.7,26.7l-35.7-26.7c-1.3-1-2.9-1.3-4.4-1.1L93,580.3
		c-21.2,6.2-35.9,25.7-35.9,47.9v50.7c0,5.8,4.7,10.5,10.5,10.5h215.6c5.8,0,10.5-4.7,10.5-10.5v-50.7
		C293.7,606,279.1,586.5,257.8,580.3L257.8,580.3z"/>
	<g>
		<path class="st3" d="M257.8,580.3l-42.3-7.8c-1.5-0.3-3.1,0-4.4,1.1l-18.8,14.1l40.2,7.5c21.2,6.2,35.9,12.1,35.9,34.3v60.2h14.7
			c5.8,0,10.5-4.7,10.5-10.5v-50.7c0-22.2-14.6-41.7-35.9-47.9l0,0V580.3z"/>
		<path class="st3" d="M123,574.7l23.2,32.4c1.7,2.5,4.9,3.3,7.7,2.1l21.5-9.1l-35.7-26.7c-1.3-1-2.9-1.3-4.4-1.1l-12.1,2.3l0,0
			L123,574.7z"/>
		<path class="st3" d="M227.6,574.7l-23.2,32.4c-1.7,2.5-4.9,3.3-7.7,2.1l-21.5-9.1l35.7-26.7c1.3-1,2.9-1.3,4.4-1.1l12.1,2.3l0,0
			L227.6,574.7z"/>
	</g>
	<path class="st2" d="M175.3,379.4c-44.8,0-81.3,31-81.3,48.6c0,17.6,36.4,30,81.3,30s81.3-12.6,81.3-30
		C256.6,410.6,220.2,379.4,175.3,379.4L175.3,379.4z"/>
	<path class="st3" d="M175.3,379.4c-4.4,0-8.7,0.3-12.8,0.9c38.8,5,68.4,31.9,68.4,47.7c0,15.9-29.6,27.6-68.4,29.7
		c4.2,0.2,8.5,0.3,12.8,0.3c44.8,0,81.3-12.6,81.3-30C256.6,410.6,220.2,379.4,175.3,379.4L175.3,379.4z"/>
	<path class="st0" d="M233.4,477.1h-3.8v-14.8c0-14.7-6-29-17.2-38.5c-8.7-7.5-65.8-7.5-74.4,0c-11.2,9.5-17.2,23.8-17.2,38.5v14.8
		h-3.8c-5.5,0-9.9,4.4-9.9,9.9v10.9c0,5.5,4.4,9.9,9.9,9.9h3.8c0.3,14.3,6.3,28,17.2,37.3c8.7,7.5,21,14.1,37.2,14.3
		c16.2-0.2,28.5-6.8,37.2-14.3c10.8-9.3,16.8-23.1,17.2-37.3h3.8c5.5,0,9.9-4.4,9.9-9.9v-10.9C243.3,481.5,238.9,477.1,233.4,477.1
		L233.4,477.1z"/>
	<path class="st1" d="M233.4,477.1h-3.8v-14.8c0-14.7-6-29-17.2-38.5c-5.5-4.7-30.1-6.4-49.8-5.3c11.6,0.8,21.5,2.5,24.7,5.3
		c11.2,9.5,17.2,23.8,17.2,38.5v45.4c-0.3,14.3-6.3,28-17.2,37.3c-6.3,5.5-14.5,10.4-24.7,12.8c3.9,1,8,1.5,12.6,1.5
		c16.2-0.2,28.5-6.8,37.2-14.3c10.8-9.3,16.8-23.1,17.2-37.3h3.8c5.5,0,9.9-4.4,9.9-9.9v-10.9c0-5.5-4.4-9.9-9.9-9.9l0,0V477.1z"/>
	<path class="st4" d="M112.6,444.2v33.9c0,0,8.4-0.2,13.6,5.1c1.1,1.1,3,0.3,3-1.3v-25.1h91.9V482c0,1.6,1.9,2.4,3,1.3
		c5.4-5.3,13.6-5.1,13.6-5.1v-33.9c0-21-125.3-21-125.3,0H112.6z"/>
	<path class="st2" d="M175.3,471.8c-34.6,0-62.6-10.7-62.6-24h125.3C237.9,461,209.9,471.8,175.3,471.8z"/>
	<path class="st3" d="M112.6,431.2v16.6h125.3v-16.5c0-4.5-3-8.4-7.4-9.4c-11.6-3-35.2-8.2-58.2-8.2s-42,5-52.6,8
		C115.5,422.9,112.6,426.8,112.6,431.2z"/>
	<g>
		<polygon class="st5" points="175.3,600.1 158.4,607.4 168.3,618.9 182.4,618.9 192.1,607.4 		"/>
		<polygon class="st5" points="182.4,618.9 175.3,618.9 168.3,618.9 158.4,689.5 192.1,689.5 		"/>
	</g>
	<g>
		<path class="st3" d="M239.2,665.9h-24.7c-1.6,0-3-1.3-3-3v-13.1c0-1.6,1.3-3,3-3h24.7c1.6,0,3,1.3,3,3v13.1
			C242.2,664.5,240.9,665.9,239.2,665.9z"/>
		<path class="st3" d="M136.1,665.9h-24.7c-1.6,0-3-1.3-3-3v-13.1c0-1.6,1.3-3,3-3h24.7c1.6,0,3,1.3,3,3v13.1
			C139.1,664.5,137.8,665.9,136.1,665.9z"/>
	</g>
	<path class="st6" d="M66.5,611.4c4.6,3.8,11.4,3,15.1-1.6l5-6.3c3.8-4.6,3-11.4-1.6-15.1l-3.6-2.9c-8.7,5.1-15.7,12.9-19.8,22
		L66.5,611.4C66.5,611.4,66.5,611.4,66.5,611.4z"/>
	<path class="st7" d="M289,607.4c-4.2-9.1-11.2-16.8-19.8-22l-3.6,2.9c-4.6,3.8-5.4,10.5-1.6,15.1l5,6.3c3.8,4.6,10.5,5.4,15.1,1.6
		L289,607.4L289,607.4L289,607.4z"/>
	<path d="M290.4,600.1c0,0,0,0,0-0.2c-0.3-0.4-0.5-0.9-0.9-1.3c0-0.2-0.3-0.4-0.4-0.8c-0.2-0.3-0.4-0.5-0.5-0.9
		c-0.2-0.3-0.5-0.8-0.8-1.1c0,0,0-0.2-0.2-0.3c0,0,0,0-0.2-0.2c-0.3-0.4-0.6-0.9-1-1.3c0,0-0.2-0.3-0.3-0.4c-0.3-0.4-0.6-0.8-1-1.2
		c0-0.2-0.3-0.3-0.4-0.5c-0.3-0.3-0.5-0.6-0.9-1c-0.2-0.2-0.4-0.4-0.6-0.8c-0.2-0.2-0.3-0.3-0.5-0.5c-6.4-6.5-14.4-11.3-23.4-13.9
		c0,0-0.3,0-0.4,0l-42.3-7.8h-0.2c-1.9-0.3-4,0-5.8,0.8c-1.5-1.8-2.5-4.3-2.5-6.5v-7.6c2.7-1.7,5.3-3.6,7.7-5.8
		c10.5-9,17.1-22.1,18.6-36.3c7.7-0.3,13.8-6.8,13.8-14.5V487c0-4.4-1.9-8.5-5.3-11.3v-25.1c15.3-7.5,18.7-16.3,18.7-22.5
		c0-10.6-9.9-23.9-25.9-34.8c-10.2-6.9-31.6-18.6-60.1-18.6s-49.9,11.6-60.1,18.6c-16,10.8-25.9,24.1-25.9,34.8
		c0,10.6,3.3,15,18.7,22.5v25.1c-3.3,2.7-5.3,6.8-5.3,11.3V498c0,7.8,6.1,14.2,13.8,14.5c1.4,14.2,8,27.2,18.6,36.3
		c2.5,2.1,5.1,4.1,7.7,5.8v7.6c0,2.3-1,4.8-2.5,6.5c-1.9-0.9-4-1.1-6-0.8l0,0l-42.3,7.8c0,0-0.3,0-0.4,0c-9,2.7-16.9,7.4-23.4,13.9
		c-0.2,0.2-0.3,0.3-0.5,0.5c-0.2,0.2-0.4,0.4-0.6,0.6c-0.3,0.3-0.5,0.6-0.9,1c-0.3,0.3-0.3,0.3-0.4,0.5c-0.3,0.4-0.6,0.8-1,1.2
		c0,0-0.2,0.3-0.3,0.4c-0.3,0.4-0.6,0.9-1,1.3c0,0,0,0-0.2,0.2c0,0,0,0.2-0.2,0.3c-0.2,0.3-0.5,0.8-0.8,1.1
		c-0.2,0.3-0.4,0.5-0.5,0.9c0,0.2-0.3,0.4-0.4,0.8c-0.3,0.4-0.5,0.9-0.9,1.3c0,0,0,0,0,0.2c-5.1,8.5-7.9,18.2-7.9,28.3v5.7
		c0,2.6,2.1,4.7,4.7,4.7c2.6,0,4.7-2.1,4.7-4.7v-5.7c0-4.6,0.6-9,1.9-13.3c2.8,2.1,6.1,3.3,9.5,3.3s1.1,0,1.7,0
		c4.1-0.4,7.8-2.5,10.4-5.7l5-6.3c2.6-3.2,3.8-7.2,3.3-11.4c-0.3-3.2-1.7-6.2-3.9-8.7c1.4-0.5,2.7-1.1,4.1-1.5l27-5l21.5,29.9
		c2.1,3,5.5,4.6,9,4.6s2.9-0.3,4.4-0.9l1.4-0.6l6.2,7.3l-9,64.6H96.4v-38c0-2.6-2.1-4.7-4.7-4.7c-2.6,0-4.7,2.1-4.7,4.7v38H68.2
		c-3.2,0-5.8-2.6-5.8-5.8v-23.2c0-2.6-2.1-4.7-4.7-4.7c-2.6,0-4.7,2.1-4.7,4.7v23.2c0,8.4,6.9,15.2,15.2,15.2h215.6
		c8.4,0,15.2-6.9,15.2-15.2v-50.7c0-10.1-2.7-19.7-7.9-28.3l-0.5,0.3L290.4,600.1z M83,600.5l-5,6.3c-1,1.3-2.5,2-4.1,2.3
		c-1.6,0.2-3.2-0.3-4.5-1.3l-1.9-1.6c0.4-0.8,0.9-1.5,1.3-2.3l0,0c0.4-0.6,0.9-1.2,1.2-1.8c0.3-0.6,0.2-0.3,0.4-0.5
		c0.4-0.5,0.8-1,1.2-1.5c0,0,0.2-0.2,0.3-0.4c0.4-0.5,0.9-1.1,1.4-1.6c0.5-0.5,0.3-0.3,0.4-0.4c0.4-0.5,1-1,1.4-1.5l0,0
		c1.8-1.9,3.8-3.5,5.9-4.9l1.1,0.9c1.3,1,2,2.5,2.3,4.1c0.2,1.6-0.3,3.2-1.3,4.5h-0.1L83,600.5z M268.4,591.8l1.1-0.9
		c2.1,1.5,4.1,3.1,5.9,4.8l0,0c0.5,0.6,1,1.1,1.4,1.6c0,0,0.3,0.3,0.4,0.4c0.4,0.5,1,1.1,1.4,1.6c0,0,0.2,0.2,0.3,0.4
		c0.4,0.5,0.8,1,1.2,1.5c0,0.2,0.2,0.3,0.4,0.5c0.4,0.6,0.9,1.2,1.2,1.8l0,0c0.4,0.8,0.9,1.5,1.3,2.3l-1.9,1.6
		c-1.3,1-2.9,1.5-4.5,1.3c-1.6-0.2-3.1-1-4.1-2.3l-5-6.3c-2.1-2.6-1.7-6.4,1-8.6h-0.1L268.4,591.8z M213.8,577.3L213.8,577.3
		c0.2-0.2,0.5-0.2,0.8-0.2l4.9,1l-18.9,26.4c-0.4,0.6-1.3,0.9-2,0.5l-13.9-5.9l0,0L213.8,577.3L213.8,577.3z M175.3,594.3L148,573.9
		c2.6-3.4,4.2-7.7,4.2-12v-2.8c7.2,3,14.9,4.6,23.1,4.7l0,0c8.2,0,15.9-1.7,23.1-4.7v2.8c0,4.3,1.5,8.6,4.2,12L175.3,594.3z
		 M184.4,609.1l-4.3,4.9h-9.7l-4.3-4.9l9.1-3.9L184.4,609.1z M107.9,439.8c-6-3.8-9.2-7.8-9.2-11.9c0-8.5,11.3-20,21.8-27
		c9.3-6.3,28.9-16.9,54.8-16.9s45.5,10.6,54.8,16.9c10.5,7.1,21.8,18.6,21.8,27s-3.2,8.2-9.2,11.9v-8.5c0-6.7-4.5-12.3-10.8-14.1
		c-12.1-3.1-35.9-8.3-59.4-8.3l0,0c-20.3,0-40.4,4.5-53.7,8.3c-6.2,1.7-10.5,7.5-10.5,13.9v8.7h-0.2L107.9,439.8z M220.7,452.4h10.4
		c0,0,0,0.2-0.2,0.2c-0.2,0.2-0.3,0.3-0.5,0.5c-0.2,0.2-0.2,0.2-0.3,0.3c-0.2,0.1-0.3,0.3-0.5,0.4c-0.2,0.1-0.3,0.3-0.5,0.4
		c0,0.1-0.3,0.2-0.4,0.3c-0.2,0.2-0.4,0.3-0.6,0.5c0,0-0.2,0.1-0.3,0.2c-0.3,0.2-0.5,0.4-0.9,0.5c0,0,0,0-0.2,0.1
		c-1.9,1.2-4.3,2.4-6.9,3.5l0,0c-10,4.2-25.1,7.3-44,7.3s-34-3.1-44-7.3l0,0c-2.7-1.1-4.9-2.3-6.9-3.5c0,0,0,0-0.2-0.1
		c-0.3-0.2-0.6-0.4-0.9-0.5c0,0-0.2-0.1-0.3-0.2c-0.2-0.2-0.4-0.3-0.6-0.5s-0.3-0.2-0.4-0.3c-0.2-0.1-0.3-0.3-0.5-0.4
		c-0.2-0.1-0.3-0.3-0.5-0.4c0-0.1-0.2-0.2-0.3-0.3c-0.2-0.2-0.3-0.3-0.5-0.5l-0.2-0.2h78.6c2.6,0,4.7-2.1,4.7-4.7
		c0-2.6-2.1-4.7-4.7-4.7H118v-12c0-2.3,1.5-4.3,3.8-4.9c12.8-3.5,32.1-7.8,51.3-7.8l0,0c22.4,0,45.4,5,57.1,8
		c2.3,0.5,3.9,2.6,3.9,4.9V443h-12.6c-2.6,0-4.7,2.1-4.7,4.7c0,2.6,2.1,4.7,4.7,4.7h-0.5H220.7z M233.2,462.9v10.8
		c-2.1,0.4-4.7,1.1-7.3,2.5v-9.1C228.8,465.7,231.2,464.3,233.2,462.9z M124.5,467.1v9.1c-2.6-1.3-5.1-2-7.3-2.5v-10.8
		C119.3,464.3,121.7,465.7,124.5,467.1z M141.1,541.3c-9.5-8.3-15.2-20.6-15.6-33.9c0-2.6-2.1-4.6-4.7-4.6H117
		c-2.9,0-5.1-2.4-5.1-5.1v-10.9c0-1.6,0.8-3,1.9-4c1.6,0.1,4.7,0.6,7.3,2.3l0,0c0.3,0.2,0.8,0.5,1.1,0.8l0,0
		c0.2,0.1,0.3,0.3,0.5,0.4c0,0.1,0.3,0.2,0.4,0.4l0,0c0,0,0.2,0.2,0.3,0.2l0,0c0,0,0.3,0.2,0.5,0.3l0,0c0.2,0,0.3,0.2,0.5,0.2l0,0
		c0,0,0.2,0,0.4,0.1l0,0c0.2,0,0.3,0,0.5,0.1h2.9c0.2,0,0.3-0.1,0.5-0.2c2.4-1,4-3.3,4-6v-11.2c12,3.8,26.9,5.8,41.3,5.8
		s29.3-1.9,41.3-5.8v11.2c0,2.6,1.6,4.9,4,6c0.2,0,0.3,0.1,0.5,0.2l0,0c0,0,0.3,0,0.4,0.1l0,0c0.4,0,0.8,0.1,1.2,0.1h0.5
		c0.3,0,0.8-0.1,1.1-0.2l0,0c0,0,0.3,0,0.4-0.1l0,0c0.2,0,0.3-0.1,0.5-0.2l0,0c0.2,0,0.3-0.2,0.5-0.3l0,0c0,0,0.2-0.2,0.3-0.2l0,0
		c0-0.1,0.3-0.2,0.4-0.4c0-0.1,0.3-0.3,0.5-0.4l0,0c0-0.2,0.3-0.3,0.4-0.4l0,0c0.2-0.1,0.3-0.2,0.5-0.3l0,0c0,0,0.3-0.2,0.4-0.3l0,0
		c0.2,0,0.3-0.2,0.5-0.3l0,0c0.2,0,0.3-0.1,0.5-0.2l0,0c0.2,0,0.4-0.1,0.5-0.2l0,0c0.2,0,0.3-0.1,0.5-0.2l0,0c0.2,0,0.4-0.1,0.6-0.2
		l0,0c1.4-0.4,2.7-0.5,3.6-0.6c1.2,1,1.9,2.5,1.9,4v10.9c0,2.9-2.4,5.1-5.1,5.1h-3.8c-2.6,0-4.6,2-4.7,4.6
		c-0.3,13.3-5.9,25.6-15.6,33.9c-10,8.6-21.5,13-34.2,13.1c-12.8,0-24.2-4.6-34.2-13.1l1.4-0.2H141.1z M166,598.9L166,598.9
		l-13.9,5.9c-0.8,0.3-1.6,0-2-0.5l-18.9-26.4l4.9-1c0.2,0,0.5,0,0.8,0.2l0,0L166,598.9L166,598.9z M163.8,684.7l8.6-61.4h5.8
		l8.6,61.4H163.8z M288.9,678.9c0,3.2-2.6,5.8-5.8,5.8h-18.8v-38c0-2.6-2.1-4.7-4.7-4.7c-2.6,0-4.7,2.1-4.7,4.7v38h-58.8l-9-64.6
		l6.2-7.3l1.4,0.6c1.4,0.6,2.9,0.9,4.4,0.9c3.4,0,6.9-1.6,9-4.6l21.5-29.9l27,5c1.4,0.4,2.8,1,4.1,1.5c-4.9,5.6-5.4,14.1-0.5,20
		l5,6.3c2.6,3.2,6.2,5.3,10.4,5.7h1.7c3.4,0,6.9-1.2,9.5-3.3c1.3,4.3,1.9,8.7,1.9,13.3v50.7h0.1L288.9,678.9z"/>
	<path d="M239.2,642.3h-24.7c-4.2,0-7.6,3.4-7.6,7.6V663c0,4.2,3.4,7.6,7.6,7.6h24.7c4.2,0,7.6-3.4,7.6-7.6v-13.1
		C246.8,645.7,243.4,642.3,239.2,642.3z M237.5,661.4h-21.2v-9.7h21.2V661.4L237.5,661.4z"/>
	<path d="M136.1,670.7c4.2,0,7.6-3.4,7.6-7.6V650c0-4.2-3.4-7.6-7.6-7.6h-24.7c-4.2,0-7.6,3.4-7.6,7.6v13.1c0,4.2,3.4,7.6,7.6,7.6
		H136.1z M113.2,651.6h21.2v9.7h-21.2V651.6z"/>
</g>
<g>
	<path class="st8" d="M59.1,168.5H25.2c-9.8,0-17.7-7.9-17.7-17.7c0-9.8,7.9-17.7,17.7-17.7h16.2c9.8,0,17.7,7.9,17.7,17.7V168.5z"
		/>
	<path class="st8" d="M291.5,168.5h33.9c9.8,0,17.7-7.9,17.7-17.7c0-9.8-7.9-17.7-17.7-17.7h-16.2c-9.8,0-17.7,7.9-17.7,17.7V168.5z
		"/>
	<path class="st9" d="M245.9,319.6h53.1c6.1,0,11.1-4.9,11.1-11.1v-31h-75.2v31C234.8,314.6,239.7,319.6,245.9,319.6L245.9,319.6z"
		/>
	<path class="st9" d="M101,319.6H47.9c-6.1,0-11.1-4.9-11.1-11.1v-31H112v31C112,314.6,107.1,319.6,101,319.6
		C101,319.6,101,319.6,101,319.6z"/>
	<path class="st10" d="M91.9,277.7H17c-5.2,0-9.5-4.3-9.5-9.5v-11.9c0-5.2,4.3-9.5,9.5-9.5h316.6c5.2,0,9.5,4.3,9.5,9.5v11.9
		c0,5.2-4.3,9.5-9.5,9.5h-77.2"/>
	<path class="st9" d="M325.3,246.8H25.2v-53.6c0-13.5,10.9-24.6,24.6-24.6h251.1c13.5,0,24.6,10.9,24.6,24.6v53.6l0,0H325.3z"/>
	<path class="st11" d="M300.8,168.6h-20.2c13.5,0,24.6,10.9,24.6,24.6v53.6h20.2v-53.6C325.3,179.6,314.4,168.6,300.8,168.6
		L300.8,168.6z"/>
	<g>
		<path class="st12" d="M245.2,298.9H101.7c-4.8,0-8.6-3.8-8.6-8.6v-16.2c0-4.8,3.8-8.6,8.6-8.6h143.5c4.8,0,8.6,3.8,8.6,8.6v16.2
			C253.8,295.1,249.9,298.9,245.2,298.9z"/>
		<path class="st12" d="M100.3,227.2H52.1c-4.2,0-7.7-3.5-7.7-7.7v-17.3c0-4.2,3.5-7.7,7.7-7.7h48.2c4.2,0,7.7,3.5,7.7,7.7v17.3
			C108,223.7,104.5,227.2,100.3,227.2z"/>
		<path class="st12" d="M300.7,227.2h-48.2c-4.2,0-7.7-3.5-7.7-7.7v-17.3c0-4.2,3.5-7.7,7.7-7.7h48.2c4.2,0,7.7,3.5,7.7,7.7v17.3
			C308.3,223.7,304.9,227.2,300.7,227.2z"/>
	</g>
	<path class="st13" d="M216.3,227.2h-81.9c-4.2,0-7.7-3.5-7.7-7.7v-17.3c0-4.2,3.5-7.7,7.7-7.7h81.9c4.2,0,7.7,3.5,7.7,7.7v17.3
		C224,223.7,220.5,227.2,216.3,227.2L216.3,227.2z"/>
	<path class="st9" d="M108.7,45.1h138.9v23.6H108.7L108.7,45.1L108.7,45.1z"/>
	<path class="st12" d="M261.6,68.6H88.9c-15.5,0-28.6,10.6-31.4,25.3l-10.7,74.6h256.9L293,93.9C290.2,79.2,276.9,68.6,261.6,68.6
		L261.6,68.6L261.6,68.6z"/>
	<path class="st14" d="M247.7,89.7h-145c-12.9,0-24.1,9.7-26.4,22.9l-9,56h215.8l-9-56C271.8,99.3,260.8,89.7,247.7,89.7
		C247.7,89.7,247.7,89.7,247.7,89.7z"/>
	<path class="st15" d="M274.1,112.6c-2.3-13.3-13.4-22.9-26.4-22.9h-20.2c12.9,0,24.1,9.7,26.4,22.9l9,56h20.2L274.1,112.6z"/>
	<path class="st16" d="M260.4,50.3H98.1c-6.9,0-12.5-5.6-12.5-12.5V20.8c0-6.9,5.6-12.5,12.5-12.5h162.3c6.9,0,12.5,5.6,12.5,12.5
		v17.1C272.9,44.8,267.3,50.3,260.4,50.3z"/>
	<path class="st17" d="M106,38.1V21c0-6.9,5.6-12.5,12.5-12.5H98.2c-6.9,0-12.5,5.6-12.5,12.5v17.1c0,6.9,5.6,12.5,12.5,12.5h20.2
		C111.6,50.6,106,45,106,38.1z"/>
	<path class="st18" d="M260.4,8.5h-79.5v41.9h79.5c6.9,0,12.5-5.6,12.5-12.5V20.8c0-6.9-5.6-12.5-12.5-12.5l0,0V8.5z"/>
	<path class="st19" d="M260.4,8.5h-20.2c6.9,0,12.5,5.6,12.5,12.5V38c0,6.9-5.6,12.5-12.5,12.5h20.2c6.9,0,12.5-5.6,12.5-12.5V20.9
		C272.9,14,267.3,8.5,260.4,8.5L260.4,8.5z"/>
	<path class="st20" d="M136.7,8.5h85.2v41.9h-85.2V8.5z"/>
	<path d="M343.5,315.4h-29.9c0.9-2.1,1.5-4.3,1.5-6.7v-26h18.6c8,0,14.7-6.5,14.7-14.7v-11.9c0-8-6.5-14.7-14.7-14.7h-3.1V193
		c0-7.4-2.8-14.3-7.3-19.6h2.3c12.6,0,22.8-10.2,22.8-22.8s-10.2-22.8-22.8-22.8c0,0-20.2,0.3-22.2,0.8l-5.1-35.6v-0.2
		c-3.3-17-18.5-29.4-36.4-29.4H253v-8.1h7.7c9.7,0,17.5-7.8,17.5-17.5V20.7c0-9.7-7.8-17.5-17.5-17.5H98.3
		c-9.7,0-17.5,7.8-17.5,17.5v17.1c0,9.7,7.8,17.5,17.5,17.5h5.5v8.1H89.1c-17.9,0-33.2,12.3-36.4,29.4v0.2l-5.1,35.6
		c-2-0.6-22.2-0.8-22.2-0.8c-12.6,0-22.8,10.2-22.8,22.8s10.2,22.8,22.8,22.8h2.3c-4.5,5.2-7.3,12.1-7.3,19.6v48.5h-3.1
		c-8,0-14.7,6.5-14.7,14.7v11.9c0,8,6.5,14.7,14.7,14.7H32v26c0,2.4,0.6,4.7,1.5,6.7H7.3c-2.8,0-5.1,2.3-5.1,5.1s2.3,5.1,5.1,5.1
		h336.4c2.8,0,5.1-2.3,5.1-5.1s-2.3-5.1-5.1-5.1H343.5z M309.3,138.2h16.2c7,0,12.7,5.7,12.7,12.7c0,7-5.7,12.7-12.7,12.7h-17.2
		l-3.5-24.4c1.4-0.6,3-0.8,4.5-0.8l0,0V138.2z M267.9,20.9V38c0,4.1-3.3,7.3-7.3,7.3H227V13.6h33.5
		C264.6,13.6,267.9,16.8,267.9,20.9z M216.9,13.6v31.8h-75.1V13.6H216.9z M90.9,38V20.9c0-4.1,3.3-7.3,7.3-7.3h33.5v31.8H98.2
		C94.1,45.3,90.9,42.1,90.9,38L90.9,38z M242.6,55.5v8.1H113.8v-8.1H242.6z M25.1,163.6c-7,0-12.7-5.7-12.7-12.7
		c0-7,5.7-12.7,12.7-12.7h16.2c1.6,0,3.1,0.3,4.5,0.8l-3.5,24.4H25.1L25.1,163.6z M106.9,308.9c0,3.3-2.7,5.9-5.9,5.9H47.9
		c-3.3,0-5.9-2.7-5.9-5.9v-26h8.7v8.1c0,2.8,2.3,5.1,5.1,5.1c2.8,0,5.1-2.3,5.1-5.1V283h8.6v8.1c0,2.8,2.3,5.1,5.1,5.1
		c2.8,0,5.1-2.3,5.1-5.1V283h8.5v7.7c0,7.6,6.2,13.7,13.7,13.7h5.2v4.5H106.9L106.9,308.9z M98.1,290.7v-16.2c0-2,1.6-3.6,3.6-3.6
		h143.5c2,0,3.6,1.6,3.6,3.6v16.2c0,2-1.6,3.6-3.6,3.6H101.7C99.7,294.3,98.1,292.6,98.1,290.7L98.1,290.7L98.1,290.7z M115.5,315.7
		c0.9-2.1,1.5-4.3,1.5-6.7v-4.5h112.6v4.5c0,2.4,0.6,4.7,1.5,6.7H115.5z M304.7,308.9c0,3.3-2.7,5.9-5.9,5.9h-53.1
		c-3.3,0-5.9-2.7-5.9-5.9v-4.5h5.2c7.6,0,13.7-6.2,13.7-13.7V283h8.5v8.1c0,2.8,2.3,5.1,5.1,5.1c2.8,0,5.1-2.3,5.1-5.1V283h8.6v8.1
		c0,2.8,2.3,5.1,5.1,5.1c2.8,0,5.1-2.3,5.1-5.1V283h8.7v26H304.7L304.7,308.9z M258.7,272.8c-0.8-6.7-6.6-12.1-13.6-12.1H101.6
		c-7,0-12.8,5.2-13.6,12.1H16.8c-2.4,0-4.4-2-4.4-4.4v-11.9c0-2.4,2-4.4,4.4-4.4h254.3c2.8,0,5.1-2.3,5.1-5.1s-2.3-5.1-5.1-5.1h-241
		v-48.5c0-10.7,8.7-19.4,19.4-19.4h46.3c2.8,0,5.1-2.3,5.1-5.1s-2.3-5.1-5.1-5.1H73.2l8-50C83.1,102.8,92.1,95,102.6,95h8.4
		c2.8,0,5.1-2.3,5.1-5.1c0-2.8-2.3-5.1-5.1-5.1h-8.4c-15.5,0-28.6,11.4-31.4,27.1l0,0l-8.3,51.7H52.5l9.9-68.8
		c2.3-12.2,13.5-21.1,26.4-21.1h172.7c12.9,0,24.1,8.8,26.4,21.1l9.9,68.8h-10.5l-8.3-51.7l0,0c-2.8-15.7-15.9-27.1-31.4-27.1H131.3
		c-2.8,0-5.1,2.3-5.1,5.1c0,2.8,2.3,5.1,5.1,5.1h116.3c10.5,0,19.4,7.8,21.4,18.6l8,50H116.2c-2.8,0-5.1,2.3-5.1,5.1
		s2.3,5.1,5.1,5.1H283c0.5,0,0.9,0,1.3-0.2c0.5,0,0.8,0.2,1.3,0.2h15c10.7,0,19.4,8.7,19.4,19.4v48.5h-27.1c-2.8,0-5.1,2.3-5.1,5.1
		s2.3,5.1,5.1,5.1h40.5c2.4,0,4.4,2,4.4,4.4v11.9c0,2.4-2,4.4-4.4,4.4H258.7L258.7,272.8z"/>
	<path d="M100.3,189.4H52.1c-7,0-12.8,5.7-12.8,12.8v17.3c0,7,5.7,12.8,12.8,12.8h48.2c7,0,12.8-5.7,12.8-12.8v-17.3
		C113.1,195.2,107.4,189.4,100.3,189.4L100.3,189.4z M102.8,219.6c0,1.4-1.2,2.6-2.6,2.6H52.1c-1.4,0-2.6-1.2-2.6-2.6v-17.3
		c0-1.4,1.2-2.6,2.6-2.6h48.2c1.4,0,2.6,1.2,2.6,2.6V219.6z"/>
	<path d="M313.5,219.7v-17.3c0-7-5.7-12.8-12.8-12.8h-48.2c-7,0-12.8,5.7-12.8,12.8v17.3c0,7,5.7,12.8,12.8,12.8h48.2
		C307.7,232.5,313.5,226.8,313.5,219.7L313.5,219.7z M249.9,219.7v-17.3c0-1.4,1.2-2.6,2.6-2.6h48.2c1.4,0,2.6,1.2,2.6,2.6v17.3
		c0,1.4-1.2,2.6-2.6,2.6h-48.2C251.1,222.2,249.9,221.1,249.9,219.7L249.9,219.7z"/>
	<path d="M216.3,189.4h-81.9c-7,0-12.8,5.7-12.8,12.8v17.3c0,7,5.7,12.8,12.8,12.8h81.9c7,0,12.8-5.7,12.8-12.8v-17.3
		C229.1,195.2,223.4,189.4,216.3,189.4L216.3,189.4L216.3,189.4z M218.9,219.6c0,1.4-1.2,2.6-2.6,2.6h-81.9c-1.4,0-2.6-1.2-2.6-2.6
		v-3.6H219v3.6H218.9z M218.9,205.8h-87.2v-3.6c0-1.4,1.2-2.6,2.6-2.6h81.9c1.4,0,2.6,1.2,2.6,2.6v3.6H218.9L218.9,205.8z"/>
</g>
<g>
	<path class="st8" d="M408.1,539.8h-33.9c-9.8,0-17.7-7.9-17.7-17.7c0-9.8,7.9-17.7,17.7-17.7h16.2c9.8,0,17.7,7.9,17.7,17.7V539.8z
		"/>
	<path class="st8" d="M640.5,539.8h33.9c9.8,0,17.7-7.9,17.7-17.7c0-9.8-7.9-17.7-17.7-17.7h-16.2c-9.8,0-17.7,7.9-17.7,17.7
		L640.5,539.8L640.5,539.8z"/>
	<path class="st9" d="M594.8,690.8h53.1c6.1,0,11.1-4.9,11.1-11.1v-31h-75.2v31C583.8,685.8,588.7,690.8,594.8,690.8L594.8,690.8z"
		/>
	<path class="st9" d="M450,690.8h-53.1c-6.1,0-11.1-4.9-11.1-11.1v-31H461v31C461,685.8,456.1,690.8,450,690.8L450,690.8z"/>
	<path class="st10" d="M440.9,648.8h-74.9c-5.2,0-9.5-4.3-9.5-9.5v-11.9c0-5.2,4.3-9.5,9.5-9.5h316.6c5.2,0,9.5,4.3,9.5,9.5v11.9
		c0,5.2-4.3,9.5-9.5,9.5h-77.2"/>
	<path class="st9" d="M674.3,618H374.2v-53.6c0-13.5,10.9-24.6,24.6-24.6h251.1c13.5,0,24.6,10.9,24.6,24.6V618l0,0H674.3z"/>
	<path class="st11" d="M649.8,539.8h-20.2c13.5,0,24.6,10.9,24.6,24.6V618h20.2v-53.6C674.3,550.8,663.4,539.8,649.8,539.8z"/>
	<g>
		<path class="st12" d="M594.1,670.1H450.7c-4.8,0-8.6-3.8-8.6-8.6v-16.2c0-4.8,3.8-8.6,8.6-8.6h143.5c4.8,0,8.6,3.8,8.6,8.6v16.2
			C602.7,666.3,598.9,670.1,594.1,670.1z"/>
		<path class="st12" d="M449.3,598.5h-48.2c-4.2,0-7.7-3.5-7.7-7.7v-17.3c0-4.2,3.5-7.7,7.7-7.7h48.2c4.2,0,7.7,3.5,7.7,7.7v17.3
			C456.9,595.1,453.4,598.5,449.3,598.5z"/>
		<path class="st12" d="M649.6,598.5h-48.2c-4.2,0-7.7-3.5-7.7-7.7v-17.3c0-4.2,3.5-7.7,7.7-7.7h48.2c4.2,0,7.7,3.5,7.7,7.7v17.3
			C657.3,595.1,653.8,598.5,649.6,598.5z"/>
	</g>
	<path class="st13" d="M565.3,598.5h-81.9c-4.2,0-7.7-3.5-7.7-7.7v-17.3c0-4.2,3.5-7.7,7.7-7.7h81.9c4.2,0,7.7,3.5,7.7,7.7v17.3
		C573,595.1,569.5,598.5,565.3,598.5z"/>
	<path class="st9" d="M457.6,416.4h138.9v23.6H457.6V416.4z"/>
	<path class="st12" d="M610.5,439.9H437.8c-15.5,0-28.6,10.6-31.4,25.3l-10.7,74.6h256.9L642,465.2
		C639.2,450.5,625.9,439.9,610.5,439.9L610.5,439.9L610.5,439.9z"/>
	<path class="st14" d="M596.7,460.9h-145c-12.9,0-24.1,9.7-26.4,22.9l-9,56h215.8l-9-56C620.8,470.5,609.7,460.9,596.7,460.9
		L596.7,460.9L596.7,460.9z"/>
	<path class="st15" d="M623.1,483.9c-2.3-13.3-13.4-22.9-26.4-22.9h-20.2c12.9,0,24.1,9.7,26.4,22.9l9,56h20.2L623.1,483.9
		L623.1,483.9L623.1,483.9z"/>
	<path class="st16" d="M609.4,421.7H447c-6.9,0-12.5-5.6-12.5-12.5v-17.1c0-6.9,5.6-12.5,12.5-12.5h162.3c6.9,0,12.5,5.6,12.5,12.5
		v17.1C621.8,416.1,616.2,421.7,609.4,421.7z"/>
	<path class="st17" d="M455.1,409.3v-17.1c0-6.9,5.6-12.5,12.5-12.5h-20.2c-6.9,0-12.5,5.6-12.5,12.5v17.1c0,6.9,5.6,12.5,12.5,12.5
		h20.2C460.7,421.8,455.1,416.2,455.1,409.3z"/>
	<path class="st18" d="M609.4,379.8h-79.5v41.9h79.5c6.9,0,12.5-5.6,12.5-12.5v-17.1c0-6.9-5.6-12.5-12.5-12.5l0,0V379.8z"/>
	<path class="st19" d="M609.4,379.8h-20.2c6.9,0,12.5,5.6,12.5,12.5v17.1c0,6.9-5.6,12.5-12.5,12.5h20.2c6.9,0,12.5-5.6,12.5-12.5
		v-17.1C621.8,385.4,616.2,379.8,609.4,379.8z"/>
	<path class="st20" d="M485.7,379.8h85.2v41.9h-85.2V379.8z"/>
	<path d="M692.5,686.6h-29.9c0.9-2.1,1.5-4.3,1.5-6.7v-26h18.6c8,0,14.7-6.5,14.7-14.7v-11.9c0-8-6.5-14.7-14.7-14.7h-3.1v-48.5
		c0-7.4-2.8-14.3-7.3-19.6h2.3c12.6,0,22.8-10.2,22.8-22.8c0-12.6-10.2-22.8-22.8-22.8c0,0-20.2,0.3-22.2,0.8l-5.1-35.6V464
		c-3.3-17-18.5-29.4-36.4-29.4h-8.8v-8.1h7.7c9.7,0,17.5-7.8,17.5-17.5v-17.1c0-9.7-7.8-17.5-17.5-17.5H447.3
		c-9.7,0-17.5,7.8-17.5,17.5V409c0,9.7,7.8,17.5,17.5,17.5h5.5v8.1h-14.7c-17.9,0-33.2,12.3-36.4,29.4v0.2l-5.1,35.6
		c-2-0.6-22.2-0.8-22.2-0.8c-12.6,0-22.8,10.2-22.8,22.8c0,12.6,10.2,22.8,22.8,22.8h2.3c-4.5,5.2-7.3,12.1-7.3,19.6v48.5h-3.1
		c-8,0-14.7,6.5-14.7,14.7v11.9c0,8,6.5,14.7,14.7,14.7h14.8v26c0,2.4,0.6,4.7,1.5,6.7h-26.2c-2.8,0-5.1,2.3-5.1,5.1
		s2.3,5.1,5.1,5.1h336.4c2.8,0,5.1-2.3,5.1-5.1s-2.3-5.1-5.1-5.1H692.5z M658.3,509.4h16.2c7,0,12.7,5.7,12.7,12.7
		c0,7-5.7,12.7-12.7,12.7h-17.2l-3.5-24.4c1.4-0.6,3-0.8,4.5-0.8l0,0L658.3,509.4z M616.8,392.1v17.1c0,4.1-3.3,7.3-7.3,7.3H576
		v-31.8h33.5C613.6,384.8,616.8,388,616.8,392.1z M565.9,384.8v31.8h-75.1v-31.8H565.9z M439.8,409.2v-17.1c0-4.1,3.3-7.3,7.3-7.3
		h33.5v31.8h-33.5C443.1,416.5,439.8,413.3,439.8,409.2L439.8,409.2z M591.6,426.7v8.1H462.8v-8.1H591.6z M374.1,534.7
		c-7,0-12.7-5.7-12.7-12.7s5.7-12.7,12.7-12.7h16.2c1.6,0,3.1,0.3,4.5,0.8l-3.5,24.4h-17.2V534.7z M455.9,680c0,3.3-2.7,5.9-5.9,5.9
		h-53.1c-3.3,0-5.9-2.7-5.9-5.9v-26h8.7v8.1c0,2.8,2.3,5.1,5.1,5.1s5.1-2.3,5.1-5.1v-8.1h8.6v8.1c0,2.8,2.3,5.1,5.1,5.1
		s5.1-2.3,5.1-5.1v-8.1h8.5v7.7c0,7.6,6.2,13.7,13.7,13.7h5.2v4.5H455.9L455.9,680z M447,661.7v-16.2c0-2,1.6-3.6,3.6-3.6h143.5
		c2,0,3.6,1.6,3.6,3.6v16.2c0,2-1.6,3.6-3.6,3.6H450.7C448.7,665.3,447,663.7,447,661.7L447,661.7z M464.5,686.8
		c0.9-2.1,1.5-4.3,1.5-6.7v-4.5h112.6v4.5c0,2.4,0.6,4.7,1.5,6.7H464.5z M653.7,680c0,3.3-2.7,5.9-5.9,5.9h-53.1
		c-3.3,0-5.9-2.7-5.9-5.9v-4.5h5.2c7.6,0,13.7-6.2,13.7-13.7v-7.7h8.5v8.1c0,2.8,2.3,5.1,5.1,5.1s5.1-2.3,5.1-5.1v-8.1h8.6v8.1
		c0,2.8,2.3,5.1,5.1,5.1c2.8,0,5.1-2.3,5.1-5.1v-8.1h8.7v26H653.7L653.7,680z M607.6,643.9c-0.8-6.7-6.6-12.1-13.6-12.1H450.5
		c-7,0-12.8,5.2-13.6,12.1h-71.1c-2.4,0-4.4-2-4.4-4.4v-11.9c0-2.4,2-4.4,4.4-4.4h254.3c2.8,0,5.1-2.3,5.1-5.1s-2.3-5.1-5.1-5.1
		h-241v-48.5c0-10.7,8.7-19.4,19.4-19.4h46.3c2.8,0,5.1-2.3,5.1-5.1s-2.3-5.1-5.1-5.1h-22.7l8-50c1.9-10.8,10.9-18.6,21.4-18.6h8.4
		c2.8,0,5.1-2.3,5.1-5.1s-2.3-5.1-5.1-5.1h-8.4c-15.5,0-28.6,11.4-31.4,27.1l0,0l-8.3,51.7h-10.5l9.9-68.8
		c2.3-12.2,13.5-21.1,26.4-21.1h172.7c12.9,0,24.1,8.8,26.4,21.1l9.9,68.8h-10.5L628,483l0,0c-2.8-15.7-15.9-27.1-31.4-27.1H480.3
		c-2.8,0-5.1,2.3-5.1,5.1c0,2.8,2.3,5.1,5.1,5.1h116.3c10.5,0,19.4,7.8,21.4,18.6l8,50H465.2c-2.8,0-5.1,2.3-5.1,5.1
		s2.3,5.1,5.1,5.1H632c0.5,0,0.9,0,1.3-0.2c0.5,0,0.8,0.2,1.3,0.2h15c10.7,0,19.4,8.7,19.4,19.4V613h-27.1c-2.8,0-5.1,2.3-5.1,5.1
		s2.3,5.1,5.1,5.1h40.5c2.4,0,4.4,2,4.4,4.4v11.9c0,2.4-2,4.4-4.4,4.4H607.6L607.6,643.9z"/>
	<path d="M449.3,560.7h-48.2c-7,0-12.8,5.7-12.8,12.8v17.3c0,7,5.7,12.8,12.8,12.8h48.2c7,0,12.8-5.7,12.8-12.8v-17.3
		C462.1,566.5,456.4,560.7,449.3,560.7L449.3,560.7z M451.8,590.9c0,1.4-1.2,2.6-2.6,2.6h-48.2c-1.4,0-2.6-1.2-2.6-2.6v-17.3
		c0-1.4,1.2-2.6,2.6-2.6h48.2c1.4,0,2.6,1.2,2.6,2.6V590.9z"/>
	<path d="M662.4,590.8v-17.3c0-7-5.7-12.8-12.8-12.8h-48.2c-7,0-12.8,5.7-12.8,12.8v17.3c0,7,5.7,12.8,12.8,12.8h48.2
		C656.6,603.6,662.4,597.9,662.4,590.8L662.4,590.8z M598.9,590.8v-17.3c0-1.4,1.2-2.6,2.6-2.6h48.2c1.4,0,2.6,1.2,2.6,2.6v17.3
		c0,1.4-1.2,2.6-2.6,2.6h-48.2C600.1,593.3,598.9,592.1,598.9,590.8z"/>
	<path d="M565.3,560.7h-81.9c-7,0-12.8,5.7-12.8,12.8v17.3c0,7,5.7,12.8,12.8,12.8h81.9c7,0,12.8-5.7,12.8-12.8v-17.3
		C578.1,566.5,572.4,560.7,565.3,560.7L565.3,560.7z M567.8,590.9c0,1.4-1.2,2.6-2.6,2.6h-81.9c-1.4,0-2.6-1.2-2.6-2.6v-3.6H568v3.6
		H567.8z M567.8,577.1h-87.2v-3.6c0-1.4,1.2-2.6,2.6-2.6h81.9c1.4,0,2.6,1.2,2.6,2.6v3.6H567.8z"/>
</g>
</svg>
