<?xml version="1.0" encoding="UTF-8"?><svg id="Calque_1" xmlns="http://www.w3.org/2000/svg" viewBox="0 0 700 700"><g><path d="M526.9,248.4l27.9-26.2-11.1-2.1c-5.4-1.1-9.2-7.3-9.2-12.7v-24.3h-51.9v24.3c0,5.5-3.9,11.7-9.2,12.7l-11.1,2.1,27.9,26.2c10.3,9.7,26.3,9.7,36.6,0h0Z" fill="#ffe7cf"/><path d="M510.8,183.1v34.6c0,5.5,3.9,11.7,9.2,12.7l21.9,4.1,13-12.2-11.1-2.1c-5.4-1.1-9.2-7.3-9.2-12.7v-24.3h-23.8Z" fill="#f4d3a6"/><path d="M585.5,224.4l-39.4-7.3c-1.4-.3-2.9,0-4.1,1l-33.3,24.9-33.3-24.9c-1.2-.9-2.7-1.2-4.1-1l-39.4,7.3c-19.8,5.8-33.5,24-33.5,44.7v47.3c0,5.4,4.4,9.8,9.8,9.8h201c5.4,0,9.8-4.4,9.8-9.8v-47.3c0-20.7-13.6-38.9-33.5-44.7Z" fill="#2d5872"/><g><path d="M585.5,224.4l-39.4-7.3c-1.4-.3-2.9,0-4.1,1l-17.5,13.1,37.5,7c19.8,5.8,33.5,11.3,33.5,32v56.1h13.7c5.4,0,9.8-4.4,9.8-9.8v-47.3c0-20.7-13.6-38.9-33.5-44.7h0Z" fill="#1d4559"/><path d="M459.9,219.2l21.6,30.2c1.6,2.3,4.6,3.1,7.2,2l20-8.5-33.3-24.9c-1.2-.9-2.7-1.2-4.1-1l-11.3,2.1h0Z" fill="#1d4559"/><path d="M557.4,219.2l-21.6,30.2c-1.6,2.3-4.6,3.1-7.2,2l-20-8.5,33.3-24.9c1.2-.9,2.7-1.2,4.1-1l11.3,2.1h0Z" fill="#1d4559"/></g><path d="M508.6,37.1c-41.8,0-75.8,28.9-75.8,45.3s33.9,28,75.8,28,75.8-11.7,75.8-28-33.9-45.3-75.8-45.3Z" fill="#2d5872"/><path d="M508.6,37.1c-4.1,0-8.1,.3-11.9,.8,36.2,4.7,63.8,29.7,63.8,44.5s-27.6,25.7-63.8,27.7c3.9,.2,7.9,.3,11.9,.3,41.8,0,75.8-11.7,75.8-28s-33.9-45.3-75.8-45.3Z" fill="#1d4559"/><path d="M562.8,128.1h-3.5v-13.8c0-13.7-5.6-27-16-35.9-8.1-7-61.3-7-69.4,0-10.4,8.9-16,22.2-16,35.9v13.8h-3.5c-5.1,0-9.2,4.1-9.2,9.2v10.2c0,5.1,4.1,9.2,9.2,9.2h3.5c.3,13.3,5.9,26.1,16,34.8,8.1,7,19.6,13.1,34.7,13.3,15.1-.2,26.6-6.3,34.7-13.3,10.1-8.7,15.7-21.5,16-34.8h3.5c5.1,0,9.2-4.1,9.2-9.2v-10.2c0-5.1-4.1-9.2-9.2-9.2h0Z" fill="#ffe7cf"/><path d="M562.8,128.1h-3.5v-13.8c0-13.7-5.6-27-16-35.9-5.1-4.4-28.1-6-46.4-4.9,10.8,.7,20,2.3,23,4.9,10.4,8.9,16,22.2,16,35.9v42.3c-.3,13.3-5.9,26.1-16,34.8-5.9,5.1-13.5,9.7-23,11.9,3.6,.9,7.5,1.4,11.7,1.4,15.1-.2,26.6-6.3,34.7-13.3,10.1-8.7,15.7-21.5,16-34.8h3.5c5.1,0,9.2-4.1,9.2-9.2v-10.2c0-5.1-4.1-9.2-9.2-9.2h0Z" fill="#f4d3a6"/><path d="M450.2,97.6v31.6s7.8-.2,12.7,4.8c1,1,2.8,.3,2.8-1.2v-23.4h85.7v23.4c0,1.5,1.8,2.2,2.8,1.2,5-4.9,12.7-4.8,12.7-4.8v-31.6c0-19.6-116.8-19.6-116.8,0h.1Z" fill="#ff6d3a"/><path d="M508.6,123.3c-32.3,0-58.4-10-58.4-22.4h116.8c0,12.3-26.1,22.4-58.4,22.4Z" fill="#2d5872"/><path d="M450.2,85.4v15.5h116.8v-15.4c0-4.2-2.8-7.8-6.9-8.8-10.8-2.8-32.8-7.6-54.3-7.6s-39.2,4.7-49,7.5c-3.9,1.1-6.6,4.7-6.6,8.8Z" fill="#1d4559"/><g><polygon points="508.6 242.9 493 249.6 502.1 260.4 515.2 260.4 524.3 249.6 508.6 242.9" fill="#282c3a"/><polygon points="515.2 260.4 508.6 260.4 502.1 260.4 493 326.2 524.3 326.2 515.2 260.4" fill="#282c3a"/></g><g><path d="M568.2,304.2h-23c-1.5,0-2.8-1.2-2.8-2.8v-12.2c0-1.5,1.2-2.8,2.8-2.8h23c1.5,0,2.8,1.2,2.8,2.8v12.2c0,1.5-1.2,2.8-2.8,2.8Z" fill="#1d4559"/><path d="M472.1,304.2h-23c-1.5,0-2.8-1.2-2.8-2.8v-12.2c0-1.5,1.2-2.8,2.8-2.8h23c1.5,0,2.8,1.2,2.8,2.8v12.2c0,1.5-1.2,2.8-2.8,2.8Z" fill="#1d4559"/></g><path d="M407.2,253.4c4.3,3.5,10.6,2.8,14.1-1.5l4.7-5.9c3.5-4.3,2.8-10.6-1.5-14.1l-3.4-2.7c-8.1,4.8-14.6,12-18.5,20.5l4.6,3.7h0Z" fill="#ffbf14"/><path d="M614.7,249.6c-3.9-8.5-10.4-15.7-18.5-20.5l-3.4,2.7c-4.3,3.5-5,9.8-1.5,14.1l4.7,5.9c3.5,4.3,9.8,5,14.1,1.5l4.6-3.7h0Z" fill="#eaa200"/><path d="M616,242.9s0-.1,0-.2c-.3-.4-.5-.8-.8-1.2,0-.2-.3-.4-.4-.7-.2-.3-.4-.5-.5-.8-.2-.3-.5-.7-.7-1,0-.1,0-.2-.2-.3,0,0,0-.1-.2-.2-.3-.4-.6-.8-.9-1.2,0-.1-.2-.3-.3-.4-.3-.4-.6-.7-.9-1.1,0-.2-.3-.3-.4-.5-.3-.3-.5-.6-.8-.9-.2-.2-.4-.4-.6-.7-.2-.2-.3-.3-.5-.5-6-6.1-13.4-10.5-21.8-13,0,0-.3,0-.4-.1l-39.4-7.3h-.2c-1.8-.3-3.7,0-5.4,.7-1.4-1.7-2.3-4-2.3-6.1v-7.1c2.5-1.6,4.9-3.4,7.2-5.4,9.8-8.4,15.9-20.6,17.3-33.8,7.2-.3,12.9-6.3,12.9-13.5v-10.2c0-4.1-1.8-7.9-4.9-10.5v-23.4c14.3-7,17.4-15.2,17.4-21,0-9.9-9.2-22.3-24.1-32.4-9.5-6.4-29.5-17.3-56-17.3s-46.5,10.8-56,17.3c-14.9,10.1-24.1,22.5-24.1,32.4s3.1,14,17.4,21v23.4c-3.1,2.5-4.9,6.3-4.9,10.5v10.2c0,7.3,5.7,13.2,12.9,13.5,1.3,13.2,7.5,25.4,17.3,33.8,2.3,2,4.8,3.8,7.2,5.4v7.1c0,2.1-.9,4.5-2.3,6.1-1.8-.8-3.7-1-5.6-.7h0l-39.4,7.3c0,0-.3,0-.4,.1-8.4,2.5-15.8,6.9-21.8,13-.2,.2-.3,.3-.5,.5s-.4,.4-.6,.6c-.3,.3-.5,.6-.8,.9,0,.1-.3,.3-.4,.5-.3,.4-.6,.7-.9,1.1,0,.1-.2,.3-.3,.4-.3,.4-.6,.8-.9,1.2,0,0,0,.1-.2,.2,0,0,0,.2-.2,.3-.2,.3-.5,.7-.7,1s-.4,.5-.5,.8c0,.2-.3,.4-.4,.7-.3,.4-.5,.8-.8,1.2,0,0,0,.1,0,.2-4.8,7.9-7.4,17-7.4,26.4v5.3c0,2.4,2,4.4,4.4,4.4s4.4-2,4.4-4.4v-5.3c0-4.3,.6-8.4,1.8-12.4,2.6,2,5.7,3.1,8.9,3.1s1,0,1.6,0c3.8-.4,7.3-2.3,9.7-5.3l4.7-5.9c2.4-3,3.5-6.7,3.1-10.6-.3-3-1.6-5.8-3.6-8.1,1.3-.5,2.5-1,3.8-1.4l25.2-4.7,20,27.9c2,2.8,5.1,4.3,8.4,4.3s2.7-.3,4.1-.8l1.3-.6,5.8,6.8-8.4,60.2h-54.8v-35.4c0-2.4-2-4.4-4.4-4.4s-4.4,2-4.4,4.4v35.4h-17.5c-3,0-5.4-2.4-5.4-5.4v-21.6c0-2.4-2-4.4-4.4-4.4s-4.4,2-4.4,4.4v21.6c0,7.8,6.4,14.2,14.2,14.2h201c7.8,0,14.2-6.4,14.2-14.2v-47.3c0-9.4-2.5-18.4-7.4-26.4l-.5,.3Zm-193.3,.4l-4.7,5.9c-.9,1.2-2.3,1.9-3.8,2.1-1.5,.2-3-.3-4.2-1.2l-1.8-1.5c.4-.7,.8-1.4,1.2-2.1h0c.4-.6,.8-1.1,1.1-1.7s.2-.3,.4-.5c.4-.5,.7-.9,1.1-1.4,0-.1,.2-.2,.3-.4,.4-.5,.8-1,1.3-1.5,0-.1,.3-.3,.4-.4,.4-.5,.9-.9,1.3-1.4h0c1.7-1.8,3.5-3.3,5.5-4.6l1,.8c1.2,.9,1.9,2.3,2.1,3.8s-.3,3-1.2,4.2h-.1Zm172.8-8.1l1-.8c2,1.4,3.8,2.9,5.5,4.5h0c.5,.6,.9,1,1.3,1.5,0,.1,.3,.3,.4,.4,.4,.5,.9,1,1.3,1.5,0,.1,.2,.2,.3,.4,.4,.5,.7,.9,1.1,1.4,0,.2,.2,.3,.4,.5,.4,.6,.8,1.1,1.1,1.7h0c.4,.7,.8,1.4,1.2,2.1l-1.8,1.5c-1.2,.9-2.7,1.4-4.2,1.2s-2.9-.9-3.8-2.1l-4.7-5.9c-2-2.4-1.6-6,.9-8h-.1Zm-50.9-13.6h0c.2-.2,.5-.2,.7-.2l4.6,.9-17.6,24.6c-.4,.6-1.2,.8-1.9,.5l-13-5.5h0l27.2-20.3h0Zm-35.9,15.9l-25.4-19c2.4-3.2,3.9-7.2,3.9-11.2v-2.6c6.7,2.8,13.9,4.3,21.5,4.4h0c7.6,0,14.8-1.6,21.5-4.4v2.6c0,4,1.4,8,3.9,11.2l-25.4,19Zm8.5,13.8l-4,4.6h-9l-4-4.6,8.5-3.6,8.5,3.6Zm-71.3-157.8c-5.6-3.5-8.6-7.3-8.6-11.1,0-7.9,10.5-18.6,20.3-25.2,8.7-5.9,26.9-15.8,51.1-15.8s42.4,9.9,51.1,15.8c9.8,6.6,20.3,17.3,20.3,25.2s-3,7.6-8.6,11.1v-7.9c0-6.2-4.2-11.5-10.1-13.1-11.3-2.9-33.5-7.7-55.4-7.7h0c-18.9,0-37.7,4.2-50.1,7.7-5.8,1.6-9.8,7-9.8,13v8.1h-.2Zm105.1,11.7h9.7s0,.2-.2,.2c-.2,.2-.3,.3-.5,.5s-.2,.2-.3,.3c-.2,0-.3,.3-.5,.4s-.3,.3-.5,.4c0,0-.3,.2-.4,.3-.2,.2-.4,.3-.6,.5,0,0-.2,0-.3,.2-.3,.2-.5,.4-.8,.5,0,0,0,0-.2,0-1.8,1.1-4,2.2-6.4,3.3h0c-9.3,3.9-23.4,6.8-41,6.8s-31.7-2.9-41-6.8h0c-2.5-1-4.6-2.1-6.4-3.3,0,0,0,0-.2,0-.3-.2-.6-.4-.8-.5,0,0-.2,0-.3-.2-.2-.2-.4-.3-.6-.5s-.3-.2-.4-.3c-.2,0-.3-.3-.5-.4s-.3-.3-.5-.4c0,0-.2-.2-.3-.3-.2-.2-.3-.3-.5-.5l-.2-.2h73.3c2.4,0,4.4-2,4.4-4.4s-2-4.4-4.4-4.4h-75.3v-11.2c0-2.1,1.4-4,3.5-4.6,11.9-3.3,29.9-7.3,47.8-7.3h0c20.9,0,42.3,4.7,53.2,7.5,2.1,.5,3.6,2.4,3.6,4.6v11h-11.7c-2.4,0-4.4,2-4.4,4.4s2,4.4,4.4,4.4h-.5Zm11.7,9.8v10.1c-2,.4-4.4,1-6.8,2.3v-8.5c2.7-1.3,4.9-2.6,6.8-3.9Zm-101.3,3.9v8.5c-2.4-1.2-4.8-1.9-6.8-2.3v-10.1c1.9,1.3,4.1,2.6,6.8,3.9Zm15.4,69.2c-8.9-7.7-14.2-19.2-14.5-31.6,0-2.4-2-4.3-4.4-4.3h-3.5c-2.7,0-4.8-2.2-4.8-4.8v-10.2c0-1.5,.7-2.8,1.8-3.7,1.5,.1,4.4,.6,6.8,2.1h0c.3,.2,.7,.5,1,.7h0c.2,.1,.3,.3,.5,.4,0,.1,.3,.2,.4,.4h0c0,0,.2,.2,.3,.2h0c0,0,.3,.2,.5,.3h0c.2,0,.3,.2,.5,.2h0c0,0,.2,0,.4,.1h0c.2,0,.3,0,.5,.1h2.7c.2,0,.3-.1,.5-.2,2.2-.9,3.7-3.1,3.7-5.6v-10.4c11.2,3.5,25.1,5.4,38.5,5.4s27.3-1.8,38.5-5.4v10.4c0,2.4,1.5,4.6,3.7,5.6,.2,0,.3,.1,.5,.2h0c0,0,.3,0,.4,.1h0c.4,0,.7,.1,1.1,.1h.5c.3,0,.7-.1,1-.2h0c0,0,.3,0,.4-.1h0c.2,0,.3-.1,.5-.2h0c.2,0,.3-.2,.5-.3h0c0,0,.2-.2,.3-.2h0c0-.1,.3-.2,.4-.4,0-.1,.3-.3,.5-.4h0c0-.2,.3-.3,.4-.4h0c.2-.1,.3-.2,.5-.3h0c0,0,.3-.2,.4-.3h0c.2,0,.3-.2,.5-.3h0c.2,0,.3-.1,.5-.2h0c.2,0,.4-.1,.5-.2h0c.2,0,.3-.1,.5-.2h0c.2,0,.4-.1,.6-.2h0c1.3-.4,2.5-.5,3.4-.6,1.1,.9,1.8,2.3,1.8,3.7v10.2c0,2.7-2.2,4.8-4.8,4.8h-3.5c-2.4,0-4.3,1.9-4.4,4.3-.3,12.4-5.5,23.9-14.5,31.6-9.3,8-20,12.1-31.9,12.2-11.9-.1-22.6-4.3-31.9-12.2l1.3-.2Zm23.2,53.7h0l-13,5.5c-.7,.3-1.5,0-1.9-.5l-17.6-24.6,4.6-.9c.2,0,.5,0,.7,.2h0l27.2,20.3h0Zm-2,80l8-57.2h5.4l8,57.2h-21.4Zm116.6-5.4c0,3-2.4,5.4-5.4,5.4h-17.5v-35.4c0-2.4-2-4.4-4.4-4.4s-4.4,2-4.4,4.4v35.4h-54.8l-8.4-60.2,5.8-6.8,1.3,.6c1.3,.6,2.7,.8,4.1,.8,3.2,0,6.4-1.5,8.4-4.3l20-27.9,25.2,4.7c1.3,.4,2.6,.9,3.8,1.4-4.6,5.2-5,13.1-.5,18.6l4.7,5.9c2.4,3,5.8,4.9,9.7,5.3h1.6c3.2,0,6.4-1.1,8.9-3.1,1.2,4,1.8,8.1,1.8,12.4v47.3h.1Z"/><path d="M568.2,282.1h-23c-3.9,0-7.1,3.2-7.1,7.1v12.2c0,3.9,3.2,7.1,7.1,7.1h23c3.9,0,7.1-3.2,7.1-7.1v-12.2c0-3.9-3.2-7.1-7.1-7.1Zm-1.6,17.8h-19.8v-9h19.8v9h0Z"/><path d="M472.1,308.6c3.9,0,7.1-3.2,7.1-7.1v-12.2c0-3.9-3.2-7.1-7.1-7.1h-23c-3.9,0-7.1,3.2-7.1,7.1v12.2c0,3.9,3.2,7.1,7.1,7.1h23Zm-21.4-17.8h19.8v9h-19.8v-9Z"/></g><g><path d="M209.2,585.2l27.9-26.2-11.1-2.1c-5.4-1.1-9.2-7.3-9.2-12.7v-24.3h-51.9v24.3c0,5.5-3.9,11.7-9.2,12.7l-11.1,2.1,27.9,26.2c10.3,9.7,26.3,9.7,36.6,0h0Z" fill="#ffe7cf"/><path d="M193.1,519.8v34.6c0,5.5,3.9,11.7,9.2,12.7l21.9,4.1,13-12.2-11.1-2.1c-5.4-1.1-9.2-7.3-9.2-12.7v-24.3h-23.8Z" fill="#f4d3a6"/><path d="M267.8,561.2l-39.4-7.3c-1.4-.3-2.9,0-4.1,1l-33.3,24.9-33.3-24.9c-1.2-.9-2.7-1.2-4.1-1l-39.4,7.3c-19.8,5.8-33.5,24-33.5,44.7v47.3c0,5.4,4.4,9.8,9.8,9.8h201c5.4,0,9.8-4.4,9.8-9.8v-47.3c0-20.7-13.6-38.9-33.5-44.7Z" fill="#2d5872"/><g><path d="M267.8,561.2l-39.4-7.3c-1.4-.3-2.9,0-4.1,1l-17.5,13.1,37.5,7c19.8,5.8,33.5,11.3,33.5,32v56.1h13.7c5.4,0,9.8-4.4,9.8-9.8v-47.3c0-20.7-13.6-38.9-33.5-44.7h0Z" fill="#1d4559"/><path d="M142.2,556l21.6,30.2c1.6,2.3,4.6,3.1,7.2,2l20-8.5-33.3-24.9c-1.2-.9-2.7-1.2-4.1-1l-11.3,2.1h0Z" fill="#1d4559"/><path d="M239.7,556l-21.6,30.2c-1.6,2.3-4.6,3.1-7.2,2l-20-8.5,33.3-24.9c1.2-.9,2.7-1.2,4.1-1l11.3,2.1h0Z" fill="#1d4559"/></g><path d="M190.9,374c-41.8,0-75.8,28.9-75.8,45.3s33.9,28,75.8,28,75.8-11.7,75.8-28-33.9-45.3-75.8-45.3Z" fill="#2d5872"/><path d="M190.9,374c-4.1,0-8.1,.3-11.9,.8,36.2,4.7,63.8,29.7,63.8,44.5s-27.6,25.7-63.8,27.7c3.9,.2,7.9,.3,11.9,.3,41.8,0,75.8-11.7,75.8-28s-33.9-45.3-75.8-45.3Z" fill="#1d4559"/><path d="M245.1,465h-3.5v-13.8c0-13.7-5.6-27-16-35.9-8.1-7-61.3-7-69.4,0-10.4,8.9-16,22.2-16,35.9v13.8h-3.5c-5.1,0-9.2,4.1-9.2,9.2v10.2c0,5.1,4.1,9.2,9.2,9.2h3.5c.3,13.3,5.9,26.1,16,34.8,8.1,7,19.6,13.1,34.7,13.3,15.1-.2,26.6-6.3,34.7-13.3,10.1-8.7,15.7-21.5,16-34.8h3.5c5.1,0,9.2-4.1,9.2-9.2v-10.2c0-5.1-4.1-9.2-9.2-9.2h0Z" fill="#ffe7cf"/><path d="M245.1,465h-3.5v-13.8c0-13.7-5.6-27-16-35.9-5.1-4.4-28.1-6-46.4-4.9,10.8,.7,20,2.3,23,4.9,10.4,8.9,16,22.2,16,35.9v42.3c-.3,13.3-5.9,26.1-16,34.8-5.9,5.1-13.5,9.7-23,11.9,3.6,.9,7.5,1.4,11.7,1.4,15.1-.2,26.6-6.3,34.7-13.3,10.1-8.7,15.7-21.5,16-34.8h3.5c5.1,0,9.2-4.1,9.2-9.2v-10.2c0-5.1-4.1-9.2-9.2-9.2h0Z" fill="#f4d3a6"/><path d="M132.5,434.4v31.6s7.8-.2,12.7,4.8c1,1,2.8,.3,2.8-1.2v-23.4h85.7v23.4c0,1.5,1.8,2.2,2.8,1.2,5-4.9,12.7-4.8,12.7-4.8v-31.6c0-19.6-116.8-19.6-116.8,0h.1Z" fill="#ff6d3a"/><path d="M190.9,460.1c-32.3,0-58.4-10-58.4-22.4h116.8c0,12.3-26.1,22.4-58.4,22.4Z" fill="#2d5872"/><path d="M132.5,422.2v15.5h116.8v-15.4c0-4.2-2.8-7.8-6.9-8.8-10.8-2.8-32.8-7.6-54.3-7.6s-39.2,4.7-49,7.5c-3.9,1.1-6.6,4.7-6.6,8.8Z" fill="#1d4559"/><g><polygon points="190.9 579.7 175.2 586.5 184.4 597.2 197.5 597.2 206.6 586.5 190.9 579.7" fill="#282c3a"/><polygon points="197.5 597.2 190.9 597.2 184.4 597.2 175.2 663 206.6 663 197.5 597.2" fill="#282c3a"/></g><g><path d="M250.5,641h-23c-1.5,0-2.8-1.2-2.8-2.8v-12.2c0-1.5,1.2-2.8,2.8-2.8h23c1.5,0,2.8,1.2,2.8,2.8v12.2c0,1.5-1.2,2.8-2.8,2.8Z" fill="#1d4559"/><path d="M154.4,641h-23c-1.5,0-2.8-1.2-2.8-2.8v-12.2c0-1.5,1.2-2.8,2.8-2.8h23c1.5,0,2.8,1.2,2.8,2.8v12.2c0,1.5-1.2,2.8-2.8,2.8Z" fill="#1d4559"/></g><path d="M89.5,590.2c4.3,3.5,10.6,2.8,14.1-1.5l4.7-5.9c3.5-4.3,2.8-10.6-1.5-14.1l-3.4-2.7c-8.1,4.8-14.6,12-18.5,20.5l4.6,3.7h0Z" fill="#ffbf14"/><path d="M296.9,586.5c-3.9-8.5-10.4-15.7-18.5-20.5l-3.4,2.7c-4.3,3.5-5,9.8-1.5,14.1l4.7,5.9c3.5,4.3,9.8,5,14.1,1.5l4.6-3.7h0Z" fill="#eaa200"/><path d="M298.2,579.7s0,0,0-.2c-.3-.4-.5-.8-.8-1.2,0-.2-.3-.4-.4-.7-.2-.3-.4-.5-.5-.8-.2-.3-.5-.7-.7-1,0,0,0-.2-.2-.3,0,0,0,0-.2-.2-.3-.4-.6-.8-.9-1.2,0,0-.2-.3-.3-.4-.3-.4-.6-.7-.9-1.1,0-.2-.3-.3-.4-.5-.3-.3-.5-.6-.8-.9-.2-.2-.4-.4-.6-.7-.2-.2-.3-.3-.5-.5-6-6.1-13.4-10.5-21.8-13,0,0-.3,0-.4,0l-39.4-7.3h-.2c-1.8-.3-3.7,0-5.4,.7-1.4-1.7-2.3-4-2.3-6.1v-7.1c2.5-1.6,4.9-3.4,7.2-5.4,9.8-8.4,15.9-20.6,17.3-33.8,7.2-.3,12.9-6.3,12.9-13.5v-10.2c0-4.1-1.8-7.9-4.9-10.5v-23.4c14.3-7,17.4-15.2,17.4-21,0-9.9-9.2-22.3-24.1-32.4-9.5-6.4-29.5-17.3-56-17.3s-46.5,10.8-56,17.3c-14.9,10.1-24.1,22.5-24.1,32.4s3.1,14,17.4,21v23.4c-3.1,2.5-4.9,6.3-4.9,10.5v10.2c0,7.3,5.7,13.2,12.9,13.5,1.3,13.2,7.5,25.4,17.3,33.8,2.3,2,4.8,3.8,7.2,5.4v7.1c0,2.1-.9,4.5-2.3,6.1-1.8-.8-3.7-1-5.6-.7h0l-39.4,7.3c0,0-.3,0-.4,0-8.4,2.5-15.8,6.9-21.8,13-.2,.2-.3,.3-.5,.5s-.4,.4-.6,.6c-.3,.3-.5,.6-.8,.9s-.3,.3-.4,.5c-.3,.4-.6,.7-.9,1.1,0,0-.2,.3-.3,.4-.3,.4-.6,.8-.9,1.2,0,0,0,0-.2,.2,0,0,0,.2-.2,.3-.2,.3-.5,.7-.7,1s-.4,.5-.5,.8c0,.2-.3,.4-.4,.7-.3,.4-.5,.8-.8,1.2,0,0,0,0,0,.2-4.8,7.9-7.4,17-7.4,26.4v5.3c0,2.4,2,4.4,4.4,4.4s4.4-2,4.4-4.4v-5.3c0-4.3,.6-8.4,1.8-12.4,2.6,2,5.7,3.1,8.9,3.1s1,0,1.6,0c3.8-.4,7.3-2.3,9.7-5.3l4.7-5.9c2.4-3,3.5-6.7,3.1-10.6-.3-3-1.6-5.8-3.6-8.1,1.3-.5,2.5-1,3.8-1.4l25.2-4.7,20,27.9c2,2.8,5.1,4.3,8.4,4.3s2.7-.3,4.1-.8l1.3-.6,5.8,6.8-8.4,60.2h-54.8v-35.4c0-2.4-2-4.4-4.4-4.4s-4.4,2-4.4,4.4v35.4h-17.5c-3,0-5.4-2.4-5.4-5.4v-21.6c0-2.4-2-4.4-4.4-4.4s-4.4,2-4.4,4.4v21.6c0,7.8,6.4,14.2,14.2,14.2h201c7.8,0,14.2-6.4,14.2-14.2v-47.3c0-9.4-2.5-18.4-7.4-26.4l-.5,.3Zm-193.3,.4l-4.7,5.9c-.9,1.2-2.3,1.9-3.8,2.1-1.5,.2-3-.3-4.2-1.2l-1.8-1.5c.4-.7,.8-1.4,1.2-2.1h0c.4-.6,.8-1.1,1.1-1.7s.2-.3,.4-.5c.4-.5,.7-.9,1.1-1.4,0,0,.2-.2,.3-.4,.4-.5,.8-1,1.3-1.5s.3-.3,.4-.4c.4-.5,.9-.9,1.3-1.4h0c1.7-1.8,3.5-3.3,5.5-4.6l1,.8c1.2,.9,1.9,2.3,2.1,3.8s-.3,3-1.2,4.2h-.1Zm172.8-8.1l1-.8c2,1.4,3.8,2.9,5.5,4.5h0c.5,.6,.9,1,1.3,1.5,0,0,.3,.3,.4,.4,.4,.5,.9,1,1.3,1.5,0,0,.2,.2,.3,.4,.4,.5,.7,.9,1.1,1.4,0,.2,.2,.3,.4,.5,.4,.6,.8,1.1,1.1,1.7h0c.4,.7,.8,1.4,1.2,2.1l-1.8,1.5c-1.2,.9-2.7,1.4-4.2,1.2s-2.9-.9-3.8-2.1l-4.7-5.9c-2-2.4-1.6-6,.9-8h-.1Zm-50.9-13.6h0c.2-.2,.5-.2,.7-.2l4.6,.9-17.6,24.6c-.4,.6-1.2,.8-1.9,.5l-13-5.5h0l27.2-20.3h0Zm-35.9,15.9l-25.4-19c2.4-3.2,3.9-7.2,3.9-11.2v-2.6c6.7,2.8,13.9,4.3,21.5,4.4h0c7.6,0,14.8-1.6,21.5-4.4v2.6c0,4,1.4,8,3.9,11.2l-25.4,19Zm8.5,13.8l-4,4.6h-9l-4-4.6,8.5-3.6,8.5,3.6Zm-71.3-157.8c-5.6-3.5-8.6-7.3-8.6-11.1,0-7.9,10.5-18.6,20.3-25.2,8.7-5.9,26.9-15.8,51.1-15.8s42.4,9.9,51.1,15.8c9.8,6.6,20.3,17.3,20.3,25.2s-3,7.6-8.6,11.1v-7.9c0-6.2-4.2-11.5-10.1-13.1-11.3-2.9-33.5-7.7-55.4-7.7h0c-18.9,0-37.7,4.2-50.1,7.7-5.8,1.6-9.8,7-9.8,13v8.1h-.2Zm105.1,11.7h9.7s0,.2-.2,.2c-.2,.2-.3,.3-.5,.5s-.2,.2-.3,.3c-.2,.1-.3,.3-.5,.4s-.3,.3-.5,.4c0,.1-.3,.2-.4,.3-.2,.2-.4,.3-.6,.5,0,0-.2,.1-.3,.2-.3,.2-.5,.4-.8,.5,0,0,0,0-.2,.1-1.8,1.1-4,2.2-6.4,3.3h0c-9.3,3.9-23.4,6.8-41,6.8s-31.7-2.9-41-6.8h0c-2.5-1-4.6-2.1-6.4-3.3,0,0,0,0-.2-.1-.3-.2-.6-.4-.8-.5,0,0-.2-.1-.3-.2-.2-.2-.4-.3-.6-.5s-.3-.2-.4-.3c-.2-.1-.3-.3-.5-.4s-.3-.3-.5-.4c0-.1-.2-.2-.3-.3-.2-.2-.3-.3-.5-.5l-.2-.2h73.3c2.4,0,4.4-2,4.4-4.4s-2-4.4-4.4-4.4h-75.3v-11.2c0-2.1,1.4-4,3.5-4.6,11.9-3.3,29.9-7.3,47.8-7.3h0c20.9,0,42.3,4.7,53.2,7.5,2.1,.5,3.6,2.4,3.6,4.6v11h-11.7c-2.4,0-4.4,2-4.4,4.4s2,4.4,4.4,4.4h-.5Zm11.7,9.8v10.1c-2,.4-4.4,1-6.8,2.3v-8.5c2.7-1.3,4.9-2.6,6.8-3.9Zm-101.3,3.9v8.5c-2.4-1.2-4.8-1.9-6.8-2.3v-10.1c1.9,1.3,4.1,2.6,6.8,3.9Zm15.4,69.2c-8.9-7.7-14.2-19.2-14.5-31.6,0-2.4-2-4.3-4.4-4.3h-3.5c-2.7,0-4.8-2.2-4.8-4.8v-10.2c0-1.5,.7-2.8,1.8-3.7,1.5,.1,4.4,.6,6.8,2.1h0c.3,.2,.7,.5,1,.7h0c.2,.1,.3,.3,.5,.4,0,.1,.3,.2,.4,.4h0c0,0,.2,.2,.3,.2h0c0,0,.3,.2,.5,.3h0c.2,0,.3,.2,.5,.2h0c0,0,.2,0,.4,.1h0c.2,0,.3,0,.5,.1h2.7c.2,0,.3-.1,.5-.2,2.2-.9,3.7-3.1,3.7-5.6v-10.4c11.2,3.5,25.1,5.4,38.5,5.4s27.3-1.8,38.5-5.4v10.4c0,2.4,1.5,4.6,3.7,5.6,.2,0,.3,.1,.5,.2h0c0,0,.3,0,.4,.1h0c.4,0,.7,.1,1.1,.1h.5c.3,0,.7-.1,1-.2h0c0,0,.3,0,.4-.1h0c.2,0,.3-.1,.5-.2h0c.2,0,.3-.2,.5-.3h0c0,0,.2-.2,.3-.2h0c0-.1,.3-.2,.4-.4,0-.1,.3-.3,.5-.4h0c0-.2,.3-.3,.4-.4h0c.2-.1,.3-.2,.5-.3h0c0,0,.3-.2,.4-.3h0c.2,0,.3-.2,.5-.3h0c.2,0,.3-.1,.5-.2h0c.2,0,.4-.1,.5-.2h0c.2,0,.3-.1,.5-.2h0c.2,0,.4-.1,.6-.2h0c1.3-.4,2.5-.5,3.4-.6,1.1,.9,1.8,2.3,1.8,3.7v10.2c0,2.7-2.2,4.8-4.8,4.8h-3.5c-2.4,0-4.3,1.9-4.4,4.3-.3,12.4-5.5,23.9-14.5,31.6-9.3,8-20,12.1-31.9,12.2-11.9,0-22.6-4.3-31.9-12.2l1.3-.2Zm23.2,53.7h0l-13,5.5c-.7,.3-1.5,0-1.9-.5l-17.6-24.6,4.6-.9c.2,0,.5,0,.7,.2h0l27.2,20.3h0Zm-2,80l8-57.2h5.4l8,57.2h-21.4Zm116.6-5.4c0,3-2.4,5.4-5.4,5.4h-17.5v-35.4c0-2.4-2-4.4-4.4-4.4s-4.4,2-4.4,4.4v35.4h-54.8l-8.4-60.2,5.8-6.8,1.3,.6c1.3,.6,2.7,.8,4.1,.8,3.2,0,6.4-1.5,8.4-4.3l20-27.9,25.2,4.7c1.3,.4,2.6,.9,3.8,1.4-4.6,5.2-5,13.1-.5,18.6l4.7,5.9c2.4,3,5.8,4.9,9.7,5.3h1.6c3.2,0,6.4-1.1,8.9-3.1,1.2,4,1.8,8.1,1.8,12.4v47.3h.1Z"/><path d="M250.5,619h-23c-3.9,0-7.1,3.2-7.1,7.1v12.2c0,3.9,3.2,7.1,7.1,7.1h23c3.9,0,7.1-3.2,7.1-7.1v-12.2c0-3.9-3.2-7.1-7.1-7.1Zm-1.6,17.8h-19.8v-9h19.8v9h0Z"/><path d="M154.4,645.5c3.9,0,7.1-3.2,7.1-7.1v-12.2c0-3.9-3.2-7.1-7.1-7.1h-23c-3.9,0-7.1,3.2-7.1,7.1v12.2c0,3.9,3.2,7.1,7.1,7.1h23Zm-21.4-17.8h19.8v9h-19.8v-9Z"/></g><g><path d="M91.1,185.1h-29.1c-8.4,0-15.2-6.8-15.2-15.2s6.8-15.2,15.2-15.2h13.9c8.4,0,15.2,6.8,15.2,15.2v15.2Z" fill="#7a8c98"/><path d="M290.8,185.1h29.1c8.4,0,15.2-6.8,15.2-15.2s-6.8-15.2-15.2-15.2h-13.9c-8.4,0-15.2,6.8-15.2,15.2v15.2Z" fill="#7a8c98"/><path d="M251.6,315h45.6c5.2,0,9.5-4.2,9.5-9.5v-26.6h-64.6v26.6c0,5.2,4.2,9.5,9.5,9.5h0Z" fill="#596c76"/><path d="M127.1,315h-45.6c-5.2,0-9.5-4.2-9.5-9.5v-26.6h64.6v26.6c0,5.2-4.2,9.5-9.5,9.5h0Z" fill="#596c76"/><path d="M119.3,279H54.9c-4.5,0-8.2-3.7-8.2-8.2v-10.2c0-4.5,3.7-8.2,8.2-8.2H327c4.5,0,8.2,3.7,8.2,8.2v10.2c0,4.5-3.7,8.2-8.2,8.2h-66.3" fill="#8d9ca8"/><path d="M319.9,252.4H62v-46.1c0-11.6,9.4-21.1,21.1-21.1h215.8c11.6,0,21.1,9.4,21.1,21.1v46.1h0Z" fill="#596c76"/><path d="M298.8,185.2h-17.4c11.6,0,21.1,9.4,21.1,21.1v46.1h17.4v-46.1c0-11.6-9.4-21.1-21.1-21.1Z" fill="#465a61"/><g><path d="M251,297.2H127.7c-4.1,0-7.4-3.3-7.4-7.4v-13.9c0-4.1,3.3-7.4,7.4-7.4h123.3c4.1,0,7.4,3.3,7.4,7.4v13.9c0,4.1-3.3,7.4-7.4,7.4Z" fill="#fff4f1"/><path d="M126.5,235.6h-41.4c-3.6,0-6.6-3-6.6-6.6v-14.9c0-3.6,3-6.6,6.6-6.6h41.4c3.6,0,6.6,3,6.6,6.6v14.9c0,3.6-3,6.6-6.6,6.6Z" fill="#fff4f1"/><path d="M298.7,235.6h-41.4c-3.6,0-6.6-3-6.6-6.6v-14.9c0-3.6,3-6.6,6.6-6.6h41.4c3.6,0,6.6,3,6.6,6.6v14.9c0,3.6-3,6.6-6.6,6.6Z" fill="#fff4f1"/></g><path d="M226.2,235.6h-70.4c-3.6,0-6.6-3-6.6-6.6v-14.9c0-3.6,3-6.6,6.6-6.6h70.4c3.6,0,6.6,3,6.6,6.6v14.9c0,3.6-3,6.6-6.6,6.6Z" fill="#c5d3dd"/><path d="M133.7,79.1h119.4v20.3h-119.4s0-20.3,0-20.3Z" fill="#596c76"/><path d="M265.1,99.3H116.7c-13.3,0-24.6,9.1-27,21.7l-9.2,64.1h220.8l-9.2-64.1c-2.4-12.6-13.8-21.7-27-21.7h0Z" fill="#fff4f1"/><path d="M253.2,117.4h-124.6c-11.1,0-20.7,8.3-22.7,19.7l-7.7,48.1h185.4l-7.7-48.1c-2-11.4-11.5-19.7-22.7-19.7h0Z" fill="#b3dafe"/><path d="M275.9,137.1c-2-11.4-11.5-19.7-22.7-19.7h-17.4c11.1,0,20.7,8.3,22.7,19.7l7.7,48.1h17.4l-7.7-48.1Z" fill="#8ac9fe"/><path d="M264.1,83.6H124.6c-5.9,0-10.7-4.8-10.7-10.7v-14.7c0-5.9,4.8-10.7,10.7-10.7h139.5c5.9,0,10.7,4.8,10.7,10.7v14.7c0,5.9-4.8,10.7-10.7,10.7Z" fill="#60b7ff"/><path d="M131.4,73.1v-14.7c0-5.9,4.8-10.7,10.7-10.7h-17.4c-5.9,0-10.7,4.8-10.7,10.7v14.7c0,5.9,4.8,10.7,10.7,10.7h17.4c-5.9,0-10.7-4.8-10.7-10.7Z" fill="#26a6fe"/><path d="M264.1,47.6h-68.3v36h68.3c5.9,0,10.7-4.8,10.7-10.7v-14.7c0-5.9-4.8-10.7-10.7-10.7h0Z" fill="#fd4755"/><path d="M264.1,47.6h-17.4c5.9,0,10.7,4.8,10.7,10.7v14.7c0,5.9-4.8,10.7-10.7,10.7h17.4c5.9,0,10.7-4.8,10.7-10.7v-14.7c0-5.9-4.8-10.7-10.7-10.7Z" fill="#fb2b3a"/><path d="M157.8,47.6h73.2v36h-73.2V47.6Z" fill="#d8ecfe"/><path d="M335.5,311.4h-25.7c.8-1.8,1.3-3.7,1.3-5.8v-22.3h16c6.9,0,12.6-5.6,12.6-12.6v-10.2c0-6.9-5.6-12.6-12.6-12.6h-2.7v-41.7c0-6.4-2.4-12.3-6.3-16.8h2c10.8,0,19.6-8.8,19.6-19.6s-8.8-19.6-19.6-19.6c0,0-17.4,.3-19.1,.7l-4.4-30.6v-.2c-2.8-14.6-15.9-25.3-31.3-25.3h-7.6v-7h6.6c8.3,0,15-6.7,15-15v-14.7c0-8.3-6.7-15-15-15H124.8c-8.3,0-15,6.7-15,15v14.7c0,8.3,6.7,15,15,15h4.7v7h-12.6c-15.4,0-28.5,10.6-31.3,25.3v.2l-4.4,30.6c-1.7-.5-19.1-.7-19.1-.7-10.8,0-19.6,8.8-19.6,19.6s8.8,19.6,19.6,19.6h2c-3.9,4.5-6.3,10.4-6.3,16.8v41.7h-2.7c-6.9,0-12.6,5.6-12.6,12.6v10.2c0,6.9,5.6,12.6,12.6,12.6h12.7v22.3c0,2.1,.5,4,1.3,5.8h-22.5c-2.4,0-4.4,2-4.4,4.4s2,4.4,4.4,4.4H335.7c2.4,0,4.4-2,4.4-4.4s-2-4.4-4.4-4.4h-.2Zm-29.4-152.3h13.9c6,0,10.9,4.9,10.9,10.9s-4.9,10.9-10.9,10.9h-14.8l-3-21c1.2-.5,2.6-.7,3.9-.7h0Zm-35.6-100.8v14.7c0,3.5-2.8,6.3-6.3,6.3h-28.8v-27.3h28.8c3.5,0,6.3,2.8,6.3,6.3Zm-43.8-6.3v27.3h-64.5v-27.3h64.5Zm-108.3,21v-14.7c0-3.5,2.8-6.3,6.3-6.3h28.8v27.3h-28.8c-3.5,0-6.3-2.8-6.3-6.3h0Zm130.4,15v7h-110.7v-7h110.7ZM61.9,180.9c-6,0-10.9-4.9-10.9-10.9s4.9-10.9,10.9-10.9h13.9c1.4,0,2.7,.3,3.9,.7l-3,21h-14.8Zm70.3,124.9c0,2.8-2.3,5.1-5.1,5.1h-45.6c-2.8,0-5.1-2.3-5.1-5.1v-22.3h7.5v7c0,2.4,2,4.4,4.4,4.4s4.4-2,4.4-4.4v-7h7.4v7c0,2.4,2,4.4,4.4,4.4s4.4-2,4.4-4.4v-7h7.3v6.6c0,6.5,5.3,11.8,11.8,11.8h4.5v3.9h-.3Zm-7.6-15.7v-13.9c0-1.7,1.4-3.1,3.1-3.1h123.3c1.7,0,3.1,1.4,3.1,3.1v13.9c0,1.7-1.4,3.1-3.1,3.1H127.7c-1.7,0-3.1-1.4-3.1-3.1h0Zm15,21.5c.8-1.8,1.3-3.7,1.3-5.8v-3.9h96.8v3.9c0,2.1,.5,4,1.3,5.8h-99.4Zm162.6-5.8c0,2.8-2.3,5.1-5.1,5.1h-45.6c-2.8,0-5.1-2.3-5.1-5.1v-3.9h4.5c6.5,0,11.8-5.3,11.8-11.8v-6.6h7.3v7c0,2.4,2,4.4,4.4,4.4s4.4-2,4.4-4.4v-7h7.4v7c0,2.4,2,4.4,4.4,4.4s4.4-2,4.4-4.4v-7h7.5v22.3h-.3Zm-39.6-31c-.7-5.8-5.7-10.4-11.7-10.4H127.6c-6,0-11,4.5-11.7,10.4H54.8c-2.1,0-3.8-1.7-3.8-3.8v-10.2c0-2.1,1.7-3.8,3.8-3.8h218.5c2.4,0,4.4-2,4.4-4.4s-2-4.4-4.4-4.4H66.2v-41.7c0-9.2,7.5-16.7,16.7-16.7h39.8c2.4,0,4.4-2,4.4-4.4s-2-4.4-4.4-4.4h-19.5l6.9-43c1.6-9.3,9.4-16,18.4-16h7.2c2.4,0,4.4-2,4.4-4.4s-2-4.4-4.4-4.4h-7.2c-13.3,0-24.6,9.8-27,23.3h0l-7.1,44.4h-9l8.5-59.1c2-10.5,11.6-18.1,22.7-18.1h148.4c11.1,0,20.7,7.6,22.7,18.1l8.5,59.1h-9l-7.1-44.4h0c-2.4-13.5-13.7-23.3-27-23.3h-99.9c-2.4,0-4.4,2-4.4,4.4s2,4.4,4.4,4.4h99.9c9,0,16.7,6.7,18.4,16l6.9,43H140.2c-2.4,0-4.4,2-4.4,4.4s2,4.4,4.4,4.4h143.3c.4,0,.8,0,1.1-.2,.4,0,.7,.2,1.1,.2h12.9c9.2,0,16.7,7.5,16.7,16.7v41.7h-23.3c-2.4,0-4.4,2-4.4,4.4s2,4.4,4.4,4.4h34.8c2.1,0,3.8,1.7,3.8,3.8v10.2c0,2.1-1.7,3.8-3.8,3.8h-64.2Z"/><path d="M126.5,203.1h-41.4c-6,0-11,4.9-11,11v14.9c0,6,4.9,11,11,11h41.4c6,0,11-4.9,11-11v-14.9c0-6-4.9-11-11-11h0Zm2.2,25.9c0,1.2-1,2.2-2.2,2.2h-41.4c-1.2,0-2.2-1-2.2-2.2v-14.9c0-1.2,1-2.2,2.2-2.2h41.4c1.2,0,2.2,1,2.2,2.2v14.9Z"/><path d="M309.7,229.1v-14.9c0-6-4.9-11-11-11h-41.4c-6,0-11,4.9-11,11v14.9c0,6,4.9,11,11,11h41.4c6,0,11-4.9,11-11h0Zm-54.6,0v-14.9c0-1.2,1-2.2,2.2-2.2h41.4c1.2,0,2.2,1,2.2,2.2v14.9c0,1.2-1,2.2-2.2,2.2h-41.4c-1.2,0-2.2-1-2.2-2.2Z"/><path d="M226.2,203.1h-70.4c-6,0-11,4.9-11,11v14.9c0,6,4.9,11,11,11h70.4c6,0,11-4.9,11-11v-14.9c0-6-4.9-11-11-11h0Zm2.2,25.9c0,1.2-1,2.2-2.2,2.2h-70.4c-1.2,0-2.2-1-2.2-2.2v-3.1h74.9v3.1h-.1Zm0-11.8h-74.9v-3.1c0-1.2,1-2.2,2.2-2.2h70.4c1.2,0,2.2,1,2.2,2.2v3.1h.1Z"/></g><g><path d="M408.8,522h-29.1c-8.4,0-15.2-6.8-15.2-15.2s6.8-15.2,15.2-15.2h13.9c8.4,0,15.2,6.8,15.2,15.2v15.2Z" fill="#7a8c98"/><path d="M608.5,522h29.1c8.4,0,15.2-6.8,15.2-15.2s-6.8-15.2-15.2-15.2h-13.9c-8.4,0-15.2,6.8-15.2,15.2v15.2Z" fill="#7a8c98"/><path d="M569.3,651.8h45.6c5.2,0,9.5-4.2,9.5-9.5v-26.6h-64.6v26.6c0,5.2,4.2,9.5,9.5,9.5h0Z" fill="#596c76"/><path d="M444.8,651.8h-45.6c-5.2,0-9.5-4.2-9.5-9.5v-26.6h64.6v26.6c0,5.2-4.2,9.5-9.5,9.5h0Z" fill="#596c76"/><path d="M437,615.7h-64.4c-4.5,0-8.2-3.7-8.2-8.2v-10.2c0-4.5,3.7-8.2,8.2-8.2h272.1c4.5,0,8.2,3.7,8.2,8.2v10.2c0,4.5-3.7,8.2-8.2,8.2h-66.3" fill="#8d9ca8"/><path d="M637.6,589.2H379.7v-46.1c0-11.6,9.4-21.1,21.1-21.1h215.8c11.6,0,21.1,9.4,21.1,21.1v46.1h0Z" fill="#596c76"/><path d="M616.5,522h-17.4c11.6,0,21.1,9.4,21.1,21.1v46.1h17.4v-46.1c0-11.6-9.4-21.1-21.1-21.1Z" fill="#465a61"/><g><path d="M568.7,634h-123.3c-4.1,0-7.4-3.3-7.4-7.4v-13.9c0-4.1,3.3-7.4,7.4-7.4h123.3c4.1,0,7.4,3.3,7.4,7.4v13.9c0,4.1-3.3,7.4-7.4,7.4Z" fill="#fff4f1"/><path d="M444.2,572.5h-41.4c-3.6,0-6.6-3-6.6-6.6v-14.9c0-3.6,3-6.6,6.6-6.6h41.4c3.6,0,6.6,3,6.6,6.6v14.9c0,3.6-3,6.6-6.6,6.6Z" fill="#fff4f1"/><path d="M616.4,572.5h-41.4c-3.6,0-6.6-3-6.6-6.6v-14.9c0-3.6,3-6.6,6.6-6.6h41.4c3.6,0,6.6,3,6.6,6.6v14.9c0,3.6-3,6.6-6.6,6.6Z" fill="#fff4f1"/></g><path d="M543.9,572.5h-70.4c-3.6,0-6.6-3-6.6-6.6v-14.9c0-3.6,3-6.6,6.6-6.6h70.4c3.6,0,6.6,3,6.6,6.6v14.9c0,3.6-3,6.6-6.6,6.6Z" fill="#c5d3dd"/><path d="M451.4,416h119.4v20.3h-119.4v-20.3Z" fill="#596c76"/><path d="M582.8,436.2h-148.4c-13.3,0-24.6,9.1-27,21.7l-9.2,64.1h220.8l-9.2-64.1c-2.4-12.6-13.8-21.7-27-21.7h0Z" fill="#fff4f1"/><path d="M570.9,454.2h-124.6c-11.1,0-20.7,8.3-22.7,19.7l-7.7,48.1h185.4l-7.7-48.1c-2-11.4-11.5-19.7-22.7-19.7h0Z" fill="#b3dafe"/><path d="M593.6,474c-2-11.4-11.5-19.7-22.7-19.7h-17.4c11.1,0,20.7,8.3,22.7,19.7l7.7,48.1h17.4l-7.7-48.1h0Z" fill="#8ac9fe"/><path d="M581.8,420.5h-139.5c-5.9,0-10.7-4.8-10.7-10.7v-14.7c0-5.9,4.8-10.7,10.7-10.7h139.5c5.9,0,10.7,4.8,10.7,10.7v14.7c0,5.9-4.8,10.7-10.7,10.7Z" fill="#60b7ff"/><path d="M449.2,409.9v-14.7c0-5.9,4.8-10.7,10.7-10.7h-17.4c-5.9,0-10.7,4.8-10.7,10.7v14.7c0,5.9,4.8,10.7,10.7,10.7h17.4c-5.9,0-10.7-4.8-10.7-10.7Z" fill="#26a6fe"/><path d="M581.8,384.5h-68.3v36h68.3c5.9,0,10.7-4.8,10.7-10.7v-14.7c0-5.9-4.8-10.7-10.7-10.7h0Z" fill="#fd4755"/><path d="M581.8,384.5h-17.4c5.9,0,10.7,4.8,10.7,10.7v14.7c0,5.9-4.8,10.7-10.7,10.7h17.4c5.9,0,10.7-4.8,10.7-10.7v-14.7c0-5.9-4.8-10.7-10.7-10.7Z" fill="#fb2b3a"/><path d="M475.5,384.5h73.2v36h-73.2v-36Z" fill="#d8ecfe"/><path d="M653.2,648.2h-25.7c.8-1.8,1.3-3.7,1.3-5.8v-22.3h16c6.9,0,12.6-5.6,12.6-12.6v-10.2c0-6.9-5.6-12.6-12.6-12.6h-2.7v-41.7c0-6.4-2.4-12.3-6.3-16.8h2c10.8,0,19.6-8.8,19.6-19.6s-8.8-19.6-19.6-19.6c0,0-17.4,.3-19.1,.7l-4.4-30.6v-.2c-2.8-14.6-15.9-25.3-31.3-25.3h-7.6v-7h6.6c8.3,0,15-6.7,15-15v-14.7c0-8.3-6.7-15-15-15h-139.5c-8.3,0-15,6.7-15,15v14.7c0,8.3,6.7,15,15,15h4.7v7h-12.6c-15.4,0-28.5,10.6-31.3,25.3v.2l-4.4,30.6c-1.7-.5-19.1-.7-19.1-.7-10.8,0-19.6,8.8-19.6,19.6s8.8,19.6,19.6,19.6h2c-3.9,4.5-6.3,10.4-6.3,16.8v41.7h-2.7c-6.9,0-12.6,5.6-12.6,12.6v10.2c0,6.9,5.6,12.6,12.6,12.6h12.7v22.3c0,2.1,.5,4,1.3,5.8h-22.5c-2.4,0-4.4,2-4.4,4.4s2,4.4,4.4,4.4h289.1c2.4,0,4.4-2,4.4-4.4s-2-4.4-4.4-4.4h-.2Zm-29.4-152.3h13.9c6,0,10.9,4.9,10.9,10.9s-4.9,10.9-10.9,10.9h-14.8l-3-21c1.2-.5,2.6-.7,3.9-.7h0Zm-35.6-100.8v14.7c0,3.5-2.8,6.3-6.3,6.3h-28.8v-27.3h28.8c3.5,0,6.3,2.8,6.3,6.3Zm-43.8-6.3v27.3h-64.5v-27.3h64.5Zm-108.3,21v-14.7c0-3.5,2.8-6.3,6.3-6.3h28.8v27.3h-28.8c-3.5,0-6.3-2.8-6.3-6.3h0Zm130.4,15v7h-110.7v-7h110.7Zm-186.9,92.8c-6,0-10.9-4.9-10.9-10.9s4.9-10.9,10.9-10.9h13.9c1.4,0,2.7,.3,3.9,.7l-3,21h-14.8Zm70.3,124.9c0,2.8-2.3,5.1-5.1,5.1h-45.6c-2.8,0-5.1-2.3-5.1-5.1v-22.3h7.5v7c0,2.4,2,4.4,4.4,4.4s4.4-2,4.4-4.4v-7h7.4v7c0,2.4,2,4.4,4.4,4.4s4.4-2,4.4-4.4v-7h7.3v6.6c0,6.5,5.3,11.8,11.8,11.8h4.5v3.9h-.3Zm-7.6-15.7v-13.9c0-1.7,1.4-3.1,3.1-3.1h123.3c1.7,0,3.1,1.4,3.1,3.1v13.9c0,1.7-1.4,3.1-3.1,3.1h-123.3c-1.7,0-3.1-1.4-3.1-3.1h0Zm15,21.5c.8-1.8,1.3-3.7,1.3-5.8v-3.9h96.8v3.9c0,2.1,.5,4,1.3,5.8h-99.4Zm162.6-5.8c0,2.8-2.3,5.1-5.1,5.1h-45.6c-2.8,0-5.1-2.3-5.1-5.1v-3.9h4.5c6.5,0,11.8-5.3,11.8-11.8v-6.6h7.3v7c0,2.4,2,4.4,4.4,4.4s4.4-2,4.4-4.4v-7h7.4v7c0,2.4,2,4.4,4.4,4.4s4.4-2,4.4-4.4v-7h7.5v22.3h-.3Zm-39.6-31c-.7-5.8-5.7-10.4-11.7-10.4h-123.3c-6,0-11,4.5-11.7,10.4h-61.1c-2.1,0-3.8-1.7-3.8-3.8v-10.2c0-2.1,1.7-3.8,3.8-3.8h218.5c2.4,0,4.4-2,4.4-4.4s-2-4.4-4.4-4.4h-207.1v-41.7c0-9.2,7.5-16.7,16.7-16.7h39.8c2.4,0,4.4-2,4.4-4.4s-2-4.4-4.4-4.4h-19.5l6.9-43c1.6-9.3,9.4-16,18.4-16h7.2c2.4,0,4.4-2,4.4-4.4s-2-4.4-4.4-4.4h-7.2c-13.3,0-24.6,9.8-27,23.3h0l-7.1,44.4h-9l8.5-59.1c2-10.5,11.6-18.1,22.7-18.1h148.4c11.1,0,20.7,7.6,22.7,18.1l8.5,59.1h-9l-7.1-44.4h0c-2.4-13.5-13.7-23.3-27-23.3h-99.9c-2.4,0-4.4,2-4.4,4.4s2,4.4,4.4,4.4h99.9c9,0,16.7,6.7,18.4,16l6.9,43h-138.2c-2.4,0-4.4,2-4.4,4.4s2,4.4,4.4,4.4h143.3c.4,0,.8,0,1.1-.2,.4,0,.7,.2,1.1,.2h12.9c9.2,0,16.7,7.5,16.7,16.7v41.7h-23.3c-2.4,0-4.4,2-4.4,4.4s2,4.4,4.4,4.4h34.8c2.1,0,3.8,1.7,3.8,3.8v10.2c0,2.1-1.7,3.8-3.8,3.8h-64.2Z"/><path d="M444.2,540h-41.4c-6,0-11,4.9-11,11v14.9c0,6,4.9,11,11,11h41.4c6,0,11-4.9,11-11v-14.9c0-6-4.9-11-11-11h0Zm2.2,25.9c0,1.2-1,2.2-2.2,2.2h-41.4c-1.2,0-2.2-1-2.2-2.2v-14.9c0-1.2,1-2.2,2.2-2.2h41.4c1.2,0,2.2,1,2.2,2.2v14.9Z"/><path d="M627.4,565.8v-14.9c0-6-4.9-11-11-11h-41.4c-6,0-11,4.9-11,11v14.9c0,6,4.9,11,11,11h41.4c6,0,11-4.9,11-11h0Zm-54.6,0v-14.9c0-1.2,1-2.2,2.2-2.2h41.4c1.2,0,2.2,1,2.2,2.2v14.9c0,1.2-1,2.2-2.2,2.2h-41.4c-1.2,0-2.2-1-2.2-2.2Z"/><path d="M543.9,540h-70.4c-6,0-11,4.9-11,11v14.9c0,6,4.9,11,11,11h70.4c6,0,11-4.9,11-11v-14.9c0-6-4.9-11-11-11h0Zm2.2,25.9c0,1.2-1,2.2-2.2,2.2h-70.4c-1.2,0-2.2-1-2.2-2.2v-3.1h74.9v3.1h-.1Zm0-11.8h-74.9v-3.1c0-1.2,1-2.2,2.2-2.2h70.4c1.2,0,2.2,1,2.2,2.2v3.1h.1Z"/></g></svg>