<?xml version="1.0" encoding="UTF-8"?><svg id="Calque_1" xmlns="http://www.w3.org/2000/svg" viewBox="0 0 347.1 347.1"><path d="M191.8,240.2l27.9-26.2-11.1-2.1c-5.4-1.1-9.2-7.3-9.2-12.7v-24.3h-51.9v24.3c0,5.5-3.9,11.7-9.2,12.7l-11.1,2.1,27.9,26.2c10.3,9.7,26.3,9.7,36.6,0Z" fill="#ffe7cf"/><path d="M175.7,174.8v34.6c0,5.5,3.9,11.7,9.2,12.7l21.9,4.1,13-12.2-11.1-2.1c-5.4-1.1-9.2-7.3-9.2-12.7v-24.3h-23.8Z" fill="#f4d3a6"/><path d="M250.4,216.3l-39.4-7.3c-1.4-.3-2.9,0-4.1,1l-33.3,24.9-33.3-24.9c-1.2-.9-2.7-1.2-4.1-1l-39.4,7.3c-19.8,5.8-33.5,24-33.5,44.7v47.3c0,5.4,4.4,9.8,9.8,9.8h201c5.4,0,9.8-4.4,9.8-9.8v-47.3c0-20.7-13.6-38.9-33.5-44.7Z" fill="#2d5872"/><g><path d="M250.4,216.3l-39.4-7.3c-1.4-.3-2.9,0-4.1,1l-17.5,13.1,37.5,7c19.8,5.8,33.5,11.3,33.5,32v56.1h13.7c5.4,0,9.8-4.4,9.8-9.8v-47.3c0-20.7-13.6-38.9-33.5-44.7Z" fill="#1d4559"/><path d="M124.8,211l21.6,30.2c1.6,2.3,4.6,3.1,7.2,2l20-8.5-33.3-24.9c-1.2-.9-2.7-1.2-4.1-1l-11.3,2.1Z" fill="#1d4559"/><path d="M222.3,211l-21.6,30.2c-1.6,2.3-4.6,3.1-7.2,2l-20-8.5,33.3-24.9c1.2-.9,2.7-1.2,4.1-1l11.3,2.1Z" fill="#1d4559"/></g><path d="M173.5,29c-41.8,0-75.8,28.9-75.8,45.3s33.9,28,75.8,28,75.8-11.7,75.8-28-33.9-45.3-75.8-45.3Z" fill="#2d5872"/><path d="M173.5,29c-4.1,0-8.1,.3-11.9,.8,36.2,4.7,63.8,29.7,63.8,44.5s-27.6,25.7-63.8,27.7c3.9,.2,7.9,.3,11.9,.3,41.8,0,75.8-11.7,75.8-28s-33.9-45.3-75.8-45.3Z" fill="#1d4559"/><path d="M227.7,120h-3.5v-13.8c0-13.7-5.6-27-16-35.9-8.1-7-61.3-7-69.4,0-10.4,8.9-16,22.2-16,35.9v13.8h-3.5c-5.1,0-9.2,4.1-9.2,9.2v10.2c0,5.1,4.1,9.2,9.2,9.2h3.5c.3,13.3,5.9,26.1,16,34.8,8.1,7,19.6,13.1,34.7,13.3,15.1-.2,26.6-6.3,34.7-13.3,10.1-8.7,15.7-21.5,16-34.8h3.5c5.1,0,9.2-4.1,9.2-9.2v-10.2c0-5.1-4.1-9.2-9.2-9.2Z" fill="#ffe7cf"/><path d="M227.7,120h-3.5v-13.8c0-13.7-5.6-27-16-35.9-5.1-4.4-28.1-6-46.4-4.9,10.8,.7,20,2.3,23,4.9,10.4,8.9,16,22.2,16,35.9v42.3c-.3,13.3-5.9,26.1-16,34.8-5.9,5.1-13.5,9.7-23,11.9,3.6,.9,7.5,1.4,11.7,1.4,15.1-.2,26.6-6.3,34.7-13.3,10.1-8.7,15.7-21.5,16-34.8h3.5c5.1,0,9.2-4.1,9.2-9.2v-10.2c0-5.1-4.1-9.2-9.2-9.2Z" fill="#f4d3a6"/><path d="M115.1,89.4v31.6s7.8-.2,12.7,4.8c1,1,2.8,.3,2.8-1.2v-23.4h85.7v23.4c0,1.5,1.8,2.2,2.8,1.2,5-4.9,12.7-4.8,12.7-4.8v-31.6c0-19.6-116.8-19.6-116.8,0Z" fill="#ff6d3a"/><path d="M173.5,115.1c-32.3,0-58.4-10-58.4-22.4h116.8c0,12.3-26.1,22.4-58.4,22.4Z" fill="#2d5872"/><path d="M115.1,77.3v15.5h116.8v-15.4c0-4.2-2.8-7.8-6.9-8.8-10.8-2.8-32.8-7.6-54.3-7.6-19.8,0-39.2,4.7-49,7.5-3.9,1.1-6.6,4.7-6.6,8.8Z" fill="#1d4559"/><g><polygon points="173.5 234.8 157.8 241.5 167 252.1 180.1 252.1 189.2 241.5 173.5 234.8" fill="#282c3a"/><polygon points="180.1 252.1 173.5 252.1 167 252.1 157.8 318.1 189.2 318.1 180.1 252.1" fill="#282c3a"/></g><g><path d="M233.1,296.1h-23c-1.5,0-2.8-1.2-2.8-2.8v-12.2c0-1.5,1.2-2.8,2.8-2.8h23c1.5,0,2.8,1.2,2.8,2.8v12.2c0,1.5-1.2,2.8-2.8,2.8Z" fill="#1d4559"/><path d="M137,296.1h-23c-1.5,0-2.8-1.2-2.8-2.8v-12.2c0-1.5,1.2-2.8,2.8-2.8h23c1.5,0,2.8,1.2,2.8,2.8v12.2c0,1.5-1.2,2.8-2.8,2.8Z" fill="#1d4559"/></g><path d="M72.1,245.2c4.3,3.5,10.6,2.8,14.1-1.5l4.7-5.9c3.5-4.3,2.8-10.6-1.5-14.1l-3.4-2.7c-8.1,4.8-14.6,12-18.5,20.5l4.6,3.7Z" fill="#ffbf14"/><path d="M279.5,241.5c-3.9-8.5-10.4-15.7-18.5-20.5l-3.4,2.7c-4.3,3.5-5,9.8-1.5,14.1l4.7,5.9c3.5,4.3,9.8,5,14.1,1.5l4.6-3.7Z" fill="#eaa200"/><path d="M280.8,234.6c0,0,0-.1-.1-.2-.3-.4-.5-.8-.8-1.2-.1-.2-.3-.4-.4-.7-.2-.3-.4-.5-.5-.8-.2-.3-.5-.7-.7-1,0-.1-.1-.2-.2-.3,0,0-.1-.1-.2-.2-.3-.4-.6-.8-.9-1.2-.1-.1-.2-.3-.3-.4-.3-.4-.6-.7-.9-1.1-.1-.2-.3-.3-.4-.5-.3-.3-.5-.6-.8-.9-.2-.2-.4-.4-.6-.7-.2-.2-.3-.3-.5-.5-6-6.1-13.4-10.5-21.8-13-.1,0-.3,0-.4-.1l-39.4-7.3s0,0,0,0h0c0,0-.1,0-.2,0-1.8-.3-3.7,0-5.4,.7-1.4-1.7-2.3-4-2.3-6.1v-7.1c2.5-1.6,4.9-3.4,7.2-5.4,9.8-8.4,15.9-20.6,17.3-33.8,7.2-.3,12.9-6.3,12.9-13.5v-10.2c0-4.1-1.8-7.9-4.9-10.5v-23.4c14.3-7,17.4-15.2,17.4-21,0-9.9-9.2-22.3-24.1-32.4-9.5-6.4-29.5-17.3-56-17.3s-46.5,10.8-56,17.3c-14.9,10.1-24.1,22.5-24.1,32.4s3.1,14,17.4,21v23.4c-3.1,2.5-4.9,6.3-4.9,10.5v10.2c0,7.3,5.7,13.2,12.9,13.5,1.3,13.2,7.5,25.4,17.3,33.8,2.3,2,4.8,3.8,7.2,5.4v7.1c0,2.1-.9,4.5-2.3,6.1-1.8-.8-3.7-1-5.6-.7h0l-39.4,7.3c-.1,0-.3,0-.4,.1-8.4,2.5-15.8,6.9-21.8,13-.2,.2-.3,.3-.5,.5-.2,.2-.4,.4-.6,.6-.3,.3-.5,.6-.8,.9-.1,.1-.3,.3-.4,.5-.3,.4-.6,.7-.9,1.1-.1,.1-.2,.3-.3,.4-.3,.4-.6,.8-.9,1.2,0,0-.1,.1-.2,.2,0,0-.1,.2-.2,.3-.2,.3-.5,.7-.7,1-.2,.3-.4,.5-.5,.8-.1,.2-.3,.4-.4,.7-.3,.4-.5,.8-.8,1.2,0,0,0,.1-.1,.2-4.8,7.9-7.4,17-7.4,26.4v5.3c0,2.4,2,4.4,4.4,4.4s4.4-2,4.4-4.4v-5.3c0-4.3,.6-8.4,1.8-12.4,2.6,2,5.7,3.1,8.9,3.1s1,0,1.6,0c3.8-.4,7.3-2.3,9.7-5.3l4.7-5.9c2.4-3,3.5-6.7,3.1-10.6-.3-3-1.6-5.8-3.6-8.1,1.3-.5,2.5-1,3.8-1.4l25.2-4.7,20,27.9c2,2.8,5.1,4.3,8.4,4.3s2.7-.3,4.1-.8l1.3-.6,5.8,6.8-8.4,60.2h-54.8v-35.4c0-2.4-2-4.4-4.4-4.4s-4.4,2-4.4,4.4v35.4h-17.5c-3,0-5.4-2.4-5.4-5.4v-21.6c0-2.4-2-4.4-4.4-4.4s-4.4,2-4.4,4.4v21.6c0,7.8,6.4,14.2,14.2,14.2h201c7.8,0,14.2-6.4,14.2-14.2v-47.3c0-9.4-2.5-18.4-7.4-26.4Zm-193.3,.4l-4.7,5.9c-.9,1.2-2.3,1.9-3.8,2.1-1.5,.2-3-.3-4.2-1.2l-1.8-1.5c.4-.7,.8-1.4,1.2-2.1,0,0,0,0,0,0,.4-.6,.8-1.1,1.1-1.7,.1-.2,.2-.3,.4-.5,.4-.5,.7-.9,1.1-1.4,0-.1,.2-.2,.3-.4,.4-.5,.8-1,1.3-1.5,.1-.1,.3-.3,.4-.4,.4-.5,.9-.9,1.3-1.4,0,0,0,0,.1-.1,1.7-1.7,3.5-3.2,5.5-4.5l1,.8c1.2,.9,1.9,2.3,2.1,3.8,.2,1.5-.3,3-1.2,4.2Zm172.8-8l1-.8c2,1.4,3.8,2.9,5.5,4.5,0,0,0,0,.1,.1,.5,.5,.9,.9,1.3,1.4,.1,.1,.3,.3,.4,.4,.4,.5,.9,1,1.3,1.5,0,.1,.2,.2,.3,.4,.4,.5,.7,.9,1.1,1.4,.1,.2,.2,.3,.4,.5,.4,.6,.8,1.1,1.1,1.7,0,0,0,0,0,0,.4,.7,.8,1.4,1.2,2.1l-1.8,1.5c-1.2,.9-2.7,1.4-4.2,1.2-1.5-.2-2.9-.9-3.8-2.1l-4.7-5.9c-2-2.4-1.6-6,.9-8Zm-50.9-13.7s0,0,0,0h0c.2-.2,.5-.2,.7-.2l4.6,.9-17.6,24.6c-.4,.6-1.2,.8-1.9,.5l-13-5.5s0,0,0,0h0l27.2-20.3Zm-35.9,15.9l-25.4-19c2.4-3.2,3.9-7.2,3.9-11.2v-2.6c6.7,2.8,13.9,4.3,21.5,4.4h0c7.6,0,14.8-1.6,21.5-4.4v2.6c0,4,1.4,8,3.9,11.2l-25.4,19Zm8.5,13.8l-4,4.6h-9l-4-4.6,8.5-3.6,8.5,3.6ZM110.8,85.4c-5.6-3.5-8.6-7.3-8.6-11.1,0-7.9,10.5-18.6,20.3-25.2,8.7-5.9,26.9-15.8,51.1-15.8s42.4,9.9,51.1,15.8c9.8,6.6,20.3,17.3,20.3,25.2s-3,7.6-8.6,11.1v-7.9c0-6.2-4.2-11.5-10.1-13.1-11.3-2.9-33.5-7.7-55.4-7.7h0c-18.9,0-37.7,4.2-50.1,7.7-5.8,1.6-9.8,7-9.8,13v8.1h0Zm105.1,11.8h9.7s0,0,0,0c0,0-.1,.2-.2,.2-.2,.2-.3,.3-.5,.5-.1,.1-.2,.2-.3,.3-.2,.1-.3,.3-.5,.4-.2,.1-.3,.3-.5,.4-.1,.1-.3,.2-.4,.3-.2,.2-.4,.3-.6,.5-.1,0-.2,.1-.3,.2-.3,.2-.5,.4-.8,.5,0,0-.1,0-.2,.1-1.8,1.1-4,2.2-6.4,3.3,0,0,0,0-.1,0-9.3,3.9-23.4,6.8-41,6.8s-31.7-2.9-41-6.8c0,0,0,0-.1,0-2.5-1-4.6-2.1-6.4-3.3,0,0-.1,0-.2-.1-.3-.2-.6-.4-.8-.5-.1,0-.2-.1-.3-.2-.2-.2-.4-.3-.6-.5-.1-.1-.3-.2-.4-.3-.2-.1-.3-.3-.5-.4-.2-.1-.3-.3-.5-.4-.1-.1-.2-.2-.3-.3-.2-.2-.3-.3-.5-.5,0,0-.2-.2-.2-.2,0,0,0,0,0,0h73.3c2.4,0,4.4-2,4.4-4.4s-2-4.4-4.4-4.4H119.5v-11.2c0-2.1,1.4-4,3.5-4.6,11.9-3.3,29.9-7.3,47.8-7.3h0c20.9,0,42.3,4.7,53.2,7.5,2.1,.5,3.6,2.4,3.6,4.6v11h-11.7c-2.4,0-4.4,2-4.4,4.4s2,4.4,4.4,4.4Zm11.7,9.8v10.1c-2,.4-4.4,1-6.8,2.3v-8.5c2.7-1.3,4.9-2.6,6.8-3.9Zm-101.3,3.9v8.5c-2.4-1.2-4.8-1.9-6.8-2.3v-10.1c1.9,1.3,4.1,2.6,6.8,3.9Zm15.4,69.2c-8.9-7.7-14.2-19.2-14.5-31.6,0-2.4-2-4.3-4.4-4.3h-3.5c-2.7,0-4.8-2.2-4.8-4.8v-10.2c0-1.5,.7-2.8,1.8-3.7,1.5,.1,4.4,.6,6.8,2.1,0,0,0,0,0,0,.3,.2,.7,.5,1,.7,0,0,0,0,.1,0,.2,.1,.3,.3,.5,.4,.1,.1,.3,.2,.4,.4,0,0,0,0,.1,0,.1,0,.2,.2,.3,.2,0,0,0,0,.1,0,.1,0,.3,.2,.5,.3,0,0,0,0,0,0,.2,0,.3,.2,.5,.2,0,0,0,0,.1,0,.1,0,.2,0,.4,.1,0,0,0,0,.1,0,.2,0,.3,0,.5,.1,0,0,0,0,0,0,.2,0,.3,0,.5,0,0,0,0,0,.1,0,.1,0,.3,0,.4,0,0,0,0,0,0,0s0,0,0,0c.2,0,.3,0,.5,0,0,0,0,0,0,0,.2,0,.4,0,.5,0,0,0,0,0,.1,0,.1,0,.3,0,.4,0,0,0,.1,0,.2,0,.2,0,.3-.1,.5-.2,2.2-.9,3.7-3.1,3.7-5.6v-10.4c11.2,3.5,25.1,5.4,38.5,5.4s27.3-1.8,38.5-5.4v10.4c0,2.4,1.5,4.6,3.7,5.6,.2,0,.3,.1,.5,.2,0,0,0,0,.1,0,.1,0,.3,0,.4,.1,0,0,0,0,.1,0,.4,0,.7,.1,1.1,.1,0,0,0,0,0,0,0,0,0,0,0,0,.1,0,.3,0,.4,0,0,0,0,0,.1,0,.3,0,.7-.1,1-.2,0,0,0,0,.1,0,.1,0,.3,0,.4-.1,0,0,0,0,.1,0,.2,0,.3-.1,.5-.2h0c.2,0,.3-.2,.5-.3,0,0,0,0,.1,0,.1,0,.2-.2,.3-.2,0,0,0,0,.1,0,.1-.1,.3-.2,.4-.4,.1-.1,.3-.3,.5-.4,0,0,0,0,.1-.1,.1-.1,.3-.2,.4-.3,0,0,0,0,0,0,.2-.1,.3-.2,.5-.3,0,0,0,0,.1,0,.1,0,.3-.2,.4-.3,0,0,0,0,0,0,.2,0,.3-.2,.5-.3,0,0,0,0,.1,0,.2,0,.3-.1,.5-.2,0,0,0,0,0,0,.2,0,.4-.1,.5-.2,0,0,0,0,0,0,.2,0,.3-.1,.5-.2,0,0,0,0,0,0,.2,0,.4-.1,.6-.2,0,0,0,0,0,0,1.3-.4,2.5-.5,3.4-.6,1.1,.9,1.8,2.3,1.8,3.7v10.2c0,2.7-2.2,4.8-4.8,4.8h-3.5c-2.4,0-4.3,1.9-4.4,4.3-.3,12.4-5.5,23.9-14.5,31.6-9.3,8-20,12.1-31.9,12.2-11.9-.1-22.6-4.3-31.9-12.2Zm23.2,53.7s0,0,0,0l-13,5.5c-.7,.3-1.5,0-1.9-.5l-17.6-24.6,4.6-.9c.2,0,.5,0,.7,.2h0s0,0,0,0l27.2,20.3h0Zm-2,80l8-57.2h5.4l8,57.2h-21.4Zm116.6-5.4c0,3-2.4,5.4-5.4,5.4h-17.5v-35.4c0-2.4-2-4.4-4.4-4.4s-4.4,2-4.4,4.4v35.4h-54.8l-8.4-60.2,5.8-6.8,1.3,.6c1.3,.6,2.7,.8,4.1,.8,3.2,0,6.4-1.5,8.4-4.3l20-27.9,25.2,4.7c1.3,.4,2.6,.9,3.8,1.4-4.6,5.2-5,13.1-.5,18.6l4.7,5.9c2.4,3,5.8,4.9,9.7,5.3,.5,0,1,0,1.6,0,3.2,0,6.4-1.1,8.9-3.1,1.2,4,1.8,8.1,1.8,12.4v47.3h0Z"/><path d="M233.1,274h-23c-3.9,0-7.1,3.2-7.1,7.1v12.2c0,3.9,3.2,7.1,7.1,7.1h23c3.9,0,7.1-3.2,7.1-7.1v-12.2c0-3.9-3.2-7.1-7.1-7.1Zm-1.6,17.8h-19.8v-9h19.8v9h0Z"/><path d="M137,300.4c3.9,0,7.1-3.2,7.1-7.1v-12.2c0-3.9-3.2-7.1-7.1-7.1h-23c-3.9,0-7.1,3.2-7.1,7.1v12.2c0,3.9,3.2,7.1,7.1,7.1h23Zm-21.4-17.8h19.8v9h-19.8v-9Z"/></svg>