<?xml version="1.0" encoding="utf-8"?>
<!-- Generator: Adobe Illustrator 26.5.0, SVG Export Plug-In . SVG Version: 6.00 Build 0)  -->
<svg version="1.1" id="Calque_1" xmlns="http://www.w3.org/2000/svg" xmlns:xlink="http://www.w3.org/1999/xlink" x="0px" y="0px"
	 viewBox="0 0 694.9 694.9" style="enable-background:new 0 0 694.9 694.9;" xml:space="preserve">
<style type="text/css">
	.st0{fill:#FFE7CF;}
	.st1{fill:#F4D3A6;}
	.st2{fill:#2D5872;}
	.st3{fill:#1D4559;}
	.st4{fill:#FF6D3A;}
	.st5{fill:#282C3A;}
	.st6{fill:#FFBF14;}
	.st7{fill:#EAA200;}
	.st8{fill:#7A8C98;}
	.st9{fill:#596C76;}
	.st10{fill:#8D9CA8;}
	.st11{fill:#465A61;}
	.st12{fill:#FFF4F1;}
	.st13{fill:#C5D3DD;}
	.st14{fill:#B3DAFE;}
	.st15{fill:#8AC9FE;}
	.st16{fill:#60B7FF;}
	.st17{fill:#26A6FE;}
	.st18{fill:#FD4755;}
	.st19{fill:#FB2B3A;}
	.st20{fill:#D8ECFE;}
</style>
<g>
	<path class="st0" d="M576,426l32.8-30.8l-13.1-2.5c-6.4-1.3-10.8-8.6-10.8-14.9v-28.6h-61.1v28.6c0,6.5-4.6,13.8-10.8,14.9
		l-13.1,2.5l32.8,30.8c12.1,11.4,30.9,11.4,43.1,0H576z"/>
	<path class="st1" d="M557,349.1v40.7c0,6.5,4.6,13.8,10.8,14.9l25.8,4.8l15.3-14.4l-13.1-2.5c-6.4-1.3-10.8-8.6-10.8-14.9v-28.6
		h-28L557,349.1z"/>
	<path class="st2" d="M644.9,397.8l-46.4-8.6c-1.6-0.4-3.4,0-4.8,1.2l-39.2,29.3l-39.2-29.3c-1.4-1.1-3.2-1.4-4.8-1.2l-46.4,8.6
		c-23.3,6.8-39.4,28.2-39.4,52.6V506c0,6.4,5.2,11.5,11.5,11.5h236.5c6.4,0,11.5-5.2,11.5-11.5v-55.7
		C684.4,426,668.3,404.6,644.9,397.8z"/>
	<g>
		<path class="st3" d="M644.9,397.8l-46.4-8.6c-1.6-0.4-3.4,0-4.8,1.2l-20.6,15.4l44.1,8.2c23.3,6.8,39.4,13.3,39.4,37.7v66h16.1
			c6.4,0,11.5-5.2,11.5-11.5v-55.7c0-24.4-16-45.8-39.4-52.6V397.8z"/>
		<path class="st3" d="M497.1,391.7l25.4,35.5c1.9,2.7,5.4,3.6,8.5,2.4l23.5-10l-39.2-29.3c-1.4-1.1-3.2-1.4-4.8-1.2l-13.3,2.5
			L497.1,391.7z"/>
		<path class="st3" d="M611.9,391.7l-25.4,35.5c-1.9,2.7-5.4,3.6-8.5,2.4l-23.5-10l39.2-29.3c1.4-1.1,3.2-1.4,4.8-1.2l13.3,2.5
			L611.9,391.7z"/>
	</g>
	<path class="st2" d="M554.4,177.4c-49.2,0-89.2,34-89.2,53.3s39.9,32.9,89.2,32.9c49.3,0,89.2-13.8,89.2-32.9
		S603.7,177.4,554.4,177.4L554.4,177.4z"/>
	<path class="st3" d="M554.4,177.4c-4.8,0-9.5,0.4-14,0.9c42.6,5.5,75.1,34.9,75.1,52.4s-32.5,30.2-75.1,32.6
		c4.6,0.2,9.3,0.4,14,0.4c49.2,0,89.2-13.8,89.2-32.9S603.7,177.4,554.4,177.4L554.4,177.4z"/>
	<path class="st0" d="M618.2,284.5h-4.1v-16.2c0-16.1-6.6-31.8-18.8-42.2c-9.5-8.2-72.1-8.2-81.7,0c-12.2,10.5-18.8,26.1-18.8,42.2
		v16.2h-4.1c-6,0-10.8,4.8-10.8,10.8v12c0,6,4.8,10.8,10.8,10.8h4.1c0.4,15.6,6.9,30.7,18.8,40.9c9.5,8.2,23.1,15.4,40.8,15.7
		c17.8-0.2,31.3-7.4,40.8-15.7c11.9-10.2,18.5-25.3,18.8-40.9h4.1c6,0,10.8-4.8,10.8-10.8v-12C629,289.3,624.2,284.5,618.2,284.5z"
		/>
	<path class="st1" d="M618.2,284.5h-4.1v-16.2c0-16.1-6.6-31.8-18.8-42.2c-6-5.2-33.1-7.1-54.6-5.8c12.7,0.8,23.5,2.7,27.1,5.8
		c12.2,10.5,18.8,26.1,18.8,42.2V318c-0.4,15.6-6.9,30.7-18.8,40.9c-6.9,6-15.9,11.4-27.1,14c4.2,1.1,8.8,1.6,13.8,1.6
		c17.8-0.2,31.3-7.4,40.8-15.6c11.9-10.2,18.5-25.3,18.8-40.9h4.1c6,0,10.8-4.8,10.8-10.8v-12c0-6-4.8-10.8-10.8-10.8V284.5z"/>
	<path class="st4" d="M485.7,248.4v37.2c0,0,9.2-0.2,14.9,5.6c1.2,1.2,3.3,0.4,3.3-1.4v-27.5h100.8v27.5c0,1.8,2.1,2.6,3.3,1.4
		c5.9-5.8,14.9-5.6,14.9-5.6v-37.2c0-23.1-137.4-23.1-137.4,0H485.7z"/>
	<path class="st2" d="M554.4,278.8c-38,0-68.7-11.8-68.7-26.4h137.4C623.2,266.9,592.5,278.8,554.4,278.8z"/>
	<path class="st3" d="M485.7,234.2v18.2h137.4v-18.1c0-4.9-3.3-9.2-8.1-10.4c-12.7-3.3-38.6-8.9-63.9-8.9c-23.3,0-46.1,5.5-57.7,8.8
		C488.9,225.2,485.7,229.4,485.7,234.2L485.7,234.2z"/>
	<g>
		<polygon class="st5" points="554.4,419.5 536,427.4 546.8,440 562.2,440 572.9,427.4 		"/>
		<polygon class="st5" points="562.2,440 554.4,440 546.8,440 536,517.6 572.9,517.6 		"/>
	</g>
	<g>
		<path class="st3" d="M624.6,491.7h-27.1c-1.8,0-3.3-1.4-3.3-3.3V474c0-1.8,1.4-3.3,3.3-3.3h27.1c1.8,0,3.3,1.4,3.3,3.3v14.4
			C627.9,490.1,626.5,491.7,624.6,491.7z"/>
		<path class="st3" d="M511.5,491.7h-27.1c-1.8,0-3.3-1.4-3.3-3.3V474c0-1.8,1.4-3.3,3.3-3.3h27.1c1.8,0,3.3,1.4,3.3,3.3v14.4
			C514.8,490.1,513.4,491.7,511.5,491.7z"/>
	</g>
	<path class="st6" d="M435.1,431.8c5.1,4.1,12.5,3.3,16.6-1.8l5.5-6.9c4.1-5.1,3.3-12.5-1.8-16.6l-4-3.2
		c-9.5,5.6-17.2,14.1-21.8,24.1L435.1,431.8L435.1,431.8z"/>
	<path class="st7" d="M679.2,427.4c-4.6-10-12.2-18.5-21.8-24.1l-4,3.2c-5.1,4.1-5.9,11.5-1.8,16.6l5.5,6.9
		c4.1,5.1,11.5,5.9,16.6,1.8L679.2,427.4L679.2,427.4z"/>
	<path d="M680.7,419.4c0,0,0-0.1-0.1-0.2c-0.4-0.5-0.6-0.9-0.9-1.4c-0.1-0.2-0.4-0.5-0.5-0.8c-0.2-0.4-0.5-0.6-0.6-0.9
		c-0.2-0.4-0.6-0.8-0.8-1.2c0-0.1-0.1-0.2-0.2-0.4c0,0-0.1-0.1-0.2-0.2c-0.4-0.5-0.7-0.9-1.1-1.4c-0.1-0.1-0.2-0.4-0.4-0.5
		c-0.4-0.5-0.7-0.8-1.1-1.3c-0.1-0.2-0.4-0.4-0.5-0.6c-0.4-0.4-0.6-0.7-0.9-1.1c-0.2-0.2-0.5-0.5-0.7-0.8c-0.2-0.2-0.4-0.4-0.6-0.6
		c-7.1-7.2-15.8-12.4-25.7-15.3c-0.1,0-0.4,0-0.5-0.1l-46.4-8.6l0,0l0,0c0,0-0.1,0-0.2,0c-2.1-0.4-4.4,0-6.4,0.8
		c-1.6-2-2.7-4.7-2.7-7.2v-8.4c2.9-1.9,5.8-4,8.5-6.4c11.5-9.9,18.7-24.2,20.4-39.8c8.5-0.4,15.2-7.4,15.2-15.9v-12
		c0-4.8-2.1-9.3-5.8-12.4v-27.5c16.8-8.2,20.5-17.9,20.5-24.7c0-11.6-10.8-26.2-28.4-38.1c-11.2-7.5-34.7-20.4-65.9-20.4
		c-31.2,0-54.7,12.7-65.9,20.4c-17.5,11.9-28.4,26.5-28.4,38.1c0,11.6,3.6,16.5,20.5,24.7v27.5c-3.6,2.9-5.8,7.4-5.8,12.4v12
		c0,8.6,6.7,15.5,15.2,15.9c1.5,15.5,8.8,29.9,20.4,39.8c2.7,2.4,5.6,4.5,8.5,6.4v8.4c0,2.5-1.1,5.3-2.7,7.2
		c-2.1-0.9-4.4-1.2-6.6-0.8l0,0l-46.4,8.6c-0.1,0-0.4,0-0.5,0.1c-9.9,2.9-18.6,8.1-25.7,15.3c-0.2,0.2-0.4,0.4-0.6,0.6
		s-0.5,0.5-0.7,0.7c-0.4,0.4-0.6,0.7-0.9,1.1c-0.1,0.1-0.4,0.4-0.5,0.6c-0.4,0.5-0.7,0.8-1.1,1.3c-0.1,0.1-0.2,0.4-0.4,0.5
		c-0.4,0.5-0.7,0.9-1.1,1.4c0,0-0.1,0.1-0.2,0.2c0,0-0.1,0.2-0.2,0.4c-0.2,0.4-0.6,0.8-0.8,1.2s-0.5,0.6-0.6,0.9
		c-0.1,0.2-0.4,0.5-0.5,0.8c-0.4,0.5-0.6,0.9-0.9,1.4c0,0,0,0.1-0.1,0.2c-5.6,9.3-8.7,20-8.7,31.1v6.2c0,2.8,2.4,5.2,5.2,5.2
		c2.8,0,5.2-2.4,5.2-5.2v-6.2c0-5.1,0.7-9.9,2.1-14.6c3.1,2.4,6.7,3.6,10.5,3.6c3.8,0,1.2,0,1.9,0c4.5-0.5,8.6-2.7,11.4-6.2l5.5-6.9
		c2.8-3.5,4.1-7.9,3.6-12.5c-0.4-3.5-1.9-6.8-4.2-9.5c1.5-0.6,2.9-1.2,4.5-1.6l29.7-5.5l23.5,32.8c2.4,3.3,6,5.1,9.9,5.1
		c3.9,0,3.2-0.4,4.8-0.9l1.5-0.7l6.8,8l-9.9,70.8h-64.5v-41.7c0-2.8-2.4-5.2-5.2-5.2c-2.8,0-5.2,2.4-5.2,5.2v41.7h-20.6
		c-3.5,0-6.4-2.8-6.4-6.4v-25.4c0-2.8-2.4-5.2-5.2-5.2c-2.8,0-5.2,2.4-5.2,5.2v25.4c0,9.2,7.5,16.7,16.7,16.7h236.5
		c9.2,0,16.7-7.5,16.7-16.7v-55.7c0-11.1-2.9-21.7-8.7-31.1L680.7,419.4z M453.2,419.9l-5.5,6.9c-1.1,1.4-2.7,2.2-4.5,2.5
		s-3.5-0.4-4.9-1.4l-2.1-1.8c0.5-0.8,0.9-1.6,1.4-2.5l0,0c0.5-0.7,0.9-1.3,1.3-2c0.1-0.2,0.2-0.4,0.5-0.6c0.5-0.6,0.8-1.1,1.3-1.6
		c0-0.1,0.2-0.2,0.4-0.5c0.5-0.6,0.9-1.2,1.5-1.8c0.1-0.1,0.4-0.4,0.5-0.5c0.5-0.6,1.1-1.1,1.5-1.6c0,0,0,0,0.1-0.1
		c2-2,4.1-3.8,6.5-5.3l1.2,0.9c1.4,1.1,2.2,2.7,2.5,4.5s-0.4,3.5-1.4,4.9L453.2,419.9z M656.6,410.5l1.2-0.9
		c2.4,1.6,4.5,3.4,6.5,5.3c0,0,0,0,0.1,0.1c0.6,0.6,1.1,1.1,1.5,1.6c0.1,0.1,0.4,0.4,0.5,0.5c0.5,0.6,1.1,1.2,1.5,1.8
		c0,0.1,0.2,0.2,0.4,0.5c0.5,0.6,0.8,1.1,1.3,1.6c0.1,0.2,0.2,0.4,0.5,0.6c0.5,0.7,0.9,1.3,1.3,2l0,0c0.5,0.8,0.9,1.6,1.4,2.5
		l-2.1,1.8c-1.4,1.1-3.2,1.6-4.9,1.4c-1.8-0.2-3.4-1.1-4.5-2.5l-5.5-6.9c-2.4-2.8-1.9-7.1,1.1-9.4L656.6,410.5z M596.7,394.4
		L596.7,394.4L596.7,394.4c0.2-0.2,0.6-0.2,0.8-0.2l5.4,1.1l-20.7,28.9c-0.5,0.7-1.4,0.9-2.2,0.6l-15.3-6.5l0,0l0,0L596.7,394.4z
		 M554.4,413.1l-29.9-22.4c2.8-3.8,4.6-8.5,4.6-13.2v-3.1c7.9,3.3,16.4,5.1,25.3,5.2l0,0c8.9,0,17.4-1.9,25.3-5.2v3.1
		c0,4.7,1.6,9.4,4.6,13.2L554.4,413.1z M564.4,429.3l-4.7,5.4h-10.6l-4.7-5.4l10-4.2L564.4,429.3z M480.5,243.6
		c-6.6-4.1-10.1-8.6-10.1-13.1c0-9.3,12.4-21.9,23.9-29.7c10.2-6.9,31.7-18.6,60.1-18.6c28.5,0,49.9,11.6,60.1,18.6
		c11.5,7.8,23.9,20.4,23.9,29.7s-3.5,8.9-10.1,13.1v-9.3c0-7.3-4.9-13.5-11.9-15.4c-13.3-3.4-39.4-9.1-65.2-9.1l0,0
		c-22.2,0-44.4,4.9-59,9.1c-6.8,1.9-11.5,8.2-11.5,15.3v9.5l0,0L480.5,243.6z M604.2,257.5h11.4l0,0c0,0-0.1,0.2-0.2,0.2
		c-0.2,0.2-0.4,0.4-0.6,0.6c-0.1,0.1-0.2,0.2-0.4,0.4c-0.2,0.1-0.4,0.4-0.6,0.5s-0.4,0.4-0.6,0.5c-0.1,0.1-0.4,0.2-0.5,0.4
		c-0.2,0.2-0.5,0.4-0.7,0.6c-0.1,0-0.2,0.1-0.4,0.2c-0.4,0.2-0.6,0.5-0.9,0.6c0,0-0.1,0-0.2,0.1c-2.1,1.3-4.7,2.6-7.5,3.9
		c0,0,0,0-0.1,0c-10.9,4.6-27.5,8-48.2,8s-37.3-3.4-48.2-8c0,0,0,0-0.1,0c-2.9-1.2-5.4-2.5-7.5-3.9c0,0-0.1,0-0.2-0.1
		c-0.4-0.2-0.7-0.5-0.9-0.6c-0.1,0-0.2-0.1-0.4-0.2c-0.2-0.2-0.5-0.4-0.7-0.6c-0.1-0.1-0.4-0.2-0.5-0.4c-0.2-0.1-0.4-0.4-0.6-0.5
		s-0.4-0.4-0.6-0.5c-0.1-0.1-0.2-0.2-0.4-0.4c-0.2-0.2-0.4-0.4-0.6-0.6l-0.2-0.2l0,0H580c2.8,0,5.2-2.4,5.2-5.2s-2.4-5.2-5.2-5.2
		h-88.6V234c0-2.5,1.6-4.7,4.1-5.4c14-3.9,35.2-8.6,56.2-8.6l0,0c24.6,0,49.8,5.5,62.6,8.8c2.5,0.6,4.2,2.8,4.2,5.4v12.9h-13.8
		c-2.8,0-5.2,2.4-5.2,5.2s2.4,5.2,5.2,5.2H604.2z M618,269v11.9c-2.4,0.5-5.2,1.2-8,2.7v-10C613.2,272.1,615.8,270.6,618,269z
		 M498.8,273.6v10c-2.8-1.4-5.6-2.2-8-2.7V269C493,270.6,495.6,272.1,498.8,273.6z M516.9,355.1c-10.5-9.1-16.7-22.6-17.1-37.2
		c0-2.8-2.4-5.1-5.2-5.1h-4.1c-3.2,0-5.6-2.6-5.6-5.6v-12c0-1.8,0.8-3.3,2.1-4.4c1.8,0.1,5.2,0.7,8,2.5l0,0c0.4,0.2,0.8,0.6,1.2,0.8
		c0,0,0,0,0.1,0c0.2,0.1,0.4,0.4,0.6,0.5c0.1,0.1,0.4,0.2,0.5,0.5c0,0,0,0,0.1,0c0.1,0,0.2,0.2,0.4,0.2c0,0,0,0,0.1,0
		s0.4,0.2,0.6,0.4l0,0c0.2,0,0.4,0.2,0.6,0.2c0,0,0,0,0.1,0s0.2,0,0.5,0.1c0,0,0,0,0.1,0c0.2,0,0.4,0,0.6,0.1l0,0c0.2,0,0.4,0,0.6,0
		c0,0,0,0,0.1,0s0.4,0,0.5,0l0,0l0,0c0.2,0,0.4,0,0.6,0l0,0c0.2,0,0.5,0,0.6,0c0,0,0,0,0.1,0s0.4,0,0.5,0c0,0,0.1,0,0.2,0
		c0.2,0,0.4-0.1,0.6-0.2c2.6-1.1,4.4-3.6,4.4-6.6V277c13.2,4.1,29.5,6.4,45.3,6.4s32.1-2.1,45.3-6.4v12.2c0,2.8,1.8,5.4,4.4,6.6
		c0.2,0,0.4,0.1,0.6,0.2c0,0,0,0,0.1,0c0.1,0,0.4,0,0.5,0.1c0,0,0,0,0.1,0c0.5,0,0.8,0.1,1.3,0.1l0,0l0,0c0.1,0,0.4,0,0.5,0
		c0,0,0,0,0.1,0c0.4,0,0.8-0.1,1.2-0.2c0,0,0,0,0.1,0c0.1,0,0.4,0,0.5-0.1c0,0,0,0,0.1,0c0.2,0,0.4-0.1,0.6-0.2l0,0
		c0.2,0,0.4-0.2,0.6-0.4c0,0,0,0,0.1,0c0.1,0,0.2-0.2,0.4-0.2c0,0,0,0,0.1,0c0.1-0.1,0.4-0.2,0.5-0.5c0.1-0.1,0.4-0.4,0.6-0.5
		c0,0,0,0,0.1-0.1c0.1-0.1,0.4-0.2,0.5-0.4l0,0c0.2-0.1,0.4-0.2,0.6-0.4c0,0,0,0,0.1,0c0.1,0,0.4-0.2,0.5-0.4l0,0
		c0.2,0,0.4-0.2,0.6-0.4c0,0,0,0,0.1,0c0.2,0,0.4-0.1,0.6-0.2l0,0c0.2,0,0.5-0.1,0.6-0.2l0,0c0.2,0,0.4-0.1,0.6-0.2l0,0
		c0.2,0,0.5-0.1,0.7-0.2l0,0c1.5-0.5,2.9-0.6,4-0.7c1.3,1.1,2.1,2.7,2.1,4.4v12c0,3.2-2.6,5.6-5.6,5.6h-4.1c-2.8,0-5.1,2.2-5.2,5.1
		c-0.4,14.6-6.5,28.1-17.1,37.2c-10.9,9.4-23.5,14.2-37.5,14.4c-14-0.1-26.6-5.1-37.5-14.4L516.9,355.1z M544.2,418.2L544.2,418.2
		l-15.3,6.5c-0.8,0.4-1.8,0-2.2-0.6L506,395.2l5.4-1.1c0.2,0,0.6,0,0.8,0.2l0,0l0,0L544.2,418.2L544.2,418.2z M541.9,512.4l9.4-67.3
		h6.4l9.4,67.3H541.9z M679.1,506c0,3.5-2.8,6.4-6.4,6.4h-20.6v-41.7c0-2.8-2.4-5.2-5.2-5.2s-5.2,2.4-5.2,5.2v41.7h-64.5l-9.9-70.8
		l6.8-8l1.5,0.7c1.5,0.7,3.2,0.9,4.8,0.9c3.8,0,7.5-1.8,9.9-5.1l23.5-32.8l29.7,5.5c1.5,0.5,3.1,1.1,4.5,1.6
		c-5.4,6.1-5.9,15.4-0.6,21.9l5.5,6.9c2.8,3.5,6.8,5.8,11.4,6.2c0.6,0,1.2,0,1.9,0c3.8,0,7.5-1.3,10.5-3.6c1.4,4.7,2.1,9.5,2.1,14.6
		v55.7l0,0L679.1,506z"/>
	<path d="M624.6,465.7h-27.1c-4.6,0-8.4,3.8-8.4,8.4v14.4c0,4.6,3.8,8.4,8.4,8.4h27.1c4.6,0,8.4-3.8,8.4-8.4V474
		C632.9,469.4,629.2,465.7,624.6,465.7z M622.7,486.6h-23.3V476h23.3V486.6L622.7,486.6z"/>
	<path d="M511.5,496.8c4.6,0,8.4-3.8,8.4-8.4v-14.4c0-4.6-3.8-8.4-8.4-8.4h-27.1c-4.6,0-8.4,3.8-8.4,8.4v14.4c0,4.6,3.8,8.4,8.4,8.4
		H511.5z M486.3,475.9h23.3v10.6h-23.3V475.9z"/>
</g>
<g>
	<path class="st8" d="M63.1,351.5H28.8c-9.9,0-17.9-8-17.9-17.9s8-17.9,17.9-17.9h16.4c9.9,0,17.9,8,17.9,17.9V351.5z"/>
	<path class="st8" d="M298.2,351.5h34.2c9.9,0,17.9-8,17.9-17.9s-8-17.9-17.9-17.9H316c-9.9,0-17.9,8-17.9,17.9V351.5z"/>
	<path class="st9" d="M251.9,504.4h53.7c6.1,0,11.2-4.9,11.2-11.2v-31.3h-76v31.3C240.7,499.3,245.7,504.4,251.9,504.4L251.9,504.4z
		"/>
	<path class="st9" d="M105.5,504.4H51.9c-6.1,0-11.2-4.9-11.2-11.2v-31.3h76v31.3C116.7,499.3,111.8,504.4,105.5,504.4L105.5,504.4z
		"/>
	<path class="st10" d="M96.2,461.9H20.6c-5.3,0-9.6-4.4-9.6-9.6v-12c0-5.3,4.4-9.6,9.6-9.6h320.2c5.3,0,9.6,4.4,9.6,9.6v12
		c0,5.3-4.4,9.6-9.6,9.6h-78"/>
	<path class="st9" d="M332.4,430.7H28.9v-54.2c0-13.6,11.1-24.8,24.8-24.8h253.9c13.6,0,24.8,11.1,24.8,24.8v54.2H332.4z"/>
	<path class="st11" d="M307.6,351.6h-20.5c13.6,0,24.8,11.1,24.8,24.8v54.2h20.5v-54.2C332.4,362.8,321.3,351.6,307.6,351.6z"/>
	<g>
		<path class="st12" d="M251.3,483.4H106.2c-4.8,0-8.7-3.9-8.7-8.7v-16.4c0-4.8,3.9-8.7,8.7-8.7h145.1c4.8,0,8.7,3.9,8.7,8.7v16.4
			C260,479.6,256.2,483.4,251.3,483.4z"/>
		<path class="st12" d="M104.7,411H56c-4.2,0-7.8-3.5-7.8-7.8v-17.5c0-4.2,3.5-7.8,7.8-7.8h48.7c4.2,0,7.8,3.5,7.8,7.8v17.5
			C112.5,407.4,108.9,411,104.7,411z"/>
		<path class="st12" d="M307.5,411h-48.7c-4.2,0-7.8-3.5-7.8-7.8v-17.5c0-4.2,3.5-7.8,7.8-7.8h48.7c4.2,0,7.8,3.5,7.8,7.8v17.5
			C315.2,407.4,311.7,411,307.5,411z"/>
	</g>
	<path class="st13" d="M222,411h-82.8c-4.2,0-7.8-3.5-7.8-7.8v-17.5c0-4.2,3.5-7.8,7.8-7.8H222c4.2,0,7.8,3.5,7.8,7.8v17.5
		C229.8,407.4,226.3,411,222,411z"/>
	<path class="st9" d="M113.3,226.8h140.5v23.9H113.3V226.8L113.3,226.8z"/>
	<path class="st12" d="M267.9,250.6H93.3c-15.7,0-28.9,10.7-31.8,25.5l-10.8,75.4h259.8l-10.8-75.4
		C296.9,261.3,283.5,250.6,267.9,250.6z"/>
	<path class="st14" d="M253.9,271.9H107.3c-13.1,0-24.4,9.8-26.7,23.2l-9.1,56.6h218.2l-9.1-56.6
		C278.3,281.6,267.1,271.9,253.9,271.9L253.9,271.9z"/>
	<path class="st15" d="M280.6,295c-2.4-13.4-13.5-23.2-26.7-23.2h-20.5c13.1,0,24.4,9.8,26.7,23.2l9.1,56.6h20.5L280.6,295z"/>
	<path class="st16" d="M266.7,232.1H102.6c-6.9,0-12.6-5.6-12.6-12.6v-17.3c0-6.9,5.6-12.6,12.6-12.6h164.1
		c6.9,0,12.6,5.6,12.6,12.6v17.3C279.3,226.4,273.7,232.1,266.7,232.1z"/>
	<path class="st17" d="M110.6,219.6v-17.3c0-6.9,5.6-12.6,12.6-12.6h-20.5c-6.9,0-12.6,5.6-12.6,12.6v17.3c0,6.9,5.6,12.6,12.6,12.6
		h20.5C116.2,232.2,110.6,226.6,110.6,219.6z"/>
	<path class="st18" d="M266.7,189.7h-80.4v42.4h80.4c6.9,0,12.6-5.6,12.6-12.6v-17.3c0-6.9-5.6-12.6-12.6-12.6l0,0V189.7z"/>
	<path class="st19" d="M266.7,189.7h-20.5c6.9,0,12.6,5.6,12.6,12.6v17.3c0,6.9-5.6,12.6-12.6,12.6h20.5c6.9,0,12.6-5.6,12.6-12.6
		v-17.3C279.3,195.4,273.7,189.7,266.7,189.7z"/>
	<path class="st20" d="M141.7,189.7h86.1v42.4h-86.1V189.7z"/>
	<path d="M350.8,500h-30.2c0.9-2.1,1.5-4.4,1.5-6.8V467h18.8c8.1,0,14.8-6.6,14.8-14.8v-12c0-8.1-6.6-14.8-14.8-14.8h-3.2v-49.1
		c0-7.5-2.8-14.5-7.4-19.8h2.4c12.7,0,23.1-10.4,23.1-23.1s-10.4-23.1-23.1-23.1c0,0-20.5,0.4-22.5,0.8l-5.2-36c0,0,0-0.1,0-0.2
		c-3.3-17.2-18.7-29.8-36.8-29.8h-8.9v-8.2h7.8c9.8,0,17.7-7.9,17.7-17.7V202c0-9.8-7.9-17.7-17.7-17.7H102.6
		c-9.8,0-17.7,7.9-17.7,17.7v17.3c0,9.8,7.9,17.7,17.7,17.7h5.5v8.2H93.3c-18.1,0-33.5,12.5-36.8,29.8c0,0,0,0.1,0,0.2l-5.2,36
		c-2-0.6-22.5-0.8-22.5-0.8c-12.7,0-23.1,10.4-23.1,23.1s10.4,23.1,23.1,23.1h2.4c-4.6,5.3-7.4,12.2-7.4,19.8v49.1h-3.2
		c-8.1,0-14.8,6.6-14.8,14.8v12c0,8.1,6.6,14.8,14.8,14.8h14.9v26.2c0,2.5,0.6,4.7,1.5,6.8H10.6c-2.8,0-5.2,2.4-5.2,5.2
		c0,2.8,2.4,5.2,5.2,5.2h340.2c2.8,0,5.2-2.4,5.2-5.2C355.9,502.4,353.6,500,350.8,500z M316.2,320.8h16.4c7.1,0,12.8,5.8,12.8,12.8
		s-5.8,12.8-12.8,12.8h-17.4l-3.5-24.7c1.4-0.6,3.1-0.8,4.6-0.8l0,0V320.8z M274.3,202.3v17.3c0,4.1-3.3,7.4-7.4,7.4H233v-32.1h33.9
		C271,194.9,274.3,198.2,274.3,202.3z M222.7,194.9V227h-75.9v-32.1H222.7z M95.3,219.6v-17.3c0-4.1,3.3-7.4,7.4-7.4h33.9V227h-33.9
		C98.6,227,95.3,223.7,95.3,219.6L95.3,219.6z M248.7,237.3v8.2H118.5v-8.2H248.7z M28.8,346.5c-7.1,0-12.8-5.8-12.8-12.8
		s5.8-12.8,12.8-12.8h16.4c1.6,0,3.2,0.4,4.6,0.8l-3.5,24.7H28.8V346.5z M111.5,493.3c0,3.3-2.7,6-6,6H51.9c-3.3,0-6-2.7-6-6v-26.2
		h8.8v8.2c0,2.8,2.4,5.2,5.2,5.2c2.8,0,5.2-2.4,5.2-5.2v-8.2h8.7v8.2c0,2.8,2.4,5.2,5.2,5.2s5.2-2.4,5.2-5.2v-8.2h8.6v7.8
		c0,7.6,6.2,13.9,13.9,13.9h5.3v4.6H111.5z M102.6,474.8v-16.4c0-2,1.6-3.6,3.6-3.6h145.1c2,0,3.6,1.6,3.6,3.6v16.4
		c0,2-1.6,3.6-3.6,3.6H106.2C104.2,478.5,102.6,476.8,102.6,474.8L102.6,474.8z M120.2,500.1c0.9-2.1,1.5-4.4,1.5-6.8v-4.6h113.9
		v4.6c0,2.5,0.6,4.7,1.5,6.8H120.4H120.2z M311.6,493.3c0,3.3-2.7,6-6,6h-53.7c-3.3,0-6-2.7-6-6v-4.6h5.3c7.6,0,13.9-6.2,13.9-13.9
		v-7.8h8.6v8.2c0,2.8,2.4,5.2,5.2,5.2s5.2-2.4,5.2-5.2v-8.2h8.7v8.2c0,2.8,2.4,5.2,5.2,5.2s5.2-2.4,5.2-5.2v-8.2h8.8v26.2l0,0H311.6
		z M265,456.8c-0.8-6.8-6.7-12.2-13.8-12.2H106.1c-7.1,0-12.9,5.3-13.8,12.2H20.5c-2.5,0-4.5-2-4.5-4.5v-12c0-2.5,2-4.5,4.5-4.5
		h257.1c2.8,0,5.2-2.4,5.2-5.2c0-2.8-2.4-5.2-5.2-5.2H34v-49.1c0-10.8,8.8-19.7,19.7-19.7h46.8c2.8,0,5.2-2.4,5.2-5.2
		s-2.4-5.2-5.2-5.2H77.5l8.1-50.6c1.9-10.9,11.1-18.8,21.7-18.8h8.5c2.8,0,5.2-2.4,5.2-5.2c0-2.8-2.4-5.2-5.2-5.2h-8.5
		c-15.7,0-28.9,11.5-31.8,27.4l0,0l-8.4,52.2H56.6l10-69.5c2.4-12.4,13.6-21.3,26.7-21.3h174.6c13.1,0,24.4,8.9,26.7,21.3l10,69.5
		H294l-8.4-52.2l0,0c-2.8-15.9-16.1-27.4-31.8-27.4H136.4c-2.8,0-5.2,2.4-5.2,5.2c0,2.8,2.4,5.2,5.2,5.2h117.6
		c10.6,0,19.7,7.9,21.7,18.8l8.1,50.6H121.1c-2.8,0-5.2,2.4-5.2,5.2s2.4,5.2,5.2,5.2h168.6c0.5,0,0.9,0,1.3-0.2
		c0.5,0,0.8,0.2,1.3,0.2h15.2c10.8,0,19.7,8.8,19.7,19.7v49.1h-27.4c-2.8,0-5.2,2.4-5.2,5.2c0,2.8,2.4,5.2,5.2,5.2h40.9
		c2.5,0,4.5,2,4.5,4.5v12c0,2.5-2,4.5-4.5,4.5H265L265,456.8z"/>
	<path d="M104.7,372.7H56c-7.1,0-12.9,5.8-12.9,12.9v17.5c0,7.1,5.8,12.9,12.9,12.9h48.7c7.1,0,12.9-5.8,12.9-12.9v-17.5
		C117.7,378.6,111.9,372.7,104.7,372.7L104.7,372.7z M107.3,403.2c0,1.4-1.2,2.6-2.6,2.6H56c-1.4,0-2.6-1.2-2.6-2.6v-17.5
		c0-1.4,1.2-2.6,2.6-2.6h48.7c1.4,0,2.6,1.2,2.6,2.6V403.2z"/>
	<path d="M320.4,403.2v-17.5c0-7.1-5.8-12.9-12.9-12.9h-48.7c-7.1,0-12.9,5.8-12.9,12.9v17.5c0,7.1,5.8,12.9,12.9,12.9h48.7
		C314.5,416.1,320.4,410.4,320.4,403.2L320.4,403.2z M256.2,403.2v-17.5c0-1.4,1.2-2.6,2.6-2.6h48.7c1.4,0,2.6,1.2,2.6,2.6v17.5
		c0,1.4-1.2,2.6-2.6,2.6h-48.7C257.3,405.8,256.2,404.6,256.2,403.2z"/>
	<path d="M222,372.7h-82.8c-7.1,0-12.9,5.8-12.9,12.9v17.5c0,7.1,5.8,12.9,12.9,12.9H222c7.1,0,12.9-5.8,12.9-12.9v-17.5
		C235,378.6,229.2,372.7,222,372.7L222,372.7z M224.6,403.2c0,1.4-1.2,2.6-2.6,2.6h-82.8c-1.4,0-2.6-1.2-2.6-2.6v-3.6h88.1v3.6
		H224.6z M224.6,389.3h-88.1v-3.6c0-1.4,1.2-2.6,2.6-2.6h82.8c1.4,0,2.6,1.2,2.6,2.6v3.6H224.6z"/>
</g>
</svg>
