<?xml version="1.0" encoding="UTF-8"?><svg id="Calque_1" xmlns="http://www.w3.org/2000/svg" viewBox="0 0 1080 1080"><circle cx="876.2" cy="219.4" r="106.3" fill="#ffe64d"/><path d="M876.2,340.9c-67,0-121.5-54.5-121.5-121.5s54.5-121.5,121.5-121.5,121.5,54.5,121.5,121.5-54.5,121.5-121.5,121.5h0Zm0-212.6c-50.3,0-91.1,40.9-91.1,91.1s40.9,91.1,91.1,91.1,91.1-40.9,91.1-91.1-40.9-91.1-91.1-91.1Z" fill="#fb0"/><g><path d="M876.2,67.5c-8.4,0-15.2-6.8-15.2-15.2v-15.2c0-8.4,6.8-15.2,15.2-15.2s15.2,6.8,15.2,15.2v15.2c0,8.4-6.8,15.2-15.2,15.2Z" fill="#ffe64d"/><path d="M765.7,93.1l-8.9-12.3c-4.9-6.8-3.4-16.3,3.4-21.2,6.8-4.9,16.3-3.4,21.2,3.4l8.9,12.3c4.9,6.8,3.4,16.3-3.4,21.2-6.8,4.9-16.3,3.4-21.2-3.4Z" fill="#ffe64d"/><path d="M712.6,182.2l-14.4-4.7c-8-2.6-12.3-11.2-9.8-19.1,2.6-8,11.2-12.3,19.1-9.8l14.4,4.7c8,2.6,12.3,11.2,9.8,19.1-2.6,7.9-11.1,12.4-19.1,9.8Z" fill="#ffe64d"/><path d="M688.4,280.4c-2.6-8,1.8-16.5,9.8-19.1l14.4-4.7c8-2.6,16.5,1.8,19.1,9.8,2.6,8-1.8,16.5-9.8,19.1l-14.4,4.7c-8,2.6-16.5-1.8-19.1-9.8h0Z" fill="#ffe64d"/><path d="M760.1,379.1c-6.8-4.9-8.3-14.4-3.4-21.2l8.9-12.3c4.9-6.8,14.4-8.3,21.2-3.4,6.8,4.9,8.3,14.4,3.4,21.2l-8.9,12.3c-4.9,6.8-14.4,8.3-21.2,3.4Z" fill="#ffe64d"/><path d="M876.2,416.8c-8.4,0-15.2-6.8-15.2-15.2v-15.2c0-8.4,6.8-15.2,15.2-15.2s15.2,6.8,15.2,15.2v15.2c0,8.4-6.8,15.2-15.2,15.2Z" fill="#ffe64d"/><path d="M971,375.8l-8.9-12.3c-4.9-6.8-3.4-16.3,3.4-21.2,6.8-4.9,16.3-3.4,21.2,3.4l8.9,12.3c4.9,6.8,3.4,16.3-3.4,21.2-6.7,4.9-16.3,3.5-21.2-3.4Z" fill="#ffe64d"/><path d="M1044.8,290.2l-14.4-4.7c-8-2.6-12.3-11.2-9.8-19.1,2.6-8,11.2-12.3,19.1-9.8l14.4,4.7c8,2.6,12.3,11.2,9.8,19.1-2.6,7.9-11.1,12.4-19.1,9.8Z" fill="#ffe64d"/><path d="M1020.6,172.4c-2.6-8,1.8-16.5,9.8-19.1l14.4-4.7c8-2.6,16.5,1.8,19.1,9.8,2.6,8-1.8,16.5-9.8,19.1l-14.4,4.7c-8,2.6-16.5-1.8-19.1-9.8Z" fill="#ffe64d"/><path d="M965.5,96.5c-6.8-4.9-8.3-14.4-3.4-21.2l8.9-12.3c4.9-6.8,14.4-8.3,21.2-3.4,6.8,4.9,8.3,14.4,3.4,21.2l-8.9,12.3c-4.9,6.8-14.4,8.3-21.2,3.4Z" fill="#ffe64d"/></g><rect x="80.8" y="1034.5" width="157.2" height="20.3" rx="7.6" ry="7.6" fill="#727272"/><path d="M136.1,940.5h33.4c8.4,0,15.9,5.4,18.6,13.4l10.1,30.2c1.2,3.4-.5,7.1-3.9,8.4s-7.1-.5-8.4-3.9c0-.1,0-.2-.1-.4l-10.1-30.2c-.9-2.7-3.4-4.5-6.2-4.5h-2l11.4,45.7h-6.5v32.6c0,3.6-2.9,6.5-6.5,6.5s-6.5-2.9-6.5-6.5v-32.6h-13v32.6c0,3.6-2.9,6.5-6.5,6.5s-6.5-2.9-6.5-6.5v-32.6h-6.5l11.4-45.7h-2c-2.8,0-5.3,1.8-6.2,4.5l-10.1,30.2c-1,3.4-4.7,5.4-8.1,4.4-3.4-1-5.4-4.7-4.4-8.1,0-.1,0-.2,.1-.4l10.1-30.2c2.7-8,10.1-13.4,18.6-13.4h0Zm16.7-42.4c-9,0-16.3,7.3-16.3,16.3v16.3h32.6v-16.3c0-9-7.3-16.3-16.3-16.3Z"/></svg>