<?xml version="1.0" encoding="UTF-8"?><svg id="Calque_1" xmlns="http://www.w3.org/2000/svg" viewBox="0 0 1080 1080"><circle cx="876.2" cy="219.4" r="106.3" fill="#ffe64d"/><path d="M876.2,340.9c-67,0-121.5-54.5-121.5-121.5s54.5-121.5,121.5-121.5,121.5,54.5,121.5,121.5-54.5,121.5-121.5,121.5h0Zm0-212.6c-50.3,0-91.1,40.9-91.1,91.1s40.9,91.1,91.1,91.1,91.1-40.9,91.1-91.1-40.9-91.1-91.1-91.1Z" fill="#fb0"/><g><path d="M876.2,67.5c-8.4,0-15.2-6.8-15.2-15.2v-15.2c0-8.4,6.8-15.2,15.2-15.2s15.2,6.8,15.2,15.2v15.2c0,8.4-6.8,15.2-15.2,15.2Z" fill="#ffe64d"/><path d="M765.7,93.1l-8.9-12.3c-4.9-6.8-3.4-16.3,3.4-21.2,6.8-4.9,16.3-3.4,21.2,3.4l8.9,12.3c4.9,6.8,3.4,16.3-3.4,21.2-6.8,4.9-16.3,3.4-21.2-3.4Z" fill="#ffe64d"/><path d="M712.6,182.2l-14.4-4.7c-8-2.6-12.3-11.2-9.8-19.1,2.6-8,11.2-12.3,19.1-9.8l14.4,4.7c8,2.6,12.3,11.2,9.8,19.1-2.6,7.9-11.1,12.4-19.1,9.8Z" fill="#ffe64d"/><path d="M688.4,280.4c-2.6-8,1.8-16.5,9.8-19.1l14.4-4.7c8-2.6,16.5,1.8,19.1,9.8,2.6,8-1.8,16.5-9.8,19.1l-14.4,4.7c-8,2.6-16.5-1.8-19.1-9.8h0Z" fill="#ffe64d"/><path d="M760.1,379.1c-6.8-4.9-8.3-14.4-3.4-21.2l8.9-12.3c4.9-6.8,14.4-8.3,21.2-3.4,6.8,4.9,8.3,14.4,3.4,21.2l-8.9,12.3c-4.9,6.8-14.4,8.3-21.2,3.4Z" fill="#ffe64d"/><path d="M876.2,416.8c-8.4,0-15.2-6.8-15.2-15.2v-15.2c0-8.4,6.8-15.2,15.2-15.2s15.2,6.8,15.2,15.2v15.2c0,8.4-6.8,15.2-15.2,15.2Z" fill="#ffe64d"/><path d="M971,375.8l-8.9-12.3c-4.9-6.8-3.4-16.3,3.4-21.2,6.8-4.9,16.3-3.4,21.2,3.4l8.9,12.3c4.9,6.8,3.4,16.3-3.4,21.2-6.7,4.9-16.3,3.5-21.2-3.4Z" fill="#ffe64d"/><path d="M1044.8,290.2l-14.4-4.7c-8-2.6-12.3-11.2-9.8-19.1,2.6-8,11.2-12.3,19.1-9.8l14.4,4.7c8,2.6,12.3,11.2,9.8,19.1-2.6,7.9-11.1,12.4-19.1,9.8Z" fill="#ffe64d"/><path d="M1020.6,172.4c-2.6-8,1.8-16.5,9.8-19.1l14.4-4.7c8-2.6,16.5,1.8,19.1,9.8,2.6,8-1.8,16.5-9.8,19.1l-14.4,4.7c-8,2.6-16.5-1.8-19.1-9.8Z" fill="#ffe64d"/><path d="M965.5,96.5c-6.8-4.9-8.3-14.4-3.4-21.2l8.9-12.3c4.9-6.8,14.4-8.3,21.2-3.4,6.8,4.9,8.3,14.4,3.4,21.2l-8.9,12.3c-4.9,6.8-14.4,8.3-21.2,3.4Z" fill="#ffe64d"/></g><g><path d="M303.2,943.4c-35.9,0-66.3-23.4-77-55.7-41.8,18.3-89.1-14.7-84.8-61.5-29.8-12-50.9-41.1-50.9-75.2s18.6-59.8,45.6-72.9c-19.7-52.9,19.3-109.4,75.9-109.4s17.4,1.4,25.3,4.1c10.5-26.1,36-44.6,65.8-44.6s55.4,18.5,65.8,44.6c52-17.2,106.4,21.5,106.4,77s-1.8,19.5-5.1,28.4c27,13.1,45.6,40.8,45.6,72.9s-21.1,63.3-50.9,75.2c4.3,46.9-43,79.8-84.8,61.5-10.6,32.4-41.1,55.7-77,55.7h0Z" fill="#01e68e"/><path d="M303.2,953.5c-36,0-68.1-21-82.8-53.1-44.8,12.1-88.9-21.7-89.4-67.8-64.4-31.8-68.1-122.3-7.1-159.4-17.6-66.1,41.4-127.3,107.9-112.5,30.4-56.9,112.4-56.8,142.8,0,66.5-14.8,125.5,46.4,107.9,112.5,61.1,37.2,57.2,127.7-7.1,159.4-.4,46.2-44.6,79.9-89.4,67.8-14.7,32.1-46.8,53.1-82.8,53.1h0Zm-67.4-69c9.6,29.2,36.7,48.8,67.4,48.8s57.8-19.6,67.4-48.8c1.9-5.7,8.2-8.5,13.7-6.1,35.1,15.3,74.3-12.6,70.7-51.3-.4-4.5,2.1-8.7,6.3-10.4,57.1-22.9,60-102.7,4.6-129.6-4.7-2.3-6.9-7.8-5.1-12.7,20.7-55.2-31.9-110.8-88.6-92.2-5.1,1.7-10.6-.9-12.6-5.9-9.3-23.2-31.4-38.2-56.4-38.2s-47.1,15-56.4,38.2c-2,5-7.5,7.5-12.6,5.9-45.8-15.1-93.1,19.2-93.1,67.4s1.5,16.9,4.5,24.8c1.8,4.9-.4,10.4-5.1,12.7-55.5,27-52.4,106.8,4.6,129.6,4.2,1.7,6.7,5.9,6.3,10.4-3.7,38.8,35.7,66.6,70.7,51.3,2.6-1.1,11.8,.4,13.7,6.1h0Z" fill="#06c27a"/><path d="M303.2,1054.8c-5.6,0-10.1-4.5-10.1-10.1v-374.8c0-5.6,4.5-10.1,10.1-10.1s10.1,4.5,10.1,10.1v374.8c0,5.6-4.5,10.1-10.1,10.1h0Z" fill="#b94e3b"/><path d="M296.1,889.8c-4-4-4-10.4,0-14.3l81-81c4-4,10.4-4,14.3,0,4,4,4,10.4,0,14.3l-81,81c-4,4-10.4,4-14.3,0Z" fill="#b94e3b"/><path d="M296.1,788.5c-4-4-4-10.4,0-14.3l40.5-40.5c4-4,10.4-4,14.3,0,4,4,4,10.4,0,14.3l-40.5,40.5c-4,4-10.4,4-14.3,0Z" fill="#b94e3b"/><path d="M296.1,849.2l-81-81c-4-4-4-10.4,0-14.3,4-4,10.4-4,14.3,0l81,81c4,4,4,10.4,0,14.3-4,4-10.4,4-14.3,0h0Z" fill="#b94e3b"/><path d="M296.1,747.9l-40.5-40.5c-4-4-4-10.4,0-14.3,4-4,10.4-4,14.3,0l40.5,40.5c4,4,4,10.4,0,14.3-4,4-10.4,4-14.3,0Z" fill="#b94e3b"/><path d="M343.7,1054.8h-81c-5.6,0-10.1-4.5-10.1-10.1s4.5-10.1,10.1-10.1h81c5.6,0,10.1,4.5,10.1,10.1,0,5.6-4.5,10.1-10.1,10.1Z" fill="#b94e3b"/><rect x="80.8" y="1034.5" width="157.2" height="20.3" rx="7.6" ry="7.6" fill="#727272"/></g><g><path d="M782.9,944.9c-35.4,0-65.4-23.1-75.9-55-41.3,18-87.9-14.5-83.7-60.7-29.4-11.8-50.2-40.6-50.2-74.2s18.4-59,45-71.9c-19.4-52.2,19.1-108,74.9-108s17.1,1.4,25,4c10.3-25.8,35.5-44,65-44s54.6,18.2,65,44c51.3-17,104.9,21.2,104.9,75.9s-1.8,19.3-5.1,28c26.6,13,45,40.3,45,71.9s-20.8,62.4-50.2,74.2c4.2,46.2-42.4,78.7-83.7,60.7-10.5,31.9-40.5,55-75.9,55h0Z" fill="#01e68e"/><path d="M782.9,954.9c-35.5,0-67.2-20.7-81.7-52.4-44.2,11.9-87.8-21.4-88.2-66.9-63.5-31.4-67.1-120.7-7-157.3-17.4-65.2,40.8-125.6,106.4-111,30-56.1,110.9-56.1,140.9,0,65.6-14.6,123.8,45.8,106.4,111,60.3,36.7,56.4,126-7,157.3-.4,45.6-44,78.9-88.2,66.9-14.5,31.7-46.2,52.4-81.7,52.4h0Zm-66.5-68.1c9.5,28.8,36.2,48.1,66.5,48.1s57-19.3,66.5-48.1c1.8-5.6,8.1-8.4,13.5-6,34.6,15.1,73.3-12.4,69.7-50.6-.4-4.4,2.1-8.6,6.2-10.2,56.3-22.5,59.2-101.3,4.6-127.9-4.6-2.3-6.8-7.7-5-12.5,20.4-54.5-31.5-109.4-87.4-90.9-5,1.7-10.4-.9-12.4-5.8-9.2-22.9-31-37.7-55.7-37.7s-46.5,14.8-55.7,37.7c-2,4.9-7.4,7.4-12.4,5.8-45.2-14.9-91.8,19-91.8,66.4s1.5,16.7,4.4,24.5c1.8,4.8-.4,10.2-5,12.5-54.7,26.6-51.7,105.4,4.6,127.9,4.1,1.6,6.6,5.8,6.2,10.2-3.6,38.3,35.2,65.7,69.7,50.6,2.5-1.1,11.7,.4,13.5,6h0Z" fill="#06c27a"/><path d="M782.9,1054.8c-5.5,0-10-4.5-10-10v-369.8c0-5.5,4.5-10,10-10s10,4.5,10,10v369.8c0,5.5-4.5,10-10,10h0Z" fill="#b94e3b"/><path d="M775.8,892c-3.9-3.9-3.9-10.2,0-14.1l79.9-79.9c3.9-3.9,10.2-3.9,14.1,0,3.9,3.9,3.9,10.2,0,14.1l-79.9,79.9c-3.9,3.9-10.2,3.9-14.1,0Z" fill="#b94e3b"/><path d="M775.8,792c-3.9-3.9-3.9-10.2,0-14.1l40-40c3.9-3.9,10.2-3.9,14.1,0,3.9,3.9,3.9,10.2,0,14.1l-40,40c-3.9,3.9-10.2,3.9-14.1,0Z" fill="#b94e3b"/><path d="M775.8,852l-79.9-79.9c-3.9-3.9-3.9-10.2,0-14.1,3.9-3.9,10.2-3.9,14.1,0l79.9,79.9c3.9,3.9,3.9,10.2,0,14.1-3.9,3.9-10.2,3.9-14.1,0h0Z" fill="#b94e3b"/><path d="M775.8,752.1l-40-40c-3.9-3.9-3.9-10.2,0-14.1,3.9-3.9,10.2-3.9,14.1,0l40,40c3.9,3.9,3.9,10.2,0,14.1-3.9,3.9-10.2,3.9-14.1,0Z" fill="#b94e3b"/><path d="M822.8,1054.8h-79.9c-5.5,0-10-4.5-10-10s4.5-10,10-10h79.9c5.5,0,10,4.5,10,10,0,5.5-4.5,10-10,10Z" fill="#b94e3b"/><rect x="563.4" y="1034.8" width="155.1" height="20" rx="7.6" ry="7.6" fill="#727272"/></g><path d="M136.1,940.5h33.4c8.4,0,15.9,5.4,18.6,13.4l10.1,30.2c1.2,3.4-.5,7.1-3.9,8.4s-7.1-.5-8.4-3.9c0-.1,0-.2-.1-.4l-10.1-30.2c-.9-2.7-3.4-4.5-6.2-4.5h-2l11.4,45.7h-6.5v32.6c0,3.6-2.9,6.5-6.5,6.5s-6.5-2.9-6.5-6.5v-32.6h-13v32.6c0,3.6-2.9,6.5-6.5,6.5s-6.5-2.9-6.5-6.5v-32.6h-6.5l11.4-45.7h-2c-2.8,0-5.3,1.8-6.2,4.5l-10.1,30.2c-1,3.4-4.7,5.4-8.1,4.4-3.4-1-5.4-4.7-4.4-8.1,0-.1,0-.2,.1-.4l10.1-30.2c2.7-8,10.1-13.4,18.6-13.4h0Zm16.7-42.4c-9,0-16.3,7.3-16.3,16.3v16.3h32.6v-16.3c0-9-7.3-16.3-16.3-16.3Z"/><path d="M626.6,943.6h32.3c8.2,0,15.4,5.2,18,12.9l9.7,29.2c1.2,3.3-.5,6.9-3.8,8.1s-6.9-.5-8.1-3.8c0-.1,0-.2-.1-.3l-9.7-29.2c-.9-2.6-3.3-4.3-6-4.3h-1.9l11,44.2h-6.3v31.6c0,3.5-2.8,6.3-6.3,6.3s-6.3-2.8-6.3-6.3v-31.6h-12.6v31.6c0,3.5-2.8,6.3-6.3,6.3s-6.3-2.8-6.3-6.3v-31.6h-6.3l11-44.2h-1.9c-2.7,0-5.1,1.7-6,4.3l-9.7,29.2c-1,3.3-4.5,5.2-7.9,4.2-3.3-1-5.2-4.5-4.2-7.9,0-.1,0-.2,.1-.3l9.7-29.2c2.6-7.7,9.8-13,18-12.9h0Zm16.2-41c-8.7,0-15.8,7.1-15.8,15.8v15.8h31.6v-15.8c0-8.7-7.1-15.8-15.8-15.8Z"/></svg>