<?xml version="1.0" encoding="UTF-8"?>
<svg id="shade4" xmlns="http://www.w3.org/2000/svg" viewBox="0 0 344.1 438.8">
  <!-- Ombrage abondant (positif) -->
  <!-- Soleil filtré -->
  <circle cx="300" cy="60" r="30" fill="#ffd93d" opacity="0.5"/>
  <!-- Grands arbres -->
  <g>
    <!-- Arbre 1 -->
    <circle cx="100" cy="150" r="70" fill="#2e7d32"/>
    <circle cx="70" cy="130" r="50" fill="#388e3c"/>
    <circle cx="130" cy="130" r="50" fill="#388e3c"/>
    <rect x="90" y="150" width="20" height="100" fill="#5d4037" rx="2"/>
    <!-- Arbre 2 -->
    <circle cx="244" cy="160" r="65" fill="#2e7d32"/>
    <circle cx="214" cy="140" r="45" fill="#388e3c"/>
    <circle cx="274" cy="140" r="45" fill="#388e3c"/>
    <rect x="234" y="160" width="20" height="90" fill="#5d4037" rx="2"/>
  </g>
  <!-- Grande zone d'ombre -->
  <ellipse cx="172" cy="270" rx="140" ry="30" fill="#9e9e9e" opacity="0.7"/>
  <!-- Groupe de personnes confortables -->
  <g fill="#50758d">
    <!-- Personne 1 -->
    <circle cx="150" cy="220" r="18"/>
    <rect x="141" y="238" width="18" height="35" rx="4"/>
    <!-- Personne 2 -->
    <circle cx="194" cy="220" r="18"/>
    <rect x="185" y="238" width="18" height="35" rx="4"/>
  </g>
  <!-- Table de pique-nique -->
  <rect x="122" y="260" width="100" height="4" fill="#8d6e63"/>
  <rect x="130" y="264" width="4" height="25" fill="#8d6e63"/>
  <rect x="210" y="264" width="4" height="25" fill="#8d6e63"/>
  <!-- Symbole de confort -->
  <circle cx="172" cy="350" r="35" fill="#27ae60"/>
  <path d="M157,350 L167,360 L187,340" fill="none" stroke="#fff" stroke-width="5" stroke-linecap="round"/>
</svg>