<?xml version="1.0" encoding="UTF-8"?><svg id="Calque_1" xmlns="http://www.w3.org/2000/svg" viewBox="0 0 693.5 693.5"><g><path d="M346.7,520.3h173.2v173.2h-173.2v-173.2Z" fill="#ecb285"/><g><g><path d="M346.7,520.3h81.7v40.1h-81.7v-40.1Z" fill="#f7d8a4"/><path d="M346.7,564.7h48.7v40.1h-48.7v-40.1Z" fill="#f7d8a4"/><path d="M471.2,564.7h48.7v40.1h-48.7v-40.1Z" fill="#f7d8a4"/><path d="M400,564.7h66.9v40.1h-66.9v-40.1Z" fill="#f7d8a4"/><path d="M433.6,520.3h86.3v40.1h-86.3v-40.1Z" fill="#f7d8a4"/></g><g><path d="M346.7,608.8h81.7v40.1h-81.7v-40.1Z" fill="#f7d8a4"/><path d="M346.7,653.5h48.7v40.1h-48.7v-40.1Z" fill="#f7d8a4"/><path d="M471.2,653.5h48.7v40.1h-48.7v-40.1Z" fill="#f7d8a4"/><path d="M400,653.5h66.9v40.1h-66.9v-40.1Z" fill="#f7d8a4"/><path d="M433.6,608.8h86.3v40.1h-86.3v-40.1Z" fill="#f7d8a4"/></g></g></g><g><path d="M519.9,520.3h173.2v173.2h-173.2v-173.2Z" fill="#ecb285"/><g><g><path d="M519.9,520.3h81.7v40.1h-81.7v-40.1Z" fill="#f7d8a4"/><path d="M519.9,564.7h48.7v40.1h-48.7v-40.1Z" fill="#f7d8a4"/><path d="M644.4,564.7h48.7v40.1h-48.7v-40.1Z" fill="#f7d8a4"/><path d="M573.2,564.7h66.9v40.1h-66.9v-40.1Z" fill="#f7d8a4"/><path d="M606.8,520.3h86.3v40.1h-86.3v-40.1Z" fill="#f7d8a4"/></g><g><path d="M519.9,608.8h81.7v40.1h-81.7v-40.1Z" fill="#f7d8a4"/><path d="M519.9,653.5h48.7v40.1h-48.7v-40.1Z" fill="#f7d8a4"/><path d="M644.4,653.5h48.7v40.1h-48.7v-40.1Z" fill="#f7d8a4"/><path d="M573.2,653.5h66.9v40.1h-66.9v-40.1Z" fill="#f7d8a4"/><path d="M606.8,608.8h86.3v40.1h-86.3v-40.1Z" fill="#f7d8a4"/></g></g></g><g><path d="M346.7,347.1h173.2v173.2h-173.2v-173.2Z" fill="#ecb285"/><g><g><path d="M346.7,347.1h81.7v40.1h-81.7v-40.1Z" fill="#f7d8a4"/><path d="M346.7,391.5h48.7v40.1h-48.7v-40.1Z" fill="#f7d8a4"/><path d="M471.2,391.5h48.7v40.1h-48.7v-40.1Z" fill="#f7d8a4"/><path d="M400,391.5h66.9v40.1h-66.9v-40.1Z" fill="#f7d8a4"/><path d="M433.6,347.1h86.3v40.1h-86.3v-40.1Z" fill="#f7d8a4"/></g><g><path d="M346.7,435.6h81.7v40.1h-81.7v-40.1Z" fill="#f7d8a4"/><path d="M346.7,480.2h48.7v40.1h-48.7v-40.1Z" fill="#f7d8a4"/><path d="M471.2,480.2h48.7v40.1h-48.7v-40.1Z" fill="#f7d8a4"/><path d="M400,480.2h66.9v40.1h-66.9v-40.1Z" fill="#f7d8a4"/><path d="M433.6,435.6h86.3v40.1h-86.3v-40.1Z" fill="#f7d8a4"/></g></g></g><g><path d="M519.9,347.1h173.2v173.2h-173.2v-173.2Z" fill="#ecb285"/><g><g><path d="M519.9,347.1h81.7v40.1h-81.7v-40.1Z" fill="#f7d8a4"/><path d="M519.9,391.5h48.7v40.1h-48.7v-40.1Z" fill="#f7d8a4"/><path d="M644.4,391.5h48.7v40.1h-48.7v-40.1Z" fill="#f7d8a4"/><path d="M573.2,391.5h66.9v40.1h-66.9v-40.1Z" fill="#f7d8a4"/><path d="M606.8,347.1h86.3v40.1h-86.3v-40.1Z" fill="#f7d8a4"/></g><g><path d="M519.9,435.6h81.7v40.1h-81.7v-40.1Z" fill="#f7d8a4"/><path d="M519.9,480.2h48.7v40.1h-48.7v-40.1Z" fill="#f7d8a4"/><path d="M644.4,480.2h48.7v40.1h-48.7v-40.1Z" fill="#f7d8a4"/><path d="M573.2,480.2h66.9v40.1h-66.9v-40.1Z" fill="#f7d8a4"/><path d="M606.8,435.6h86.3v40.1h-86.3v-40.1Z" fill="#f7d8a4"/></g></g></g><g><path d="M1.1,520.3H174.3v173.2H1.1v-173.2Z" fill="#ecb285"/><g><g><path d="M1.1,520.3H82.8v40.1H1.1v-40.1Z" fill="#f7d8a4"/><path d="M1.1,564.7H49.8v40.1H1.1v-40.1Z" fill="#f7d8a4"/><path d="M125.6,564.7h48.7v40.1h-48.7v-40.1Z" fill="#f7d8a4"/><path d="M54.4,564.7H121.3v40.1H54.4v-40.1Z" fill="#f7d8a4"/><path d="M88,520.3h86.3v40.1H88v-40.1Z" fill="#f7d8a4"/></g><g><path d="M1.1,608.8H82.8v40.1H1.1v-40.1Z" fill="#f7d8a4"/><path d="M1.1,653.5H49.8v40.1H1.1v-40.1Z" fill="#f7d8a4"/><path d="M125.6,653.5h48.7v40.1h-48.7v-40.1Z" fill="#f7d8a4"/><path d="M54.4,653.5H121.3v40.1H54.4v-40.1Z" fill="#f7d8a4"/><path d="M88,608.8h86.3v40.1H88v-40.1Z" fill="#f7d8a4"/></g></g></g><g><path d="M174.3,520.3h173.2v173.2H174.3v-173.2Z" fill="#ecb285"/><g><g><path d="M174.3,520.3h81.7v40.1h-81.7v-40.1Z" fill="#f7d8a4"/><path d="M174.3,564.7h48.7v40.1h-48.7v-40.1Z" fill="#f7d8a4"/><path d="M298.8,564.7h48.7v40.1h-48.7v-40.1Z" fill="#f7d8a4"/><path d="M227.6,564.7h66.9v40.1h-66.9v-40.1Z" fill="#f7d8a4"/><path d="M261.2,520.3h86.3v40.1h-86.3v-40.1Z" fill="#f7d8a4"/></g><g><path d="M174.3,608.8h81.7v40.1h-81.7v-40.1Z" fill="#f7d8a4"/><path d="M174.3,653.5h48.7v40.1h-48.7v-40.1Z" fill="#f7d8a4"/><path d="M298.8,653.5h48.7v40.1h-48.7v-40.1Z" fill="#f7d8a4"/><path d="M227.6,653.5h66.9v40.1h-66.9v-40.1Z" fill="#f7d8a4"/><path d="M261.2,608.8h86.3v40.1h-86.3v-40.1Z" fill="#f7d8a4"/></g></g></g><g><path d="M1.1,347.1H174.3v173.2H1.1v-173.2Z" fill="#ecb285"/><g><g><path d="M1.1,347.1H82.8v40.1H1.1v-40.1Z" fill="#f7d8a4"/><path d="M1.1,391.5H49.8v40.1H1.1v-40.1Z" fill="#f7d8a4"/><path d="M125.6,391.5h48.7v40.1h-48.7v-40.1Z" fill="#f7d8a4"/><path d="M54.4,391.5H121.3v40.1H54.4v-40.1Z" fill="#f7d8a4"/><path d="M88,347.1h86.3v40.1H88v-40.1Z" fill="#f7d8a4"/></g><g><path d="M1.1,435.6H82.8v40.1H1.1v-40.1Z" fill="#f7d8a4"/><path d="M1.1,480.2H49.8v40.1H1.1v-40.1Z" fill="#f7d8a4"/><path d="M125.6,480.2h48.7v40.1h-48.7v-40.1Z" fill="#f7d8a4"/><path d="M54.4,480.2H121.3v40.1H54.4v-40.1Z" fill="#f7d8a4"/><path d="M88,435.6h86.3v40.1H88v-40.1Z" fill="#f7d8a4"/></g></g></g><g><path d="M174.3,347.1h173.2v173.2H174.3v-173.2Z" fill="#ecb285"/><g><g><path d="M174.3,347.1h81.7v40.1h-81.7v-40.1Z" fill="#f7d8a4"/><path d="M174.3,391.5h48.7v40.1h-48.7v-40.1Z" fill="#f7d8a4"/><path d="M298.8,391.5h48.7v40.1h-48.7v-40.1Z" fill="#f7d8a4"/><path d="M227.6,391.5h66.9v40.1h-66.9v-40.1Z" fill="#f7d8a4"/><path d="M261.2,347.1h86.3v40.1h-86.3v-40.1Z" fill="#f7d8a4"/></g><g><path d="M174.3,435.6h81.7v40.1h-81.7v-40.1Z" fill="#f7d8a4"/><path d="M174.3,480.2h48.7v40.1h-48.7v-40.1Z" fill="#f7d8a4"/><path d="M298.8,480.2h48.7v40.1h-48.7v-40.1Z" fill="#f7d8a4"/><path d="M227.6,480.2h66.9v40.1h-66.9v-40.1Z" fill="#f7d8a4"/><path d="M261.2,435.6h86.3v40.1h-86.3v-40.1Z" fill="#f7d8a4"/></g></g></g><g><path d="M346.7,173.6h173.2v173.2h-173.2V173.6Z" fill="#ecb285"/><g><g><path d="M346.7,173.6h81.7v40.1h-81.7v-40.1Z" fill="#f7d8a4"/><path d="M346.7,217.9h48.7v40.1h-48.7v-40.1Z" fill="#f7d8a4"/><path d="M471.2,217.9h48.7v40.1h-48.7v-40.1Z" fill="#f7d8a4"/><path d="M400,217.9h66.9v40.1h-66.9v-40.1Z" fill="#f7d8a4"/><path d="M433.6,173.6h86.3v40.1h-86.3v-40.1Z" fill="#f7d8a4"/></g><g><path d="M346.7,262.1h81.7v40.1h-81.7v-40.1Z" fill="#f7d8a4"/><path d="M346.7,306.7h48.7v40.1h-48.7v-40.1Z" fill="#f7d8a4"/><path d="M471.2,306.7h48.7v40.1h-48.7v-40.1Z" fill="#f7d8a4"/><path d="M400,306.7h66.9v40.1h-66.9v-40.1Z" fill="#f7d8a4"/><path d="M433.6,262.1h86.3v40.1h-86.3v-40.1Z" fill="#f7d8a4"/></g></g></g><g><path d="M519.9,173.6h173.2v173.2h-173.2V173.6Z" fill="#ecb285"/><g><g><path d="M519.9,173.6h81.7v40.1h-81.7v-40.1Z" fill="#f7d8a4"/><path d="M519.9,217.9h48.7v40.1h-48.7v-40.1Z" fill="#f7d8a4"/><path d="M644.4,217.9h48.7v40.1h-48.7v-40.1Z" fill="#f7d8a4"/><path d="M573.2,217.9h66.9v40.1h-66.9v-40.1Z" fill="#f7d8a4"/><path d="M606.8,173.6h86.3v40.1h-86.3v-40.1Z" fill="#f7d8a4"/></g><g><path d="M519.9,262.1h81.7v40.1h-81.7v-40.1Z" fill="#f7d8a4"/><path d="M519.9,306.7h48.7v40.1h-48.7v-40.1Z" fill="#f7d8a4"/><path d="M644.4,306.7h48.7v40.1h-48.7v-40.1Z" fill="#f7d8a4"/><path d="M573.2,306.7h66.9v40.1h-66.9v-40.1Z" fill="#f7d8a4"/><path d="M606.8,262.1h86.3v40.1h-86.3v-40.1Z" fill="#f7d8a4"/></g></g></g><g><path d="M346.7,.3h173.2V173.6h-173.2V.3Z" fill="#ecb285"/><g><g><path d="M346.7,.3h81.7V40.4h-81.7V.3Z" fill="#f7d8a4"/><path d="M346.7,44.7h48.7v40.1h-48.7V44.7Z" fill="#f7d8a4"/><path d="M471.2,44.7h48.7v40.1h-48.7V44.7Z" fill="#f7d8a4"/><path d="M400,44.7h66.9v40.1h-66.9V44.7Z" fill="#f7d8a4"/><path d="M433.6,.3h86.3V40.4h-86.3V.3Z" fill="#f7d8a4"/></g><g><path d="M346.7,88.8h81.7v40.1h-81.7v-40.1Z" fill="#f7d8a4"/><path d="M346.7,133.5h48.7v40.1h-48.7v-40.1Z" fill="#f7d8a4"/><path d="M471.2,133.5h48.7v40.1h-48.7v-40.1Z" fill="#f7d8a4"/><path d="M400,133.5h66.9v40.1h-66.9v-40.1Z" fill="#f7d8a4"/><path d="M433.6,88.8h86.3v40.1h-86.3v-40.1Z" fill="#f7d8a4"/></g></g></g><g><path d="M519.9,.3h173.2V173.6h-173.2V.3Z" fill="#ecb285"/><g><g><path d="M519.9,.3h81.7V40.4h-81.7V.3Z" fill="#f7d8a4"/><path d="M519.9,44.7h48.7v40.1h-48.7V44.7Z" fill="#f7d8a4"/><path d="M644.4,44.7h48.7v40.1h-48.7V44.7Z" fill="#f7d8a4"/><path d="M573.2,44.7h66.9v40.1h-66.9V44.7Z" fill="#f7d8a4"/><path d="M606.8,.3h86.3V40.4h-86.3V.3Z" fill="#f7d8a4"/></g><g><path d="M519.9,88.8h81.7v40.1h-81.7v-40.1Z" fill="#f7d8a4"/><path d="M519.9,133.5h48.7v40.1h-48.7v-40.1Z" fill="#f7d8a4"/><path d="M644.4,133.5h48.7v40.1h-48.7v-40.1Z" fill="#f7d8a4"/><path d="M573.2,133.5h66.9v40.1h-66.9v-40.1Z" fill="#f7d8a4"/><path d="M606.8,88.8h86.3v40.1h-86.3v-40.1Z" fill="#f7d8a4"/></g></g></g><g><path d="M1.1,173.6H174.3v173.2H1.1V173.6Z" fill="#ecb285"/><g><g><path d="M1.1,173.6H82.8v40.1H1.1v-40.1Z" fill="#f7d8a4"/><path d="M1.1,217.9H49.8v40.1H1.1v-40.1Z" fill="#f7d8a4"/><path d="M125.6,217.9h48.7v40.1h-48.7v-40.1Z" fill="#f7d8a4"/><path d="M54.4,217.9H121.3v40.1H54.4v-40.1Z" fill="#f7d8a4"/><path d="M88,173.6h86.3v40.1H88v-40.1Z" fill="#f7d8a4"/></g><g><path d="M1.1,262.1H82.8v40.1H1.1v-40.1Z" fill="#f7d8a4"/><path d="M1.1,306.7H49.8v40.1H1.1v-40.1Z" fill="#f7d8a4"/><path d="M125.6,306.7h48.7v40.1h-48.7v-40.1Z" fill="#f7d8a4"/><path d="M54.4,306.7H121.3v40.1H54.4v-40.1Z" fill="#f7d8a4"/><path d="M88,262.1h86.3v40.1H88v-40.1Z" fill="#f7d8a4"/></g></g></g><g><path d="M174.3,173.6h173.2v173.2H174.3V173.6Z" fill="#ecb285"/><g><g><path d="M174.3,173.6h81.7v40.1h-81.7v-40.1Z" fill="#f7d8a4"/><path d="M174.3,217.9h48.7v40.1h-48.7v-40.1Z" fill="#f7d8a4"/><path d="M298.8,217.9h48.7v40.1h-48.7v-40.1Z" fill="#f7d8a4"/><path d="M227.6,217.9h66.9v40.1h-66.9v-40.1Z" fill="#f7d8a4"/><path d="M261.2,173.6h86.3v40.1h-86.3v-40.1Z" fill="#f7d8a4"/></g><g><path d="M174.3,262.1h81.7v40.1h-81.7v-40.1Z" fill="#f7d8a4"/><path d="M174.3,306.7h48.7v40.1h-48.7v-40.1Z" fill="#f7d8a4"/><path d="M298.8,306.7h48.7v40.1h-48.7v-40.1Z" fill="#f7d8a4"/><path d="M227.6,306.7h66.9v40.1h-66.9v-40.1Z" fill="#f7d8a4"/><path d="M261.2,262.1h86.3v40.1h-86.3v-40.1Z" fill="#f7d8a4"/></g></g></g><g><path d="M1.1,.3H174.3V173.6H1.1V.3Z" fill="#ecb285"/><g><g><path d="M1.1,.3H82.8V40.4H1.1V.3Z" fill="#f7d8a4"/><path d="M1.1,44.7H49.8v40.1H1.1V44.7Z" fill="#f7d8a4"/><path d="M125.6,44.7h48.7v40.1h-48.7V44.7Z" fill="#f7d8a4"/><path d="M54.4,44.7H121.3v40.1H54.4V44.7Z" fill="#f7d8a4"/><path d="M88,.3h86.3V40.4H88V.3Z" fill="#f7d8a4"/></g><g><path d="M1.1,88.8H82.8v40.1H1.1v-40.1Z" fill="#f7d8a4"/><path d="M1.1,133.5H49.8v40.1H1.1v-40.1Z" fill="#f7d8a4"/><path d="M125.6,133.5h48.7v40.1h-48.7v-40.1Z" fill="#f7d8a4"/><path d="M54.4,133.5H121.3v40.1H54.4v-40.1Z" fill="#f7d8a4"/><path d="M88,88.8h86.3v40.1H88v-40.1Z" fill="#f7d8a4"/></g></g></g><g><path d="M174.3,.3h173.2V173.6H174.3V.3Z" fill="#ecb285"/><g><g><path d="M174.3,.3h81.7V40.4h-81.7V.3Z" fill="#f7d8a4"/><path d="M174.3,44.7h48.7v40.1h-48.7V44.7Z" fill="#f7d8a4"/><path d="M298.8,44.7h48.7v40.1h-48.7V44.7Z" fill="#f7d8a4"/><path d="M227.6,44.7h66.9v40.1h-66.9V44.7Z" fill="#f7d8a4"/><path d="M261.2,.3h86.3V40.4h-86.3V.3Z" fill="#f7d8a4"/></g><g><path d="M174.3,88.8h81.7v40.1h-81.7v-40.1Z" fill="#f7d8a4"/><path d="M174.3,133.5h48.7v40.1h-48.7v-40.1Z" fill="#f7d8a4"/><path d="M298.8,133.5h48.7v40.1h-48.7v-40.1Z" fill="#f7d8a4"/><path d="M227.6,133.5h66.9v40.1h-66.9v-40.1Z" fill="#f7d8a4"/><path d="M261.2,88.8h86.3v40.1h-86.3v-40.1Z" fill="#f7d8a4"/></g></g></g><rect x="-2.3" y="344.8" width="695.7" height="4.9" rx="2.5" ry="2.5" fill="#ecb285"/><rect x="-2.3" y="518.3" width="695.7" height="4.9" rx="2.5" ry="2.5" fill="#ecb285"/><rect x="-2.3" y="170.5" width="695.7" height="4.9" rx="2.5" ry="2.5" fill="#ecb285"/></svg>