<?xml version="1.0" encoding="UTF-8"?><svg id="Calque_1" xmlns="http://www.w3.org/2000/svg" viewBox="0 0 693.5 693.5"><g><path d="M346.7,520.3h173.2v173.2h-173.2v-173.2Z" fill="#ecb285"/><g><g><path d="M346.7,520.3h81.7v40.1h-81.7v-40.1Z" fill="#f7d8a4"/><path d="M346.7,564.7h48.7v40.1h-48.7v-40.1Z" fill="#f7d8a4"/><path d="M471.2,564.7h48.7v40.1h-48.7v-40.1Z" fill="#f7d8a4"/><path d="M400,564.7h66.9v40.1h-66.9v-40.1Z" fill="#f7d8a4"/><path d="M433.6,520.3h86.3v40.1h-86.3v-40.1Z" fill="#f7d8a4"/></g><g><path d="M346.7,608.8h81.7v40.1h-81.7v-40.1Z" fill="#f7d8a4"/><path d="M346.7,653.5h48.7v40.1h-48.7v-40.1Z" fill="#f7d8a4"/><path d="M471.2,653.5h48.7v40.1h-48.7v-40.1Z" fill="#f7d8a4"/><path d="M400,653.5h66.9v40.1h-66.9v-40.1Z" fill="#f7d8a4"/><path d="M433.6,608.8h86.3v40.1h-86.3v-40.1Z" fill="#f7d8a4"/></g></g></g><g><path d="M519.9,520.3h173.2v173.2h-173.2v-173.2Z" fill="#ecb285"/><g><g><path d="M519.9,520.3h81.7v40.1h-81.7v-40.1Z" fill="#f7d8a4"/><path d="M519.9,564.7h48.7v40.1h-48.7v-40.1Z" fill="#f7d8a4"/><path d="M644.4,564.7h48.7v40.1h-48.7v-40.1Z" fill="#f7d8a4"/><path d="M573.2,564.7h66.9v40.1h-66.9v-40.1Z" fill="#f7d8a4"/><path d="M606.8,520.3h86.3v40.1h-86.3v-40.1Z" fill="#f7d8a4"/></g><g><path d="M519.9,608.8h81.7v40.1h-81.7v-40.1Z" fill="#f7d8a4"/><path d="M519.9,653.5h48.7v40.1h-48.7v-40.1Z" fill="#f7d8a4"/><path d="M644.4,653.5h48.7v40.1h-48.7v-40.1Z" fill="#f7d8a4"/><path d="M573.2,653.5h66.9v40.1h-66.9v-40.1Z" fill="#f7d8a4"/><path d="M606.8,608.8h86.3v40.1h-86.3v-40.1Z" fill="#f7d8a4"/></g></g></g><g><path d="M346.7,347.1h173.2v173.2h-173.2v-173.2Z" fill="#ecb285"/><g><g><path d="M346.7,347.1h81.7v40.1h-81.7v-40.1Z" fill="#f7d8a4"/><path d="M346.7,391.5h48.7v40.1h-48.7v-40.1Z" fill="#f7d8a4"/><path d="M471.2,391.5h48.7v40.1h-48.7v-40.1Z" fill="#f7d8a4"/><path d="M400,391.5h66.9v40.1h-66.9v-40.1Z" fill="#f7d8a4"/><path d="M433.6,347.1h86.3v40.1h-86.3v-40.1Z" fill="#f7d8a4"/></g><g><path d="M346.7,435.6h81.7v40.1h-81.7v-40.1Z" fill="#f7d8a4"/><path d="M346.7,480.2h48.7v40.1h-48.7v-40.1Z" fill="#f7d8a4"/><path d="M471.2,480.2h48.7v40.1h-48.7v-40.1Z" fill="#f7d8a4"/><path d="M400,480.2h66.9v40.1h-66.9v-40.1Z" fill="#f7d8a4"/><path d="M433.6,435.6h86.3v40.1h-86.3v-40.1Z" fill="#f7d8a4"/></g></g></g><g><path d="M519.9,347.1h173.2v173.2h-173.2v-173.2Z" fill="#ecb285"/><g><g><path d="M519.9,347.1h81.7v40.1h-81.7v-40.1Z" fill="#f7d8a4"/><path d="M519.9,391.5h48.7v40.1h-48.7v-40.1Z" fill="#f7d8a4"/><path d="M644.4,391.5h48.7v40.1h-48.7v-40.1Z" fill="#f7d8a4"/><path d="M573.2,391.5h66.9v40.1h-66.9v-40.1Z" fill="#f7d8a4"/><path d="M606.8,347.1h86.3v40.1h-86.3v-40.1Z" fill="#f7d8a4"/></g><g><path d="M519.9,435.6h81.7v40.1h-81.7v-40.1Z" fill="#f7d8a4"/><path d="M519.9,480.2h48.7v40.1h-48.7v-40.1Z" fill="#f7d8a4"/><path d="M644.4,480.2h48.7v40.1h-48.7v-40.1Z" fill="#f7d8a4"/><path d="M573.2,480.2h66.9v40.1h-66.9v-40.1Z" fill="#f7d8a4"/><path d="M606.8,435.6h86.3v40.1h-86.3v-40.1Z" fill="#f7d8a4"/></g></g></g><g><path d="M1.1,520.3H174.3v173.2H1.1v-173.2Z" fill="#ecb285"/><g><g><path d="M1.1,520.3H82.8v40.1H1.1v-40.1Z" fill="#f7d8a4"/><path d="M1.1,564.7H49.8v40.1H1.1v-40.1Z" fill="#f7d8a4"/><path d="M125.6,564.7h48.7v40.1h-48.7v-40.1Z" fill="#f7d8a4"/><path d="M54.4,564.7H121.3v40.1H54.4v-40.1Z" fill="#f7d8a4"/><path d="M88,520.3h86.3v40.1H88v-40.1Z" fill="#f7d8a4"/></g><g><path d="M1.1,608.8H82.8v40.1H1.1v-40.1Z" fill="#f7d8a4"/><path d="M1.1,653.5H49.8v40.1H1.1v-40.1Z" fill="#f7d8a4"/><path d="M125.6,653.5h48.7v40.1h-48.7v-40.1Z" fill="#f7d8a4"/><path d="M54.4,653.5H121.3v40.1H54.4v-40.1Z" fill="#f7d8a4"/><path d="M88,608.8h86.3v40.1H88v-40.1Z" fill="#f7d8a4"/></g></g></g><g><path d="M174.3,520.3h173.2v173.2H174.3v-173.2Z" fill="#ecb285"/><g><g><path d="M174.3,520.3h81.7v40.1h-81.7v-40.1Z" fill="#f7d8a4"/><path d="M174.3,564.7h48.7v40.1h-48.7v-40.1Z" fill="#f7d8a4"/><path d="M298.8,564.7h48.7v40.1h-48.7v-40.1Z" fill="#f7d8a4"/><path d="M227.6,564.7h66.9v40.1h-66.9v-40.1Z" fill="#f7d8a4"/><path d="M261.2,520.3h86.3v40.1h-86.3v-40.1Z" fill="#f7d8a4"/></g><g><path d="M174.3,608.8h81.7v40.1h-81.7v-40.1Z" fill="#f7d8a4"/><path d="M174.3,653.5h48.7v40.1h-48.7v-40.1Z" fill="#f7d8a4"/><path d="M298.8,653.5h48.7v40.1h-48.7v-40.1Z" fill="#f7d8a4"/><path d="M227.6,653.5h66.9v40.1h-66.9v-40.1Z" fill="#f7d8a4"/><path d="M261.2,608.8h86.3v40.1h-86.3v-40.1Z" fill="#f7d8a4"/></g></g></g><g><path d="M1.1,347.1H174.3v173.2H1.1v-173.2Z" fill="#ecb285"/><g><g><path d="M1.1,347.1H82.8v40.1H1.1v-40.1Z" fill="#f7d8a4"/><path d="M1.1,391.5H49.8v40.1H1.1v-40.1Z" fill="#f7d8a4"/><path d="M125.6,391.5h48.7v40.1h-48.7v-40.1Z" fill="#f7d8a4"/><path d="M54.4,391.5H121.3v40.1H54.4v-40.1Z" fill="#f7d8a4"/><path d="M88,347.1h86.3v40.1H88v-40.1Z" fill="#f7d8a4"/></g><g><path d="M1.1,435.6H82.8v40.1H1.1v-40.1Z" fill="#f7d8a4"/><path d="M1.1,480.2H49.8v40.1H1.1v-40.1Z" fill="#f7d8a4"/><path d="M125.6,480.2h48.7v40.1h-48.7v-40.1Z" fill="#f7d8a4"/><path d="M54.4,480.2H121.3v40.1H54.4v-40.1Z" fill="#f7d8a4"/><path d="M88,435.6h86.3v40.1H88v-40.1Z" fill="#f7d8a4"/></g></g></g><g><path d="M174.3,347.1h173.2v173.2H174.3v-173.2Z" fill="#ecb285"/><g><g><path d="M174.3,347.1h81.7v40.1h-81.7v-40.1Z" fill="#f7d8a4"/><path d="M174.3,391.5h48.7v40.1h-48.7v-40.1Z" fill="#f7d8a4"/><path d="M298.8,391.5h48.7v40.1h-48.7v-40.1Z" fill="#f7d8a4"/><path d="M227.6,391.5h66.9v40.1h-66.9v-40.1Z" fill="#f7d8a4"/><path d="M261.2,347.1h86.3v40.1h-86.3v-40.1Z" fill="#f7d8a4"/></g><g><path d="M174.3,435.6h81.7v40.1h-81.7v-40.1Z" fill="#f7d8a4"/><path d="M174.3,480.2h48.7v40.1h-48.7v-40.1Z" fill="#f7d8a4"/><path d="M298.8,480.2h48.7v40.1h-48.7v-40.1Z" fill="#f7d8a4"/><path d="M227.6,480.2h66.9v40.1h-66.9v-40.1Z" fill="#f7d8a4"/><path d="M261.2,435.6h86.3v40.1h-86.3v-40.1Z" fill="#f7d8a4"/></g></g></g><g><path d="M346.7,173.6h173.2v173.2h-173.2V173.6Z" fill="#ecb285"/><g><g><path d="M346.7,173.6h81.7v40.1h-81.7v-40.1Z" fill="#f7d8a4"/><path d="M346.7,217.9h48.7v40.1h-48.7v-40.1Z" fill="#f7d8a4"/><path d="M471.2,217.9h48.7v40.1h-48.7v-40.1Z" fill="#f7d8a4"/><path d="M400,217.9h66.9v40.1h-66.9v-40.1Z" fill="#f7d8a4"/><path d="M433.6,173.6h86.3v40.1h-86.3v-40.1Z" fill="#f7d8a4"/></g><g><path d="M346.7,262.1h81.7v40.1h-81.7v-40.1Z" fill="#f7d8a4"/><path d="M346.7,306.7h48.7v40.1h-48.7v-40.1Z" fill="#f7d8a4"/><path d="M471.2,306.7h48.7v40.1h-48.7v-40.1Z" fill="#f7d8a4"/><path d="M400,306.7h66.9v40.1h-66.9v-40.1Z" fill="#f7d8a4"/><path d="M433.6,262.1h86.3v40.1h-86.3v-40.1Z" fill="#f7d8a4"/></g></g></g><g><path d="M519.9,173.6h173.2v173.2h-173.2V173.6Z" fill="#ecb285"/><g><g><path d="M519.9,173.6h81.7v40.1h-81.7v-40.1Z" fill="#f7d8a4"/><path d="M519.9,217.9h48.7v40.1h-48.7v-40.1Z" fill="#f7d8a4"/><path d="M644.4,217.9h48.7v40.1h-48.7v-40.1Z" fill="#f7d8a4"/><path d="M573.2,217.9h66.9v40.1h-66.9v-40.1Z" fill="#f7d8a4"/><path d="M606.8,173.6h86.3v40.1h-86.3v-40.1Z" fill="#f7d8a4"/></g><g><path d="M519.9,262.1h81.7v40.1h-81.7v-40.1Z" fill="#f7d8a4"/><path d="M519.9,306.7h48.7v40.1h-48.7v-40.1Z" fill="#f7d8a4"/><path d="M644.4,306.7h48.7v40.1h-48.7v-40.1Z" fill="#f7d8a4"/><path d="M573.2,306.7h66.9v40.1h-66.9v-40.1Z" fill="#f7d8a4"/><path d="M606.8,262.1h86.3v40.1h-86.3v-40.1Z" fill="#f7d8a4"/></g></g></g><g><path d="M346.7,.3h173.2V173.6h-173.2V.3Z" fill="#ecb285"/><g><g><path d="M346.7,.3h81.7V40.4h-81.7V.3Z" fill="#f7d8a4"/><path d="M346.7,44.7h48.7v40.1h-48.7V44.7Z" fill="#f7d8a4"/><path d="M471.2,44.7h48.7v40.1h-48.7V44.7Z" fill="#f7d8a4"/><path d="M400,44.7h66.9v40.1h-66.9V44.7Z" fill="#f7d8a4"/><path d="M433.6,.3h86.3V40.4h-86.3V.3Z" fill="#f7d8a4"/></g><g><path d="M346.7,88.8h81.7v40.1h-81.7v-40.1Z" fill="#f7d8a4"/><path d="M346.7,133.5h48.7v40.1h-48.7v-40.1Z" fill="#f7d8a4"/><path d="M471.2,133.5h48.7v40.1h-48.7v-40.1Z" fill="#f7d8a4"/><path d="M400,133.5h66.9v40.1h-66.9v-40.1Z" fill="#f7d8a4"/><path d="M433.6,88.8h86.3v40.1h-86.3v-40.1Z" fill="#f7d8a4"/></g></g></g><g><path d="M519.9,.3h173.2V173.6h-173.2V.3Z" fill="#ecb285"/><g><g><path d="M519.9,.3h81.7V40.4h-81.7V.3Z" fill="#f7d8a4"/><path d="M519.9,44.7h48.7v40.1h-48.7V44.7Z" fill="#f7d8a4"/><path d="M644.4,44.7h48.7v40.1h-48.7V44.7Z" fill="#f7d8a4"/><path d="M573.2,44.7h66.9v40.1h-66.9V44.7Z" fill="#f7d8a4"/><path d="M606.8,.3h86.3V40.4h-86.3V.3Z" fill="#f7d8a4"/></g><g><path d="M519.9,88.8h81.7v40.1h-81.7v-40.1Z" fill="#f7d8a4"/><path d="M519.9,133.5h48.7v40.1h-48.7v-40.1Z" fill="#f7d8a4"/><path d="M644.4,133.5h48.7v40.1h-48.7v-40.1Z" fill="#f7d8a4"/><path d="M573.2,133.5h66.9v40.1h-66.9v-40.1Z" fill="#f7d8a4"/><path d="M606.8,88.8h86.3v40.1h-86.3v-40.1Z" fill="#f7d8a4"/></g></g></g><g><path d="M1.1,173.6H174.3v173.2H1.1V173.6Z" fill="#ecb285"/><g><g><path d="M1.1,173.6H82.8v40.1H1.1v-40.1Z" fill="#f7d8a4"/><path d="M1.1,217.9H49.8v40.1H1.1v-40.1Z" fill="#f7d8a4"/><path d="M125.6,217.9h48.7v40.1h-48.7v-40.1Z" fill="#f7d8a4"/><path d="M54.4,217.9H121.3v40.1H54.4v-40.1Z" fill="#f7d8a4"/><path d="M88,173.6h86.3v40.1H88v-40.1Z" fill="#f7d8a4"/></g><g><path d="M1.1,262.1H82.8v40.1H1.1v-40.1Z" fill="#f7d8a4"/><path d="M1.1,306.7H49.8v40.1H1.1v-40.1Z" fill="#f7d8a4"/><path d="M125.6,306.7h48.7v40.1h-48.7v-40.1Z" fill="#f7d8a4"/><path d="M54.4,306.7H121.3v40.1H54.4v-40.1Z" fill="#f7d8a4"/><path d="M88,262.1h86.3v40.1H88v-40.1Z" fill="#f7d8a4"/></g></g></g><g><path d="M174.3,173.6h173.2v173.2H174.3V173.6Z" fill="#ecb285"/><g><g><path d="M174.3,173.6h81.7v40.1h-81.7v-40.1Z" fill="#f7d8a4"/><path d="M174.3,217.9h48.7v40.1h-48.7v-40.1Z" fill="#f7d8a4"/><path d="M298.8,217.9h48.7v40.1h-48.7v-40.1Z" fill="#f7d8a4"/><path d="M227.6,217.9h66.9v40.1h-66.9v-40.1Z" fill="#f7d8a4"/><path d="M261.2,173.6h86.3v40.1h-86.3v-40.1Z" fill="#f7d8a4"/></g><g><path d="M174.3,262.1h81.7v40.1h-81.7v-40.1Z" fill="#f7d8a4"/><path d="M174.3,306.7h48.7v40.1h-48.7v-40.1Z" fill="#f7d8a4"/><path d="M298.8,306.7h48.7v40.1h-48.7v-40.1Z" fill="#f7d8a4"/><path d="M227.6,306.7h66.9v40.1h-66.9v-40.1Z" fill="#f7d8a4"/><path d="M261.2,262.1h86.3v40.1h-86.3v-40.1Z" fill="#f7d8a4"/></g></g></g><g><path d="M1.1,.3H174.3V173.6H1.1V.3Z" fill="#ecb285"/><g><g><path d="M1.1,.3H82.8V40.4H1.1V.3Z" fill="#f7d8a4"/><path d="M1.1,44.7H49.8v40.1H1.1V44.7Z" fill="#f7d8a4"/><path d="M125.6,44.7h48.7v40.1h-48.7V44.7Z" fill="#f7d8a4"/><path d="M54.4,44.7H121.3v40.1H54.4V44.7Z" fill="#f7d8a4"/><path d="M88,.3h86.3V40.4H88V.3Z" fill="#f7d8a4"/></g><g><path d="M1.1,88.8H82.8v40.1H1.1v-40.1Z" fill="#f7d8a4"/><path d="M1.1,133.5H49.8v40.1H1.1v-40.1Z" fill="#f7d8a4"/><path d="M125.6,133.5h48.7v40.1h-48.7v-40.1Z" fill="#f7d8a4"/><path d="M54.4,133.5H121.3v40.1H54.4v-40.1Z" fill="#f7d8a4"/><path d="M88,88.8h86.3v40.1H88v-40.1Z" fill="#f7d8a4"/></g></g></g><g><path d="M174.3,.3h173.2V173.6H174.3V.3Z" fill="#ecb285"/><g><g><path d="M174.3,.3h81.7V40.4h-81.7V.3Z" fill="#f7d8a4"/><path d="M174.3,44.7h48.7v40.1h-48.7V44.7Z" fill="#f7d8a4"/><path d="M298.8,44.7h48.7v40.1h-48.7V44.7Z" fill="#f7d8a4"/><path d="M227.6,44.7h66.9v40.1h-66.9V44.7Z" fill="#f7d8a4"/><path d="M261.2,.3h86.3V40.4h-86.3V.3Z" fill="#f7d8a4"/></g><g><path d="M174.3,88.8h81.7v40.1h-81.7v-40.1Z" fill="#f7d8a4"/><path d="M174.3,133.5h48.7v40.1h-48.7v-40.1Z" fill="#f7d8a4"/><path d="M298.8,133.5h48.7v40.1h-48.7v-40.1Z" fill="#f7d8a4"/><path d="M227.6,133.5h66.9v40.1h-66.9v-40.1Z" fill="#f7d8a4"/><path d="M261.2,88.8h86.3v40.1h-86.3v-40.1Z" fill="#f7d8a4"/></g></g></g><rect x="-2.3" y="344.8" width="695.7" height="4.9" rx="2.5" ry="2.5" fill="#ecb285"/><rect x="-2.3" y="518.3" width="695.7" height="4.9" rx="2.5" ry="2.5" fill="#ecb285"/><rect x="-2.3" y="170.5" width="695.7" height="4.9" rx="2.5" ry="2.5" fill="#ecb285"/><g><path d="M260.2,238.8H83.2V80.8h177V238.8Z" fill="#5ce9ff"/><path d="M251.9,80.8h8.3V238.8h-8.3V80.8Z" fill="#00e3f9"/><path d="M68.5,259.5h206.5v14.7H68.5v-14.7Z" fill="#d56723"/><path d="M266.7,259.5h8.3v14.7h-8.3v-14.7Z" fill="#b6591e"/><path d="M192.9,213.1h40.1l-4.2,25.7h-31.8l-4.2-25.7Z" fill="#ffa549"/><path d="M224.7,213.1l-4.2,25.7h8.3l4.2-25.7h-8.3Z" fill="#ff9200"/><path d="M286.2,259.5H57.2v-11.5c0-5.1,4.1-9.2,9.2-9.2h210.5c5.1,0,9.2,4.1,9.2,9.2v11.5Z" fill="#eb966d"/><path d="M277,66.1H66.5c-5.1,0-9.2-4.1-9.2-9.2v-11.5h229v11.5c0,5.1-4.1,9.2-9.2,9.2Z" fill="#eb966d"/><path d="M277.9,45.3v11.5c0,5.1-4.1,9.2-9.2,9.2h8.3c5.1,0,9.2-4.1,9.2-9.2v-11.5h-8.3Z" fill="#e8834d"/><path d="M97.3,238.8h15.7l84.8-84.8h-15.7l-84.8,84.8Z" fill="#a4f9ff"/><path d="M83.2,225.4v13.4h14.1l84.8-84.8h-27.5l-71.4,71.4Z" fill="#80f2f5"/><path d="M83.2,80.8v73.2h177V80.8" fill="#eaeff9"/><path d="M251.9,80.8h8.3v73.2h-8.3V80.8Z" fill="#dbe0ea"/><path d="M68.5,66.1V238.8h14.7V80.8h177V238.8h14.7V66.1H68.5Z" fill="#a95118"/><path d="M74.9,238.8h8.3V80.8h-6c-1.3,0-2.3,1-2.3,2.3V238.8Z" fill="#994916"/><path d="M266.7,66.1V238.8h8.3V66.1h-8.3Z" fill="#994916"/><path d="M277,238.8h-8.3c5.1,0,9.2,4.1,9.2,9.2v11.5h8.3v-11.5c0-5.1-4.1-9.2-9.2-9.2Z" fill="#e8834d"/><path d="M245.5,139.3H98v-58.5H245.5v58.5Z" fill="#5ce9ff"/><path d="M113.7,139.3l58.5-58.5h-15.7l-58.5,58.5h15.7Z" fill="#a4f9ff"/><path d="M129,80.8l-31,31v27.5h0l58.5-58.5h-27.5Z" fill="#80f2f5"/><path d="M237.2,80.8h8.3v58.5h-8.3v-58.5Z" fill="#00e3f9"/><path d="M154.7,139.3h34.1v-8.8c0-2.2-1.8-4.1-4.1-4.1h-25.9c-2.2,0-4.1,1.8-4.1,4.1v8.8Z" fill="#ffe2cb"/><path d="M184.7,126.4h-8.3c2.2,0,4.1,1.8,4.1,4.1v8.8h8.3v-8.8c0-2.2-1.8-4.1-4.1-4.1Z" fill="#efc89d"/><path d="M237.3,213.1h-48.8c-1.1,0-2-.9-2-2v-8.7c0-1.1,.9-2,2-2h48.8c1.1,0,2,.9,2,2v8.7c0,1.1-.9,2-2,2h0Z" fill="#ffe2cb"/><path d="M237.3,200.4h-8.3c1.1,0,2,.9,2,2v8.7c0,1.1-.9,2-2,2h8.3c1.1,0,2-.9,2-2v-8.7c0-1.1-.9-2-2-2Z" fill="#efc89d"/><path d="M202.2,170.6c7.6,2.8,10.8,13.1,10.8,13.1,0,0-9.1,5.7-16.7,2.9s-10.8-13.1-10.8-13.1c0,0,9.1-5.7,16.7-2.9Z" fill="#98d72a"/><path d="M223.7,170.6c-7.6,2.8-10.8,13.1-10.8,13.1,0,0,9.1,5.7,16.7,2.9s10.8-13.1,10.8-13.1c0,0-9.1-5.7-16.7-2.9Z" fill="#98d72a"/><path d="M196.2,178.4c-3.3-1.2-5.8-3.9-7.5-6.5-2,.9-3.3,1.7-3.3,1.7,0,0,3.2,10.3,10.8,13.1s16.7-2.9,16.7-2.9c0,0-1-3.3-3.3-6.7-3.3,1.4-8.7,3-13.4,1.3h0Z" fill="#8bc727"/><path d="M229.6,178.4c-4.8,1.8-10.1,.2-13.4-1.3-2.2,3.4-3.3,6.7-3.3,6.7,0,0,9.1,5.7,16.7,2.9s10.8-13.1,10.8-13.1c0,0-1.3-.8-3.3-1.7-1.7,2.6-4.2,5.2-7.5,6.5h0Z" fill="#8bc727"/><path d="M289.7,60.8v-11.5c0-1.9-1.5-3.5-3.5-3.5H57.2c-1.9,0-3.5,1.6-3.5,3.5v11.5c0,6.5,4.9,11.9,11.2,12.6v122.6c0,1.9,1.6,3.5,3.5,3.5s3.5-1.6,3.5-3.5V73.5h199.6V239.3h-7.8v-29.4c0-1.9-1.5-3.5-3.5-3.5s-3.5,1.6-3.5,3.5v29.4h-23.9l3-18.7h1.4c3,0,5.5-2.5,5.5-5.5v-8.7c0-3-2.5-5.5-5.5-5.5h-20.9v-7.8c2.4,.9,5.5,1.7,8.7,1.7s3.8-.3,5.7-1c9.1-3.4,12.7-14.9,12.9-15.3,.5-1.5-.1-3.1-1.5-3.9-.4-.3-10.7-6.6-19.8-3.2-4.4,1.6-7.5,5.1-9.6,8.4-2.1-3.3-5.2-6.8-9.6-8.4-9.1-3.4-19.3,3-19.8,3.2-1.3,.8-1.9,2.5-1.5,4,.2,.5,3.8,12,12.9,15.3,1.9,.7,3.8,1,5.7,1,3.2,0,6.3-.8,8.7-1.7v7.8h-20.9c-3,0-5.5,2.5-5.5,5.5v8.7c0,3,2.5,5.5,5.5,5.5h1.4l3,18.7H86.7v-77.9h170.1v34.6c0,1.9,1.5,3.5,3.5,3.5s3.5-1.6,3.5-3.5V84.8c0-1.9-1.5-3.5-3.5-3.5H83.2c-1.9,0-3.5,1.5-3.5,3.5V239.3h-7.8v-29.4c0-1.9-1.5-3.5-3.5-3.5s-3.5,1.6-3.5,3.5v29.5c-6.3,.7-11.2,6.1-11.2,12.6v11.5c0,1.9,1.5,3.5,3.5,3.5h7.8v11.3c0,1.9,1.6,3.5,3.5,3.5h206.5c1.9,0,3.5-1.6,3.5-3.5v-11.3h7.8c1.9,0,3.5-1.6,3.5-3.5v-11.5c0-6.5-4.9-11.9-11.2-12.6V73.4c6.3-.7,11.2-6.1,11.2-12.6h0Zm-64.8,117c3.6-1.3,8.1,0,11.1,1.3-1.3,2.8-3.8,6.9-7.6,8.2-3.6,1.3-8.1,0-11.1-1.3,1.3-2.8,3.8-6.8,7.6-8.2Zm-27.5,9.5c-3.6-1.3-6.2-5.3-7.6-8.2,3-1.3,7.6-2.6,11.1-1.3,3.6,1.3,6.2,5.3,7.6,8.2-3,1.3-7.6,2.6-11.1,1.3ZM86.7,88.3h7.8v21.8c0,1.9,1.5,3.5,3.5,3.5s3.5-1.6,3.5-3.5v-21.8H242v51.5h-49.8v-5.3c0-4.2-3.4-7.5-7.5-7.5h-25.9c-4.2,0-7.5,3.4-7.5,7.5v5.3h-49.8v-15.9c0-1.9-1.6-3.5-3.5-3.5s-3.5,1.6-3.5,3.5v19.4c0,1.9,1.5,3.5,3.5,3.5H245.5c1.9,0,3.5-1.5,3.5-3.5v-55h7.8v66.3H86.7V88.3Zm98.6,46.2v5.3h-27.1v-5.3c0-.3,.3-.6,.6-.6h25.9c.3,0,.6,.3,.6,.6Zm4.7,73.4h45.9v5.8h-45.9v-5.8Zm7,12.7h32l-3,18.7h-25.9l-3-18.7Zm74.6,54.2H72v-7.8h199.6v7.8Zm11.2-22.8v8.1H60.7v-8.1c0-3.2,2.6-5.8,5.8-5.8H197s0,0,0,0,0,0,0,0h31.8s0,0,0,0c0,0,0,0,0,0h48.1c3.2,0,5.8,2.6,5.8,5.8h0Zm-5.8-185.4H66.5c-3.2,0-5.8-2.6-5.8-5.8v-8.1h222v8.1c0,3.2-2.6,5.8-5.8,5.8h0Z"/></g></svg>