<?xml version="1.0" encoding="UTF-8"?><svg id="Calque_1" xmlns="http://www.w3.org/2000/svg" viewBox="0 0 693.5 693.5"><path d="M596.5,135.7c3.1,3.5,3.1,8.7,0,12.2-22,24.5-112,114.1-249.7,114.1S119,172.4,97,147.9c-3.1-3.5-3.1-8.7,0-12.2,22-24.5,112-114.1,249.7-114.1s227.7,89.6,249.7,114.1Z" fill="#e5eef9"/><path d="M596.5,135.7c-22-24.5-112-114.1-249.7-114.1s-13.2,.2-19.6,.6c126.7,7.9,209.2,90.2,230.1,113.4,3.1,3.5,3.1,8.7,0,12.2-20.9,23.3-103.5,105.6-230.1,113.4,6.4,.4,12.9,.6,19.6,.6,137.7,0,227.7-89.6,249.7-114.1,3.1-3.5,3.1-8.7,0-12.2Z" fill="#d5e3f4"/><circle cx="346.7" cy="141.8" r="90.3" fill="#678d98"/><path d="M346.7,51.6c-6.7,0-13.3,.8-19.6,2.2,40.4,9,70.7,45,70.7,88.1s-30.3,79.2-70.7,88.1c6.3,1.4,12.9,2.2,19.6,2.2,49.9,0,90.3-40.4,90.3-90.3s-40.4-90.3-90.3-90.3Z" fill="#537983"/><circle cx="346.7" cy="141.8" r="30.4" fill="#3e5959"/><path d="M558.2,670.8l-130.8,.2-80.7-470.4,211.5,470.2Z" fill="#fec165"/><path d="M346.7,200.6l-4.2,9.3,176.5,460.9h39.2L346.7,200.6Z" fill="#fdb441"/><path d="M603.8,129.2c-139.2-155.6-375.7-154.7-514,0-6.5,7.2-6.5,18.1,0,25.3,14.1,15.7,53.5,55.4,113.9,84.3,4.9,2.3,10.7,.3,13.1-4.6,2.3-4.9,.3-10.7-4.6-13.1-56.6-27.1-93.7-64.1-107.4-79.3C236.1-4.5,458.2-3.8,588.8,141.8c-20.9,23.1-95.2,96.1-208.9,108.6l-5.6-12.4c59.8-16.2,91.5-88.4,60.4-143.9-2.6-4.8-8.5-6.5-13.3-3.9-4.8,2.6-6.5,8.5-3.9,13.3,25.5,45.7-1.6,104.9-51.4,116.5l-10.5-23.3c-3.3-7.6-14.6-7.6-17.9,0l-10.5,23.3c-35-8.7-61.1-40.4-61.1-78.1-.5-62.9,71.4-102.2,124-67.8,4.5,2.9,10.6,1.6,13.5-2.9s1.6-10.6-2.9-13.5c-65.4-42.8-154.8,6-154.1,84.2,0,45.6,30.7,84.2,72.5,96.2l-5.6,12.4c-20.3-2.2-40.6-6.5-60.3-12.8-5.2-1.7-10.7,1.2-12.3,6.3s1.2,10.7,6.3,12.3c18.9,6.1,38.3,10.4,57.8,12.9L126.3,666.8c-3,6.2,2,14,8.9,13.8h423c6.9,.2,11.9-7.6,8.9-13.8l-52.4-116.4c-5.7-11.6-22.8-4-17.9,8l46.2,102.6h-110l-64.3-387.6,109.4,243.3c2.2,4.9,8,7.1,13,4.9,4.9-2.2,7.1-8,4.9-13l-107.8-239.6c117.8-15.2,194.4-91.2,215.5-114.6,6.5-7.2,6.5-18.1,0-25.3h0Zm-279,144.3l-64.3,387.6h-110l174.3-387.6Zm-44.5,387.6l66.5-400.6,66.5,400.6h-133Z"/><path d="M306.5,141.8c0,22.2,18,40.2,40.2,40.2,53.4-2.2,53.4-78.3,0-80.5-22.2,0-40.2,18-40.2,40.2Zm60.9,0c0,11.4-9.3,20.6-20.6,20.6-27.4-1.1-27.4-40.1,0-41.3,11.4,0,20.6,9.3,20.6,20.6Z"/></svg>