<?xml version="1.0" encoding="UTF-8"?><svg id="Calque_1" xmlns="http://www.w3.org/2000/svg" viewBox="0 0 693.5 693.5"><g id="g2849"><path id="path2851" d="M622.6,679.4H72.6L139.1,16.8h417l66.6,662.7Z"/></g><rect x="6.3" y="6.8" width="682.7" height="682.7" fill="none"/><g id="g2861"><path id="path2863" d="M657.7,679.4H37.5c-11.7,0-21.3-9.5-21.3-21.3V38c0-11.7,9.5-21.3,21.3-21.3H657.7c11.7,0,21.3,9.5,21.3,21.3V658.2c0,11.7-9.5,21.3-21.3,21.3" fill="#b1abb4"/></g><g id="g2865"><path id="path2867" d="M657.7,16.8h-40c11.7,0,21.3,9.5,21.3,21.3V658.2c0,11.7-9.5,21.3-21.3,21.3h40c11.7,0,21.3-9.5,21.3-21.3V38c0-11.7-9.5-21.3-21.3-21.3" fill="#a29aa5"/></g><g id="g2869"><path id="path2871" d="M622.6,679.4H72.6L139.1,16.8h417l66.6,662.7Z" fill="#655e67"/></g><g id="g2873"><path id="path2875" d="M556.1,16.8h-40l66.6,662.7h40L556.1,16.8Z" fill="#544f56"/></g><path id="path2877" d="M368.9,60.1h-42.7V16.8h42.7V60.1Z" fill="#f7f7f7"/><path id="path2879" d="M368.9,313.3h-42.7v-97.2h42.7v97.2Z" fill="#f7f7f7"/><path id="path2881" d="M368.9,174.8h-42.7V100.1h42.7v74.7Z" fill="#f7f7f7"/><path id="path2883" d="M368.9,490.5h-42.7v-136.4h42.7v136.4Z" fill="#f7f7f7"/><path id="path2885" d="M368.9,679.4h-42.7v-147.3h42.7v147.3Z" fill="#f7f7f7"/><g id="g2899"><path id="path2901" d="M72.6,679.4L138.4,23.8" fill="none" stroke="#000" stroke-linecap="round" stroke-linejoin="round" stroke-width="20"/></g><g id="g2903"><path id="path2905" d="M556.8,23.8l65.2,648.8" fill="none" stroke="#000" stroke-linecap="round" stroke-linejoin="round" stroke-width="20"/></g><g id="g2907"><path id="path2909" d="M16.3,302.1V38c0-11.7,9.5-21.3,21.3-21.3H657.7c11.7,0,21.3,9.5,21.3,21.3V658.2c0,11.7-9.5,21.3-21.3,21.3H37.5c-11.7,0-21.3-9.5-21.3-21.3V342.1" fill="none" stroke="#000" stroke-linecap="round" stroke-linejoin="round" stroke-width="20"/></g><path id="path2911" d="M368.9,60.1h-42.7V16.8h42.7V60.1Z" fill="none" stroke="#000" stroke-linecap="round" stroke-linejoin="round" stroke-width="20"/><path id="path2913" d="M368.9,313.3h-42.7v-97.2h42.7v97.2Z" fill="none" stroke="#000" stroke-linecap="round" stroke-linejoin="round" stroke-width="20"/><path id="path2915" d="M368.9,174.8h-42.7V100.1h42.7v74.7Z" fill="none" stroke="#000" stroke-linecap="round" stroke-linejoin="round" stroke-width="20"/><g id="g2917"><path id="path2919" d="M326.3,398.7v-44.6h42.7v136.4h-42.7v-51.7" fill="none" stroke="#000" stroke-linecap="round" stroke-linejoin="round" stroke-width="20"/></g><path id="path2921" d="M368.9,679.4h-42.7v-147.3h42.7v147.3Z" fill="none" stroke="#000" stroke-linecap="round" stroke-linejoin="round" stroke-width="20"/></svg>