<?xml version="1.0" encoding="UTF-8"?><svg id="Calque_1" xmlns="http://www.w3.org/2000/svg" viewBox="0 0 700 700"><g id="g2849"><path id="path2851" d="M625,681.4H75L141.5,18.6h417l66.6,662.7h0Z"/></g><rect x="8.6" y="8.6" width="682.7" height="682.7" fill="none"/><g id="g2861"><path id="path2863" d="M660,681.4H39.8c-11.7,0-21.3-9.5-21.3-21.3V39.9c0-11.7,9.5-21.3,21.3-21.3H659.9c11.7,0,21.3,9.5,21.3,21.3V660.1c0,11.7-9.5,21.3-21.3,21.3" fill="#b1abb4"/></g><g id="g2865"><path id="path2867" d="M660,18.6h-40c11.7,0,21.3,9.5,21.3,21.3V660.1c0,11.7-9.5,21.3-21.3,21.3h40c11.7,0,21.3-9.5,21.3-21.3V39.9c0-11.7-9.5-21.3-21.3-21.3" fill="#a29aa5"/></g><g id="g2869"><path id="path2871" d="M625,681.4H75L141.5,18.6h417l66.6,662.7h0Z" fill="#655e67"/></g><g id="g2873"><path id="path2875" d="M558.5,18.6h-40l66.6,662.7h40L558.5,18.6Z" fill="#544f56"/></g><path id="path2877" d="M371.2,62h-42.7V18.6h42.7V61.9h0Z" fill="#f7f7f7"/><path id="path2879" d="M371.2,315.2h-42.7v-97.2h42.7v97.2Z" fill="#f7f7f7"/><path id="path2881" d="M371.2,176.7h-42.7V102h42.7v74.7Z" fill="#f7f7f7"/><path id="path2883" d="M371.2,492.4h-42.7v-136.4h42.7v136.4Z" fill="#f7f7f7"/><path id="path2885" d="M371.2,681.4h-42.7v-147.3h42.7v147.3Z" fill="#f7f7f7"/><g id="g2899"><path id="path2901" d="M75,681.4L140.8,25.8" fill="none" stroke="#000" stroke-linecap="round" stroke-linejoin="round" stroke-width="20"/></g><g id="g2903"><path id="path2905" d="M559.1,25.8l65.2,648.8" fill="none" stroke="#000" stroke-linecap="round" stroke-linejoin="round" stroke-width="20"/></g><g id="g2907"><path id="path2909" d="M18.6,304.1V39.9c0-11.7,9.5-21.3,21.3-21.3H660c11.7,0,21.3,9.5,21.3,21.3V660.1c0,11.7-9.5,21.3-21.3,21.3H39.8c-11.7,0-21.3-9.5-21.3-21.3V344.1" fill="none" stroke="#000" stroke-linecap="round" stroke-linejoin="round" stroke-width="20"/></g><path id="path2911" d="M371.2,62h-42.7V18.6h42.7V61.9h0Z" fill="none" stroke="#000" stroke-linecap="round" stroke-linejoin="round" stroke-width="20"/><path id="path2913" d="M371.2,315.2h-42.7v-97.2h42.7v97.2Z" fill="none" stroke="#000" stroke-linecap="round" stroke-linejoin="round" stroke-width="20"/><path id="path2915" d="M371.2,176.7h-42.7V102h42.7v74.7Z" fill="none" stroke="#000" stroke-linecap="round" stroke-linejoin="round" stroke-width="20"/><g id="g2917"><path id="path2919" d="M328.6,400.6v-44.6h42.7v136.4h-42.7v-51.7" fill="none" stroke="#000" stroke-linecap="round" stroke-linejoin="round" stroke-width="20"/></g><path id="path2921" d="M371.2,681.4h-42.7v-147.3h42.7v147.3Z" fill="none" stroke="#000" stroke-linecap="round" stroke-linejoin="round" stroke-width="20"/><g><g id="g2887"><path id="path2889" d="M251,490.6l-32.6-108.6c-.7-2.4-2.4-4.4-4.8-5.1-.8-.2-1.6-.4-2.4-.4h-10.8c-.8,0-1.6,.1-2.4,.4-2.3,.8-4.1,2.8-4.8,5.1l-32.6,108.6h90.4Z" fill="#e69824"/></g><g id="g2923"><path id="path2925" d="M251,490.6l-32.6-108.6c-.7-2.4-2.4-4.4-4.8-5.1-.8-.2-1.6-.4-2.4-.4h-10.8c-.8,0-1.6,.1-2.4,.4-2.3,.8-4.1,2.8-4.8,5.1l-32.6,108.6h90.4Z" fill="none" stroke="#000" stroke-linecap="round" stroke-linejoin="round" stroke-width="10"/></g><g id="g2927"><path id="path2929" d="M145.8,490.6h120.1" fill="none" stroke="#000" stroke-linecap="round" stroke-linejoin="round" stroke-width="10"/></g></g><g><path d="M270.2,318.1c0,7.1-5.1,13.6-13.3,18.4-8.8,5.1-21.3,8.3-35.1,8.3-26.7,0-48.4-11.9-48.4-26.7s21.7-26.7,48.4-26.7,12.2,.7,17.7,1.8h0c18,3.9,30.7,13.5,30.7,24.8h0Z" fill="#98a7ae"/><path d="M270.2,318.1c0,7.1-5.1,13.6-13.3,18.4-3.5-7.3-7.3-16.1-7.3-19.8,0-6.7-3.6-21.7-10-23.4,18,3.9,30.7,13.5,30.7,24.8h-.1Z" fill="#7b888e"/><path d="M266.5,328.2c-7.3,9.7-24.6,16.5-44.7,16.5s-37.4-6.8-44.7-16.5c7.3-9.7,24.6-16.5,44.7-16.5s37.4,6.8,44.7,16.5Z" fill="#332f41"/><path d="M256.8,298c-9.4-5.2-21.8-8-34.9-8s-28.7,3.6-38.2,10c-.7,.5-.9,1.4-.4,2.1h0c.5,.6,1.4,.8,2,.4,4.1-2.8,9.3-5,15.1-6.7,6.7-1.9,13.9-2.8,21.5-2.8,12.7,0,24.6,2.7,33.5,7.6,8.6,4.8,13.4,11,13.4,17.6s-.8,5.3-2.3,7.8c-4.3-4.8-11-8.9-19.2-11.6-.8-.3-1.6,.2-1.9,1h0c-.2,.8,.2,1.6,1,1.8,8,2.7,14.5,6.6,18.3,11.2-2.2,2.7-5.4,5.2-9.3,7.3-8.9,4.9-20.8,7.6-33.5,7.6s-24.6-2.7-33.5-7.6c-4-2.2-7.1-4.7-9.3-7.3,3.5-4.2,9.1-7.8,16.2-10.5,7.9-3,17.1-4.5,26.7-4.5s12.3,.7,18,1.9c.8,.2,1.6-.3,1.8-1.1h0c.2-.8-.3-1.6-1.1-1.8-5.9-1.3-12.2-2-18.7-2-19.1,0-36.2,6-44.6,15.5-1.5-2.5-2.3-5.1-2.3-7.8,0-4,1.8-8,5.3-11.5,.5-.6,.6-1.5,0-2h0c-.6-.6-1.6-.6-2.1,0-4,4.1-6.1,8.8-6.1,13.6,0,7.7,5.3,14.9,14.9,20.2,9.4,5.2,21.8,8,34.9,8s25.6-2.8,34.9-8c9.6-5.3,14.9-12.5,14.9-20.2s-5.3-14.9-14.9-20.2h-.1Z"/></g></svg>