<?xml version="1.0" encoding="UTF-8"?><svg id="Calque_1" xmlns="http://www.w3.org/2000/svg" viewBox="0 0 682.7 682.7"><g id="g2849"><path id="path2851" d="M616.4,672.7H66.3L132.9,10h417l66.6,662.7Z"/></g><rect y="0" width="682.7" height="682.7" fill="none"/><g id="g2861"><path id="path2863" d="M651.4,672.7H31.3c-11.7,0-21.3-9.5-21.3-21.3V31.3c0-11.7,9.5-21.3,21.3-21.3H651.4c11.7,0,21.3,9.5,21.3,21.3V651.4c0,11.7-9.5,21.3-21.3,21.3" fill="#b1abb4"/></g><g id="g2865"><path id="path2867" d="M651.4,10h-40c11.7,0,21.3,9.5,21.3,21.3V651.4c0,11.7-9.5,21.3-21.3,21.3h40c11.7,0,21.3-9.5,21.3-21.3V31.3c0-11.7-9.5-21.3-21.3-21.3" fill="#a29aa5"/></g><g id="g2869"><path id="path2871" d="M616.4,672.7H66.3L132.9,10h417l66.6,662.7Z" fill="#655e67"/></g><g id="g2873"><path id="path2875" d="M549.8,10h-40l66.6,662.7h40L549.8,10Z" fill="#544f56"/></g><path id="path2877" d="M362.7,53.3h-42.7V10h42.7V53.3Z" fill="#f7f7f7"/><path id="path2879" d="M362.7,306.5h-42.7v-97.2h42.7v97.2Z" fill="#f7f7f7"/><path id="path2881" d="M362.7,168h-42.7V93.3h42.7v74.7Z" fill="#f7f7f7"/><path id="path2883" d="M362.7,483.7h-42.7v-136.4h42.7v136.4Z" fill="#f7f7f7"/><path id="path2885" d="M362.7,672.7h-42.7v-147.3h42.7v147.3Z" fill="#f7f7f7"/><g id="g2899"><path id="path2901" d="M66.3,672.7L132.2,17" fill="none" stroke="#000" stroke-linecap="round" stroke-linejoin="round" stroke-width="20"/></g><g id="g2903"><path id="path2905" d="M550.5,17l65.2,648.8" fill="none" stroke="#000" stroke-linecap="round" stroke-linejoin="round" stroke-width="20"/></g><g id="g2907"><path id="path2909" d="M10,295.3V31.3c0-11.7,9.5-21.3,21.3-21.3H651.4c11.7,0,21.3,9.5,21.3,21.3V651.4c0,11.7-9.5,21.3-21.3,21.3H31.3c-11.7,0-21.3-9.5-21.3-21.3V335.3" fill="none" stroke="#000" stroke-linecap="round" stroke-linejoin="round" stroke-width="20"/></g><path id="path2911" d="M362.7,53.3h-42.7V10h42.7V53.3Z" fill="none" stroke="#000" stroke-linecap="round" stroke-linejoin="round" stroke-width="20"/><path id="path2913" d="M362.7,306.5h-42.7v-97.2h42.7v97.2Z" fill="none" stroke="#000" stroke-linecap="round" stroke-linejoin="round" stroke-width="20"/><path id="path2915" d="M362.7,168h-42.7V93.3h42.7v74.7Z" fill="none" stroke="#000" stroke-linecap="round" stroke-linejoin="round" stroke-width="20"/><g id="g2917"><path id="path2919" d="M320,392v-44.6h42.7v136.4h-42.7v-51.7" fill="none" stroke="#000" stroke-linecap="round" stroke-linejoin="round" stroke-width="20"/></g><path id="path2921" d="M362.7,672.7h-42.7v-147.3h42.7v147.3Z" fill="none" stroke="#000" stroke-linecap="round" stroke-linejoin="round" stroke-width="20"/></svg>