<?xml version="1.0" encoding="UTF-8"?><svg id="Calque_1" xmlns="http://www.w3.org/2000/svg" viewBox="0 0 190 190"><g><path d="M84,41.8h19.7v-15h2.4v-1.5h-1.2l-9.4-6.5,.7-1.4-2.3-3.2-2.3,3.2,.7,1.4-9.4,6.5h-1.2v1.5h2.4v15h0Zm3.1-13.3h1.5c.6,0,1.1,.5,1.1,1.1v8c0,.6-.5,1.1-1.1,1.1h-1.5c-.6,0-1.1-.5-1.1-1.1v-8c0-.6,.5-1.1,1.1-1.1h0Zm5.9,0h1.5c.6,0,1.1,.5,1.1,1.1v8c0,.6-.5,1.1-1.1,1.1h-1.5c-.6,0-1.1-.5-1.1-1.1v-8c0-.6,.5-1.1,1.1-1.1h0Zm5.9,0h1.5c.6,0,1.1,.5,1.1,1.1v8c0,.6-.5,1.1-1.1,1.1h-1.5c-.6,0-1.1-.5-1.1-1.1v-8c0-.6,.5-1.1,1.1-1.1h0Z" fill="#e5a716" fill-rule="evenodd"/><path d="M78.7,43.5h30.2v1.6c0,.9-.7,1.6-1.6,1.6h-1v7.3h-25.1v-7.3h-1c-.9,0-1.6-.7-1.6-1.6v-1.6h0Z" fill="#e5a716" fill-rule="evenodd"/><polygon points="77.7 75.8 77.9 75.8 93.8 75.8 109.7 75.8 109.9 75.8 110.1 77.9 110 77.9 93.8 77.9 77.6 77.9 77.4 77.9 77.7 75.8 77.7 75.8" fill="#e5a716" fill-rule="evenodd"/><polygon points="74.3 100.2 74.4 100.2 93.8 100.2 113.2 100.2 113.3 100.2 113.6 102.4 113.5 102.4 93.8 102.4 74.1 102.4 74 102.4 74.3 100.2 74.3 100.2" fill="#e5a716" fill-rule="evenodd"/><path d="M93.6,60.6c2.6-1.1,5.5-1.7,8.7-1.7l.3-1.4h-21.8l-2.1,16.1h3c2.5-7.4,6.3-10.6,11.8-13h0Z" fill="#f3c348" fill-rule="evenodd"/><path d="M89,84.8c2.2-1,4.7-1.5,7.5-1.6l.3-1.3h-19.1l-2.1,16.1h2.5c2.3-6.7,5.9-11.1,10.9-13.3h0Z" fill="#f3c348" fill-rule="evenodd"/><path d="M85.6,109.9c1.5-.7,3.1-1.1,4.9-1.3l.4-1.5h-16.4l-2.4,18.3h1.9c2.2-7.9,6.1-13,11.6-15.4h0Z" fill="#f3c348" fill-rule="evenodd"/><path d="M50,141.6c-9.7,.3-17.4-1.7-21.3-8.5,19.9,20,88.7-42.8,121.1,1.6-27-21.8-72.2,6-99.8,7h0Z" fill="#f3c348" fill-rule="evenodd"/><path d="M46.9,141.6c19.2,19.9,87.5-34.7,117.6,6.5-37.3-31.5-96.5,22.5-117.6-6.5h0Z" fill="#f3c348" fill-rule="evenodd"/><path d="M92.8,3.1c18.4,0,35.1,7.5,47.2,19.6,.5,.5,1.1,1.1,1.6,1.7h0s0,0,0,0h0s0,0,0,0h0s0,0,0,0h0s0,0,0,0h0s0,0,0,0h0s0,0,0,0h0s0,0,0,0h0s0,0,0,0h0s0,0,0,0h0s0,0,0,0h0s0,0,0,0h0s0,0,0,0h0s0,0,0,0h0s0,0,0,0h0s0,0,0,0h0s0,0,0,0h0s0,0,0,0h0s0,0,0,0h0s0,0,0,0h0s0,0,0,0h0s0,0,0,0h0s0,0,0,0h0s0,0,0,0h0s0,0,0,0h0s0,0,0,0h0s0,0,0,0h0s0,0,0,0h0s0,0,0,0h0s0,0,0,0h0s0,0,0,0h0s0,0,0,0h0s0,0,0,0h0s0,0,0,0h0s0,0,0,0h0s0,0,0,0h0s0,0,0,0h0s0,0,0,0h0s0,0,0,0h0s0,0,0,0h0s0,0,0,0h0s0,0,0,0h0s0,0,0,0h0s0,0,0,0h0s0,0,0,0h0s0,0,0,0h0s0,0,0,0h0s0,0,0,0h0s0,0,0,0h0s0,0,0,0h0s0,0,0,0h0s0,0,0,0l-.8,.2-3,.6-32.8,6.2,43.4,10.3c3.5,7.9,5.4,16.6,5.4,25.7,0,17.5-7.1,33.4-18.6,44.8-1.2,1.2-2.5,2.4-3.8,3.5,1.1,.5,2.2,1,3.3,1.6,1-.9,2-1.8,2.9-2.8,12.1-12.1,19.6-28.8,19.6-47.2s-1.7-17.1-4.7-24.8h0s0,0,0,0h0s0,0,0,0h0s0,0,0,0h0s-.1-.3-.1-.3h0s0,0,0,0v-.4c-.1,0-.2,0-.2,0h0s-.1-.4-.1-.4h0s0,0,0,0h0s-.1-.3-.1-.3h0s0,0,0,0h0s0,0,0,0h0s0,0,0,0v-.3c-.1,0-.1,0-.1,0h0s0,0,0,0h0s-.1-.3-.1-.3h0s0,0,0,0l-4.1-.8-6.5-1.2-35.8-6.7,30.6-8.5-.3-.3c-11.5-11.5-27.3-18.6-44.8-18.6s-33.4,7.1-44.8,18.6l-.3,.3,30.6,8.5-35.8,6.7-6.5,1.2-4.1,.8h0s0,0,0,0v.2c-.1,0-.1,0-.1,0h0s0,0,0,0h0s-.1,.3-.1,.3h0s0,0,0,0h0s0,0,0,0h0s0,0,0,0v.2c-.1,0-.1,0-.1,0h0s0,0,0,0v.4c-.1,0-.2,0-.2,0h0s-.1,.4-.1,.4h0s0,0,0,0v.3c-.1,0-.1,0-.1,0h0s0,0,0,0h0s0,0,0,0h0s0,0,0,0h0c-3.1,7.7-4.7,16-4.7,24.8,0,18.4,7.5,35.1,19.6,47.2,4.8,4.8,10.3,8.8,16.4,12,1.5-.5,3-1,4.5-1.5-6.9-3.2-13.2-7.5-18.5-12.9-11.5-11.5-18.6-27.3-18.6-44.8s1.9-17.9,5.4-25.7l43.4-10.3-32.8-6.2-3-.6-.8-.2h0s0,0,0,0h0s0,0,0,0h0s0,0,0,0h0s0,0,0,0h0s0,0,0,0h0s0,0,0,0h0s0,0,0,0h0s0,0,0,0h0s0,0,0,0h0s0,0,0,0h0s0,0,0,0h0s0,0,0,0h0s0,0,0,0h0s0,0,0,0h0s0,0,0,0h0s0,0,0,0h0s0,0,0,0h0s0,0,0,0h0s0,0,0,0h0s0,0,0,0h0s0,0,0,0h0s0,0,0,0h0s0,0,0,0h0s0,0,0,0h0s0,0,0,0h0s0,0,0,0h0s0,0,0,0h0s0,0,0,0h0s0,0,0,0h0s0,0,0,0h0s0,0,0,0h0s0,0,0,0h0s0,0,0,0h0s0,0,0,0h0s0,0,0,0h0s0,0,0,0h0s0,0,0,0h0s0,0,0,0h0s0,0,0,0h0s0,0,0,0h0s0,0,0,0h0s0,0,0,0h0s0,0,0,0h0s0,0,0,0h0s0,0,0,0h0s0,0,0,0h0s0,0,0,0h0s0,0,0,0h0s0,0,0,0h0s0,0,0,0h0s0,0,0,0c.5-.6,1.1-1.1,1.6-1.7C57.7,10.5,74.4,3.1,92.8,3.1h0Z" fill="#f3c348" fill-rule="evenodd"/></g><text transform="translate(1.1 186.7)" fill="#e5a716" font-family="Montserrat-Black, Montserrat" font-size="31.4" font-variation-settings="&apos;wght&apos; 900"><tspan x="0" y="0">MANARA</tspan></text></svg>