<?xml version="1.0" encoding="UTF-8"?><svg id="Calque_1" xmlns="http://www.w3.org/2000/svg" viewBox="0 0 120 120"><path d="M50.7,31.6h16v-12.3h2v-1.2h-1l-7.7-5.3,.5-1.1-1.9-2.6-1.9,2.6,.5,1.1-7.7,5.3h-1v1.2h2v12.3h0Zm2.6-10.9h1.2c.5,0,.9,.4,.9,.9v6.5c0,.5-.4,.9-.9,.9h-1.2c-.5,0-.9-.4-.9-.9v-6.5c0-.5,.4-.9,.9-.9h0Zm4.8,0h1.2c.5,0,.9,.4,.9,.9v6.5c0,.5-.4,.9-.9,.9h-1.2c-.5,0-.9-.4-.9-.9v-6.5c0-.5,.4-.9,.9-.9h0Zm4.8,0h1.2c.5,0,.9,.4,.9,.9v6.5c0,.5-.4,.9-.9,.9h-1.2c-.5,0-.9-.4-.9-.9v-6.5c0-.5,.4-.9,.9-.9h0Z" fill-rule="evenodd"/><path d="M46.5,33h24.6v1.3c0,.7-.6,1.3-1.3,1.3h-.8v5.9h-20.4v-5.9h-.8c-.7,0-1.3-.6-1.3-1.3v-1.3h0Z" fill-rule="evenodd"/><polygon points="45.7 59.3 45.8 59.3 58.8 59.3 71.7 59.3 71.8 59.3 72.1 61 72 61 58.8 61 45.6 61 45.4 61 45.7 59.3 45.7 59.3" fill-rule="evenodd"/><polygon points="42.9 79.2 43 79.2 58.8 79.2 74.5 79.2 74.6 79.2 74.9 81 74.8 81 58.8 81 42.7 81 42.6 81 42.9 79.2 42.9 79.2" fill-rule="evenodd"/><path d="M58.6,47c2.1-.9,4.4-1.4,7.1-1.4l.3-1.2h-17.7l-1.7,13.1h2.4c2.1-6.1,5.1-8.6,9.6-10.6h0Z" fill-rule="evenodd"/><path d="M54.9,66.7c1.8-.8,3.8-1.2,6.1-1.3l.3-1.1h-15.6l-1.7,13.1h2c1.9-5.4,4.8-9,8.9-10.8h0Z" fill-rule="evenodd"/><path d="M52.1,87.1c1.2-.5,2.6-.9,4-1.1l.3-1.3h-13.4l-1.9,14.9h1.6c1.8-6.4,5-10.6,9.5-12.6h0Z" fill-rule="evenodd"/><path d="M23.1,112.9c-7.9,.3-14.2-1.4-17.4-7,16.2,16.3,72.2-34.9,98.6,1.3-22-17.8-58.8,4.9-81.3,5.7h0Z" fill-rule="evenodd"/><path d="M20.6,113c15.7,16.2,71.3-28.3,95.8,5.3-30.4-25.7-78.6,18.3-95.8-5.3h0Z" fill-rule="evenodd"/><path d="M58,0c15,0,28.6,6.1,38.5,15.9,.4,.4,.9,.9,1.3,1.3h0s0,0,0,0h0s0,0,0,0h0s0,0,0,0h0s0,0,0,0h0s0,0,0,0h0s0,0,0,0h0s0,0,0,0h0s0,0,0,0h0s0,0,0,0h0s0,0,0,0h0s0,0,0,0h0s0,0,0,0h0s0,0,0,0h0s0,0,0,0h0s0,0,0,0h0s0,0,0,0h0s0,0,0,0h0s0,0,0,0h0s0,0,0,0h0s0,0,0,0h0s0,0,0,0h0s0,0,0,0h0s0,0,0,0h0s0,0,0,0h0s0,0,0,0h0s0,0,0,0h0s0,0,0,0h0s0,0,0,0h0s0,0,0,0h0s0,0,0,0h0s0,0,0,0h0s0,0,0,0h0s0,0,0,0h0s0,0,0,0h0s0,0,0,0h0s0,0,0,0h0s0,0,0,0h0s0,0,0,0h0s0,0,0,0h0s0,0,0,0h0s0,0,0,0h0s0,0,0,0h0s0,0,0,0h0s0,0,0,0h0s0,0,0,0h0s0,0,0,0h0s0,0,0,0h0s0,0,0,0h0s0,0,0,0h0s0,0,0,0h0s0,0,0,0h-.7c0,.1-2.5,.6-2.5,.6l-26.7,5,35.4,8.4c2.8,6.4,4.4,13.5,4.4,21,0,14.3-5.8,27.2-15.1,36.5-1,1-2.1,2-3.1,2.9,.9,.4,1.8,.8,2.7,1.3,.8-.7,1.6-1.5,2.4-2.3,9.8-9.8,15.9-23.4,15.9-38.5s-1.4-13.9-3.9-20.2h0s0,0,0,0h0s0,0,0,0h0s0,0,0,0h0s0-.3,0-.3h0s0,0,0,0v-.3c-.1,0-.1,0-.1,0h0s-.1-.3-.1-.3h0s0,0,0,0h0s0-.2,0-.2h0s0,0,0,0h0s0,0,0,0h0s0,0,0,0v-.2c0,0-.1,0-.1,0h0s0,0,0,0h0s0-.2,0-.2h0s0,0,0,0l-3.3-.6-5.3-1-29.2-5.5,24.9-6.9-.2-.2c-9.3-9.3-22.3-15.1-36.5-15.1s-27.2,5.8-36.5,15.1l-.2,.2,24.9,6.9-29.2,5.5-5.3,1-3.3,.6h0s0,0,0,0v.2c0,0,0,0,0,0h0s0,0,0,0h0s0,.3,0,.3h0s0,0,0,0h0s0,0,0,0h0s0,0,0,0v.2c0,0,0,0,0,0h0s0,0,0,0v.3c-.1,0-.1,0-.1,0h0s-.1,.3-.1,.3h0s0,0,0,0v.2c0,0-.1,0-.1,0h0s0,0,0,0h0s0,0,0,0h0s0,0,0,0h0c-2.5,6.2-3.9,13-3.9,20.2,0,15,6.1,28.6,15.9,38.5,3.9,3.9,8.4,7.2,13.3,9.8,1.2-.4,2.4-.8,3.7-1.2-5.6-2.6-10.7-6.1-15.1-10.5-9.3-9.3-15.1-22.3-15.1-36.5s1.6-14.6,4.4-21l35.4-8.4-26.7-5-2.5-.5h-.7c0-.1,0-.2,0-.2h0s0,0,0,0h0s0,0,0,0h0s0,0,0,0h0s0,0,0,0h0s0,0,0,0h0s0,0,0,0h0s0,0,0,0h0s0,0,0,0h0s0,0,0,0h0s0,0,0,0h0s0,0,0,0h0s0,0,0,0h0s0,0,0,0h0s0,0,0,0h0s0,0,0,0h0s0,0,0,0h0s0,0,0,0h0s0,0,0,0h0s0,0,0,0h0s0,0,0,0h0s0,0,0,0h0s0,0,0,0h0s0,0,0,0h0s0,0,0,0h0s0,0,0,0h0s0,0,0,0h0s0,0,0,0h0s0,0,0,0h0s0,0,0,0h0s0,0,0,0h0s0,0,0,0h0s0,0,0,0h0s0,0,0,0h0s0,0,0,0h0s0,0,0,0h0s0,0,0,0h0s0,0,0,0h0s0,0,0,0h0s0,0,0,0h0s0,0,0,0h0s0,0,0,0h0s0,0,0,0h0s0,0,0,0h0s0,0,0,0h0s0,0,0,0h0s0,0,0,0h0s0,0,0,0h0s0,0,0,0h0s0,0,0,0h0s0,0,0,0h0c.4-.5,.9-.9,1.3-1.4C29.4,6.1,42.9,0,58,0h0Z" fill-rule="evenodd"/></svg>