<?xml version="1.0" encoding="UTF-8"?><svg id="Calque_1" xmlns="http://www.w3.org/2000/svg" viewBox="0 0 1080 1080"><rect x="686.6" y="821.2" width="323.1" height="100.4" transform="translate(949.2 -340.4) rotate(49)" fill="#fff"/><ellipse cx="952.6" cy="990.5" rx="53.2" ry="56.6" fill="#fff"/><circle cx="429.5" cy="395.6" r="314.8" fill="#fff"/><path d="M54.4,417.2C53.5,182.5,227.5,13.2,439.5,17.3c190.2,3.6,348.4,148.3,366.8,337.2,11.7,120-26.5,223.1-112.3,308-7.2,7.1-8.2,11.1-1.1,18.7,14.1,15.1,27.4,30.8,40.5,46.8,5.3,6.5,8.8,6.3,14.4,.6,6.4-6.6,14-12,20.6-18.4,8.6-8.5,15-5.4,22,2.4,35,39.4,70.2,78.6,105.5,117.7,37.3,41.4,75,82.6,112.2,124.1,17.7,19.7,22.2,42.7,12.7,67.4-9.3,24.3-27.9,38-53.7,40.6-22.9,2.3-42.3-6-57.4-23.3-50.5-57.9-101-115.9-151.4-173.9-20.5-23.5-40.5-47.5-61.3-70.6-8.4-9.4-7.8-15.9,1.4-24.1,8-7.1,22.5-12.2,21.9-22.3-.5-8.4-12.1-16.3-18.8-24.4-8.7-10.4-17.9-20.5-26.2-31.3-4.9-6.3-8.1-6.1-14.5-1.3-132.5,100.5-314.6,103.9-449.8,6.2-103.5-74.8-153.5-178.5-156.5-280.4ZM431.9,37c-193.8-1.9-354.9,157.2-356.9,352.7-2,194.8,155.2,355.9,349.5,358.2,199.2,2.3,361.2-153.5,363.3-349.5,2.2-199.5-155.2-359.3-355.9-361.3Zm533.6,1004c12.7-.6,26.5-7.9,34-24.4,7.9-17.3,5-33.7-7.6-47.7-69.5-77.5-139.3-154.6-208.7-232.1-5.4-6-8.4-4.7-13.4,0-15.6,14.2-31.3,28.2-47.5,41.7-5.6,4.7-5.1,7.5-.7,12.4,11.8,13,23.1,26.4,34.7,39.7,55,63.3,110.1,126.5,165,189.9,10.5,12.2,22.4,20.9,44.3,20.6Z" fill="#fff"/><path d="M460.6,484.2c0,14.2-.4,28.4,.1,42.6,.3,9.4-2.3,14.2-12.7,14-44.9-.8-35.4,4.5-36.4-34.5-.1-4.9,0-9.8-.1-14.7-.2-16.3-12.4-15.2-22.9-15.2-15.1,0-42.9-4.9-42.9,14.8-1.9,9.4-1.2,19.7-.2,29.4,1.7,15.4-3.4,21.3-19.7,20.5-34.1-1.8-29.4,4.6-29.7-29.6-.2-20.7,0-41.5,0-62.2,0-4.3,1.1-10.1-1.2-12.8-13.6-16.4,.8-21.8,10.6-28.9,20.8-15,42-29.5,62.5-44.8,7.8-5.9,13.9-6.3,21.8-.3,24,18,48.3,35.6,72.7,53,6.7,4.8,9.9,8.3,1.1,14.1-4.1,2.7-3,7.9-3.1,12.2,0,14.2,0,28.4,0,42.6h.2Zm-111.8-60.8c0,17.3,12.5,30.5,29.2,30.5,17.3,0,30-12.4,30.2-29.6,.2-16.6-13.1-30.3-29.6-30.3-17.8,0-29.8,11.7-29.9,29.4Z" fill="#cba052"/><path d="M623.6,445c-.6-3-1.5-5.5-1.6-8.1-.4-6-3.9-9.3-9.4-9.3-6.4,0-7.7,5.2-7.7,10.4-.2,13.1-.5,26.2,0,39.3,.4,12-4.3,12.9-13.7,7.9-22.3-11.8-27.8-34.2-12.3-54.6,5-6.6,6.9-12.4,4.4-21-4.3-14.4,.2-27,12.8-35.9,11.5-8.2,23.9-8.3,35.2-.7,12.8,8.6,16.5,22.2,12.1,36.2-2.8,9.1,.6,14,5.6,20.3,14.8,18.7,8.6,46.5-12.6,57.3-4.1,2.1-9.4,5.9-13.1,.3-2.8-4.2-1.9-9.7,1.7-13.7,3.3-3.6,7.2-6.7,10.7-10.1,5.4-5.4,12.2-11.1,7.1-19.6-5.7-9.6-12.2,1.4-19.2,1.2Z" fill="#cba052"/><path d="M433.7,205.4c-6.6,0-13.3,.1-19.9,.2q-38,3.2-38.3,44.3c-.1,20.3-.1,40.6,0,60.9,0,6.5,.7,13.3,8.9,13.3,8.4,0,10.7-5.8,10.6-13.7-.2-24.3,.2-48.5-.3-72.8-.2-8.6,2.1-11.9,10.9-11.7,24.5,.6,49.1,.6,73.7,0,10-.3,11.6,4.1,11.5,13-.3,47.4-.2,94.8-.2,142.2,0,5,0,10.2,1.1,15.1,1.1,5,5.1,7.3,10,6.8,4.8-.5,8.2-3.2,8.4-8.6,.2-5.1,0-10.1,0-15.2,0-50.2,0-100.4,0-150.6,0-22.1-.3-22.3-22.2-22.4-18-.1-36-.5-54-.7Z" fill="#125eb8"/><path d="M521.2,234c.1-25.6-3-23.6,23.4-23.5,25,.1,23.7-3.7,23.9,24.3,.2,24.2,2,23.1-23,23.1-28.8,0-24,.3-24.4-24Zm23.8-10.4c-8.9-1.9-11,2.3-10.9,10.7,0,8.6,3.1,11.3,11.5,11.3,9,0,10.7-3.9,11-11.8,.4-9.1-3.3-11.8-11.5-10.2Z" fill="#125eb8"/><path d="M521.1,289.2c.2-26.7-3.5-23.6,23.9-23.8,25.8-.2,23.3-1.6,23.5,23.7,.3,27.9,1.4,24.3-24.8,24.4-26.3,0-22.3,1.6-22.7-24.3Zm23.5,12.5c10.2,2.6,11.9-2.6,12-11.1,0-8.6-.9-13.9-11.6-12.8-7.2,.7-13.6-.5-12.9,10.4,.6,9,.3,16.8,12.5,13.5Z" fill="#125eb8"/><path d="M567.1,322.3c.5,4.3,1,8.7,1.6,13-1.3,8.1-1.5,16.1,.3,24.1-.4,1.5-.8,3-1.2,4.5-.6,.5-.9,1.1-.9,1.8,0,0,.2-.1,.2-.1-12.2,3-24.9-.5-37.1,2.2-1.5-.3-3-.6-4.6-.9-.7-.3-1.3-.6-2-.9-.5-.7-1.1-1.4-1.6-2.2-.2-11.6-.4-23.2-.6-34.8,0-4.5,1.2-8.7,6.1-8.6,13.3,.2,26.8-2.7,39.8,1.9Zm-23.2,32.6c8.8,1.4,12.5-1.8,12.6-11.2,.1-8.8-2.8-11.4-11.2-10.8-10.4,.6-13.3,3.5-12.7,15.9,.4,8.1,6.8,5.6,11.3,6.1Z" fill="#cba052"/><path d="M454,262c-1.5,8,2.6,9.2,9.3,9.5,8.9,.4,9.3-4.5,9.5-11.6,.2-7.7-3-9.3-9.7-9.5-9-.4-9.9,4.6-9,11.6Z" fill="#125eb8"/><path d="M453.9,307.5c-.7,6.6,1,10.3,8.6,10.4,8.2,.2,9.8-3.6,10-11,.3-8.5-3.4-10.2-10.7-10.2-8.1,0-8.5,4.8-8,10.9Z" fill="#cba052"/><path d="M414.3,260.8c-1.6,8.2,2.2,10.5,9.7,10.3,6.8-.2,9.5-2.4,9.5-9.6,0-7.1-.9-11.4-9.4-11.3-7.7,0-11.1,2.5-9.8,10.7Z" fill="#125eb8"/><path d="M521.4,349.7c.8,.3,1.6,.7,2.4,1-1.3,.9-2,.2-2.4-1Z" fill="#f4eaf5"/><path d="M573.6,349.4c0-.9,.4-1.6,1.1-2.2,0,.7,.1,1.3,0,2,0,.1-.8,.2-1.2,.2Z" fill="#f4eaf5"/><path d="M574.9,365.4c-.6-.7-.9-1.4-1.1-2.3,.6,.4,1.2,.8,1.7,1.3,0,0-.4,.6-.6,1Z" fill="#f4eaf5"/><path d="M434.3,584.1c16.7,0,33.3,0,50,0,5.6,0,11.1,.4,11.3,7.7,.2,7.3-5,8.2-10.8,8.2-33.8,0-67.6,0-101.3,0-5.6,0-11.5-1.1-11.6-7.8,0-7.7,6.4-8.2,12.4-8.2,16.7,0,33.3,0,50,0Z" fill="#cba052"/><path d="M577.8,584c13.6,0,27.2,0,40.8,0,5.9,0,10.9,1.3,10.9,8.3,0,6.4-5,7.5-10.2,7.5-27.6,0-55.2,0-82.9,0-5.4,0-9.9-1.6-10.2-7.7-.3-7.5,5.2-7.9,10.9-7.8,13.6,0,27.2,0,40.8,0v-.2Z" fill="#125eb8"/><path d="M289.2,599.9c-13.1,0-26.2-.1-39.3,0-6.2,0-12.3-.7-12.1-8.3,0-6.8,5.9-7.6,11.5-7.6,26.7,0,53.3,0,80-.2,5.7,0,11,1,10.7,8.2-.2,7.4-6,7.5-11.4,7.5-13.1,0-26.2,0-39.3,0v.2Z" fill="#125eb8"/><path d="M348.2,423.6c0-18.1,12.3-30.2,30.6-30.1,16.9,0,30.5,14,30.3,31.1-.2,17.6-13.3,30.3-31,30.3-17.1,0-30-13.5-29.9-31.2Zm30.6,12.9c7.4-1.3,12.6-5.3,12-13.1-.6-6.5-4.9-11.8-11.9-11.7-7.5,0-12.8,4.7-13,12.4-.2,8,5.3,11.6,12.9,12.4Z" fill="#125eb8"/><path d="M436.2,70.4c-183.4,0-328.2,142.2-328.2,322.3,0,179.5,144.4,322,325.9,321.7,177.8-.3,321.3-144.4,321.1-322.4-.2-175.2-145.3-321.5-318.7-321.6Zm248.8,489.5c-59.7,82.4-136.9,128.9-235.6,134-113.3,5.9-202.8-40.6-272.4-134h7.1v-15.9c-7,1-14.7,2.9-19.6-6.6-16.1-31.1-27.3-63.7-32.6-98.2-23.3-153.7,70.6-297.5,220.5-338.1,174.3-47.2,352.8,68.5,379.4,246.5,9.7,65.2-1.1,127.6-31.4,186.4-1.3,2.5-2.7,4.6-4.2,6.2l-11.4,19.7h.3Z" fill="#fff"/><path d="M684.7,540.8c-16.3-1-32.8-.3-49.1-.5-5.7,0-13.8,1.6-12.4-8,1.2-8.4-6.9-20.4,8.3-24.4,13-3.4,23.9-10.3,32.4-21,14.5-18.1,16.1-39.4,3.7-61-3.9-6.8-6.3-12.7-5.2-21.2,2.6-19.9-4.6-36.5-21.9-47.7-17.2-11.2-35.2-11.3-52.5-.7-17.8,10.9-25.5,27.9-24.6,48.6,.2,5.8,2,10.8-1.7,17-20.7,33.9-8.8,67.7,28.7,83.5,6.1,2.6,13.3,2.9,13.9,13.1,1.1,20.2,.8,21.4-19.4,21.4-30.6,0-61.2-.5-91.8,.2-11.7,.3-15-3.7-14.6-15,.7-22.9,.6-45.9,0-68.8-.3-10.6,3.3-14.6,14-13.8,6.5,.5,15.2,3.2,18.2-6.3,3-9.5-6-11.8-11.3-15.7-35.1-26-70.6-51.5-105.4-77.8-10.8-8.2-19.4-8.4-30.3-.3-35,26.1-70.6,51.4-105.8,77.2-5.4,4-13.5,7.3-11.3,16.2,2.5,9.7,11.4,7.2,17.9,6.8,10.2-.6,13,3.1,12.7,13.1-.8,23.5-.8,47,0,70.4,.3,10.4-2.3,14.2-13.4,14.4-19.8,.4-98.8,1.7-105.1-1.9l12.6,21.4c153.3,0,360.5-.2,514.8-.2l13.2-22.9c-3.6,3-8.2,4.3-14.5,3.9Zm-291.8-26.2c0,26.5-1.5,26.5-17.1,26.5s-13.2-4.2-13.2-14.5,0-9.9,0-14.7c0-19.4,3.7-18.1,17.8-18.4,14.3,0,12.4,7,12.4,21.1Zm70.7-85.2c-4.1,2.7-3,7.9-3.1,12.2,0,14.2,0,28.4,0,42.6h.2c0,14.2-.4,28.4,.1,42.6,.3,9.4-2.3,14.2-12.7,14-44.9-.8-35.4,4.5-36.4-34.5-.1-4.9,0-9.8-.1-14.7-.2-16.3-11.8-15.2-22.9-15.2s-42.9-5.2-42.9,14.8c-1.9,9.4-1.2,19.7-.2,29.4,1.7,15.4-3.4,21.3-19.7,20.5-34.1-1.8-29.4,4.6-29.7-29.6-.2-20.7,0-41.5,0-62.2,0-4.3,1.1-10.1-1.2-12.8-13.6-16.4,.8-21.8,10.6-28.9,20.8-15,42-29.5,62.5-44.8,7.8-5.9,13.9-6.3,21.8-.3,24,18,48.3,35.6,72.7,53,6.7,4.8,9.9,8.3,1.1,14.1Zm179.2,14.4c-5.7-9.6-12.2,1.4-19.2,1.2-.6-3-1.5-5.5-1.6-8.1-.4-6-3.9-9.3-9.4-9.3-6.4,0-7.7,5.2-7.7,10.4-.2,13.1-.5,26.2,0,39.3,.4,12-4.3,12.9-13.7,7.9-22.3-11.8-27.8-34.2-12.3-54.6,5-6.6,6.9-12.4,4.4-21-4.3-14.4,.2-27,12.8-35.9,11.5-8.2,23.9-8.3,35.2-.7,12.8,8.6,16.5,22.2,12.1,36.2-2.8,9.1,.6,14,5.6,20.3,14.8,18.7,8.6,46.5-12.6,57.3-4.1,2.1-9.4,5.9-13.1,.3-2.8-4.2-1.9-9.7,1.7-13.7,3.3-3.6,7.2-6.7,10.7-10.1,5.4-5.4,12.2-11.1,7.1-19.6Z" fill="#125eb8"/><g><path d="M195.1,430.7c-.6,0-1.1-.5-1.1-1.1v-7.6c0-.6,.5-1.1,1.1-1.1h10.6v-6.7c0-.6,.5-1.1,1.1-1.1h7.6c.6,0,1.1,.5,1.1,1.1v6.7h10.6c.6,0,1.1,.5,1.1,1.1v7.6c0,.6-.5,1.1-1.1,1.1h-30.9Z" fill="#125eb8"/><polygon points="225.9 422 214.3 422 214.3 414.2 206.7 414.2 206.7 422 195.1 422 195.1 429.6 225.9 429.6 225.9 422" fill="#125eb8"/><path d="M283.5,334.3c-11.6,0-21.4-8.1-23.7-19.3h-3c-.6,0-1.1-.5-1.1-1.1v-10.5h-6.7c-.6,0-1.1-.5-1.1-1.1v-7.6c0-.6,.5-1.1,1.1-1.1h61.4c.6,0,1.1,.5,1.1,1.1v19.1c0,.6-.5,1.1-1.1,1.1h-3.3c-2.3,11.2-12.1,19.3-23.7,19.3Zm-13.6-19.3c2,5.7,7.4,9.5,13.6,9.5s11.5-3.9,13.6-9.5h-27.1Zm31.8-9.7v-1.8h-36.3v1.8h36.3Z" fill="#cba052"/><path d="M206.7,411.5c-.6,0-1.1-.5-1.1-1.1v-92.6c0-13.3,10.8-24.2,24.2-24.2h15.4c.6,0,1.1,.5,1.1,1.1v7.6c0,.6-.5,1.1-1.1,1.1h-15.4c-7.9,0-14.4,6.5-14.4,14.4v92.6c0,.6-.5,1.1-1.1,1.1h-7.6Z" fill="#125eb8"/><path d="M206.7,317.8v92.6h7.6v-92.6c0-8.5,7-15.5,15.5-15.5h15.4v-7.6h-15.4c-12.7,0-23.1,10.3-23.1,23.1Z" fill="#125eb8"/><path d="M183.5,542.5c-.6,0-1.1-.5-1.1-1.1v-7.6c0-.6,.5-1.1,1.1-1.1h10.6v-99.2c0-.6,.5-1.1,1.1-1.1h30.7c.6,0,1.1,.5,1.1,1.1v99.2h10.5c.6,0,1.1,.5,1.1,1.1v7.6c0,.6-.5,1.1-1.1,1.1h-54Zm33.7-9.7v-13.4h-13.4v13.4h13.4Zm0-23.1v-67.4h-13.4v67.4h13.4Z" fill="#125eb8"/><path d="M225.8,433.6h-30.7v100.3h-11.6v7.6h54v-7.6h-11.6v-100.3h0Zm-7.6,100.3h-15.6v-15.6h15.6v15.6Zm0-23.1h-15.6v-69.6h15.6v69.6Z" fill="#125eb8"/></g></svg>